<?xml version="1.0" encoding="UTF-8"?>
<svg id="Camada_2" data-name="Camada 2" xmlns="http://www.w3.org/2000/svg" viewBox="0 0 448.58 190.03">
  <defs>
    <style>
      .cls-1 {
        fill: #fff;
        stroke-width: 0px;
      }
    </style>
  </defs>
  <g id="Layer_1" data-name="Layer 1">
    <path class="cls-1" d="m105.06,57.61c-2.77,11.24-9.62,20.88-18.92,27.23-7.45,5.09-16.46,8.07-26.16,8.07-.07,0-.15,0-.23,0-.27,0-.54-.01-.81-.02-10.23-.23-19.65-3.76-27.22-9.58-10.41-8-17.33-20.29-18.11-34.24-.05-.87-.08-1.74-.08-2.61,0-8.84,2.47-17.11,6.76-24.15C28.45,8.93,43.17,0,59.98,0c15.7,0,29.56,7.81,37.96,19.73-7.36-4.63-15.76-7.18-24.57-7.37h-.36c-.24-.02-.48-.03-.72-.03-1.47,0-2.94.08-4.41.22-2.54-.59-5.18-.94-7.9-.94-4.71,0-9.2.94-13.29,2.63-7.66,3.16-13.94,8.98-17.7,16.31-2.46,4.77-3.84,10.17-3.84,15.9,0,2.94.37,5.8,1.05,8.53,2.15,8.52,7.43,15.79,14.56,20.52,5.51,3.65,12.12,5.79,19.23,5.79,6.37,0,12.33-1.72,17.46-4.69,7.09-4.12,12.6-10.67,15.38-18.52,1.29-3.63,1.99-7.54,1.99-11.62s-.68-7.86-1.93-11.45c5.6,4.48,9.58,10.64,11.34,17.62.41,1.63.68,3.3.84,4.98ZM59.37,16.08c-2.44-.71-4.97-1.19-7.55-1.49-1.49.38-2.96.83-4.4,1.42-6.34,2.62-11.7,7.17-15.33,12.96,2.83-1.29,5.85-2.22,9.02-2.71,5.16-4.68,11.38-8.2,18.26-10.19Zm21.92,44.62c0,5.66-1.36,10.99-3.75,15.71l.09.07c7-4.13,12.45-10.63,15.2-18.41-.7-12.6-6.42-23.86-15.19-31.81-1.74-.27-3.52-.41-5.34-.41-4.57,0-8.92.89-12.92,2.49,12.84,5.13,21.92,17.68,21.92,32.35Zm-16.87,33.9c2.54.59,5.16.94,7.88.94,1.82,0,3.6-.14,5.34-.41,2.13-1.93,4.06-4.08,5.81-6.37-5.87,3.26-12.32,5.24-19.02,5.84ZM11.61,60.7c0-2.24.23-4.43.64-6.56-.26-1.64-.45-3.29-.55-4.96-.05-.9-.08-1.81-.08-2.72,0-7.43,1.72-14.71,4.97-21.32C6.46,33.66,0,46.42,0,60.7c0,25.66,20.8,46.46,46.45,46.46,4.48,0,8.82-.65,12.92-1.84-6.88-1.99-13.1-5.51-18.26-10.19-16.71-2.57-29.5-17.01-29.5-34.43ZM100.56,23.84c-7.58-5.82-17-9.35-27.23-9.57-.35,0-.69-.03-1.04-.03-4.48,0-8.82.65-12.92,1.84-6.88,1.99-13.1,5.51-18.26,10.19-6.69,6.06-11.58,14.05-13.85,23.08.15,1.74.43,3.48.85,5.18,1.75,6.93,5.7,13.06,11.24,17.54-1.23-3.56-1.91-7.39-1.91-11.37,0-14.67,9.08-27.22,21.92-32.35,4-1.59,8.36-2.49,12.92-2.49,1.82,0,3.6.14,5.34.41,5.07.78,9.78,2.66,13.89,5.38,7.12,4.72,12.41,11.99,14.56,20.51.69,2.73,1.06,5.59,1.06,8.54,0,17.42-12.79,31.86-29.5,34.43-1.74.27-3.52.41-5.34.41-2.71,0-5.34-.35-7.88-.94-1.45.13-2.9.22-4.37.22l-1.08-.03c-8.86-.19-17.3-2.76-24.68-7.43,1.99,2.83,4.26,5.45,6.82,7.77,5.16,4.68,11.38,8.2,18.26,10.19,4.1,1.18,8.44,1.84,12.92,1.84,25.65,0,46.45-20.8,46.45-46.46,0-15.01-7.13-28.36-18.19-36.85Zm60.94,107.01c0-8.19-2.89-15.16-8.66-20.93-5.77-5.76-12.74-8.65-20.93-8.65s-15.17,2.89-20.94,8.65c-5.77,5.77-8.65,12.75-8.65,20.93s2.88,15.17,8.65,20.94c5.77,5.77,12.75,8.66,20.94,8.66,6.39,0,12.02-1.75,16.91-5.22v5.22h12.68v-29.59Zm-17.63-11.95c3.3,3.3,4.95,7.29,4.95,11.95s-1.65,8.65-4.95,11.96c-3.3,3.3-7.29,4.95-11.96,4.95s-8.65-1.65-11.95-4.95c-3.3-3.31-4.95-7.29-4.95-11.96s1.65-8.65,4.95-11.95c3.3-3.3,7.29-4.95,11.95-4.95s8.66,1.65,11.96,4.95Zm67.82,41.55c0,4.66-1.65,8.65-4.95,11.95-3.3,3.3-7.29,4.95-11.96,4.95v12.68c8.19,0,15.17-2.89,20.94-8.65,5.77-5.77,8.66-12.75,8.66-20.93v-29.59c0-8.19-2.88-15.17-8.66-20.94-5.77-5.77-12.74-8.65-20.94-8.65s-15.17,2.88-20.94,8.65c-5.77,5.77-8.65,12.75-8.65,20.94s2.88,15.17,8.65,20.94c5.77,5.77,12.75,8.65,20.94,8.65,6.39,0,12.02-1.74,16.91-5.22v5.22Zm-28.86-17.64c-3.3-3.3-4.95-7.29-4.95-11.95s1.65-8.66,4.95-11.96c3.3-3.31,7.29-4.95,11.95-4.95s8.66,1.65,11.96,4.95c3.3,3.3,4.95,7.29,4.95,11.96s-1.65,8.65-4.95,11.95c-3.3,3.3-7.29,4.96-11.96,4.96s-8.65-1.65-11.95-4.96Zm45.24,17.64h12.68v-29.59c0-4.67,1.65-8.66,4.95-11.96,3.3-3.31,7.29-4.95,11.95-4.95v-12.68c-8.19,0-15.17,2.88-20.94,8.65-5.77,5.77-8.65,12.75-8.65,20.94v29.59Zm79.05-8.65c5.77-5.77,8.65-12.75,8.65-20.94s-2.88-15.17-8.65-20.94c-5.77-5.77-12.75-8.65-20.94-8.65s-15.17,2.88-20.94,8.65c-5.77,5.77-8.65,12.75-8.65,20.94s2.89,15.17,8.65,20.94c5.77,5.77,12.75,8.65,20.94,8.65s15.17-2.88,20.94-8.65Zm-20.94-4.03c-4.67,0-8.65-1.65-11.95-4.96-3.3-3.3-4.95-7.29-4.95-11.95s1.65-8.66,4.95-11.96c3.3-3.31,7.29-4.95,11.95-4.95s8.65,1.65,11.95,4.95c3.3,3.3,4.96,7.29,4.96,11.96s-1.65,8.65-4.96,11.95c-3.3,3.3-7.29,4.96-11.95,4.96Zm86.85,12.68c0,4.66-1.65,8.65-4.95,11.95-3.3,3.3-7.29,4.95-11.96,4.95v12.68c8.19,0,15.17-2.89,20.94-8.65,5.77-5.77,8.65-12.75,8.65-20.93v-29.59c0-8.19-2.88-15.17-8.65-20.94-5.77-5.77-12.75-8.65-20.94-8.65s-15.17,2.88-20.94,8.65c-5.77,5.77-8.65,12.75-8.65,20.94s2.88,15.17,8.65,20.94c5.77,5.77,12.75,8.65,20.94,8.65,6.39,0,12.02-1.74,16.91-5.22v5.22Zm-28.86-17.64c-3.3-3.3-4.95-7.29-4.95-11.95s1.65-8.66,4.95-11.96c3.3-3.31,7.29-4.95,11.95-4.95s8.66,1.65,11.96,4.95c3.3,3.3,4.95,7.29,4.95,11.96s-1.65,8.65-4.95,11.95c-3.3,3.3-7.29,4.96-11.96,4.96s-8.65-1.65-11.95-4.96Zm104.41-11.95c0,8.19-2.88,15.16-8.65,20.93-5.77,5.77-12.75,8.65-20.94,8.65s-15.17-2.89-20.94-8.65c-5.77-5.77-8.65-12.75-8.65-20.93v-60.05h12.68v35.67c4.89-3.48,10.52-5.22,16.91-5.22,8.19,0,15.17,2.89,20.94,8.65,5.77,5.77,8.65,12.75,8.65,20.94Zm-12.68,0c0-4.67-1.65-8.66-4.95-11.96-3.3-3.3-7.29-4.95-11.95-4.95s-8.65,1.65-11.96,4.95c-3.3,3.3-4.95,7.29-4.95,11.96s1.65,8.65,4.95,11.95c3.3,3.3,7.29,4.95,11.96,4.95s8.65-1.65,11.95-4.95c3.3-3.3,4.95-7.29,4.95-11.95Z"/>
  </g>
</svg>