<?xml version="1.0" encoding="UTF-8"?>
<svg xmlns="http://www.w3.org/2000/svg" viewBox="0 0 118.75 107.15">
  <defs>
    <style>
      .cls-1 {
        isolation: isolate;
      }

      .cls-2 {
        fill: #52ae32;
      }

      .cls-2, .cls-3, .cls-4, .cls-5, .cls-6 {
        stroke-width: 0px;
      }

      .cls-3 {
        fill: none;
      }

      .cls-4 {
        fill: #d7db2d;
      }

      .cls-4, .cls-5 {
        mix-blend-mode: multiply;
      }

      .cls-5 {
        fill: #78b829;
      }

      .cls-6 {
        fill: #00a13a;
      }
    </style>
  </defs>
  <g class="cls-1">
    <g id="Camada_2" data-name="Camada 2">
      <g id="Layer_1" data-name="Layer 1">
        <path class="cls-3" d="m26.2,54.99c1.39-11.34,6.86-21.43,14.91-28.72-4.36.67-8.45,2.16-12.12,4.29-2.46,4.77-3.84,10.17-3.84,15.9,0,2.94.37,5.8,1.05,8.53Z"/>
        <path class="cls-3" d="m72.29,14.24c.35,0,.69.02,1.04.03-4.11-1.71-8.62-2.65-13.35-2.65s-9.2.94-13.29,2.63c4.4.02,8.65.66,12.68,1.83,4.1-1.19,8.44-1.84,12.92-1.84Z"/>
        <path class="cls-3" d="m31.72,83.3c-10.41-8-17.33-20.29-18.11-34.23-1.29,3.64-2,7.55-2,11.63,0,17.42,12.79,31.86,29.5,34.43-3.75-3.39-6.92-7.39-9.4-11.82Z"/>
        <path class="cls-3" d="m86.14,84.83c-2.33,3.83-5.21,7.3-8.51,10.29,16.71-2.57,29.5-17.01,29.5-34.43,0-2.95-.37-5.8-1.06-8.54-1.66,13.57-9.16,25.33-19.93,32.68Z"/>
        <path class="cls-3" d="m92.83,58.07c1.29-3.63,1.99-7.54,1.99-11.62,0-5.29-1.19-10.31-3.3-14.81-4.1-2.72-8.81-4.6-13.89-5.38,8.78,7.95,14.5,19.21,15.19,31.81Z"/>
        <path class="cls-3" d="m37.45,60.69c0,5.3,1.19,10.31,3.3,14.81,5.51,3.65,12.12,5.79,19.23,5.79,6.37,0,12.33-1.72,17.46-4.7,2.45-4.77,3.84-10.17,3.84-15.9,0-14.67-9.08-27.22-21.92-32.35-12.84,5.13-21.92,17.68-21.92,32.35Z"/>
        <path class="cls-3" d="m58.94,92.88c.14.06.29.11.43.17.12-.05.26-.1.38-.15-.27,0-.54-.01-.81-.02Z"/>
        <path class="cls-5" d="m77.45,76.6c-5.13,2.98-11.1,4.7-17.46,4.7-7.11,0-13.72-2.13-19.23-5.79,3.68,7.82,10.18,14.04,18.18,17.38.27,0,.54.02.81.02,7.66-3.16,13.93-8.98,17.69-16.3Z"/>
        <path class="cls-5" d="m31.72,83.3c-3.74-6.69-5.87-14.4-5.87-22.61,0-1.94.13-3.84.36-5.71-.68-2.73-1.05-5.59-1.05-8.53,0-5.73,1.39-11.13,3.84-15.9-7.09,4.12-12.6,10.67-15.38,18.51.78,13.94,7.7,26.24,18.11,34.23Z"/>
        <path class="cls-5" d="m91.52,31.64c2.12,4.5,3.3,9.51,3.3,14.81,0,4.08-.71,7.99-1.99,11.62.05.87.08,1.74.08,2.62,0,8.84-2.47,17.11-6.76,24.14,10.77-7.35,18.27-19.11,19.93-32.68-2.15-8.52-7.43-15.79-14.56-20.51Z"/>
        <path class="cls-5" d="m46.69,14.25c4.09-1.69,8.58-2.63,13.29-2.63s9.23.95,13.35,2.65c10.23.22,19.65,3.75,27.23,9.57C92.62,9.62,77.43,0,59.98,0S28.45,8.93,20.3,22.31c7.45-5.08,16.45-8.07,26.16-8.07.08,0,.16,0,.24,0Z"/>
        <path class="cls-5" d="m40.76,75.5c-2.12-4.5-3.3-9.51-3.3-14.81,0-14.67,9.08-27.22,21.92-32.35-4-1.59-8.35-2.49-12.92-2.49-1.82,0-3.6.14-5.34.41-8.05,7.29-13.52,17.38-14.91,28.72,2.15,8.52,7.43,15.79,14.56,20.52Z"/>
        <path class="cls-5" d="m31.72,83.3c2.47,4.44,5.65,8.43,9.4,11.82,1.74.27,3.52.41,5.33.41,4.57,0,8.92-.89,12.92-2.48-.14-.06-.29-.11-.43-.17-10.23-.23-19.65-3.75-27.22-9.58Z"/>
        <path class="cls-5" d="m100.56,23.84c3.74,6.7,5.88,14.4,5.88,22.61,0,1.93-.13,3.83-.36,5.7.69,2.73,1.06,5.59,1.06,8.54,0,17.42-12.79,31.86-29.5,34.43-5.16,4.68-11.38,8.2-18.26,10.19,4.1,1.18,8.44,1.84,12.92,1.84,25.65,0,46.45-20.8,46.45-46.46,0-15.01-7.13-28.36-18.19-36.85Z"/>
        <path class="cls-5" d="m59.37,16.08c6.88,1.99,13.1,5.51,18.26,10.19,5.07.78,9.78,2.66,13.89,5.38-3.68-7.82-10.18-14.05-18.19-17.38-.35,0-.69-.03-1.04-.03-4.48,0-8.82.65-12.92,1.84Z"/>
        <path class="cls-6" d="m40.76,75.5c-7.12-4.73-12.41-12-14.56-20.52-.23,1.87-.36,3.77-.36,5.71,0,8.21,2.14,15.92,5.87,22.61,7.57,5.82,16.99,9.35,27.22,9.58-8.01-3.33-14.51-9.55-18.18-17.38Z"/>
        <path class="cls-6" d="m91.52,31.64c7.12,4.72,12.41,11.99,14.56,20.51.23-1.87.36-3.77.36-5.7,0-8.21-2.14-15.92-5.88-22.61-7.58-5.82-17-9.35-27.23-9.57,8.01,3.33,14.51,9.55,18.19,17.38Z"/>
        <path class="cls-4" d="m77.63,26.26c-1.74-.27-3.52-.41-5.34-.41-4.57,0-8.92.89-12.92,2.49,12.84,5.13,21.92,17.68,21.92,32.35,0,5.73-1.39,11.13-3.84,15.9,7.09-4.12,12.6-10.67,15.38-18.52-.7-12.6-6.42-23.86-15.19-31.81Z"/>
        <path class="cls-4" d="m11.61,60.69c0-4.08.71-7.99,2-11.63-.05-.87-.08-1.74-.08-2.61,0-8.84,2.47-17.11,6.76-24.15C8.05,30.67,0,44.74,0,60.69c0,25.66,20.8,46.46,46.45,46.46,4.48,0,8.82-.65,12.92-1.84-6.88-1.99-13.1-5.51-18.26-10.19-16.71-2.57-29.5-17.01-29.5-34.43Z"/>
        <path class="cls-4" d="m86.14,84.83c-7.45,5.09-16.46,8.07-26.16,8.07-.07,0-.15,0-.23,0-.13.06-.26.1-.38.15,4,1.6,8.36,2.48,12.92,2.48,1.82,0,3.6-.14,5.34-.41,3.31-3,6.18-6.46,8.51-10.29Z"/>
        <path class="cls-4" d="m59.37,16.08c-4.03-1.17-8.28-1.81-12.68-1.83-7.66,3.16-13.94,8.98-17.7,16.31,3.67-2.13,7.76-3.62,12.12-4.29,5.16-4.68,11.38-8.2,18.26-10.19Z"/>
        <path class="cls-2" d="m77.45,76.6c-3.76,7.32-10.04,13.13-17.69,16.3.08,0,.15,0,.23,0,9.71,0,18.71-2.98,26.16-8.07,4.29-7.03,6.76-15.3,6.76-24.14,0-.88-.03-1.75-.08-2.62-2.78,7.85-8.29,14.4-15.38,18.52Z"/>
        <path class="cls-2" d="m13.61,49.07c2.78-7.84,8.29-14.39,15.38-18.51,3.76-7.33,10.04-13.14,17.7-16.31-.08,0-.16,0-.24,0-9.7,0-18.7,2.98-26.16,8.07-4.29,7.04-6.76,15.3-6.76,24.15,0,.88.03,1.75.08,2.61Z"/>
        <path class="cls-2" d="m72.29,95.53c-4.57,0-8.92-.89-12.92-2.48-4,1.6-8.35,2.48-12.92,2.48-1.82,0-3.59-.14-5.33-.41,5.16,4.68,11.38,8.2,18.26,10.19,6.88-1.99,13.1-5.51,18.26-10.19-1.74.27-3.52.41-5.34.41Z"/>
        <path class="cls-2" d="m59.37,28.34c4-1.59,8.36-2.49,12.92-2.49,1.82,0,3.6.14,5.34.41-5.16-4.68-11.38-8.2-18.26-10.19-6.88,1.99-13.1,5.51-18.26,10.19,1.74-.27,3.52-.41,5.34-.41,4.57,0,8.92.89,12.92,2.49Z"/>
      </g>
    </g>
  </g>
</svg>