<?xml version="1.0" encoding="UTF-8"?>
<!DOCTYPE svg PUBLIC "-//W3C//DTD SVG 1.1//EN" "http://www.w3.org/Graphics/SVG/1.1/DTD/svg11.dtd">
<!-- Creator: CorelDRAW 2018 (64-Bit Evaluation Version) -->
<svg xmlns="http://www.w3.org/2000/svg" xml:space="preserve" width="30.2382mm" height="25.9372mm" version="1.1" shape-rendering="geometricPrecision" text-rendering="geometricPrecision" image-rendering="optimizeQuality" fill-rule="evenodd" clip-rule="evenodd"
viewBox="0 0 45.18 38.76"
 xmlns:xlink="http://www.w3.org/1999/xlink">
 <g id="Layer_x0020_1">
  <metadata id="CorelCorpID_0Corel-Layer"/>
  <path fill="black" d="M31.66 34.19c-1.71,0 -3.35,-0.38 -4.85,-1.08 6.06,-2.89 7.53,-10.29 7.53,-10.29 -4.33,1.06 -7.14,2.69 -9,4.4 0.55,-5.79 -3.4,-10.66 -3.4,-10.66 -1.99,4.08 -2.52,7.33 -2.37,9.86 -1.69,-1.49 -4.05,-2.96 -7.46,-4.14 0,0 0.73,7.19 6.16,10.72 -1.48,0.67 -3.09,1.04 -4.75,1.04 -6.36,0 -11.52,-5.17 -11.52,-11.52 0,-5.25 3.55,-9.83 8.64,-11.14l0.57 -0.15 0.15 -0.57c1.31,-5.09 5.89,-8.65 11.15,-8.65 5.31,0 9.9,3.6 11.17,8.76l0.15 0.59 0.59 0.15c5.16,1.27 8.77,5.86 8.77,11.17 0,6.36 -5.16,11.52 -11.51,11.52l-0 -0zm3.81 -24.48c-1.68,-5.75 -6.92,-9.71 -12.96,-9.71 -5.97,0 -11.2,3.91 -12.93,9.59 -5.67,1.72 -9.58,6.95 -9.58,12.92 0,7.46 6.07,13.52 13.52,13.52 2.49,0 4.88,-0.67 6.95,-1.93 0.17,0.07 0.4,0.12 0.62,0.18l0 3.48c0,0.55 0.45,1 1,1 0.55,0 1,-0.45 1,-1l0 -3.36c0.42,-0.07 0.83,-0.18 1.15,-0.44 2.18,1.45 4.73,2.23 7.42,2.23 7.46,0 13.52,-6.06 13.52,-13.52 0,-6.03 -3.97,-11.28 -9.71,-12.96l-0 -0z"/>
 </g>
</svg>
