<?xml version="1.0" encoding="UTF-8"?>
<!DOCTYPE svg PUBLIC "-//W3C//DTD SVG 1.1//EN" "http://www.w3.org/Graphics/SVG/1.1/DTD/svg11.dtd">
<!-- Creator: CorelDRAW 2018 (64-Bit Evaluation Version) -->
<svg xmlns="http://www.w3.org/2000/svg" xml:space="preserve" width="13.234mm" height="30.2382mm" version="1.1" shape-rendering="geometricPrecision" text-rendering="geometricPrecision" image-rendering="optimizeQuality" fill-rule="evenodd" clip-rule="evenodd"
viewBox="0 0 74.99 171.35"
 xmlns:xlink="http://www.w3.org/1999/xlink">
 <g id="Layer_x0020_1">
  <metadata id="CorelCorpID_0Corel-Layer"/>
  <path fill="white" d="M49 106.33c0.52,0.52 1.2,0.78 1.89,0.78 0.69,0 1.37,-0.26 1.89,-0.78l21.42 -21.42c1.04,-1.04 1.04,-2.74 0,-3.79 -1.04,-1.04 -2.74,-1.04 -3.79,0l-4.59 4.59c-10.56,0.17 -18.17,2.7 -23.23,7.77 -0.88,0.88 -1.69,1.86 -2.42,2.91l0 -13.42c7.34,-0.28 13.11,-1.77 17.59,-4.52 5.24,-3.21 8.64,-8.06 10.42,-14.82 0.38,-1.43 -0.47,-2.89 -1.91,-3.27 -1.43,-0.37 -2.89,0.48 -3.27,1.91 -2.62,9.98 -9.7,14.77 -22.77,15.34 0.36,-8.21 2.38,-14.06 6.15,-17.83 3.11,-3.11 7.62,-5.02 13.69,-5.8l-11.09 11.09c-1.04,1.04 -1.04,2.74 0,3.79 0.52,0.52 1.2,0.78 1.89,0.78 0.69,0 1.37,-0.26 1.89,-0.78l21.42 -21.42c1.04,-1.04 1.04,-2.74 0,-3.79 -1.04,-1.04 -2.74,-1.04 -3.79,0l-4.59 4.59c-10.56,0.17 -18.17,2.7 -23.23,7.77 -0.88,0.88 -1.69,1.86 -2.42,2.91l0 -6.91c7.35,-7.59 10.94,-14.77 10.94,-21.92 0,-7.16 -3.57,-14.33 -10.94,-21.93l0.02 -5.46c0,-1.48 -1.2,-2.68 -2.68,-2.68 -1.48,0 -2.68,1.2 -2.68,2.68l0 5.45c-7.35,7.59 -10.94,14.77 -10.94,21.92 0,7.15 3.58,14.33 10.94,21.92l0 6.91c-0.74,-1.04 -1.54,-2.02 -2.42,-2.91 -5.05,-5.05 -12.67,-7.59 -23.23,-7.77l-4.59 -4.59c-1.04,-1.04 -2.74,-1.04 -3.79,0 -1.04,1.04 -1.04,2.74 0,3.79l21.42 21.42c0.52,0.52 1.2,0.78 1.89,0.78 0.68,0 1.37,-0.26 1.89,-0.78 1.04,-1.04 1.04,-2.74 0,-3.79l-11.09 -11.09c6.07,0.78 10.59,2.7 13.69,5.8 3.78,3.78 5.8,9.63 6.15,17.83 -13.08,-0.57 -20.15,-5.37 -22.77,-15.34 -0.38,-1.43 -1.84,-2.28 -3.27,-1.91 -1.43,0.37 -2.28,1.84 -1.91,3.27 1.78,6.75 5.19,11.59 10.42,14.81 4.47,2.75 10.26,4.23 17.59,4.52l0 13.42c-0.74,-1.04 -1.54,-2.02 -2.42,-2.91 -5.05,-5.05 -12.67,-7.59 -23.23,-7.77l-4.59 -4.59c-1.04,-1.04 -2.74,-1.04 -3.79,0 -1.04,1.04 -1.04,2.74 0,3.79l21.42 21.42c0.52,0.52 1.21,0.78 1.89,0.78 0.68,0 1.37,-0.26 1.89,-0.78 1.04,-1.04 1.04,-2.74 0,-3.79l-11.09 -11.09c6.07,0.78 10.59,2.7 13.69,5.8 3.78,3.78 5.8,9.63 6.15,17.83 -13.08,-0.57 -20.15,-5.37 -22.78,-15.34 -0.37,-1.43 -1.84,-2.28 -3.27,-1.91 -1.43,0.37 -2.28,1.84 -1.91,3.27 1.78,6.75 5.19,11.6 10.42,14.81 4.47,2.75 10.26,4.23 17.59,4.52l0 13.42c-0.74,-1.04 -1.54,-2.02 -2.42,-2.91 -5.05,-5.05 -12.67,-7.59 -23.23,-7.77l-4.59 -4.59c-1.04,-1.04 -2.74,-1.04 -3.79,0 -1.04,1.04 -1.04,2.74 0,3.79l21.42 21.42c0.52,0.52 1.21,0.78 1.89,0.78 0.68,0 1.37,-0.26 1.89,-0.78 1.04,-1.04 1.04,-2.74 0,-3.79l-11.09 -11.09c6.07,0.78 10.59,2.7 13.69,5.8 3.78,3.78 5.8,9.63 6.15,17.83 -13.08,-0.57 -20.15,-5.37 -22.77,-15.34 -0.37,-1.43 -1.84,-2.28 -3.27,-1.91 -1.43,0.37 -2.28,1.84 -1.91,3.27 1.78,6.75 5.19,11.6 10.42,14.82 4.47,2.75 10.26,4.23 17.59,4.52l0 10.76c0,1.48 1.2,2.68 2.68,2.68 1.48,0 2.68,-1.2 2.68,-2.68l0 -10.76c7.34,-0.28 13.11,-1.77 17.59,-4.52 5.23,-3.21 8.64,-8.06 10.42,-14.82 0.37,-1.43 -0.48,-2.89 -1.91,-3.27 -1.43,-0.38 -2.89,0.47 -3.27,1.91 -2.62,9.97 -9.7,14.77 -22.78,15.34 0.36,-8.21 2.38,-14.06 6.15,-17.83 3.11,-3.11 7.62,-5.02 13.69,-5.8l-11.09 11.09c-1.04,1.04 -1.04,2.74 0,3.79 0.52,0.52 1.2,0.78 1.89,0.78 0.69,0 1.37,-0.26 1.89,-0.78l21.42 -21.42c1.04,-1.04 1.04,-2.74 0,-3.79 -1.04,-1.04 -2.74,-1.04 -3.79,0l-4.59 4.59c-10.56,0.17 -18.17,2.7 -23.23,7.77 -0.88,0.88 -1.69,1.86 -2.42,2.91l0 -13.42c7.34,-0.28 13.11,-1.77 17.59,-4.52 5.24,-3.21 8.64,-8.06 10.42,-14.81 0.38,-1.43 -0.47,-2.89 -1.91,-3.27 -1.43,-0.38 -2.89,0.47 -3.27,1.91 -2.62,9.97 -9.7,14.77 -22.77,15.34 0.36,-8.21 2.38,-14.06 6.15,-17.83 3.11,-3.11 7.62,-5.02 13.69,-5.8l-11.09 11.09c-1.04,1.04 -1.04,2.74 0,3.79l0.02 0.01zm-11.49 -59.32c-5.56,-6.06 -8.26,-11.62 -8.26,-16.96 0,-4.39 1.83,-8.94 5.58,-13.79l0 15.87c0,1.48 1.2,2.68 2.68,2.68 1.48,0 2.68,-1.2 2.68,-2.68l0 -15.87c3.74,4.85 5.58,9.4 5.58,13.79 0,5.34 -2.7,10.9 -8.26,16.96z"/>
 </g>
</svg>
