<?xml version="1.0" encoding="UTF-8"?>
<!DOCTYPE svg PUBLIC "-//W3C//DTD SVG 1.1//EN" "http://www.w3.org/Graphics/SVG/1.1/DTD/svg11.dtd">
<!-- Creator: CorelDRAW 2018 (64-Bit Evaluation Version) -->
<svg xmlns="http://www.w3.org/2000/svg" xml:space="preserve" width="31.2605mm" height="30.1626mm" version="1.1" shape-rendering="geometricPrecision" text-rendering="geometricPrecision" image-rendering="optimizeQuality" fill-rule="evenodd" clip-rule="evenodd"
viewBox="0 0 131.91 127.28"
 xmlns:xlink="http://www.w3.org/1999/xlink">
 <g id="Layer_x0020_1">
  <metadata id="CorelCorpID_0Corel-Layer"/>
  <path fill="white" d="M49.51 127.28c-2.55,0 -4.39,-0.32 -4.53,-0.35 -1.3,-0.23 -2.18,-1.45 -2.01,-2.76 2.41,-17.67 0.33,-23.53 -0.45,-25.02 -15.4,-3.13 -22.58,-39.87 -24.22,-49.65 -1.72,0.4 -3.15,0.67 -4.12,0.74 -6.62,0.45 -11.01,-1.12 -13.04,-4.68 -3.62,-6.34 2.38,-16.08 3.78,-18.21l2.11 -6.57c-5.73,-3 -6.27,-9.82 -4.26,-15.26 0.41,-1.1 1.64,-4.43 4.33,-3.8 0.72,0.17 2.36,0.87 2.06,3.73 -0.28,2.64 2.76,4.79 3.93,5.52 1.91,-1.39 3.99,-2.22 6.23,-2.49 5.23,-0.63 9.66,2.1 11.3,3.29 1.15,-0.21 3.81,-2.15 5.41,-9.82 0.18,-0.85 0.79,-1.54 1.6,-1.82 0.82,-0.28 1.72,-0.12 2.39,0.44 3.44,2.9 7.84,10.92 -0.19,20.52 -0.87,1.04 -2.42,1.18 -3.47,0.31 -1.04,-0.87 -1.18,-2.42 -0.31,-3.47 3.27,-3.91 3.69,-7.1 3.19,-9.42 -1.31,3.35 -3.04,5.71 -5.17,7.04 -2.49,1.54 -4.59,1.11 -4.99,1.01 -0.36,-0.09 -0.69,-0.27 -0.98,-0.51 -0.03,-0.03 -3.88,-3.2 -8.23,-2.67 -2.48,0.31 -4.75,1.81 -6.75,4.48l-3.64 11.33c-0.07,0.22 -0.18,0.44 -0.31,0.64 -2.4,3.5 -5.54,10.21 -3.77,13.3 1.26,2.21 5.28,2.42 8.43,2.2 2.34,-0.16 9.73,-2.29 12.87,-3.2 0.73,-0.21 1.31,-0.38 1.68,-0.48 1.31,-0.36 2.67,0.41 3.02,1.72 0.36,1.31 -0.41,2.67 -1.72,3.02 -0.35,0.1 -0.91,0.26 -1.61,0.46 -1.7,0.49 -3.4,0.97 -5,1.41 2.91,17.93 10.92,45.18 21.01,46.15 0.41,0.04 0.81,0.18 1.15,0.42 1.24,0.85 4.69,4.7 3.55,21.06l5.83 0c0.38,-9.38 1.47,-20.25 4.33,-25.97 0.04,-0.29 0.13,-0.58 0.28,-0.85 10.41,-19.17 -0.6,-29.34 -1.07,-29.76 -1.01,-0.9 -1.1,-2.45 -0.21,-3.47 0.9,-1.01 2.43,-1.12 3.46,-0.23 0.13,0.12 12.6,11.35 4.32,31.27 4.01,1.72 16.83,5.93 28.49,-4.04 0.81,-0.7 1.99,-0.79 2.9,-0.22 0.17,0.1 14.36,9.18 11.67,30.66l4 0c0.23,-5.88 1.08,-13.38 3.72,-17.92 -2.58,-3.21 -4.7,-9.25 -0.38,-16.98 0.08,-0.13 0.17,-0.26 0.26,-0.38 0.01,-0.1 0.03,-0.19 0.05,-0.28 6.1,-24.69 2.97,-35.72 -1.09,-40.65 -0.18,-0.21 -0.28,-0.32 -0.29,-0.33 -0.04,-0.04 -0.08,-0.08 -0.11,-0.13 -0.1,-0.12 -0.21,-0.22 -0.31,-0.33 -4.38,-4.49 -10.33,-3.77 -11.53,-3.58 -18.84,8.47 -53.84,1.01 -55.33,0.69 -1.33,-0.29 -2.17,-1.6 -1.88,-2.93 0.29,-1.33 1.61,-2.17 2.93,-1.88 0.35,0.08 35.23,7.5 52.51,-0.47 0.16,-0.08 0.33,-0.13 0.5,-0.17 0.38,-0.09 9.57,-2.03 16.34,4.89 0.26,0.26 0.51,0.53 0.75,0.81 2.23,2.54 17.29,21.02 11.81,52.79 -0.23,1.34 -1.51,2.24 -2.84,2.01 -1.34,-0.23 -2.24,-1.51 -2.01,-2.84 2.04,-11.83 0.97,-21.71 -1.13,-29.43 -0.22,6.52 -1.4,14.1 -3.52,22.72 -0.09,0.38 -0.27,0.71 -0.5,0.99 -0.04,0.31 -0.13,0.61 -0.29,0.89 -4.54,8.14 0.58,12.22 0.79,12.38 0.55,0.42 0.89,1.05 0.95,1.74 0.06,0.69 -0.18,1.37 -0.65,1.88 -2.69,2.91 -3.71,11.48 -3.86,18.71 0.01,0.08 0.01,0.17 0.01,0.24 0,0.12 -0.01,0.22 -0.03,0.33 -0.03,1.97 0.01,3.84 0.1,5.44 0.04,0.67 -0.21,1.33 -0.67,1.83 -0.46,0.49 -1.11,0.77 -1.79,0.77l-10.83 0c-0.78,0 -1.51,-0.37 -1.98,-1 -0.46,-0.63 -0.6,-1.44 -0.37,-2.18 0.6,-1.95 1.06,-3.81 1.4,-5.57 0.01,-0.04 0.01,-0.08 0.03,-0.13 3.02,-16.22 -4.47,-24.63 -7.65,-27.38 -13.28,10.08 -27.69,5.39 -32.24,3.47 -0.02,0.04 -0.04,0.08 -0.06,0.11 -0.06,0.12 -0.13,0.23 -0.22,0.33 -1.81,3.32 -3.39,14 -3.84,26.08 0.04,0.17 0.06,0.35 0.06,0.53 0,0.24 -0.04,0.47 -0.1,0.7 -0.05,1.51 -0.08,3.05 -0.09,4.59 -0.01,1.02 -0.64,1.93 -1.6,2.29 -2.84,1.06 -5.87,1.35 -8.27,1.35l-0.01 0.02zm-1.34 -4.96c1.67,0.09 4.01,0.05 6.29,-0.51 0.01,-0.33 0.01,-0.65 0.01,-0.99l-6.14 0c-0.05,0.49 -0.11,0.99 -0.17,1.5l0.01 0zm59.51 -3.14l5.05 0c-0.01,-0.31 -0.01,-0.63 -0.01,-0.97l-4.81 0c-0.08,0.32 -0.15,0.65 -0.23,0.97l0 0zm-101.04 -107.29c0.03,0.38 0.07,0.76 0.15,1.13 0.27,1.27 0.86,2.24 1.78,2.93 0.08,-0.24 0.19,-0.47 0.35,-0.69 0.19,-0.27 0.38,-0.53 0.58,-0.78 -0.87,-0.62 -1.93,-1.5 -2.86,-2.61l0 -0z"/>
 </g>
</svg>
