<?xml version="1.0" encoding="UTF-8"?>
<!DOCTYPE svg PUBLIC "-//W3C//DTD SVG 1.1//EN" "http://www.w3.org/Graphics/SVG/1.1/DTD/svg11.dtd">
<!-- Creator: CorelDRAW 2018 (64-Bit Evaluation Version) -->
<svg xmlns="http://www.w3.org/2000/svg" xml:space="preserve" width="34.5538mm" height="30.2383mm" version="1.1" shape-rendering="geometricPrecision" text-rendering="geometricPrecision" image-rendering="optimizeQuality" fill-rule="evenodd" clip-rule="evenodd"
viewBox="0 0 105 91.89"
 xmlns:xlink="http://www.w3.org/1999/xlink">
 <g id="Layer_x0020_1">
  <metadata id="CorelCorpID_0Corel-Layer"/>
  <g id="_2731051572176">
   <path fill="black" d="M93.94 34.03c-10.74,-3.79 -19.18,-12.25 -22.95,-23 -2.04,-6.83 -8.49,-11.38 -15.61,-11.01 -9.03,0.53 -15.32,8.93 -15.87,17.99l0 0c-0.44,6.11 0.6,12.23 3.03,17.85 -1.08,1.14 -1.99,2.44 -2.69,3.85 -2.63,4.94 -6.42,9.17 -11.04,12.33 -4.52,3.41 -9.8,5.67 -15.38,6.59 -7.07,0.92 -12.59,6.55 -13.38,13.64 -1.04,12.8 11.94,20.07 24.05,19.6 8.82,-0.05 17.37,-3.03 24.31,-8.48 1.25,-0.95 2.52,-1.86 3.81,-2.74 6.94,-4.56 12.28,-11.18 15.26,-18.93 11.68,5.25 24.36,6.21 33.09,-2.2 8.25,-7.99 4.38,-22.34 -6.62,-25.5l-0 0zm-7.5 0.78c-4.25,3.97 -10.13,-1.04 -10.94,-2.01 -4.72,-4.43 -7.28,-8.27 -4.3,-12.57 1.75,2.75 3.81,5.28 6.14,7.56 2.7,2.75 5.76,5.11 9.1,7.03l0 0zm-55.43 20.28c3.15,-2.22 5.98,-4.86 8.4,-7.85 0.44,0.6 0.71,1.29 0.8,2.02 1.11,4.29 -4.33,8.37 -4.56,8.45 -5.14,3.93 -9.34,5.84 -13.1,2.21l0 0c2.99,-1.28 5.83,-2.9 8.45,-4.83l0 0zm19.1 22.46c-12.24,10.11 -24.2,12.22 -33.99,9.63 -4.09,-0.87 -7.71,-3.22 -10.17,-6.6 -2.36,-3.32 -2.81,-7.64 -1.17,-11.37 1.63,-3.73 5.1,-6.33 9.15,-6.86 1.66,-0.22 3.3,-0.59 4.9,-1.09 1.42,2.12 3.6,3.6 6.1,4.13 4.53,0.73 8.24,-0.98 12.97,-4.67 0.3,-0.2 7.28,-5.03 6.06,-11.77l-0 0c-0.2,-1.82 -1.01,-3.51 -2.29,-4.81 0.57,-0.9 1.1,-1.82 1.57,-2.78 1.76,-3.69 5.33,-6.19 9.41,-6.57 4.07,-0.37 8.05,1.43 10.45,4.74 7.26,10.41 1.24,28.45 -12.98,38.01l0 -0zm51.06 -27.05c-3.32,13.67 -20.21,13.59 -32.51,7.6 2.07,-7.31 1.79,-15.09 -2.57,-20.81l0 0c-1.9,-2.63 -4.58,-4.6 -7.65,-5.63 -4.33,-1.39 -9.06,-0.76 -12.88,1.71 -1.88,-4.8 -2.67,-9.95 -2.3,-15.08 0.46,-7.23 5.18,-14.04 12.36,-14.51l0 -0c5.38,-0.28 10.26,3.16 11.78,8.33 0.49,1.6 1.12,3.16 1.87,4.66 -5.71,6.06 -3.04,12.75 3.62,18.73 0.21,0.22 4.43,4.59 9.61,4.59 1.02,0 2.03,-0.17 2.99,-0.52 1.76,-0.5 3.3,-1.57 4.39,-3.04 6.81,1.81 12.31,6.49 11.3,13.97l0 0z"/>
   <path fill="black" d="M50.72 9.89c-3.45,3.08 -4.21,9.05 -3.68,13.76l0 0c0.09,1.03 1.01,1.79 2.04,1.7 1.03,-0.09 1.79,-1.01 1.7,-2.04 -0.37,-3.54 -0.06,-8.4 2.54,-10.71 0.73,-0.72 0.74,-1.89 0.03,-2.63 -0.71,-0.74 -1.87,-0.78 -2.63,-0.08l0 -0z"/>
   <path fill="black" d="M57.46 41.41c-0.4,0.3 -0.66,0.75 -0.73,1.24 -0.07,0.49 0.06,0.99 0.36,1.39 2.23,2.77 1.68,7.73 0.71,11.21l0 0c-0.13,0.48 -0.07,0.99 0.18,1.43 0.25,0.43 0.66,0.75 1.14,0.88 0.48,0.13 1,0.06 1.43,-0.19 0.43,-0.25 0.75,-0.66 0.87,-1.14 0.46,-1.73 0.78,-3.51 0.94,-5.3 0.45,-3 -1.1,-11.61 -4.9,-9.51l0 0z"/>
  </g>
 </g>
</svg>
