<?xml version="1.0" encoding="UTF-8"?>
<!DOCTYPE svg PUBLIC "-//W3C//DTD SVG 1.1//EN" "http://www.w3.org/Graphics/SVG/1.1/DTD/svg11.dtd">
<!-- Creator: CorelDRAW 2018 (64-Bit Evaluation Version) -->
<svg xmlns="http://www.w3.org/2000/svg" xml:space="preserve" width="105.833mm" height="115.424mm" version="1.1" shape-rendering="geometricPrecision" text-rendering="geometricPrecision" image-rendering="optimizeQuality" fill-rule="evenodd" clip-rule="evenodd"
viewBox="0 0 3561.74 3884.52"
 xmlns:xlink="http://www.w3.org/1999/xlink">
 <g id="Layer_x0020_1">
  <metadata id="CorelCorpID_0Corel-Layer"/>
  <path id="MS" fill="#D7DB2D" d="M3359.35 1798.27c-18.89,23.54 -144.38,196.81 -141.03,220.16 24.89,173.52 -40.2,75.57 -69.92,181.47 -7.26,25.85 -25.91,32.4 -49.38,36.4 -5.61,33.31 33.51,91.25 3.08,121.85 -14.88,14.96 -39.96,100.44 -68.88,93.86 -104.57,-23.79 40.83,58.29 -66.09,134.21 -9.03,6.41 -36.54,62.86 -65.92,89.8 -71.44,65.53 52.72,73.76 -231.24,240.38 -30.89,18.12 -36.22,48.99 -69.49,61.97 -120.04,46.82 -111.95,145.64 -174.29,158.11 -61.42,12.28 -156.79,93.49 -189.25,144.42 21.24,47.44 -49.15,233.93 -152.36,255.8 -62.73,13.3 -42.18,264.82 -112.65,310.63 -26.18,17.02 -78.74,71.83 -82.81,4.47 -43.24,-12.38 -34.55,-40.63 -75.98,-62.27l-6.65 -6.5c-5.81,4.08 -12.42,0.22 -16.13,-4.74 -5.3,0 -30.88,4.23 -23.22,-13.91l-5.17 -3.65c-6.9,12.86 -15.3,0.06 -17.32,-5.72 -9.98,-4.7 -12.27,3.74 -18.12,-8.82l-3.64 -0.78c-4.54,5.15 -28.82,49.29 -41.86,24.85 -1.89,3 -4.67,2.38 -7.28,2.07 -2.82,3.78 -4.55,2.96 -8.78,2.13 -6.33,9.54 -11.16,12.11 -22.49,8.91l-2.73 2.92c1.16,12.72 -16.31,13.39 -21.41,7.29 -0.92,4.93 -5.79,4.22 -9.27,4.22 -1.67,4 -1.55,4.55 -5.58,5.84 2.58,3.86 -0.82,6.61 -2.73,8.36 2.04,8.75 4.18,12.72 -5.52,13.73 -1.7,4.52 -7.21,4.48 -9.29,1.09 -9.76,1.39 -9.29,2.36 -13.92,-1.98 -4.72,2.82 -4.86,2.44 -9.83,-0.23 -10.37,8.65 -17.62,16.89 -25.22,15.23 -7.58,10.17 -19.23,-1.49 -28.63,-9.28 -2.12,3.18 -2.88,4.73 -6.9,5.51 -1.05,1.87 -13.1,8.39 -17.03,5.31 -5.45,2.42 -14.23,6.1 -16.38,0.19l-0.08 -0.01c-6.65,31.2 -50.55,-10.92 -60.55,-13.84 -8.48,16.43 -30.49,28.6 -36.42,5.85 -7.01,3.76 -11.99,0.35 -13.06,-3.71 -3.07,0 -9.4,-4.59 -7.45,-13.9 -8.59,-1.86 -7.98,-3.9 -5.79,-11.56 -9.55,-5.85 -8.31,-95.67 -6.09,-98.86 -2.56,-8.19 -2.26,-5.26 -0.04,-15.34 -11.8,0.44 -10.82,-15.46 -9.7,-22.63 -4.91,-6.29 -6.26,6.21 -6.1,-19.69 -3.3,0.93 -15.05,-5.96 -16.14,-8.7 -17.71,6.31 -18.95,-21.16 -9.8,-32.06 -0.86,-2.75 -2,-5 -0.21,-7.49 -4.25,-6.26 -6.44,-12.3 -6.24,-20.36 -4.79,-3.12 0.02,-7.09 -4.94,-18.61 -6.21,-1.12 -10.67,-18.23 2.41,-17.06 0.15,-16.54 13.43,-32.19 19.12,-49.88 -10.83,-19.38 -42.39,-47.46 -10.93,-66.52 -3.62,-0.65 -7.87,-7.14 -4.98,-13.37 -4.33,-9.93 -6.7,-12.86 4.19,-15.22l2.63 -5.19c-11.06,-10.46 -9.45,-6.48 -8.86,-20.59 -8.85,-1.71 -41.16,-5.89 -26.46,-26.72 -3.68,-13.77 -15.04,-16.88 -6.96,-23.8 -0.65,-11.05 -3.01,-9.27 -0.29,-14.05 -3.07,-9.8 -24.62,-21.75 -6.93,-36.45 -2.51,-4.34 -6.78,-9.99 -6.04,-13.17 -6.15,-0.38 -7.39,-15.2 -4.03,-20.98 -4.73,-17.26 -17.15,-52.98 -2.39,-68.78 -1.39,-6.6 6.63,-18.99 12.79,-22.3l7.16 -39.64c-3.38,-7.99 -2.71,-5.07 -1.6,-15.82 -7.92,-5.66 -36.55,-38.29 -39.83,-51.85 -29.43,-14.34 -32.88,-73.64 -23.03,-97.32 -13.09,-4.14 -4.91,1.71 -14.3,-1.14 -7.85,5.02 -18.22,-10.71 -13.55,-17.7l-23.73 -41.02c-21.14,2.52 -16.4,4.02 -27.76,-1 -4.44,2.73 -3.04,-2.12 -11.5,1.36 -3.75,10.73 -14.71,7.29 -23.59,-0.63l-3.23 0.99c-4.15,8.89 -11.65,8.7 -14.45,1.71 -11.04,-1.47 -8.87,-0.26 -18.1,-4.37 -4.52,5.51 -4.45,5.7 -11.21,3.54 -5.46,4.38 -12,-2.4 -17.55,-6.35 -0.35,0.33 -0.73,0.59 -1.14,0.8 -2.38,8.87 -25.8,9.91 -31.41,3.93 -2.43,1.05 -5.42,0.1 -6.68,-2.45 -1.44,0.57 -3.02,0.45 -4.38,-0.33 -7.55,2.74 -17.91,-11.31 -19.29,-22.06 -6.84,1.1 -9.74,2.63 -12.91,-0.77 -7.36,4.89 -8.52,-9.17 -18.2,-11.75 -5.85,6.32 -21.96,-14.06 -22.68,-20.95 -0.67,-0.43 -1.23,-1 -1.63,-1.68 -11.39,-0.61 -13.88,-21.6 -10.29,-27.01 -4.14,-8.91 -14.58,-15.55 -11.66,-26.34l-3.89 -0.44c-1.61,2.88 -4.13,4.41 -7.11,3.01 -2.69,2.07 -5.05,0.89 -7.23,-0.65 -4.69,2.15 -9.34,1.18 -12.5,0.31 1.12,8.31 -11.93,5.36 -15.79,6.53 -0.56,3.7 -2.2,4.06 -5.46,5.79 -1.41,6.28 1.31,19.93 -5.06,19.93 -5.81,9.79 3.87,5.76 -12.34,14.02 1.8,9 0.43,16.14 -5.9,17.44 -3.52,6.79 -12.77,8.37 -19.82,12.48 0.39,2.11 -5.28,15.99 -15.16,15.19 4.88,20.87 -28.8,0.07 -30.97,-8.03 -0.34,0.39 -0.73,0.72 -1.18,0.99 1.71,12.78 -26.86,22.97 -26.07,6.7 -13.22,4.1 -6.42,13.37 -22.67,4.68 -2.35,11.35 5.34,13.23 -9.5,18.54 -4.18,8.92 -15.04,12.29 -22.21,3.1 -9.3,4.18 -16.17,-10.32 -15.47,-23.96l-0.85 0.42c0,15.04 -8.68,8.31 -17.86,2.55 -3.46,2.03 -14.58,3.94 -18.95,-7.75 -3.37,4.71 -15.29,1.17 -17.78,-4.83 -11.19,2.25 -6.89,3.34 -14.56,1.68 -4.32,3.24 -6.29,5.76 -10.75,2.59 -4.86,1.53 -14.92,7.55 -18.67,4.93 -6.42,2.24 -16.43,-5.81 -15.66,-10.68l-5.23 -1.71c-3.5,2.38 -7.08,5.94 -10.89,2.4 -12.43,2.27 -13.39,3.31 -20.72,-5.65 -2.76,2.58 -44.25,28.17 -44.25,1.28l-0.16 -0.13 -8.31 3.41c7.25,15.4 -19.81,2.05 -22.91,1.3 -2.71,2.3 -6.79,0.81 -8.44,-0.53 -9.84,4.23 -11.7,-5.96 -10.2,-12.39l-0.21 -0.14c-4.18,1.98 -6.36,-1.45 -7.67,-4.27l-4.15 -1.39c-6.43,6.86 -6.9,3.28 -16,-2.98 -3.53,3.63 -5.11,0.36 -12.78,-1.94 -4.59,3.53 -11.73,-0.24 -12.77,-2.89 -6.29,1.7 -6.26,0.38 -11.02,-5.86 -13.55,9.28 -40.6,2.35 -37.02,-16.8 -4.72,-3.49 -8.42,-4.1 -7.45,-8.62 -0.86,-0.7 -1.46,-1.67 -1.72,-2.8 -5.19,-1.58 -3.47,-6.41 -2.36,-9.2l-1.7 -3.77c-10.49,5.36 -23.01,4.15 -33.25,-5.28l-1.35 0.65c-0.85,3.69 -9.51,14.88 -14.6,9.99 2.73,18.6 -18.3,15.94 -27.5,10.04 -8.37,19.1 -20.88,13.53 -25.11,-3.42l-9.02 3.1c1.18,11.32 -20.83,1.14 -22.13,-1.65 -3.1,0.77 -28.43,2.33 -20.43,-11.16 -3.72,-1.59 -3.76,-4.69 -5.48,-10.22l-5.67 -0.83c-3.46,4.75 -11.51,4.13 -13.37,2.63 -12.68,7.75 -6.18,-15.04 -5.36,-18.86 -24.15,-25.9 30.44,-48.4 23.94,-82.92 -15.04,-6.93 3.04,-18.17 8.06,-22.55 -47.55,-28.3 -1.59,-20.54 5.19,-56.83 -40.62,-8.03 2.71,-36.52 13.4,-49.02 -8.64,-18.54 -47.59,-27.61 -15.09,-54.36 -30,-42.91 -36.46,-20.11 -5.74,-81.68 10.57,-21.18 31.31,-42.92 36.18,-69.05 -72.17,-21.47 5.35,-32.64 2.55,-73.6 -1.38,-20.2 -8.88,-32.22 0.09,-52.94 -15.47,-28.25 -8.26,-44.41 13.75,-68 -4.21,-9.65 -3.89,-6.31 -0.97,-17.6 -16.42,14.68 -64.55,-21.82 -37.67,-43.45 54.28,-43.67 -37.94,-33.32 -30.99,-47.72 14.81,-30.72 12.19,-30.98 45.78,-24.63 -11.08,-13.65 -12.23,-17.71 -23.28,-38.3 -19.12,11.67 -44.76,51.94 -28.27,-14.95 -18.57,-5.68 -22.09,-24.57 -12.79,-41.83 -8.93,-29.55 8.57,-70.58 -9.51,-90.65 -33.59,-37.29 -37.52,12.83 -35.31,-76.9 0.44,-17.82 -64.22,31.36 -16.81,-44.75 0,0 -42.52,-26.01 -9.47,-28.24 29.69,-2 14.52,-23.6 48.41,-26.8 10.29,-16.49 6.34,-31.66 32.18,-27.01 13.42,-10.78 18.18,-33.51 40.53,-10.87 4.92,-9.59 16.38,-22.25 17.6,-30.71 -186.37,-167.07 -170.11,-33.65 37.74,-530.53 3.28,-7.83 31.19,-3.63 38.23,-3.76l4.22 -6.96c-9.49,-17.79 -11.15,-34.37 -11.15,-58.11 -9.2,0.26 -25.31,3.36 -22.71,-6.05 9.53,-34.57 99.13,-373.56 106.67,-374.3l38.62 -3.81c-3.47,-7.88 -2.75,-6.89 -9.72,-9.23 -22.7,13.05 -106.45,-198.33 -112.92,-211.71 -4.79,-9.9 14.34,-7.42 18.27,-7.42 0,-18.71 -18.91,-23.38 -13.9,-48.17 -6.75,-8.12 -4.98,7.31 -12.89,-16.99 -11.92,0 -20.07,-32.37 -18.22,-44.72 -1.17,-0.67 -7.51,-8.42 -3.4,-12.54 -2.22,-1.21 -7.75,-10.01 -2.1,-14.55 0,0 0,0 0,-0 -19.22,-14.65 10.29,-14.57 18.46,-12.07 17.49,-46.89 42.22,19.39 34.32,30.21 3.01,6.35 12.57,21.87 10.6,27.17 3.56,7.11 6.22,8.76 3.13,12.92 1.37,4.44 -2.56,6.07 -5.06,7.08 -1.29,7.6 1.88,3.58 -0.18,10.93l5.7 4.98 2.37 -0.84c3.31,-18.2 21.44,10.99 22.21,13.23 5.47,2.38 4.8,7.47 1.16,9.7 0.68,1.6 14.12,12.69 4.23,16.56l0.9 3.4c13.52,-1.98 13.49,-3.13 16.33,6.76 7.02,0 22.1,14.97 20.24,23.59 21.2,9.73 17.64,3.74 32.24,22.72 -0.62,-10.19 10.39,-26.97 20.1,-23.5 2.93,-4.52 6.29,-13.02 11.89,-8.47 5.61,-13.72 10.74,-6.62 18.51,-2.46 5.22,-2.8 0.08,-2.25 9.31,-3.66 1.96,-4.85 11.91,-12.96 17.62,-8.56 5.51,-2.95 9.07,-0.55 15.7,2.12l4.08 -3.19c-5.54,-14.21 34.13,-21.69 47.88,-19.73 6.25,-8.35 5.36,-7.33 18.87,-0.64 1.55,-3.01 4.53,-2.77 7.73,-3.06 2.89,-9.32 1.59,-8.09 9.31,-11.1 3.29,-8.48 10.65,-14.97 17.21,-12.08 4.88,-16.75 3.45,-18.88 10.99,-20.23 0.52,-6.64 19.82,-28.87 24.6,-35.71 -8.55,-3.96 -6.93,-7.68 -3.63,-15.05 -1.81,-4.49 -6.72,-13.08 4.13,-13.08 3.16,-5.41 2.69,-4.61 10.52,-5.81 6.73,-11.77 20.19,-23.75 31.08,-17.92l4.79 -1.61c4.67,-15.06 3.38,-6.33 5.59,-11.66 -3.15,-7.56 -0.79,-12.94 6.85,-16.96 -2.57,-8.27 3.77,-11.48 10.2,-11.48 -7.37,-6.07 -8.41,-6.92 -1.8,-13.99 -11.79,-10.58 7.34,-34.16 21.14,-28.78 -1.94,-8.33 7.6,-11.13 13.51,-13.65l0.01 -0.02c-5.59,-6.87 -5.12,-8.18 2.2,-12.92 0,-5.26 21.63,-27.44 29.46,-12.42 8.42,0.12 13.85,-2.13 19.25,4.45l5.15 -1.93c2.79,-6.77 8.44,-1.62 11.33,1.47 9.29,-6.71 13.31,5.99 21.77,2.98 -1.27,-11.44 13.51,-7.46 18.88,-5.1 3.84,-2.31 7.8,-5.58 10.9,-4.88 1.07,-1.02 2.55,-1.53 4.05,-1.38 -5.57,-8.97 2,-10.49 4.23,-9.94 3.02,-5.18 8.55,-6.74 11.03,3.02l6.87 3.84c3.96,-2.25 8.25,-2.01 9.62,3.4 5.22,-2.01 6.77,2.89 7.27,6.66 1.3,-1.7 10.1,-7.97 14.09,-5.71 1.9,-3.68 2.96,-3.35 8.08,-5.17 2.74,-8.13 1.28,-6.24 12.02,-11.09 -1.61,-13.5 17.97,-9.9 19.45,-2.22 2.54,-3.75 9.54,-6.83 15.25,-3.75l3.76 -1.21 0.85 -1.83c-3.87,-10.45 2.73,-8.74 9.25,-15.16 -0.21,-2.94 1.63,-4.16 3.51,-5.52 0.08,-4.81 7.09,-9.61 16.56,-4.36l4.63 -2.57c0.47,-3.32 4.12,-5.4 7.3,-3.91l5.44 -2.98c0.72,-4.6 2.82,-13.31 9.09,-8.35 1.82,-2.09 5.1,-2.37 7.28,-0.45 23.75,-11.6 87.86,-23.47 79.47,24.02l3.86 4.25c2.53,0.01 5.28,-0.09 6.68,3.14 2.96,-0 4.08,2.06 5.73,4.2 6.96,-2.12 16.78,-2.94 12.47,6.19l1.43 2.12c4.25,-6.84 28.37,-6.22 30.93,0.17 3.84,-0.74 6.15,2.84 9.84,6.52 3.39,-2.39 7.64,-1.27 8.37,6.47 3.95,-1.86 10.84,-3.29 11.49,2.83 5.48,0.49 14.2,1.34 11.72,10.58l3.36 3.8c2.64,-1.57 5.34,-0.69 7.25,1.94 10.42,-3.68 13.04,3.68 24.66,9.96 1.94,-1.89 6.94,-6.99 10.39,-1.41 8.64,-0.57 12.45,-3.6 16.25,1.57 2.54,-2.99 6.22,-5.28 9.29,-1.39 11.18,-4.82 7.44,4.79 12.89,12.1 4.38,-5.98 9.48,1.54 15.4,5.77 4.38,-0.79 7.4,0.92 7.48,4.73 1.35,0.67 4.55,18.9 -0.8,20.82 6.65,-1.26 6.07,6.54 6.07,9 1.16,0.37 2.13,1.15 2.79,2.26 2.87,0.15 23.2,20.79 23.04,24.25l8.84 1.11c2.31,-2.47 5.55,-5.57 9.41,-1.43 4.19,-0.56 12.59,9.09 12.84,11.47 3.91,2.45 15.32,4.1 16.93,6.73 8.63,-3.07 10.15,2 13.85,2.57 4.37,-5.57 20.13,5.67 21.34,15.49l4.8 0.33c2.95,-2.71 4.58,-3.84 8.61,-1.24 3.36,-1.03 17.26,-4.75 16.11,4.35l3.8 3.22c5.97,-3.85 11.55,6.93 10.77,10 5.24,3.18 6.12,7.71 8.2,11.21 7.31,0 13.2,8.75 13.55,10.27l9.51 3.57c5.53,-3.06 6.2,3.27 15.73,11.53 2.92,-0.35 13.45,-2.98 12.41,4.98l1.41 0.76c1.93,-1.51 8.77,-19.23 18.36,-11.79 3.9,-1.77 12.28,1.29 14.45,4.61l4.57 0.24c2.78,-2.81 5.81,-1.07 8.73,0.07 7.13,-3.5 9.51,-7.55 18.03,-2.68 0.22,-0.14 0.46,-0.27 0.7,-0.37 0.88,-2.5 1.76,-5.54 5.72,-5.45 2.84,-5.07 10,-4.5 15.34,-4.87 3.35,-4.46 21.78,-6.06 30.02,2.76 6.93,-2.45 4.93,-2.28 13.75,1.06 7.93,-10.59 12.32,-1.09 16.34,-6.47 -1.31,-8.33 20.03,-20.33 29.33,-23.46 -3.92,-5.89 6.84,-34.58 23.15,-29.36l6.89 -3.96c1.05,-8.91 7.46,-8.5 10.6,-2.93l1.95 0.52c2.27,-2.4 4.14,-2.14 6.78,-1.21l2.45 -1.67c0.86,-5.48 19.22,-8.02 24.1,-6.28 10.04,-5.39 14.43,-15.15 22.96,-8.32 3.96,-0.93 5.17,2.08 8.54,6.2 9.44,-6.73 21.21,-6.53 31.67,1.61 3.95,-0.51 9.15,-0.19 8.35,5.5 7.96,3.66 -1.21,7.31 5.16,17.91 6.65,1.28 14.63,1.74 17.48,4.79 6.61,-1.02 9.93,5.91 10.35,8.61 4.03,1.44 3.85,3.47 4.61,7.58 5.33,2.01 17.86,6.68 9.8,14.74 4.7,7.07 1.7,5.41 1.98,8.69 7.59,2.51 0.69,11.51 -1.95,16.44l13.64 9.88c2.94,-0.81 4.47,0.85 6.24,2.48l14.61 -0.15c1.92,-2.07 4.69,-5.6 8.68,-2.85 22.26,-4.46 15.48,-22.37 33.91,-19.51 2.04,-2.18 3.62,-4.57 6.9,-3.98 6.24,-7.62 28.99,-6.01 35.12,1.66 5.35,-2.86 14.4,-0.11 20.69,0.39 -1.75,-8.53 13.39,-34.83 15.15,-39.22 -8.1,-13.64 11.94,-56.51 36.7,-41.81 34.22,-14.95 30.28,-47.52 69.35,-63.74 -3.11,-23.13 5.79,-39.1 25.04,-40.22 6,-10.64 47.12,-59.2 53.72,-20.78 6.62,4.27 11.03,259.05 -24.75,243.03 -14.84,10.15 -22.93,2.31 -33.36,3.91 -21.8,31.11 -46.34,59.29 -63.76,91.53 -0.97,2.51 1.27,2.73 -2.91,8.09 0.66,2.99 -1.07,4.75 -3.01,7.85l2.57 15.97c0.64,0.56 1.12,1.24 1.41,1.99 2.91,-0.53 4.15,0.92 6.33,2.67 6.92,-3.17 43.39,-2.36 46.28,14.48 1.06,0.35 7.74,4.65 6.98,8.9 2.64,0.39 6.63,0.97 6.55,5.5 1.06,0.68 1.83,1.73 2.16,3 2.87,-0.48 5.71,1.51 6.02,4.54 7.29,4.67 21.53,4.04 27.82,9.93 4,-3.57 9.29,1.16 10.07,3.3l8.67 -3.84c0.91,-4.98 3.19,-4.83 8.17,-6.06 2.29,-19.35 42.79,3.4 45.5,12.72l0.64 0.17c6.2,-5.81 31.94,2.86 34.85,9.09 5.36,0.58 6.46,0.53 7.91,6l6.61 -1.31c0,0 3.39,-18.39 8,-19.88 0.34,-3.43 2.9,-4.22 5.35,-4.88 2.59,-13.22 30,5.76 35.13,9.34 28.64,-5.41 61.72,-13.69 85.98,7.03 7.25,-3.08 8.46,10.76 15.37,12.13 37.16,7.37 74.86,-3.94 24.83,20.17 -16.46,7.93 16.29,135.43 27.69,148.58 11.76,0.61 9.29,-0.63 16.57,3.58 31.29,-81.94 226.74,24.73 81.78,54.27 -5.51,32.28 -28.2,38.85 -43.6,62.95 5.69,7.43 16.15,22.66 13.66,31.32 12.52,0 10.3,12.29 9.92,15.73 12.88,2.02 26.84,0.61 32.61,14.47 23.5,8.27 85.43,-0.1 101.39,14.86 4.98,-3.56 5.83,-2.24 16.64,-1.79 3.43,-5.88 10.82,-12.88 17.33,-15.2 10.78,-22.87 75.7,35.58 79.78,52.98 4.67,1.5 7.35,2.09 6.41,8 9.31,10.05 18.31,18.66 24.74,28.58l15.29 8.96c10.23,-25.31 70.7,16.47 79.42,29.75 4.88,-2.59 6.75,0.44 8.78,3.46 13.4,0 13.66,9.9 17.4,21.37 5.09,0 7.12,3.49 5.68,7.33l4.62 2.45c5.12,-3.66 6.01,-5.05 11.07,-1.42 3.19,-0.85 5.52,1.03 6.52,4.25 0.39,0.04 11.4,2.78 12.66,6.72 3.03,-1.3 7.03,-1.77 8.94,1.52l6.16 -0.37c3.89,-7.77 9.74,1.69 12.68,1.56 5.15,-6.63 15.94,-0.96 17.51,5.09 4.2,-0.5 5.25,2.35 7.27,5.61 7.32,0 11.48,12.21 10.87,14.87l11.23 14.13c8.86,-5.08 14.98,2.31 15.37,4.91 0.92,-0.21 19.03,2.62 19.45,11.87 0.76,0.36 1.42,0.91 1.94,1.63 4.47,-3.02 7.97,2.05 11.88,5.9 2.36,-0.17 13.93,-2.31 11.89,5.87l5.76 3.55c4.18,-4.81 13.68,2.21 12.39,7.29 3.95,-1.19 12.38,6.01 18.48,10.08 2.7,-1.81 42.38,-4.52 43.8,-2.11 9.58,0 10.4,-1.02 13,5.49 6.89,2.47 1.57,-8.06 16.4,4.43 7.13,-2.86 8.5,0.54 9.25,6.28 6.57,-1.91 3.73,-9.45 15,0.88 8.96,-3.59 8.01,-2.31 12.58,4.01 4.07,-3.5 9.91,-3.28 11.88,1.62 1.58,0.28 8.67,4.27 6.02,9.37l3.4 3.64c11.83,-0.75 11.38,-2.05 17.55,12.03 6.71,-2.65 6.78,-2.95 11.59,2.19 14.58,-2.46 17.47,-1.72 17.84,10.06l6.73 6.2c5.43,-1.1 6.33,4.21 7.59,7.92 11.32,4.05 18.55,-8.97 28.44,-1.01 2.58,-1.62 6.21,-0.58 7.45,2.37 7.34,2.84 5.86,1.59 9.62,10.36 17.65,5.16 9.29,-6.87 25.07,10.01 1.99,-0.36 22.1,0.89 22.1,8.39 13.34,9.34 22.33,12.28 22.33,25.32 4.19,1.11 14.38,16.13 10.46,20.57 5.03,-1.97 8.85,5 9.3,6.42 9.94,-1.9 8.41,4.22 8.41,13.1 14.6,5.79 32.94,23.71 20.79,28.44 -5.75,2.24 17.14,88.06 -10.09,69.28 -8.02,-5.53 -5.02,-5.35 -12.45,-1.95 -7.6,20.51 -38.67,65.5 -20.57,87.51 3.07,3.73 -0.96,8.66 -4.24,14.99 27.06,75.17 34.09,274.63 -67.66,302.28 -27.76,7.54 -60.41,8.05 -83.43,26.24z"/>
 </g>
</svg>
