<?xml version="1.0" encoding="UTF-8"?>
<!DOCTYPE svg PUBLIC "-//W3C//DTD SVG 1.1//EN" "http://www.w3.org/Graphics/SVG/1.1/DTD/svg11.dtd">
<!-- Creator: CorelDRAW 2018 (64-Bit Evaluation Version) -->
<svg xmlns="http://www.w3.org/2000/svg" xml:space="preserve" width="105.833mm" height="115.424mm" version="1.1" shape-rendering="geometricPrecision" text-rendering="geometricPrecision" image-rendering="optimizeQuality" fill-rule="evenodd" clip-rule="evenodd"
viewBox="0 0 5213.66 5686.13"
 xmlns:xlink="http://www.w3.org/1999/xlink">
 <g id="Layer_x0020_1">
  <metadata id="CorelCorpID_0Corel-Layer"/>
  <path id="MS" fill="#D7DB2D" d="M4917.39 2632.3c-27.66,34.45 -211.34,288.08 -206.44,322.27 36.43,254 -58.84,110.62 -102.35,265.64 -10.63,37.84 -37.93,47.43 -72.29,53.28 -8.21,48.77 49.05,133.57 4.5,178.36 -21.78,21.9 -58.49,147.02 -100.83,137.39 -153.07,-34.83 59.77,85.32 -96.74,196.46 -13.22,9.39 -53.49,92.01 -96.49,131.45 -104.58,95.92 77.17,107.96 -338.49,351.87 -45.21,26.53 -53.02,71.71 -101.72,90.71 -175.72,68.53 -163.87,213.19 -255.13,231.44 -89.91,17.98 -229.5,136.86 -277.03,211.4 31.09,69.44 -71.95,342.42 -223.03,374.44 -91.83,19.46 -61.74,387.64 -164.89,454.7 -38.32,24.92 -115.26,105.15 -121.22,6.54 -63.29,-18.12 -50.57,-59.47 -111.23,-91.16l-9.73 -9.52c-8.5,5.97 -18.18,0.32 -23.61,-6.94 -7.76,0 -45.2,6.19 -34,-20.37l-7.56 -5.34c-10.1,18.82 -22.39,0.09 -25.35,-8.37 -14.61,-6.89 -17.97,5.47 -26.52,-12.92l-5.33 -1.14c-6.65,7.54 -42.19,72.16 -61.27,36.37 -2.77,4.39 -6.84,3.49 -10.66,3.03 -4.13,5.53 -6.66,4.34 -12.85,3.12 -9.27,13.96 -16.34,17.72 -32.92,13.04l-3.99 4.28c1.7,18.63 -23.87,19.6 -31.34,10.68 -1.34,7.22 -8.47,6.18 -13.57,6.18 -2.44,5.85 -2.28,6.66 -8.16,8.55 3.78,5.66 -1.21,9.68 -4,12.24 2.99,12.8 6.12,18.62 -8.08,20.1 -2.49,6.61 -10.56,6.56 -13.6,1.59 -14.29,2.03 -13.59,3.45 -20.37,-2.9 -6.91,4.12 -7.12,3.58 -14.39,-0.33 -15.18,12.67 -25.79,24.72 -36.91,22.29 -11.1,14.89 -28.14,-2.18 -41.9,-13.58 -3.11,4.66 -4.21,6.92 -10.1,8.06 -1.54,2.73 -19.17,12.28 -24.93,7.77 -7.97,3.54 -20.83,8.93 -23.97,0.28l-0.12 -0.01c-9.73,45.68 -73.99,-15.99 -88.63,-20.26 -12.41,24.05 -44.64,41.87 -53.32,8.57 -10.26,5.5 -17.55,0.51 -19.11,-5.43 -4.5,0 -13.75,-6.72 -10.91,-20.35 -12.57,-2.72 -11.68,-5.71 -8.48,-16.92 -13.99,-8.56 -12.16,-140.03 -8.92,-144.71 -3.74,-12 -3.31,-7.7 -0.06,-22.46 -17.28,0.65 -15.83,-22.63 -14.2,-33.12 -7.19,-9.2 -9.16,9.08 -8.93,-28.83 -4.83,1.36 -22.04,-8.73 -23.63,-12.73 -25.92,9.23 -27.74,-30.97 -14.34,-46.93 -1.26,-4.03 -2.93,-7.33 -0.3,-10.97 -6.22,-9.16 -9.43,-18.01 -9.13,-29.8 -7.02,-4.57 0.03,-10.37 -7.23,-27.24 -9.09,-1.65 -15.62,-26.69 3.53,-24.98 0.22,-24.21 19.66,-47.12 27.98,-73.01 -15.86,-28.37 -62.05,-69.48 -16.01,-97.38 -5.31,-0.96 -11.52,-10.46 -7.29,-19.57 -6.35,-14.54 -9.81,-18.82 6.14,-22.28l3.85 -7.6c-16.18,-15.31 -13.83,-9.48 -12.97,-30.13 -12.96,-2.5 -60.25,-8.62 -38.74,-39.11 -5.38,-20.15 -22.02,-24.72 -10.19,-34.84 -0.95,-16.17 -4.4,-13.57 -0.43,-20.57 -4.49,-14.34 -36.04,-31.83 -10.14,-53.36 -3.68,-6.36 -9.93,-14.62 -8.84,-19.28 -9.01,-0.56 -10.81,-22.26 -5.9,-30.71 -6.93,-25.27 -25.11,-77.55 -3.49,-100.67 -2.03,-9.67 9.7,-27.8 18.72,-32.64l10.49 -58.03c-4.94,-11.7 -3.97,-7.42 -2.34,-23.16 -11.59,-8.29 -53.5,-56.04 -58.3,-75.9 -43.08,-20.99 -48.13,-107.79 -33.72,-142.46 -19.16,-6.06 -7.19,2.5 -20.94,-1.67 -11.5,7.35 -26.67,-15.68 -19.83,-25.9l-34.74 -60.05c-30.94,3.69 -24,5.88 -40.63,-1.46 -6.5,4 -4.45,-3.1 -16.83,1.99 -5.48,15.71 -21.53,10.67 -34.53,-0.92l-4.73 1.45c-6.08,13.02 -17.05,12.73 -21.15,2.5 -16.15,-2.16 -12.98,-0.38 -26.49,-6.4 -6.61,8.06 -6.51,8.35 -16.4,5.18 -7.99,6.41 -17.57,-3.52 -25.69,-9.3 -0.51,0.48 -1.07,0.87 -1.67,1.17 -3.49,12.99 -37.76,14.51 -45.98,5.75 -3.56,1.54 -7.93,0.14 -9.78,-3.59 -2.11,0.83 -4.42,0.66 -6.41,-0.48 -11.05,4.01 -26.22,-16.55 -28.23,-32.29 -10.01,1.61 -14.25,3.84 -18.9,-1.12 -10.78,7.15 -12.48,-13.42 -26.64,-17.19 -8.57,9.25 -32.15,-20.58 -33.2,-30.67 -0.99,-0.63 -1.8,-1.46 -2.38,-2.46 -16.67,-0.9 -20.31,-31.62 -15.06,-39.54 -6.06,-13.04 -21.34,-22.76 -17.07,-38.56l-5.69 -0.65c-2.35,4.22 -6.04,6.45 -10.41,4.4 -3.93,3.02 -7.39,1.3 -10.58,-0.96 -6.87,3.14 -13.67,1.73 -18.3,0.46 1.65,12.17 -17.46,7.85 -23.12,9.56 -0.82,5.41 -3.22,5.94 -7.99,8.47 -2.06,9.19 1.92,29.18 -7.4,29.18 -8.5,14.33 5.67,8.43 -18.06,20.52 2.64,13.18 0.63,23.62 -8.63,25.53 -5.16,9.94 -18.69,12.25 -29.01,18.27 0.57,3.08 -7.72,23.41 -22.19,22.23 7.14,30.55 -42.16,0.1 -45.33,-11.76 -0.5,0.58 -1.07,1.05 -1.73,1.45 2.5,18.71 -39.32,33.62 -38.16,9.81 -19.35,6 -9.4,19.57 -33.19,6.86 -3.44,16.61 7.81,19.37 -13.9,27.14 -6.12,13.05 -22.01,18 -32.5,4.53 -13.61,6.12 -23.67,-15.1 -22.65,-35.07l-1.24 0.62c0,22.02 -12.7,12.17 -26.14,3.73 -5.06,2.97 -21.34,5.76 -27.74,-11.35 -4.93,6.9 -22.39,1.71 -26.03,-7.07 -16.38,3.29 -10.09,4.89 -21.32,2.45 -6.32,4.74 -9.2,8.43 -15.74,3.79 -7.12,2.25 -21.84,11.04 -27.34,7.22 -9.4,3.28 -24.05,-8.51 -22.92,-15.63l-7.65 -2.5c-5.12,3.49 -10.37,8.7 -15.94,3.51 -18.19,3.33 -19.6,4.84 -30.34,-8.27 -4.04,3.78 -64.77,41.23 -64.77,1.88l-0.23 -0.19 -12.17 4.99c10.61,22.55 -28.99,3 -33.53,1.9 -3.96,3.36 -9.94,1.18 -12.36,-0.77 -14.41,6.19 -17.12,-8.72 -14.93,-18.14l-0.31 -0.21c-6.11,2.9 -9.31,-2.13 -11.23,-6.25l-6.07 -2.03c-9.41,10.03 -10.1,4.81 -23.41,-4.36 -5.17,5.32 -7.48,0.53 -18.7,-2.84 -6.72,5.17 -17.16,-0.35 -18.69,-4.24 -9.21,2.49 -9.17,0.55 -16.13,-8.58 -19.84,13.58 -59.43,3.44 -54.18,-24.59 -6.91,-5.11 -12.33,-6 -10.9,-12.62 -1.26,-1.03 -2.14,-2.44 -2.52,-4.09 -7.6,-2.31 -5.08,-9.39 -3.45,-13.47l-2.49 -5.52c-15.36,7.85 -33.69,6.07 -48.68,-7.73l-1.98 0.95c-1.24,5.4 -13.93,21.78 -21.37,14.62 3.99,27.23 -26.79,23.33 -40.25,14.69 -12.25,27.95 -30.56,19.8 -36.76,-5.01l-13.2 4.54c1.73,16.57 -30.49,1.67 -32.39,-2.41 -4.53,1.13 -41.61,3.4 -29.9,-16.34 -5.44,-2.33 -5.5,-6.86 -8.02,-14.97l-8.31 -1.22c-5.06,6.95 -16.85,6.05 -19.58,3.85 -18.56,11.35 -9.05,-22.02 -7.85,-27.61 -35.35,-37.91 44.56,-70.85 35.04,-121.37 -22.01,-10.14 4.44,-26.6 11.8,-33.01 -69.6,-41.42 -2.33,-30.07 7.6,-83.19 -59.46,-11.75 3.97,-53.47 19.62,-71.76 -12.64,-27.14 -69.66,-40.42 -22.08,-79.57 -43.91,-62.81 -53.37,-29.43 -8.4,-119.56 15.47,-31.01 45.83,-62.83 52.96,-101.07 -105.64,-31.43 7.83,-47.79 3.73,-107.73 -2.02,-29.57 -13.01,-47.16 0.13,-77.5 -22.64,-41.35 -12.08,-65.01 20.13,-99.53 -6.16,-14.12 -5.69,-9.23 -1.42,-25.76 -24.04,21.48 -94.49,-31.95 -55.14,-63.6 79.46,-63.93 -55.53,-48.77 -45.37,-69.85 21.68,-44.97 17.84,-45.35 67.01,-36.06 -16.22,-19.98 -17.91,-25.92 -34.07,-56.06 -27.98,17.08 -65.51,76.03 -41.38,-21.89 -27.18,-8.32 -32.34,-35.97 -18.72,-61.22 -13.07,-43.25 12.55,-103.31 -13.93,-132.7 -49.16,-54.59 -54.92,18.78 -51.69,-112.57 0.64,-26.08 -94.01,45.91 -24.6,-65.5 0,0 -62.24,-38.07 -13.87,-41.33 43.46,-2.93 21.25,-34.54 70.86,-39.23 15.06,-24.14 9.29,-46.35 47.11,-39.54 19.64,-15.78 26.62,-49.05 59.33,-15.92 7.21,-14.04 23.98,-32.57 25.77,-44.95 -272.8,-244.55 -249,-49.26 55.25,-776.59 4.8,-11.46 45.65,-5.32 55.96,-5.5l6.18 -10.18c-13.89,-26.04 -16.33,-50.31 -16.33,-85.07 -13.47,0.37 -37.05,4.92 -33.25,-8.85 13.95,-50.6 145.11,-546.81 156.14,-547.9l56.53 -5.58c-5.08,-11.54 -4.03,-10.09 -14.22,-13.51 -33.23,19.1 -155.81,-290.31 -165.29,-309.9 -7.01,-14.5 20.99,-10.86 26.74,-10.86 0,-27.39 -27.68,-34.22 -20.34,-70.51 -9.88,-11.89 -7.3,10.69 -18.87,-24.87 -17.44,0 -29.38,-47.38 -26.67,-65.46 -1.71,-0.99 -10.99,-12.33 -4.98,-18.36 -3.26,-1.77 -11.35,-14.66 -3.07,-21.3 0,0 0,0 0,-0 -28.13,-21.44 15.06,-21.33 27.03,-17.66 25.61,-68.64 61.8,28.39 50.23,44.23 4.4,9.3 18.4,32.02 15.52,39.77 5.21,10.4 9.11,12.83 4.58,18.92 2.01,6.5 -3.74,8.89 -7.4,10.37 -1.88,11.13 2.75,5.25 -0.26,16l8.34 7.29 3.46 -1.23c4.84,-26.65 31.39,16.08 32.51,19.37 8.01,3.48 7.02,10.93 1.7,14.19 1,2.34 20.68,18.58 6.2,24.25l1.32 4.98c19.79,-2.89 19.74,-4.58 23.91,9.9 10.28,0 32.36,21.91 29.63,34.54 31.03,14.24 25.82,5.47 47.2,33.25 -0.91,-14.92 15.21,-39.47 29.42,-34.4 4.3,-6.61 9.2,-19.06 17.4,-12.39 8.21,-20.08 15.71,-9.69 27.09,-3.6 7.65,-4.1 0.11,-3.3 13.63,-5.36 2.87,-7.09 17.43,-18.97 25.79,-12.53 8.06,-4.32 13.28,-0.8 22.98,3.1l5.98 -4.67c-8.11,-20.8 49.95,-31.75 70.09,-28.89 9.15,-12.23 7.85,-10.72 27.62,-0.94 2.28,-4.4 6.64,-4.05 11.31,-4.47 4.24,-13.64 2.33,-11.84 13.62,-16.25 4.82,-12.41 15.59,-21.91 25.19,-17.69 7.15,-24.51 5.05,-27.63 16.09,-29.62 0.76,-9.71 29.01,-42.26 36.01,-52.27 -12.52,-5.8 -10.14,-11.24 -5.32,-22.04 -2.65,-6.57 -9.84,-19.15 6.04,-19.15 4.62,-7.92 3.94,-6.75 15.4,-8.5 9.86,-17.23 29.55,-34.76 45.5,-26.23l7.01 -2.35c6.84,-22.05 4.94,-9.27 8.19,-17.07 -4.61,-11.06 -1.16,-18.94 10.03,-24.83 -3.77,-12.11 5.51,-16.81 14.93,-16.81 -10.79,-8.89 -12.31,-10.12 -2.64,-20.48 -17.26,-15.48 10.75,-50 30.94,-42.12 -2.84,-12.19 11.12,-16.29 19.77,-19.99l0.01 -0.03c-8.19,-10.05 -7.5,-11.98 3.22,-18.92 0,-7.7 31.66,-40.17 43.12,-18.18 12.33,0.18 20.27,-3.12 28.17,6.52l7.53 -2.83c4.09,-9.91 12.36,-2.37 16.58,2.15 13.6,-9.82 19.49,8.77 31.86,4.36 -1.86,-16.74 19.77,-10.92 27.64,-7.46 5.62,-3.38 11.42,-8.17 15.96,-7.15 1.57,-1.49 3.73,-2.24 5.93,-2.01 -8.15,-13.13 2.92,-15.35 6.19,-14.55 4.41,-7.58 12.51,-9.86 16.14,4.41l10.05 5.62c5.79,-3.29 12.08,-2.94 14.08,4.97 7.65,-2.95 9.92,4.23 10.65,9.75 1.9,-2.48 14.79,-11.67 20.63,-8.36 2.78,-5.39 4.33,-4.91 11.82,-7.57 4.01,-11.9 1.88,-9.14 17.6,-16.23 -2.36,-19.76 26.31,-14.5 28.47,-3.25 3.71,-5.49 13.96,-10 22.33,-5.49l5.5 -1.78 1.25 -2.68c-5.67,-15.3 3.99,-12.79 13.54,-22.19 -0.31,-4.31 2.38,-6.08 5.14,-8.07 0.12,-7.04 10.38,-14.07 24.24,-6.39l6.78 -3.76c0.69,-4.86 6.03,-7.9 10.68,-5.72l7.96 -4.36c1.05,-6.74 4.13,-19.49 13.3,-12.22 2.66,-3.06 7.46,-3.46 10.65,-0.66 34.77,-16.98 128.61,-34.36 116.32,35.16l5.66 6.23c3.7,0.01 7.73,-0.13 9.77,4.6 4.34,-0 5.98,3.01 8.39,6.15 10.18,-3.1 24.57,-4.3 18.25,9.06l2.1 3.11c6.22,-10.01 41.53,-9.11 45.28,0.25 5.63,-1.09 9,4.15 14.4,9.54 4.97,-3.5 11.18,-1.86 12.26,9.47 5.79,-2.73 15.86,-4.82 16.82,4.14 8.02,0.72 20.78,1.96 17.15,15.48l4.92 5.57c3.86,-2.3 7.82,-1 10.61,2.84 15.26,-5.38 19.09,5.39 36.09,14.58 2.84,-2.77 10.16,-10.23 15.2,-2.07 12.64,-0.83 18.22,-5.27 23.78,2.3 3.72,-4.37 9.1,-7.72 13.6,-2.03 16.37,-7.05 10.89,7.01 18.86,17.71 6.4,-8.75 13.87,2.26 22.54,8.45 6.41,-1.16 10.84,1.34 10.95,6.92 1.97,0.99 6.66,27.67 -1.17,30.47 9.73,-1.84 8.89,9.57 8.89,13.17 1.69,0.55 3.12,1.69 4.08,3.31 4.2,0.23 33.97,30.43 33.72,35.49l12.94 1.63c3.37,-3.61 8.12,-8.16 13.77,-2.09 6.13,-0.82 18.43,13.31 18.8,16.78 5.73,3.59 22.43,6.01 24.78,9.85 12.63,-4.49 14.86,2.92 20.27,3.76 6.39,-8.15 29.46,8.3 31.24,22.68l7.03 0.49c4.32,-3.97 6.71,-5.62 12.61,-1.82 4.92,-1.51 25.26,-6.95 23.58,6.36l5.56 4.71c8.73,-5.64 16.91,10.14 15.76,14.64 7.67,4.65 8.96,11.28 12.01,16.4 10.7,0 19.33,12.81 19.84,15.03l13.92 5.23c8.09,-4.47 9.08,4.79 23.03,16.88 4.28,-0.51 19.69,-4.35 18.17,7.29l2.06 1.11c2.83,-2.21 12.83,-28.15 26.87,-17.26 5.71,-2.59 17.98,1.89 21.15,6.74l6.68 0.35c4.07,-4.11 8.5,-1.56 12.78,0.1 10.44,-5.12 13.92,-11.05 26.39,-3.93 0.33,-0.21 0.67,-0.39 1.02,-0.55 1.28,-3.66 2.57,-8.1 8.37,-7.98 4.15,-7.42 14.63,-6.59 22.45,-7.12 4.9,-6.52 31.88,-8.88 43.95,4.04 10.14,-3.59 7.22,-3.33 20.13,1.56 11.61,-15.5 18.04,-1.59 23.92,-9.47 -1.92,-12.19 29.32,-29.76 42.94,-34.34 -5.74,-8.62 10.02,-50.61 33.88,-42.97l10.08 -5.79c1.54,-13.04 10.93,-12.44 15.51,-4.29l2.86 0.76c3.33,-3.52 6.05,-3.14 9.93,-1.77l3.59 -2.44c1.27,-8.02 28.13,-11.73 35.27,-9.19 14.7,-7.89 21.13,-22.18 33.61,-12.18 5.8,-1.36 7.56,3.04 12.51,9.07 13.82,-9.85 31.05,-9.55 46.35,2.35 5.78,-0.75 13.39,-0.27 12.22,8.04 11.66,5.35 -1.77,10.69 7.55,26.22 9.73,1.87 21.41,2.55 25.58,7.02 9.68,-1.49 14.53,8.66 15.15,12.6 5.89,2.11 5.63,5.08 6.74,11.09 7.8,2.94 26.15,9.78 14.35,21.58 6.88,10.35 2.49,7.92 2.9,12.72 11.11,3.68 1.01,16.84 -2.85,24.06l19.97 14.46c4.31,-1.18 6.55,1.25 9.13,3.64l21.38 -0.22c2.81,-3.03 6.87,-8.2 12.7,-4.17 32.58,-6.52 22.66,-32.74 49.64,-28.55 2.98,-3.2 5.3,-6.69 10.1,-5.83 9.13,-11.15 42.43,-8.8 51.42,2.42 7.84,-4.18 21.08,-0.17 30.28,0.57 -2.56,-12.48 19.6,-50.98 22.18,-57.41 -11.86,-19.97 17.47,-82.71 53.72,-61.2 50.09,-21.88 44.32,-69.56 101.52,-93.31 -4.56,-33.86 8.47,-57.23 36.66,-58.87 8.78,-15.58 68.98,-86.65 78.63,-30.42 9.69,6.26 16.15,379.2 -36.22,355.75 -21.73,14.85 -33.57,3.38 -48.84,5.72 -31.91,45.54 -67.83,86.79 -93.33,133.98 -1.42,3.68 1.85,4 -4.27,11.85 0.97,4.37 -1.57,6.95 -4.4,11.49l3.76 23.37c0.94,0.81 1.64,1.82 2.07,2.92 4.27,-0.77 6.07,1.34 9.27,3.9 10.13,-4.64 63.51,-3.45 67.75,21.2 1.55,0.51 11.33,6.81 10.22,13.03 3.87,0.58 9.7,1.42 9.59,8.04 1.55,1 2.68,2.54 3.16,4.38 4.21,-0.7 8.35,2.21 8.82,6.65 10.67,6.84 31.51,5.91 40.72,14.54 5.85,-5.23 13.6,1.7 14.73,4.84l12.69 -5.62c1.33,-7.29 4.68,-7.07 11.97,-8.88 3.35,-28.32 62.63,4.98 66.61,18.62l0.94 0.25c9.08,-8.5 46.76,4.18 51.01,13.3 7.84,0.84 9.46,0.77 11.58,8.79l9.68 -1.92c0,0 4.97,-26.91 11.71,-29.1 0.5,-5.01 4.25,-6.18 7.84,-7.15 3.79,-19.35 43.91,8.44 51.42,13.67 41.93,-7.92 90.35,-20.05 125.86,10.29 10.61,-4.5 12.38,15.75 22.5,17.75 54.4,10.79 109.59,-5.77 36.35,29.53 -24.09,11.61 23.84,198.24 40.53,217.5 17.21,0.89 13.59,-0.92 24.26,5.24 45.8,-119.95 331.89,36.2 119.71,79.44 -8.06,47.26 -41.28,56.87 -63.83,92.15 8.33,10.88 23.64,33.17 20,45.85 18.33,0 15.08,17.99 14.52,23.03 18.85,2.96 39.29,0.89 47.74,21.18 34.41,12.11 125.05,-0.15 148.41,21.75 7.29,-5.21 8.54,-3.28 24.35,-2.62 5.01,-8.61 15.84,-18.85 25.37,-22.26 15.77,-33.48 110.8,52.08 116.79,77.55 6.84,2.2 10.76,3.05 9.38,11.7 13.62,14.7 26.8,27.31 36.22,41.84l22.39 13.11c14.98,-37.05 103.49,24.11 116.26,43.55 7.14,-3.8 9.88,0.64 12.85,5.07 19.61,0 19.99,14.49 25.47,31.29 7.45,0 10.42,5.11 8.32,10.72l6.76 3.59c7.49,-5.35 8.8,-7.39 16.2,-2.08 4.67,-1.25 8.07,1.5 9.54,6.22 0.57,0.06 16.68,4.07 18.53,9.83 4.44,-1.9 10.3,-2.6 13.08,2.22l9.02 -0.54c5.69,-11.37 14.26,2.48 18.57,2.29 7.53,-9.7 23.34,-1.4 25.64,7.45 6.15,-0.73 7.69,3.44 10.65,8.21 10.72,0 16.8,17.87 15.92,21.77l16.43 20.69c12.97,-7.43 21.93,3.38 22.49,7.18 1.35,-0.3 27.86,3.84 28.46,17.38 1.12,0.52 2.07,1.33 2.83,2.38 6.54,-4.42 11.67,3 17.39,8.63 3.46,-0.25 20.38,-3.38 17.41,8.6l8.44 5.19c6.12,-7.03 20.03,3.24 18.14,10.68 5.78,-1.74 18.12,8.8 27.06,14.75 3.95,-2.65 62.04,-6.61 64.11,-3.09 14.03,0 15.22,-1.49 19.03,8.04 10.08,3.61 2.3,-11.79 24.01,6.48 10.44,-4.19 12.44,0.79 13.54,9.19 9.61,-2.8 5.45,-13.83 21.95,1.29 13.11,-5.25 11.72,-3.38 18.42,5.88 5.96,-5.12 14.51,-4.81 17.39,2.36 2.31,0.41 12.7,6.26 8.81,13.71l4.97 5.33c17.32,-1.1 16.66,-3 25.69,17.61 9.83,-3.88 9.93,-4.32 16.96,3.21 21.34,-3.61 25.57,-2.52 26.11,14.73l9.85 9.07c7.94,-1.62 9.27,6.17 11.1,11.6 16.57,5.93 27.15,-13.12 41.63,-1.48 3.77,-2.37 9.08,-0.85 10.91,3.46 10.75,4.16 8.57,2.33 14.08,15.16 25.83,7.56 13.6,-10.05 36.7,14.65 2.92,-0.53 32.35,1.3 32.35,12.28 19.53,13.68 32.68,17.97 32.68,37.06 6.13,1.63 21.05,23.61 15.32,30.11 7.37,-2.88 12.96,7.33 13.61,9.4 14.56,-2.78 12.32,6.18 12.32,19.17 21.37,8.47 48.22,34.71 30.44,41.64 -8.41,3.28 25.09,128.91 -14.77,101.41 -11.73,-8.09 -7.35,-7.83 -18.22,-2.85 -11.12,30.03 -56.61,95.89 -30.11,128.09 4.49,5.46 -1.4,12.68 -6.2,21.94 39.61,110.04 49.9,402.01 -99.04,442.47 -40.64,11.04 -88.43,11.78 -122.12,38.41z"/>
  <circle fill="white" cx="2262.44" cy="4956.06" r="190.53"/>
  <circle fill="white" cx="1900.22" cy="4803.94" r="190.53"/>
  <circle fill="white" cx="2191.48" cy="4504.98" r="190.53"/>
  <circle fill="white" cx="1835.63" cy="4383.12" r="190.53"/>
  <circle fill="white" cx="2465.9" cy="4152.65" r="190.53"/>
  <circle fill="white" cx="3347.72" cy="2796.82" r="190.53"/>
  <circle fill="white" cx="3039.26" cy="2241.17" r="190.53"/>
  <circle fill="white" cx="2701.38" cy="2486.86" r="190.53"/>
 </g>
</svg>
