<?xml version="1.0" encoding="UTF-8"?>
<!DOCTYPE svg PUBLIC "-//W3C//DTD SVG 1.1//EN" "http://www.w3.org/Graphics/SVG/1.1/DTD/svg11.dtd">
<!-- Creator: CorelDRAW 2018 (64-Bit Evaluation Version) -->
<svg xmlns="http://www.w3.org/2000/svg" xml:space="preserve" width="20.5194mm" height="30.2382mm" version="1.1" shape-rendering="geometricPrecision" text-rendering="geometricPrecision" image-rendering="optimizeQuality" fill-rule="evenodd" clip-rule="evenodd"
viewBox="0 0 61.55 90.7"
 xmlns:xlink="http://www.w3.org/1999/xlink">
 <g id="Layer_x0020_1">
  <metadata id="CorelCorpID_0Corel-Layer"/>
  <path fill="white" d="M60.95 41.34c-0.44,-0.36 -1.03,-0.45 -1.55,-0.27l-7.97 2.8c-2.66,0.94 -5.24,2.12 -7.71,3.51 0.01,-0.66 0.02,-1.32 0.02,-2.04 0,-11.41 -1.58,-21.7 -4.22,-29.59 -3.17,-9.45 -7.91,-15.69 -13.6,-15.75 -8.92,0 -16.13,15.63 -17.56,37.55l-4.66 -3.02c-0.96,-0.66 -2.4,0.02 -2.49,1.18l-0.92 8.4c-1.97,18.13 6.3,35.56 21.59,45.5 1.11,0.72 2.38,1.09 3.66,1.09 18.37,-3 32.71,-21.46 34.9,-39.52l1.09 -8.37c0.07,-0.56 -0.15,-1.11 -0.59,-1.47l0 0zm-39.05 7.79c-0.01,-0.71 -0.01,-1.44 -0.02,-2.16l8.08 0c-0.02,4.27 -0.12,8.43 -0.3,12.41 -0.3,0.37 -0.59,0.74 -0.87,1.13 -1.75,-4.09 -4.06,-7.92 -6.89,-11.39l0 -0zm-6.84 -31.31l4.83 0c-0.21,2.04 -0.4,4.21 -0.56,6.48l-5.95 0c0.49,-2.34 1.05,-4.49 1.68,-6.48l0 0zm13.24 -3.24l-4.76 0c0.73,-5.65 1.6,-9.39 2.38,-10.87 0.78,1.48 1.64,5.22 2.38,10.87l0 0zm0.38 3.24c0.21,1.98 0.4,4.15 0.57,6.48l-6.66 0c0.17,-2.33 0.36,-4.5 0.57,-6.48l5.51 0zm4.52 25.91c-0.01,-2.19 -0.04,-4.36 -0.09,-6.48l7.11 0c0.14,2.09 0.23,4.25 0.26,6.48l-7.28 0zm-11.23 -6.48l7.9 0c0.05,2.08 0.08,4.25 0.09,6.48l-8.08 0c0.01,-2.23 0.04,-4.4 0.09,-6.48l0 0zm7.8 -3.24l-7.7 0c0.08,-2.27 0.18,-4.43 0.31,-6.48l7.09 0c0.12,2.05 0.23,4.21 0.31,6.48l-0 0zm2.94 -6.48l6.39 0c0.34,2.06 0.63,4.22 0.85,6.48l-6.94 0c-0.08,-2.22 -0.17,-4.39 -0.3,-6.48l0 0zm5.79 -3.24l-5.99 0c-0.16,-2.27 -0.35,-4.43 -0.56,-6.48l4.91 0c0.62,1.98 1.17,4.15 1.65,6.48l0 0zm-19.38 3.24c-0.12,2.09 -0.22,4.26 -0.3,6.48l-6.92 0c0.23,-2.27 0.51,-4.43 0.86,-6.48l6.35 0zm-0.39 9.72c-0.06,2.68 -0.1,5.44 -0.1,8.22 -2.15,-2.15 -4.55,-4.1 -7.14,-5.85 0.04,-0.81 0.09,-1.6 0.14,-2.38l7.1 0zm14.47 9.72l7.28 0c-0.01,0.86 -0.03,1.69 -0.06,2.48 -2.67,1.81 -5.13,3.85 -7.37,6.12 0.08,-2.8 0.14,-5.68 0.15,-8.6l0 0zm2.54 -32.39l-4.17 0c-0.02,-0.11 -0.03,-0.24 -0.04,-0.36 -0.55,-4.26 -1.15,-7.24 -1.78,-9.36 2.17,1.83 4.25,5.15 5.99,9.71l0 0zm-13.69 -9.58c-0.62,2.08 -1.29,5.5 -1.79,9.58l-4.08 0c1.73,-4.49 3.77,-7.75 5.86,-9.58l0 0zm-18.54 39.47l0.63 -5.78 4.88 3.17c14.26,9.26 21.98,25.53 20.14,42.43 -0.19,2.53 -3.43,4.07 -5.51,2.61 -14.26,-9.26 -21.98,-25.53 -20.14,-42.43l0 0zm53.73 6.3c-1.99,15.22 -11.41,28.06 -24.99,34.57 0.05,-0.23 0.1,-0.46 0.12,-0.7 0.77,-7.07 -0.04,-14.02 -2.19,-20.47 5.29,-7.96 13.29,-14.05 22.31,-17.23l5.49 -1.93 -0.75 5.76 0 0z"/>
 </g>
</svg>
