<?xml version="1.0" encoding="UTF-8"?>
<!DOCTYPE svg PUBLIC "-//W3C//DTD SVG 1.1//EN" "http://www.w3.org/Graphics/SVG/1.1/DTD/svg11.dtd">
<!-- Creator: CorelDRAW 2018 (64-Bit Evaluation Version) -->
<svg xmlns="http://www.w3.org/2000/svg" xml:space="preserve" width="25.7102mm" height="30.2383mm" version="1.1" shape-rendering="geometricPrecision" text-rendering="geometricPrecision" image-rendering="optimizeQuality" fill-rule="evenodd" clip-rule="evenodd"
viewBox="0 0 335.1 394.11"
 xmlns:xlink="http://www.w3.org/1999/xlink">
 <g id="Layer_x0020_1">
  <metadata id="CorelCorpID_0Corel-Layer"/>
  <g id="_2731051372128">
   <g>
    <path fill="black" d="M323.48 155.46c11.86,-33.03 17.68,-71 2.46,-103.98 -6.49,-14.07 -16.15,-27.64 -26.07,-39.52 -3.64,-4.36 -8.05,-9.83 -13.72,-11.6 -8.07,-2.51 -13.52,8.42 -18.77,12.99 -5.4,4.7 -11.54,8.58 -18.18,11.29 -6.39,2.61 -13.22,3.8 -19.59,6.48 -24.41,10.28 -35.11,34.51 -42.53,58.38 -1.47,4.72 -1.62,8.73 -5.47,11.76 -4.12,3.23 -8.82,5.81 -13.41,8.29 -16.72,9.06 -31.15,17.24 -42.65,32.91 -5.22,7.12 -10.36,14.36 -15.03,21.85 -1.29,2.07 -2.32,4.79 -3.86,6.65 -1.95,2.36 -4.22,2.44 -7.41,2.9 -7.31,1.05 -14.6,1.75 -21.73,3.74 -19.95,5.55 -34.81,19.66 -44.28,37.81 -7.3,14 -9.95,28.91 -14.58,43.8 -1.93,6.2 -4.39,12.44 -7.92,17.91 -3.1,4.82 -13.08,9.45 -10.24,15.96 3.07,7.04 19.28,9.5 25.45,10.93 17.14,3.97 35.06,4.45 52.38,1.32 18.61,-3.35 37.03,-10.17 50.89,-23.35 12.1,-11.5 24.22,-23.64 38.12,-33.01 7.53,-5.08 16.29,-7.36 24.76,-10.35 -8.53,6.54 -17.7,11.67 -25.13,19.6 -8.57,9.16 -14.24,20.47 -16.93,32.69 -4.33,19.68 -0.99,39.13 2.93,58.54 1.77,8.77 2.74,18.71 0.68,27.51 -1.44,6.13 -8.46,16.11 3.05,17.02 7.83,0.62 16.8,-1.79 24.26,-3.73 16.21,-4.21 31.61,-11.5 45.12,-21.39 8.9,-6.52 17.02,-14.16 24.05,-22.66 7.35,-8.87 11.34,-18.69 15.34,-29.35 4,-10.69 8.25,-21.33 13.22,-31.62 4.86,-10.06 11.01,-17.63 18.88,-25.51 13.05,-13.06 21.91,-27.26 24.32,-45.93 1.51,-11.77 0.03,-23.51 -0.2,-35.31 -0.15,-7.35 -1.08,-16.08 1.81,-23.06zm-141.44 72.73c-14.79,4.9 -26.24,12.39 -38.02,22.41 -12.69,10.79 -23.97,25.39 -39.15,32.68 -26.46,12.7 -58.25,14.12 -86.03,5.03 9.19,-11.46 12.32,-25.42 15.87,-39.25 3.66,-14.23 8.98,-28.67 18.28,-40.25 11.45,-14.25 26.89,-19.23 44.35,-21.44 7.74,-0.98 15.84,-1.66 20.19,-8.92 2.01,-3.36 3.85,-6.78 5.99,-10.07 9.61,-14.74 19.64,-29.72 35.03,-38.94 11.5,-6.89 26.05,-11.34 35.36,-21.51 1.49,-1.63 2.31,-3.11 3.05,-5.13 2.71,-7.48 4.41,-15.34 7.29,-22.81 4.68,-12.15 10.92,-24.7 21.97,-32.26 11.95,-8.17 27.09,-9.09 39.45,-16.76 -3.85,5.94 -9.05,13.52 -16.15,14.99 -7.39,1.53 -14.01,5.51 -19.64,10.45 -12.26,10.76 -21.27,27.13 -21.89,43.6 -0.26,6.93 1.07,14.24 5.34,19.88 2.11,2.79 4.82,5.03 8.02,6.47 2.94,1.32 6.67,0.76 9.37,1.99 2.19,0.99 0.95,-0.39 2.16,1.99 0.43,0.84 0.76,3.7 0.6,4.59 -0.2,1.12 -0.99,2.36 -1.49,3.35 -3.14,6.32 -7.48,12.16 -11.67,17.8 -2.63,-19.29 -21.75,-26.26 -38.76,-21.11 -17.13,5.19 -31.95,19.55 -38.68,36 -5.38,13.16 -5.53,30.21 7.09,39.34 15.39,11.13 36.67,2.19 49.4,-8.76 -0.94,5.14 -1.83,10.28 -2.62,15.45 -0.52,3.36 -0.29,5.15 -3.17,7.01 -3.24,2.09 -7.89,2.98 -11.53,4.18zm47.83 -113.09c-8.36,-0.67 -9.32,-10.52 -8.57,-17.08 1.17,-10.3 6.42,-20.1 13.26,-27.74 -5.67,14.12 -5.35,30.06 -3.72,44.93 -0.32,-0.03 -0.64,-0.07 -0.96,-0.1zm-36.3 73.98c-8.1,8 -30.33,21.48 -39.1,7.11 -7.22,-11.84 3.73,-28.67 11.92,-36.8 8.1,-8.03 30.25,-21.5 39.09,-7.1 7.26,11.83 -3.72,28.7 -11.91,36.79zm117.54 -38.06c-4.98,13.29 -2.77,29.81 -1.94,43.67 1.05,17.7 -1.97,34.52 -13.79,48.28 -6.37,7.42 -14.11,13.58 -19.95,21.48 -7.29,9.86 -11.97,21.99 -16.58,33.26 -4.51,11.02 -7.57,23.32 -13.93,33.46 -6.37,10.15 -15.73,18.94 -25.23,26.14 -15.5,11.74 -33.99,19.75 -53.25,22.65 3.5,-15.34 -0.41,-29.97 -3.11,-44.97 -2.6,-14.43 -3.65,-29.73 0.17,-44.04 4.92,-18.42 17.8,-28.76 32.74,-39.07 6.44,-4.44 11.07,-8.5 11.63,-16.6 0.58,-8.23 1.8,-16.35 3.2,-24.48 1.57,-9.14 3.28,-18.09 7.06,-26.61 3.81,-8.59 9.48,-15.66 14.94,-23.22 5.02,-6.94 13.25,-16.63 13.8,-25.75 0.21,-3.48 -1.06,-7.15 -1.57,-10.55 -1.33,-8.86 -2.35,-17.83 -2.27,-26.8 0.13,-14.39 3.9,-27.46 13.93,-38.05 5.78,-6.1 12.2,-11.23 17.23,-18.08 5.52,-7.52 9.77,-16.01 12.45,-24.94 13.88,14.82 27.15,34.33 32.29,54.07 6.92,26.55 1.27,54.86 -7.81,80.16z"/>
    <path fill="black" d="M105.57 206.24c-18.21,-3.01 -37.18,7.42 -48.65,21 -9.21,10.9 -15.71,27.19 -8.84,40.93 8.28,16.56 29.18,17.17 44.43,11.12 15.3,-6.06 29.12,-18.9 34.33,-34.75 5.62,-17.11 -2.5,-35.2 -21.27,-38.3zm-7.16 54.85c-9.41,6.9 -32.15,15.8 -38.87,0.56 -5.36,-12.15 6.43,-26.58 15.29,-33.39 9.3,-7.15 32.84,-16.86 39.67,-1.19 5.44,12.48 -6.86,27.21 -16.08,34.01z"/>
   </g>
  </g>
 </g>
</svg>
