<?xml version="1.0" encoding="UTF-8"?>
<!DOCTYPE svg PUBLIC "-//W3C//DTD SVG 1.1//EN" "http://www.w3.org/Graphics/SVG/1.1/DTD/svg11.dtd">
<!-- Creator: CorelDRAW 2018 (64-Bit Evaluation Version) -->
<svg xmlns="http://www.w3.org/2000/svg" xml:space="preserve" width="21.6927mm" height="30.2383mm" version="1.1" shape-rendering="geometricPrecision" text-rendering="geometricPrecision" image-rendering="optimizeQuality" fill-rule="evenodd" clip-rule="evenodd"
viewBox="0 0 73.01 101.77"
 xmlns:xlink="http://www.w3.org/1999/xlink">
 <g id="Layer_x0020_1">
  <metadata id="CorelCorpID_0Corel-Layer"/>
  <g id="_2730979066704">
   <path fill="black" d="M31.04 4.67c-0.47,0.09 -0.94,0.26 -1.38,0.51 -2.1,1.21 -2.85,3.92 -1.64,6.01 0.11,0.19 0.23,0.36 0.35,0.53 -1.74,0.93 -2.93,2.77 -2.93,4.87 0,1 0.21,1.66 0.56,2.43 -1.17,0.48 -2.27,1.72 -2.5,3.17 -2.66,0.4 -4.7,2.71 -4.7,5.47 0,1.4 0.53,2.68 1.4,3.66 -0.88,1.13 -1.4,2.55 -1.4,4.08 0,3.31 2.45,6.07 5.63,6.56 0.33,2.59 2.38,4.56 4.58,4.71 1.74,2.13 4.2,3.24 6.38,3.5l0 9.16c-2.07,-4.15 -5.43,-7.27 -9.54,-8.92 -3.68,-1.47 -7.93,-1.74 -12.32,-0.58 -4.39,1.16 -8.94,3.75 -13.2,8.02 -0.81,0.8 -0.03,2.15 1.07,1.85 4.34,-1.16 8.66,-3.24 13.97,-2.58 5.25,0.65 11.67,3.97 20.03,14.08l0 16.02c-1.2,-3.2 -3.04,-6.64 -5.85,-9.46 -3.65,-3.65 -6.84,-5.7 -9.85,-7.59 -3,-1.9 -5.81,-3.64 -8.96,-6.78 -0.32,-0.31 -0.79,-0.41 -1.2,-0.24 -0.41,0.17 -0.69,0.57 -0.69,1.02 0,5.79 0.56,9.61 2.53,12.73 1.98,3.12 5.22,5.36 10.28,8.28 8.87,5.12 13.01,11.34 13.73,12.49l0 3c-0,0.61 0.5,1.11 1.11,1.11 0.61,-0 1.11,-0.5 1.1,-1.11l0 -3c0.65,-0.98 3.38,-4.77 8.97,-8.02 3.39,-1.97 5.61,-3.49 6.98,-5.67 1.37,-2.18 1.75,-4.83 1.75,-8.75 0,-0.45 -0.27,-0.86 -0.69,-1.03 -0.42,-0.17 -0.89,-0.07 -1.21,0.25 -2.07,2.08 -3.91,3.23 -5.91,4.51 -2,1.27 -4.16,2.67 -6.62,5.15 -1.43,1.44 -2.49,3.1 -3.27,4.74l0 -11.6c0.82,-1.68 7.15,-13.91 18.52,-16.96 5.49,-1.47 9.79,-4.58 12.63,-9.31 2.84,-4.73 4.25,-11.02 4.25,-18.89 -0,-0.5 -0.34,-0.93 -0.82,-1.06 -0.48,-0.13 -1,0.08 -1.25,0.51 -3.46,6 -7.46,8.56 -12.04,10.98 -4.58,2.42 -9.74,4.64 -14.88,9.78 -3.15,3.15 -5.14,6.47 -6.41,9.41l0 -11.54c2.64,-0.32 4.67,-1.4 6.39,-3.51 2.31,-0.1 4.34,-2.39 4.57,-4.7 3.18,-0.49 5.63,-3.25 5.63,-6.56 0,-1.53 -0.52,-2.95 -1.4,-4.08 0.87,-0.98 1.4,-2.26 1.4,-3.66 0,-2.76 -2.06,-5.08 -4.71,-5.48 -0.16,-1.12 -1.07,-2.63 -2.51,-3.15 0.47,-0.82 0.59,-1.43 0.59,-2.44 0,-2.1 -1.19,-3.94 -2.92,-4.87 0.13,-0.16 0.25,-0.34 0.36,-0.53 1.21,-2.09 0.46,-4.8 -1.64,-6.01 -0.44,-0.26 -0.91,-0.43 -1.39,-0.51 -0.18,-2.24 -2.34,-4.67 -5.46,-4.67 -3.12,0 -5.13,2.32 -5.47,4.67l-0 0zm8.72 0.15c-0.99,0.32 -1.87,0.98 -2.42,1.95 -0.31,0.53 -0.13,1.21 0.41,1.52 0.53,0.3 1.21,0.12 1.51,-0.41 0.6,-1.05 1.92,-1.4 3,-0.78 1.08,0.62 1.44,1.94 0.83,2.99 -0.28,0.49 -0.72,0.81 -1.22,0.97 -1.58,0.05 -2.84,0.75 -3.73,1.62 -0.43,0.43 -0.43,1.14 0,1.57 0.43,0.43 1.13,0.43 1.57,0 0.6,-0.6 1.42,-0.97 2.34,-0.97 1.85,0 3.32,1.47 3.32,3.32 0,0.92 -0.37,1.74 -0.97,2.34 -0.71,0.7 -0.21,1.9 0.78,1.89 0.98,0 1.79,0.61 2.09,1.48 -0.96,0.26 -1.81,0.76 -2.49,1.44 -0.43,0.43 -0.43,1.13 0,1.56 0.43,0.43 1.13,0.43 1.56,0 0.6,-0.6 1.43,-0.97 2.35,-0.97 1.85,0 3.31,1.48 3.31,3.32 0,1.85 -1.47,3.31 -3.31,3.31 -0.61,-0 -1.11,0.49 -1.11,1.1 -0,0.61 0.5,1.11 1.11,1.11 0.84,0 1.65,-0.19 2.36,-0.54 0.6,0.75 0.95,1.7 0.95,2.75 0,2.12 -1.47,3.88 -3.45,4.32 -0.55,-2.46 -2.77,-4.32 -5.39,-4.32 -0.61,-0 -1.11,0.49 -1.11,1.1 -0,0.61 0.5,1.11 1.11,1.11 1.85,0 3.32,1.47 3.32,3.32 0,1.94 -1.23,3.56 -3,3.56 -0.33,0 -0.65,0.15 -0.86,0.41 -1.61,1.97 -3.75,3.13 -6.1,3.13 -2.35,0 -4.5,-1.16 -6.11,-3.13 -0.21,-0.26 -0.52,-0.41 -0.86,-0.41 -1.77,0 -2.99,-1.62 -2.99,-3.56 0,-1.85 1.47,-3.32 3.32,-3.32 0.61,-0 1.1,-0.5 1.1,-1.11 -0,-0.61 -0.49,-1.1 -1.1,-1.1 -2.63,0 -4.84,1.86 -5.39,4.32 -1.98,-0.44 -3.46,-2.2 -3.46,-4.32 0,-1.04 0.36,-1.99 0.96,-2.75 0.72,0.34 1.52,0.54 2.37,0.54 0.61,-0 1.1,-0.5 1.1,-1.11 -0,-0.61 -0.49,-1.1 -1.1,-1.1 -1.85,0 -3.32,-1.47 -3.32,-3.31 0,-1.85 1.48,-3.32 3.32,-3.32 0.92,0 1.74,0.37 2.34,0.97 0.43,0.43 1.13,0.43 1.57,0 0.43,-0.43 0.43,-1.13 0,-1.56 -0.68,-0.68 -1.54,-1.19 -2.5,-1.44 0.3,-0.86 1.11,-1.48 2.09,-1.48 0.99,0.01 1.49,-1.2 0.78,-1.89 -0.6,-0.6 -0.97,-1.42 -0.97,-2.34 0,-1.85 1.47,-3.32 3.32,-3.32 0.92,0 1.75,0.37 2.35,0.97 0.43,0.43 1.13,0.43 1.56,0 0.43,-0.43 0.43,-1.14 0,-1.57 -0.9,-0.91 -2.29,-1.62 -3.73,-1.62 -0.5,-0.16 -0.93,-0.48 -1.22,-0.97 -0.6,-1.05 -0.25,-2.37 0.83,-2.99 1.08,-0.62 2.4,-0.27 3,0.78 0.3,0.53 0.98,0.71 1.51,0.41 0.53,-0.31 0.71,-0.99 0.4,-1.52 -0.56,-0.96 -1.43,-1.63 -2.42,-1.95 0.3,-1.54 1.67,-2.59 3.26,-2.59 1.59,0 2.95,1.02 3.25,2.59l0 0zm-8.63 13.43c-0.31,0.53 -0.13,1.2 0.4,1.51 1.07,0.62 1.43,1.95 0.81,3.02 -0.3,0.53 -0.12,1.21 0.41,1.51 0.53,0.31 1.2,0.13 1.51,-0.4 1.22,-2.1 0.49,-4.83 -1.62,-6.04 -0.6,-0.34 -1.24,-0.07 -1.51,0.4l0 0zm9.25 -0.4c-2.1,1.22 -2.83,3.94 -1.62,6.04 0.31,0.53 0.98,0.71 1.51,0.4 0.53,-0.31 0.71,-0.98 0.4,-1.51 -0.62,-1.07 -0.26,-2.4 0.81,-3.02 0.53,-0.3 0.71,-0.98 0.41,-1.51 -0.42,-0.66 -1.11,-0.63 -1.51,-0.4l-0 0zm-3.87 8.7c-0.61,-0 -1.11,0.5 -1.11,1.11l0 4.42c-0,0.61 0.5,1.11 1.11,1.11 0.61,-0 1.11,-0.5 1.1,-1.11l0 -4.42c0,-0.61 -0.49,-1.11 -1.1,-1.11zm-4.42 1.11c-2.43,0 -4.43,1.99 -4.43,4.42 -0,0.61 0.49,1.11 1.1,1.11 0.61,0 1.11,-0.5 1.11,-1.11 0,-1.23 0.98,-2.21 2.21,-2.21 0.61,-0 1.1,-0.5 1.1,-1.11 -0,-0.61 -0.49,-1.1 -1.1,-1.1zm8.85 0c-0.61,-0 -1.11,0.49 -1.11,1.1 -0,0.61 0.5,1.11 1.11,1.11 1.23,0 2.21,0.97 2.21,2.21 -0,0.61 0.49,1.11 1.1,1.11 0.61,-0 1.11,-0.5 1.1,-1.11 0,-2.43 -1.99,-4.42 -4.42,-4.42l0 0zm-7.82 6.64c-0.25,0.02 -0.49,0.12 -0.68,0.29 -0.45,0.42 -0.48,1.12 -0.06,1.57 0.73,0.78 0.73,2.14 0,2.92 -0.41,0.45 -0.39,1.14 0.06,1.56 0.45,0.42 1.15,0.39 1.57,-0.06 1.54,-1.66 1.54,-4.27 0,-5.93 -0.2,-0.21 -0.48,-0.34 -0.77,-0.35 -0.04,-0 -0.08,-0 -0.13,0l0 0zm6.67 0c-0.29,0.01 -0.57,0.14 -0.77,0.35 -1.54,1.66 -1.54,4.27 0,5.93 0.42,0.45 1.11,0.47 1.56,0.06 0.45,-0.41 0.48,-1.11 0.06,-1.56 -0.73,-0.78 -0.73,-2.14 0,-2.92 0.42,-0.45 0.39,-1.15 -0.06,-1.57 -0.22,-0.2 -0.5,-0.3 -0.79,-0.29l0 -0zm30.9 1.64c-0.39,5.81 -1.69,10.36 -3.81,13.89 -2.56,4.26 -6.29,6.98 -11.31,8.32 -9.1,2.44 -15.03,9.92 -17.94,14.56 -0.01,-0.82 0,-1.73 0.03,-2.51 0.15,-2.11 1.16,-9.55 7.95,-16.34 4.84,-4.84 9.65,-6.91 14.34,-9.39 3.76,-1.99 7.34,-4.13 10.75,-8.53l-0 0zm-45.64 16.53c5.57,2.23 9.7,8.15 10.37,15.34 -7.76,-8.58 -16.65,-16.11 -29.67,-11.76 3.47,-2.4 6.44,-3.61 8.33,-4.11 3.68,-0.93 7.69,-0.76 10.97,0.52zm-13.93 14.28c2.38,2.13 5.18,3.88 7.42,5.29 2.99,1.89 5.97,3.8 9.46,7.29 4.08,4.08 6.21,10.51 6.82,13.88 -2.27,-2.76 -5.93,-6.43 -12.03,-9.96 -4.99,-2.88 -7.88,-4.95 -9.52,-7.54 -1.27,-2.01 -1.97,-4.83 -2.15,-8.96zm41.93 11.04c-0.16,2.46 -0.65,3.92 -1.34,5 -1.04,1.65 -2.91,3.02 -6.22,4.95 -3.26,1.9 -5.53,3.89 -7.15,5.6 0.61,-2.23 1.82,-5.35 4.13,-7.68 2.3,-2.32 4.25,-3.57 6.25,-4.84 1.24,-0.79 3.02,-1.92 4.33,-3.04l0 0z"/>
  </g>
 </g>
</svg>
