<?xml version="1.0" encoding="UTF-8"?>
<!DOCTYPE svg PUBLIC "-//W3C//DTD SVG 1.1//EN" "http://www.w3.org/Graphics/SVG/1.1/DTD/svg11.dtd">
<!-- Creator: CorelDRAW 2018 (64-Bit Evaluation Version) -->
<svg xmlns="http://www.w3.org/2000/svg" xml:space="preserve" width="14.9463mm" height="30.2383mm" version="1.1" shape-rendering="geometricPrecision" text-rendering="geometricPrecision" image-rendering="optimizeQuality" fill-rule="evenodd" clip-rule="evenodd"
viewBox="0 0 14.27 28.88"
 xmlns:xlink="http://www.w3.org/1999/xlink">
 <g id="Layer_x0020_1">
  <metadata id="CorelCorpID_0Corel-Layer"/>
  <path fill="white" d="M14.12 16.44c-0.1,-0.1 -0.25,-0.16 -0.39,-0.15 -2.48,-0.04 -4.85,1.17 -6.07,3.23l0 -2.84c3.23,-0.08 5.66,-2.85 5.59,-6.03 0.03,-0.3 -0.24,-0.58 -0.55,-0.55l-0.75 0.05c-1.78,0.12 -3.33,1.08 -4.29,2.47l0 -2.14c2.35,-0.09 4.29,-1.9 4.49,-4.25 0,0 0.06,-0.74 0.06,-0.74 0.01,-0.15 -0.04,-0.3 -0.15,-0.41 -0.21,-0.27 -0.86,-0.08 -1.15,-0.09 -1.33,0.12 -2.49,0.78 -3.26,1.77l0 -1.11c1.29,-1.34 1.54,-3.43 0.34,-4.92l-0.45 -0.57c-0.2,-0.25 -0.61,-0.25 -0.81,0 -1.37,1.44 -1.72,3.43 -0.45,5.06l0.34 0.43 0 1.11c-0.77,-0.99 -1.93,-1.66 -3.26,-1.77 -0.27,0.01 -0.93,-0.19 -1.15,0.09 -0.27,0.21 -0.08,0.86 -0.09,1.15 0.2,2.35 2.14,4.16 4.49,4.25l0 2.14c-1.08,-1.64 -3.02,-2.54 -5.04,-2.52 -0.73,-0.02 -0.52,0.83 -0.5,1.3 0.2,2.91 2.63,5.21 5.53,5.29l0 2.84c-1.12,-1.81 -3.06,-3.06 -5.32,-3.19 -0.29,0.01 -0.94,-0.16 -1.15,0.11 -0.1,0.1 -0.16,0.25 -0.15,0.39l0.04 0.75c0.2,3.5 3.08,6.25 6.57,6.32l0 4.46c0.01,0.67 1.02,0.69 1.03,0l0 -4.46c3.81,-0.06 6.73,-3.31 6.62,-7.08 0.01,-0.15 -0.05,-0.29 -0.15,-0.39l-0 0zm-6.42 -0.95c0.16,-2.35 2.11,-4.23 4.46,-4.32 -0.09,2.35 -1.97,4.3 -4.32,4.46l-0.15 0.01 0.01 -0.15zm0.01 -6.17c0.15,-1.8 1.61,-3.2 3.41,-3.3 -0.1,1.84 -1.58,3.32 -3.42,3.42l0.01 -0.13 -0 0zm-1.27 0.11c-1.8,-0.15 -3.2,-1.61 -3.3,-3.41 1.84,0.1 3.32,1.58 3.42,3.42l-0.13 -0.01 0 -0zm-0.02 6.2c-2.35,-0.16 -4.23,-2.11 -4.32,-4.46 2.35,0.09 4.3,1.97 4.46,4.32l0.01 0.15 -0.15 -0.01zm-0.01 7.23c-2.94,-0.17 -5.26,-2.57 -5.35,-5.51 2.94,0.09 5.34,2.41 5.51,5.35l0.01 0.18 -0.18 -0.01zm0.68 -21.47c0.06,-0.06 0.03,-0.08 0.09,0 0.77,0.96 0.74,2.32 -0.05,3.26 -0.79,-0.94 -0.81,-2.3 -0.05,-3.26l0 0zm6.11 16.13c-0.17,2.94 -2.57,5.26 -5.51,5.35 0.08,-2.94 2.41,-5.34 5.35,-5.51l0.18 -0.01 -0.01 0.18z"/>
 </g>
</svg>
