<?xml version="1.0" encoding="UTF-8"?>
<!DOCTYPE svg PUBLIC "-//W3C//DTD SVG 1.1//EN" "http://www.w3.org/Graphics/SVG/1.1/DTD/svg11.dtd">
<!-- Creator: CorelDRAW 2018 (64-Bit Evaluation Version) -->
<svg xmlns="http://www.w3.org/2000/svg" xml:space="preserve" width="235.849mm" height="210.889mm" version="1.1" style="shape-rendering:geometricPrecision; text-rendering:geometricPrecision; image-rendering:optimizeQuality; fill-rule:evenodd; clip-rule:evenodd"
viewBox="0 0 10142.28 9068.91"
 xmlns:xlink="http://www.w3.org/1999/xlink">
 <defs>
  <style type="text/css">
   <![CDATA[
    .fil1 {fill:none}
    .fil0 {fill:black;fill-opacity:0.470588}
    .fil4 {fill:#33CC33;fill-opacity:0.549020}
    .fil2 {fill:#79C14E;fill-opacity:0.549020}
    .fil3 {fill:#CFDD4F;fill-opacity:0.549020}
   ]]>
  </style>
    <clipPath id="id0">
     <path d="M6207.79 1199.94c2172.95,0 3934.49,1761.53 3934.49,3934.49 0,2172.95 -1761.54,3934.49 -3934.49,3934.49 -2172.96,0 -3934.49,-1761.54 -3934.49,-3934.49 0,-2172.96 1761.53,-3934.49 3934.49,-3934.49zm0 1012.37c1613.84,0 2922.12,1308.28 2922.12,2922.12 0,1613.84 -1308.28,2922.12 -2922.12,2922.12 -1613.84,0 -2922.12,-1308.28 -2922.12,-2922.12 0,-1613.84 1308.28,-2922.12 2922.12,-2922.12z"/>
    </clipPath>
    <clipPath id="id1">
     <path d="M6207.79 1199.94c2172.95,0 3934.49,1761.53 3934.49,3934.49 0,2172.95 -1761.54,3934.49 -3934.49,3934.49 -2172.96,0 -3934.49,-1761.54 -3934.49,-3934.49 0,-2172.96 1761.53,-3934.49 3934.49,-3934.49zm0 1012.37c1613.84,0 2922.12,1308.28 2922.12,2922.12 0,1613.84 -1308.28,2922.12 -2922.12,2922.12 -1613.84,0 -2922.12,-1308.28 -2922.12,-2922.12 0,-1613.84 1308.28,-2922.12 2922.12,-2922.12z"/>
    </clipPath>
     <clipPath id="id2">
      <path d="M6207.79 1199.94c2172.95,0 3934.49,1761.53 3934.49,3934.49 0,2172.95 -1761.54,3934.49 -3934.49,3934.49 -2172.96,0 -3934.49,-1761.54 -3934.49,-3934.49 0,-2172.96 1761.53,-3934.49 3934.49,-3934.49zm0 1012.37c1613.84,0 2922.12,1308.28 2922.12,2922.12 0,1613.84 -1308.28,2922.12 -2922.12,2922.12 -1613.84,0 -2922.12,-1308.28 -2922.12,-2922.12 0,-1613.84 1308.28,-2922.12 2922.12,-2922.12z"/>
     </clipPath>
     <clipPath id="id3">
      <path d="M6207.79 1199.94c2172.95,0 3934.49,1761.53 3934.49,3934.49 0,2172.95 -1761.54,3934.49 -3934.49,3934.49 -2172.96,0 -3934.49,-1761.54 -3934.49,-3934.49 0,-2172.96 1761.53,-3934.49 3934.49,-3934.49zm0 1012.37c1613.84,0 2922.12,1308.28 2922.12,2922.12 0,1613.84 -1308.28,2922.12 -2922.12,2922.12 -1613.84,0 -2922.12,-1308.28 -2922.12,-2922.12 0,-1613.84 1308.28,-2922.12 2922.12,-2922.12z"/>
     </clipPath>
    <clipPath id="id4">
     <path d="M3934.49 1199.94c2172.95,0 3934.49,1761.53 3934.49,3934.49 0,2172.95 -1761.54,3934.49 -3934.49,3934.49 -2172.96,0 -3934.49,-1761.54 -3934.49,-3934.49 0,-2172.96 1761.53,-3934.49 3934.49,-3934.49zm0 1012.37c1613.84,0 2922.12,1308.28 2922.12,2922.12 0,1613.84 -1308.28,2922.12 -2922.12,2922.12 -1613.84,0 -2922.12,-1308.28 -2922.12,-2922.12 0,-1613.84 1308.28,-2922.12 2922.12,-2922.12z"/>
    </clipPath>
    <clipPath id="id5">
     <path d="M3934.49 1199.94c2172.95,0 3934.49,1761.53 3934.49,3934.49 0,2172.95 -1761.54,3934.49 -3934.49,3934.49 -2172.96,0 -3934.49,-1761.54 -3934.49,-3934.49 0,-2172.96 1761.53,-3934.49 3934.49,-3934.49zm0 1012.37c1613.84,0 2922.12,1308.28 2922.12,2922.12 0,1613.84 -1308.28,2922.12 -2922.12,2922.12 -1613.84,0 -2922.12,-1308.28 -2922.12,-2922.12 0,-1613.84 1308.28,-2922.12 2922.12,-2922.12z"/>
    </clipPath>
     <clipPath id="id6">
      <path d="M3934.49 1199.94c2172.95,0 3934.49,1761.53 3934.49,3934.49 0,2172.95 -1761.54,3934.49 -3934.49,3934.49 -2172.96,0 -3934.49,-1761.54 -3934.49,-3934.49 0,-2172.96 1761.53,-3934.49 3934.49,-3934.49zm0 1012.37c1613.84,0 2922.12,1308.28 2922.12,2922.12 0,1613.84 -1308.28,2922.12 -2922.12,2922.12 -1613.84,0 -2922.12,-1308.28 -2922.12,-2922.12 0,-1613.84 1308.28,-2922.12 2922.12,-2922.12z"/>
     </clipPath>
     <clipPath id="id7">
      <path d="M3934.49 1199.94c2172.95,0 3934.49,1761.53 3934.49,3934.49 0,2172.95 -1761.54,3934.49 -3934.49,3934.49 -2172.96,0 -3934.49,-1761.54 -3934.49,-3934.49 0,-2172.96 1761.53,-3934.49 3934.49,-3934.49zm0 1012.37c1613.84,0 2922.12,1308.28 2922.12,2922.12 0,1613.84 -1308.28,2922.12 -2922.12,2922.12 -1613.84,0 -2922.12,-1308.28 -2922.12,-2922.12 0,-1613.84 1308.28,-2922.12 2922.12,-2922.12z"/>
     </clipPath>
    <clipPath id="id8">
     <path d="M5071.14 0c2172.95,0 3934.49,1761.53 3934.49,3934.48 0,2172.96 -1761.54,3934.49 -3934.49,3934.49 -2172.96,0 -3934.49,-1761.54 -3934.49,-3934.49 0,-2172.95 1761.53,-3934.48 3934.49,-3934.48zm0 1012.36c1613.84,0 2922.12,1308.28 2922.12,2922.12 0,1613.85 -1308.28,2922.13 -2922.12,2922.13 -1613.84,0 -2922.12,-1308.28 -2922.12,-2922.13 0,-1613.84 1308.28,-2922.12 2922.12,-2922.12z"/>
    </clipPath>
    <clipPath id="id9">
     <path d="M5071.14 0c2172.95,0 3934.49,1761.53 3934.49,3934.48 0,2172.96 -1761.54,3934.49 -3934.49,3934.49 -2172.96,0 -3934.49,-1761.54 -3934.49,-3934.49 0,-2172.95 1761.53,-3934.48 3934.49,-3934.48zm0 1012.36c1613.84,0 2922.12,1308.28 2922.12,2922.12 0,1613.85 -1308.28,2922.13 -2922.12,2922.13 -1613.84,0 -2922.12,-1308.28 -2922.12,-2922.13 0,-1613.84 1308.28,-2922.12 2922.12,-2922.12z"/>
    </clipPath>
     <clipPath id="id10">
      <path d="M5071.14 0c2172.95,0 3934.49,1761.53 3934.49,3934.48 0,2172.96 -1761.54,3934.49 -3934.49,3934.49 -2172.96,0 -3934.49,-1761.54 -3934.49,-3934.49 0,-2172.95 1761.53,-3934.48 3934.49,-3934.48zm0 1012.36c1613.84,0 2922.12,1308.28 2922.12,2922.12 0,1613.85 -1308.28,2922.13 -2922.12,2922.13 -1613.84,0 -2922.12,-1308.28 -2922.12,-2922.13 0,-1613.84 1308.28,-2922.12 2922.12,-2922.12z"/>
     </clipPath>
     <clipPath id="id11">
      <path d="M5071.14 0c2172.95,0 3934.49,1761.53 3934.49,3934.48 0,2172.96 -1761.54,3934.49 -3934.49,3934.49 -2172.96,0 -3934.49,-1761.54 -3934.49,-3934.49 0,-2172.95 1761.53,-3934.48 3934.49,-3934.48zm0 1012.36c1613.84,0 2922.12,1308.28 2922.12,2922.12 0,1613.85 -1308.28,2922.13 -2922.12,2922.13 -1613.84,0 -2922.12,-1308.28 -2922.12,-2922.13 0,-1613.84 1308.28,-2922.12 2922.12,-2922.12z"/>
     </clipPath>
   <clipPath id="id12">
    <path d="M1877.34 2025.27l3323.82 -2023.16 2879.43 2077.77 1947.9 3151.79 -1592.88 3146.18 -4156.06 186.93 -1431.72 -247.44 -1309.83 -1128.06 -1135.25 -2148.91 1474.58 -3015.11z"/>
   </clipPath>
 </defs>
 <g id="Layer_x0020_1">
  <metadata id="CorelCorpID_0Corel-Layer"/>
  <g id="_1967575327584">
   <g style="clip-path:url(#id0)">
    <polygon class="fil0" points="2273.3,1199.94 10142.28,1199.94 10142.28,9068.91 2273.3,9068.91 "/>
   </g>
   <g style="clip-path:url(#id1)">
    <g>
    </g>
    <g style="clip-path:url(#id2)">
     <image x="-1508.72" y="-95.58" width="11650.99" height="11650.99" xlink:href="galãGB_Images\galãGB_ImgID1.png"/>
    </g>
    <g style="clip-path:url(#id3)">
    </g>
   </g>
   <path class="fil1" d="M6207.79 1199.94c2172.95,0 3934.49,1761.53 3934.49,3934.49 0,2172.95 -1761.54,3934.49 -3934.49,3934.49 -2172.96,0 -3934.49,-1761.54 -3934.49,-3934.49 0,-2172.96 1761.53,-3934.49 3934.49,-3934.49zm0 1012.37c1613.84,0 2922.12,1308.28 2922.12,2922.12 0,1613.84 -1308.28,2922.12 -2922.12,2922.12 -1613.84,0 -2922.12,-1308.28 -2922.12,-2922.12 0,-1613.84 1308.28,-2922.12 2922.12,-2922.12z"/>
   <g style="clip-path:url(#id4)">
    <polygon class="fil0" points="-0,1199.94 7868.97,1199.94 7868.97,9068.91 -0,9068.91 "/>
   </g>
   <g style="clip-path:url(#id5)">
    <g>
    </g>
    <g style="clip-path:url(#id6)">
     <image x="-1508.72" y="-95.58" width="11650.99" height="11650.99" xlink:href="galãGB_Images\galãGB_ImgID2.png"/>
    </g>
    <g style="clip-path:url(#id7)">
    </g>
   </g>
   <path class="fil1" d="M3934.49 1199.94c2172.95,0 3934.49,1761.53 3934.49,3934.49 0,2172.95 -1761.54,3934.49 -3934.49,3934.49 -2172.96,0 -3934.49,-1761.54 -3934.49,-3934.49 0,-2172.96 1761.53,-3934.49 3934.49,-3934.49zm0 1012.37c1613.84,0 2922.12,1308.28 2922.12,2922.12 0,1613.84 -1308.28,2922.12 -2922.12,2922.12 -1613.84,0 -2922.12,-1308.28 -2922.12,-2922.12 0,-1613.84 1308.28,-2922.12 2922.12,-2922.12z"/>
   <g style="clip-path:url(#id8)">
    <polygon class="fil0" points="1136.65,0 9005.63,0 9005.63,7868.97 1136.65,7868.97 "/>
   </g>
   <g style="clip-path:url(#id9)">
    <g>
    </g>
    <g style="clip-path:url(#id10)">
     <image x="-1508.72" y="-95.58" width="11650.99" height="11650.99" xlink:href="galãGB_Images\galãGB_ImgID3.png"/>
    </g>
    <g style="clip-path:url(#id11)">
    </g>
   </g>
   <path class="fil1" d="M5071.14 0c2172.95,0 3934.49,1761.53 3934.49,3934.48 0,2172.96 -1761.54,3934.49 -3934.49,3934.49 -2172.96,0 -3934.49,-1761.54 -3934.49,-3934.49 0,-2172.95 1761.53,-3934.48 3934.49,-3934.48zm0 1012.36c1613.84,0 2922.12,1308.28 2922.12,2922.12 0,1613.85 -1308.28,2922.13 -2922.12,2922.13 -1613.84,0 -2922.12,-1308.28 -2922.12,-2922.13 0,-1613.84 1308.28,-2922.12 2922.12,-2922.12z"/>
  </g>
  <g style="clip-path:url(#id12)">
   <image x="-1508.72" y="-95.58" width="11650.99" height="11650.99" xlink:href="galãGB_Images\galãGB_ImgID4.png"/>
  </g>
  <path class="fil2" d="M6207.79 1199.94c2172.95,0 3934.49,1761.53 3934.49,3934.49 0,2172.95 -1761.54,3934.49 -3934.49,3934.49 -1423.89,0 -2671.06,-756.42 -3361.75,-1889.3 632.86,434.83 1383.35,599.12 2198.67,636.3 15.61,0.71 68.44,0 52.86,0 -14.41,0 115.64,67.13 157,81.41 298.77,103.1 619.42,159.23 953.22,159.23 1613.84,0 2922.12,-1308.28 2922.12,-2922.12 0,-1613.84 -1308.28,-2922.12 -2922.12,-2922.12 -411.61,0 -803.26,85.27 -1158.48,238.84 3.41,-11.36 6.77,-22.45 10.07,-33.17 68.95,-223.73 128.94,-229.09 41.61,-431.49 -93.13,-215.87 32.92,-162.04 -168.61,-344.18 -3.56,-3.22 -8.76,-7.76 -12.26,-11.04 -79.59,-74.64 -97.59,-120.49 -139,-164.4 442.31,-172.23 923.4,-266.93 1426.66,-266.93zm-3919.25 3590.22c73.94,-852.66 419.74,-1627.42 950.37,-2237.22 22.49,162.85 25.63,410.81 105.9,513.84 152.43,195.63 46.83,-3.79 123.95,342.08 38.37,172.07 79.14,303.76 -53.81,370.64 -92.93,46.75 -60.6,4.57 -120.39,89.33 -25.14,35.65 -59.83,88.18 -79.34,130.38 -59.45,128.57 -23.72,122.83 -181.23,214.9 -290.44,169.75 -510.8,395.85 -697.99,537.02 -16.59,12.51 -32.4,25.54 -47.47,39.03z"/>
  <path class="fil3" d="M4237.11 1211.4c2031.55,154.53 3631.86,1851.89 3631.86,3923.02 0,1145.86 -489.86,2177.29 -1271.56,2896.36 -127.46,16.99 -257.52,25.77 -389.62,25.77 -226.78,0 -447.53,-25.83 -659.45,-74.72l3.44 -84.82c0,-105.49 -66.32,-168.16 84.21,-112.87 224.98,82.63 297.42,91.62 565.78,17.2 415.34,-115.19 519.12,70.11 566.53,-225.73 19.32,-120.53 7.21,-237.04 21.74,-374.4 25.63,-242.32 93.19,-293.92 -119.13,-586.43 -84.3,-116.13 -96.12,-59.93 -129.86,-154.41l0 -0 -0.81 -2.3c202.26,-397.38 316.36,-847.17 316.36,-1323.63 0,-1217.13 -744.21,-2260.3 -1802.34,-2699.69l0.08 -0.27 0.08 -0.26 0.08 -0.27 0.08 -0.27 0.08 -0.26 0.08 -0.27 0.08 -0.26 0.08 -0.27 0.08 -0.26 0.08 -0.27 0.08 -0.26 0.05 -0.17 0.03 -0.1 0.08 -0.26 0.08 -0.27 0.08 -0.26 0.08 -0.26 0.08 -0.27 0.08 -0.26 0.08 -0.26 0.08 -0.27 0.08 -0.26 0.08 -0.26 0.08 -0.26 0.08 -0.26 0.08 -0.26 0.08 -0.26 0.08 -0.27 2.24 -7.3 0.08 -0.26 0.08 -0.26 0.08 -0.26 0.08 -0.26 0.08 -0.26 0.08 -0.26 0.08 -0.26 0.08 -0.26 0.08 -0.26c68.95,-223.73 128.94,-229.09 41.61,-431.49 -93.13,-215.87 32.92,-162.04 -168.61,-344.18 -3.56,-3.22 -8.76,-7.76 -12.26,-11.04 -180.15,-168.93 -44.64,-190.41 -579.7,-375.67l-1.91 -0.66 -1.89 -0.67 -0.55 -0.19 -1.33 -0.47 -1.87 -0.67 -1.09 -0.4 -0.77 -0.28 -1.85 -0.68 -1.62 -0.59 -0.22 -0.08 -0.39 -0.14 -3.26 -1.21 -0.31 -0.12 -1.49 -0.56 -1.79 -0.68 -0.84 -0.32 -0.95 -0.37 -1.77 -0.68 -1.35 -0.52 -0.42 -0.16 -1.75 -0.69 -1.74 -0.69 -0.1 -0.04 -1.63 -0.65 -1.72 -0.69 -0.61 -0.24 -1.11 -0.45 -1.7 -0.7 -1.09 -0.45 -0.6 -0.25 -1.68 -0.7 -1.57 -0.65 -0.1 -0.04 -1.66 -0.7 -1.66 -0.7 -0.38 -0.16 -1.26 -0.54 -1.64 -0.7 -0.86 -0.37 -0.77 -0.33 -1.63 -0.71 -1.32 -0.57 -0.29 -0.13 -1.6 -0.7 -1.6 -0.7 -0.18 -0.08 -1.41 -0.62 -1.58 -0.7 -0.65 -0.29 -0.92 -0.41 -1.57 -0.71 -1.1 -0.49 -0.46 -0.21 -1.55 -0.7 -1.54 -0.7 -1.54 -0.71 -1.53 -0.7 -0.45 -0.2 -1.08 -0.5 -1.51 -0.7 -1.51 -0.7 -1.51 -0.7 -1.32 -0.61 -0.18 -0.09 -1.49 -0.7 -1.48 -0.7 -0.26 -0.12 -1.22 -0.58 -1.47 -0.69 -0.69 -0.32 -0.78 -0.37 -1.46 -0.69 -1.11 -0.52 -0.34 -0.17 -1.45 -0.69 -1.44 -0.69 -0.08 -0.04 -1.36 -0.65 -1.43 -0.69 -0.5 -0.24 -0.93 -0.45 -1.42 -0.68 -0.92 -0.44 -0.5 -0.24 -1.41 -0.68 -4.22 -2.03zm-1388.22 7705.73c-1644.97,-471.22 -2848.89,-1986.33 -2848.89,-3782.71 0,-2164.17 1747.38,-3920 3908.23,-3934.16 -29.29,10.23 -61.68,22.98 -97.82,38.63 -90.32,39.13 -237.45,76.01 -268.38,180.06 -3.65,12.28 -5.69,21.81 -7.08,29.53l-0.3 1.69 -0.02 0.12 -0.26 1.52 -0.08 0.45 -0.18 1.13 -0.13 0.75 -0.12 0.77 -0.17 1.04 -0.07 0.43 -0.21 1.3 -0.02 0.12 -0.22 1.38 -0.03 0.16 -0.19 1.17 -0.07 0.43 -0.14 0.86 -0.12 0.68 -0.1 0.57 -0.16 0.92 -0.06 0.3 -0.22 1.14 -0.01 0.04 -0.23 1.15 -0.04 0.19 -0.2 0.92 -0.09 0.42 -0.03 0.13 -0.25 1.02 -0.03 0.15 -0.11 0.43 -0.23 0.84 -0.06 0.2c-0.22,0.76 -0.45,1.51 -0.71,2.24l-0.01 0.03 -0.37 1.01 -0.14 0.36 -0.31 0.77 -0.13 0.31 -0.39 0.86 -0.08 0.18 -0.06 0.14 -0.47 0.94 -0.03 0.06 -0.55 1.01 -0.06 0.12 -0.4 0.68 -0.08 0.12 -0.38 0.61 -0.33 0.51 -0.36 0.53 -0.06 0.09 -0.61 0.85 -0.06 0.09 -0.72 0.94 -0.09 0.11 -0.23 0.28 -0.67 0.82 -0.12 0.14 -0.84 0.96 -0.22 0.25 -0.83 0.9 -0.22 0.23 -1.07 1.09 -0.06 0.06 -0.04 0.04 -1.06 1.03 -0.18 0.17 -0.16 0.15 -1.11 1.03 -0.3 0.27 -1.05 0.94 -0.23 0.21 -0.53 0.46 -1.05 0.9 -0.28 0.23 -1.4 1.16 -0.01 0.01 -1.47 1.19 -0.33 0.26 -1.23 0.97 -0.69 0.54 -0.95 0.74 -1.08 0.83 -0.64 0.48 -1.52 1.14 -0.28 0.21 -1.9 1.4 -0.11 0.08 -1.88 1.36 -0.55 0.4 -0.21 0.15 -2.35 1.69 -1.15 0.82 -1.55 1.1 -0.72 0.51 -2.12 1.49 -0.25 0.17 -2.47 1.72 -0.28 0.19 -2.3 1.59 -0.84 0.58 -1.84 1.26 -1.46 1 -1.33 0.91 -2.14 1.45 -0.77 0.52 -2.87 1.94 -0.15 0.11 -3.14 2.12 -0.51 0.34 -2.75 1.85 -1.23 0.83 -2.15 1.44 -2.02 1.35 -1.49 1 -2.86 1.92 -0.77 0.52 -3.76 2.52 0 -0.54 0 -0.54 0 -0.54 0 -0.49 0 -0.05 0 -0.54 0 -0.54 0 -0.55 0 -0.44 0 -0.1 0 -0.55 0 -0.54 0 -0.55 0 -0.4 0 -0.15 0 -0.55 0 -0.55 0 -0.55 0 -0.35 0 -0.2 0 -0.55 0 -0.55 0 -0.55 0 -0.3 0 -0.25 0 -0.55 0 -0.55 0 -0.55 0 -0.25 0 -0.3 0.01 -0.55 0 -0.55 0 -0.55 0 -0.21 0 -0.35 0 -0.56 0 -0.55 0 -0.55 0 -0.15 0 -0.4 0 -0.56 0 -0.55 0 -0.56 0 -0.11 0 -0.45 0 -0.56 0 -0.56 0 -0.56 0 -0.06 0 -0.5 0 -0.56 0 -0.56 0 -0.56 0 -0 0 -0.56 0 -0.56 0 -0.56 0 -0.52 0 -0.05 0 -0.56 0 -0.57 0 -0.56 0 -0.47 0 -0.1 0 -0.56 0 -0.57 0 -0.56 0 -0.42 0 -0.15 0 -0.57 0 -0.57 -0 -0.57 0 -0.37 0 -0.2 0 -0.57 -0 -0.57 0 -0.57 -0 -0.32 0 -0.25 -0 -0.57c-0.23,-35.37 -3.24,-72.42 -23.46,-104.2 -14.9,63.96 -24,108.8 -29.7,140.44l-0.07 0.38 -0.8 4.47 -0.65 3.68 -0.67 3.88 -0.41 2.43c-2.78,16.47 -4.48,28.54 -5.6,37.37l-0.4 3.23 -0.66 5.59 -0.15 1.26 -0.12 1.13c-0.37,3.24 -0.65,5.75 -0.92,7.67l-0.01 0.03 -0.21 1.39 -0.03 0.17 -0.15 0.8 -0.1 0.48 -0.2 0.79 -0.03 0.13 -0.01 0.03c-0.07,0.26 -0.16,0.49 -0.24,0.72 -0.16,0.43 -0.34,0.8 -0.55,1.12l-0.03 0.04c-2.12,3.16 -6.97,1.66 -22.78,15.58l-0.36 0.31c-1.91,1.69 -3.99,3.62 -6.23,5.79l-0.05 0.05c-1.08,1.05 -2.21,2.17 -3.37,3.34l-0.45 0.46 -3.06 3.15 -1.07 1.12 -2.7 2.88 -1.25 1.35c-1.34,1.46 -2.71,2.98 -4.14,4.58l-0.1 0.11c-1.4,1.58 -2.86,3.24 -4.35,4.97l-1.26 1.47 -3.69 4.33 -1.33 1.59 -3.5 4.22 -1.94 2.36 -4.45 5.5 -0.68 0.85c-1.95,2.44 -3.94,4.95 -6,7.59l-0.07 0.09c-2.02,2.58 -4.11,5.31 -6.25,8.09l-1.02 1.34 -5.1 6.73 -2.71 3.63 -3.7 4.98 -3.4 4.61 -3.76 5.16 -3.29 4.53c-2.38,3.29 -4.83,6.71 -7.34,10.24 -58.98,82.92 -57.21,53.88 -87.78,168.55l-3.04 11.49 -0.94 3.58 -1.85 7.12 -1.12 4.34 -2.61 10.24 -0.15 0.61 -2.54 10.2 -0.58 2.36 -2.02 8.3 -0.5 2.09 -2.18 9.19 -0.25 1.04c-0.79,3.37 -1.55,6.68 -2.29,9.96l-0.28 1.23 -1.76 7.92 -0.63 2.86 -1.53 7.11 -0.36 1.71c-0.65,3.09 -1.28,6.15 -1.89,9.16l-0.08 0.39 -1.58 8.07 -0.41 2.14 -1.14 6.1 -0.52 2.82c-0.46,2.57 -0.92,5.12 -1.34,7.62l-0.04 0.27c-0.42,2.48 -0.83,4.93 -1.21,7.36l-0.48 3.04 -0.77 5.04 -0.38 2.61 -0.84 6.01 -0.17 1.23 -0.02 0.17 -0.03 0.25c-0.3,2.25 -0.58,4.48 -0.85,6.69l-0.32 2.77 -0.52 4.59 -0.26 2.41 -0.49 4.91 -0.22 2.3c-0.2,2.18 -0.37,4.33 -0.54,6.48l-0.16 2.2 -0.3 4.4 -0.16 2.67 -0.21 3.95 -0.13 2.82 -0.01 0.16c-0.08,1.84 -0.15,3.67 -0.2,5.49l-0 0.22 -0.06 2.35 -0.08 4.28 -0.03 2.14 -0.01 4.34 0.01 2.39 0.06 4.33 0.1 4.16 0.11 3.37 0.11 2.64 0.18 3.78 0.14 2.51 0.25 3.93 0.28 3.78 0.35 4.24 0.2 2.16 0.39 3.99 0.24 2.31 0.5 4.42 0.33 2.77 0.61 4.79 0.38 2.74 0.51 3.58 0.35 2.33 0.67 4.29 0.37 2.31 0.01 0.05 0.9 5.34 0.06 0.34 0.41 2.32 0.78 4.3 0.44 2.34 0.93 4.82 0.3 1.53 1.26 6.23 0.14 0.66 0.28 1.29 1.06 4.98 0.56 2.6 0.89 4.03 0.72 3.22 0.07 0.32 1.35 5.87 0.07 0.31 0.43 1.84 1.31 5.55 0.33 1.35 1.18 4.92 0.96 3.94 0.07 0.28 1.52 6.17 0.03 0.1 1.6 6.39 0.48 1.91 1.17 4.6 1.02 4 0.68 2.64 1.6 6.2 0.15 0.57 1.79 6.91c-1249.66,331.64 -2170.65,1470.38 -2170.65,2824.39 0,1186.14 706.75,2207.19 1722.1,2665.1 6.53,57.7 3,61.38 28.86,136.32 116.89,338.82 27.41,240.74 84.53,381.51 17.81,43.9 70.81,110.25 70.81,162.21 0,144.75 -66.53,67.1 -69.77,437.57zm499.42 -7270.11c-1.34,1.46 -2.71,2.98 -4.14,4.58zm-21.3 25.4c-1.94,2.43 -3.94,4.96 -6,7.59zm161.05 -288.84l-6.94 -6.95c0.45,0.46 4.62,9.27 6.94,6.95zm23.3 -23.3l-6.95 -6.95c0.46,0.46 4.63,9.27 6.95,6.95z"/>
  <path class="fil4" d="M5071.14 0c2172.95,0 3934.49,1761.53 3934.49,3934.48 0,5175.34 -7868.97,5175.34 -7868.97,0 0,-2172.95 1761.53,-3934.48 3934.49,-3934.48zm0 1012.36c1613.84,0 2922.12,1308.28 2922.12,2922.12 0,1613.85 -1308.28,2922.13 -2922.12,2922.13 -1613.84,0 -2922.12,-1308.28 -2922.12,-2922.13 0,-1613.84 1308.28,-2922.12 2922.12,-2922.12z"/>
 </g>
</svg>
