<?xml version="1.0" encoding="UTF-8"?>
<!DOCTYPE svg PUBLIC "-//W3C//DTD SVG 1.1//EN" "http://www.w3.org/Graphics/SVG/1.1/DTD/svg11.dtd">
<!-- Creator: CorelDRAW 2018 (64-Bit Evaluation Version) -->
<svg xmlns="http://www.w3.org/2000/svg" xml:space="preserve" width="312.986mm" height="41.9972mm" version="1.1" style="shape-rendering:geometricPrecision; text-rendering:geometricPrecision; image-rendering:optimizeQuality; fill-rule:evenodd; clip-rule:evenodd"
viewBox="0 0 4121.79 553.07"
 xmlns:xlink="http://www.w3.org/1999/xlink">
 <defs>
  <style type="text/css">
   <![CDATA[
    .str1 {stroke:#79C14E;stroke-width:17.42;stroke-miterlimit:22.9256;stroke-opacity:0.200000}
    .str0 {stroke:#CFDD4F;stroke-width:17.42;stroke-miterlimit:22.9256;stroke-opacity:0.200000}
    .fil0 {fill:none}
   ]]>
  </style>
 </defs>
 <g id="Layer_x0020_1">
  <metadata id="CorelCorpID_0Corel-Layer"/>
  <path class="fil0 str0" d="M2405.18 78.05c-748.44,21.66 -655.13,-62.42 -1521.04,-69.25 -597.74,-4.72 -930.28,112.96 -762.73,227.62 203.27,139.1 451.81,142.48 1079.2,226.81 685.4,92.13 876.33,-34.86 1539.95,-70.37 663.64,-35.51 1266.62,24.66 1359.3,-80.2 92.68,-104.86 -324.87,-179.26 -499.04,-200.31 -174.16,-21.06 -447.2,-55.96 -1195.64,-34.3z"/>
  <path class="fil0 str1" d="M2335.49 126.32c-748.44,21.66 -655.13,-62.42 -1521.04,-69.25 -597.74,-4.72 -930.28,112.96 -762.73,227.62 203.27,139.1 451.81,142.48 1079.2,226.81 685.4,92.13 876.33,-34.86 1539.95,-70.37 663.64,-35.51 1266.62,24.66 1359.3,-80.2 92.68,-104.86 -324.87,-179.25 -499.04,-200.31 -174.16,-21.06 -447.2,-55.96 -1195.64,-34.3z"/>
 </g>
</svg>
