<svg width="153" height="153" viewBox="0 0 153 153" fill="none" xmlns="http://www.w3.org/2000/svg">
<circle cx="76.5" cy="76.5" r="72.5" stroke="#79C14E" stroke-width="7"/>
<path d="M75.4792 110.333C75.7569 110.333 76.0347 110.264 76.3125 110.125C76.5903 109.986 76.7986 109.847 76.9375 109.708L111.104 75.5416C111.938 74.7083 112.545 73.7708 112.927 72.7291C113.309 71.6874 113.5 70.6458 113.5 69.6041C113.5 68.493 113.309 67.4339 112.927 66.427C112.545 65.4201 111.938 64.5346 111.104 63.7708L93.3958 46.0624C92.6319 45.2291 91.7465 44.6214 90.7396 44.2395C89.7326 43.8576 88.6736 43.6666 87.5625 43.6666C86.5208 43.6666 85.4792 43.8576 84.4375 44.2395C83.3958 44.6214 82.4583 45.2291 81.625 46.0624L80.4792 47.2083L88.1875 55.0208C89.2292 55.993 89.9931 57.1041 90.4792 58.3541C90.9653 59.6041 91.2083 60.9235 91.2083 62.3124C91.2083 65.2291 90.2188 67.677 88.2396 69.6562C86.2604 71.6353 83.8125 72.6249 80.8958 72.6249C79.5069 72.6249 78.1701 72.3819 76.8854 71.8958C75.6007 71.4096 74.4722 70.6805 73.5 69.7083L65.6875 61.9999L47.4583 80.2291C47.25 80.4374 47.0938 80.6631 46.9896 80.9062C46.8854 81.1492 46.8333 81.4096 46.8333 81.6874C46.8333 82.243 47.0417 82.7465 47.4583 83.1978C47.875 83.6492 48.3611 83.8749 48.9167 83.8749C49.1944 83.8749 49.4722 83.8055 49.75 83.6666C50.0278 83.5277 50.2361 83.3888 50.375 83.2499L64.5417 69.0833L70.375 74.9166L56.3125 89.0833C56.1042 89.2916 55.9479 89.5173 55.8438 89.7603C55.7396 90.0034 55.6875 90.2638 55.6875 90.5416C55.6875 91.0971 55.8958 91.5833 56.3125 91.9999C56.7292 92.4166 57.2153 92.6249 57.7708 92.6249C58.0486 92.6249 58.3264 92.5555 58.6042 92.4166C58.8819 92.2777 59.0903 92.1388 59.2292 91.9999L73.3958 77.9374L79.2292 83.7708L65.1667 97.9374C64.9583 98.0763 64.8021 98.2846 64.6979 98.5624C64.5937 98.8402 64.5417 99.118 64.5417 99.3958C64.5417 99.9513 64.75 100.437 65.1667 100.854C65.5833 101.271 66.0694 101.479 66.625 101.479C66.9028 101.479 67.1632 101.427 67.4062 101.323C67.6493 101.219 67.875 101.062 68.0833 100.854L82.25 86.7916L88.0833 92.6249L73.9167 106.792C73.7083 107 73.5521 107.226 73.4479 107.469C73.3438 107.712 73.2917 107.972 73.2917 108.25C73.2917 108.805 73.5174 109.292 73.9688 109.708C74.4201 110.125 74.9236 110.333 75.4792 110.333ZM75.375 118.667C72.8056 118.667 70.5312 117.816 68.5521 116.115C66.5729 114.413 65.4097 112.278 65.0625 109.708C62.7014 109.361 60.7222 108.389 59.125 106.792C57.5278 105.194 56.5556 103.215 56.2083 100.854C53.8472 100.507 51.8854 99.5173 50.3229 97.8853C48.7604 96.2534 47.8056 94.2916 47.4583 91.9999C44.8194 91.6527 42.6667 90.5069 41 88.5624C39.3333 86.618 38.5 84.3263 38.5 81.6874C38.5 80.2985 38.7604 78.9617 39.2812 77.677C39.8021 76.3923 40.5486 75.2638 41.5208 74.2916L65.6875 50.2291L79.3333 63.8749C79.4722 64.0833 79.6806 64.2395 79.9583 64.3437C80.2361 64.4478 80.5139 64.4999 80.7917 64.4999C81.4167 64.4999 81.9375 64.3089 82.3542 63.927C82.7708 63.5451 82.9792 63.0416 82.9792 62.4166C82.9792 62.1388 82.9271 61.861 82.8229 61.5833C82.7188 61.3055 82.5625 61.0971 82.3542 60.9583L67.4583 46.0624C66.6944 45.2291 65.809 44.6214 64.8021 44.2395C63.7951 43.8576 62.7361 43.6666 61.625 43.6666C60.5833 43.6666 59.5417 43.8576 58.5 44.2395C57.4583 44.6214 56.5208 45.2291 55.6875 46.0624L41 60.8541C40.375 61.4791 39.8542 62.2083 39.4375 63.0416C39.0208 63.8749 38.7431 64.7083 38.6042 65.5416C38.4653 66.3749 38.4653 67.2256 38.6042 68.0937C38.7431 68.9617 39.0208 69.7777 39.4375 70.5416L33.3958 76.5833C32.2153 74.986 31.3472 73.2326 30.7917 71.3228C30.2361 69.4131 30.0278 67.486 30.1667 65.5416C30.3056 63.5971 30.7917 61.7048 31.625 59.8645C32.4583 58.0242 33.6042 56.3749 35.0625 54.9166L49.75 40.2291C51.4167 38.6319 53.2743 37.4166 55.3229 36.5833C57.3715 35.7499 59.4722 35.3333 61.625 35.3333C63.7778 35.3333 65.8785 35.7499 67.9271 36.5833C69.9757 37.4166 71.7986 38.6319 73.3958 40.2291L74.5417 41.3749L75.6875 40.2291C77.3542 38.6319 79.2118 37.4166 81.2604 36.5833C83.309 35.7499 85.4097 35.3333 87.5625 35.3333C89.7153 35.3333 91.816 35.7499 93.8646 36.5833C95.9132 37.4166 97.7361 38.6319 99.3333 40.2291L116.938 57.8333C118.535 59.4305 119.75 61.2708 120.583 63.3541C121.417 65.4374 121.833 67.5555 121.833 69.7083C121.833 71.861 121.417 73.9617 120.583 76.0103C119.75 78.0589 118.535 79.8819 116.938 81.4791L82.7708 115.542C81.7986 116.514 80.6701 117.278 79.3854 117.833C78.1007 118.389 76.7639 118.667 75.375 118.667Z" fill="#1C1B1F"/>
</svg>
