<svg width="153" height="153" viewBox="0 0 153 153" fill="none" xmlns="http://www.w3.org/2000/svg">
<circle cx="76.5" cy="76.5" r="72.5" stroke="#CFDD4F" stroke-width="7"/>
<path d="M54.8333 106.167C49.0694 106.167 44.1563 104.135 40.0938 100.073C36.0312 96.0104 34 91.0972 34 85.3333C34 80.2639 35.5799 75.8368 38.7396 72.0521C41.8993 68.2674 45.875 65.8889 50.6667 64.9167V73.5625C48.2361 74.3958 46.2396 75.8889 44.6771 78.0417C43.1146 80.1944 42.3333 82.625 42.3333 85.3333C42.3333 88.8056 43.5486 91.7569 45.9792 94.1875C48.4097 96.618 51.3611 97.8333 54.8333 97.8333C58.3056 97.8333 61.2569 96.618 63.6875 94.1875C66.1181 91.7569 67.3333 88.8056 67.3333 85.3333V81.1667H91.8125C92.3681 80.5417 93.0451 80.0382 93.8438 79.6562C94.6424 79.2743 95.5278 79.0833 96.5 79.0833C98.2361 79.0833 99.7118 79.691 100.927 80.9062C102.142 82.1215 102.75 83.5972 102.75 85.3333C102.75 87.0694 102.142 88.5451 100.927 89.7604C99.7118 90.9757 98.2361 91.5833 96.5 91.5833C95.5278 91.5833 94.6424 91.3924 93.8438 91.0104C93.0451 90.6285 92.3681 90.125 91.8125 89.5H75.25C74.2778 94.2917 71.8993 98.2674 68.1146 101.427C64.3299 104.587 59.9028 106.167 54.8333 106.167ZM96.5 106.167C92.6111 106.167 89.0868 105.212 85.9271 103.302C82.7674 101.392 80.2847 98.875 78.4792 95.75H89.625C90.5972 96.4444 91.6736 96.9653 92.8542 97.3125C94.0347 97.6597 95.25 97.8333 96.5 97.8333C99.9722 97.8333 102.924 96.618 105.354 94.1875C107.785 91.7569 109 88.8056 109 85.3333C109 81.8611 107.785 78.9097 105.354 76.4792C102.924 74.0486 99.9722 72.8333 96.5 72.8333C95.1111 72.8333 93.8264 73.0243 92.6458 73.4062C91.4653 73.7882 90.3542 74.3611 89.3125 75.125L76.6042 53.9792C75.1458 53.7014 73.9306 53.0069 72.9583 51.8958C71.9861 50.7847 71.5 49.4306 71.5 47.8333C71.5 46.0972 72.1076 44.6215 73.3229 43.4062C74.5382 42.191 76.0139 41.5833 77.75 41.5833C79.4861 41.5833 80.9618 42.191 82.1771 43.4062C83.3924 44.6215 84 46.0972 84 47.8333V48.7188C84 48.9618 83.9306 49.2569 83.7917 49.6042L92.8542 64.8125C93.4097 64.6736 94 64.5868 94.625 64.5521C95.25 64.5174 95.875 64.5 96.5 64.5C102.264 64.5 107.177 66.5312 111.24 70.5938C115.302 74.6562 117.333 79.5694 117.333 85.3333C117.333 91.0972 115.302 96.0104 111.24 100.073C107.177 104.135 102.264 106.167 96.5 106.167ZM54.8333 91.5833C53.0972 91.5833 51.6215 90.9757 50.4063 89.7604C49.191 88.5451 48.5833 87.0694 48.5833 85.3333C48.5833 83.8056 49.0694 82.4861 50.0417 81.375C51.0139 80.2639 52.1944 79.5347 53.5833 79.1875L63.375 62.9375C61.3611 61.0625 59.7813 58.8229 58.6354 56.2188C57.4896 53.6146 56.9167 50.8194 56.9167 47.8333C56.9167 42.0694 58.9479 37.1562 63.0104 33.0937C67.0729 29.0312 71.9861 27 77.75 27C83.5139 27 88.4271 29.0312 92.4896 33.0937C96.5521 37.1562 98.5833 42.0694 98.5833 47.8333H90.25C90.25 44.3611 89.0347 41.4097 86.6042 38.9792C84.1736 36.5486 81.2222 35.3333 77.75 35.3333C74.2778 35.3333 71.3264 36.5486 68.8958 38.9792C66.4653 41.4097 65.25 44.3611 65.25 47.8333C65.25 50.8194 66.1528 53.441 67.9583 55.6979C69.7639 57.9549 72.0556 59.3958 74.8333 60.0208L60.7708 83.4583C60.9097 83.8056 60.9965 84.1181 61.0313 84.3958C61.066 84.6736 61.0833 84.9861 61.0833 85.3333C61.0833 87.0694 60.4757 88.5451 59.2604 89.7604C58.0451 90.9757 56.5694 91.5833 54.8333 91.5833Z" fill="#1C1B1F"/>
</svg>
