<?xml version="1.0" encoding="UTF-8"?>
<!DOCTYPE svg PUBLIC "-//W3C//DTD SVG 1.1//EN" "http://www.w3.org/Graphics/SVG/1.1/DTD/svg11.dtd">
<!-- Creator: CorelDRAW 2018 (64-Bit Evaluation Version) -->
<svg xmlns="http://www.w3.org/2000/svg" xml:space="preserve" width="568.065mm" height="22.8024mm" version="1.1" style="shape-rendering:geometricPrecision; text-rendering:geometricPrecision; image-rendering:optimizeQuality; fill-rule:evenodd; clip-rule:evenodd"
viewBox="0 0 16259.92 652.68"
 xmlns:xlink="http://www.w3.org/1999/xlink">
 <defs>
  <style type="text/css">
   <![CDATA[
    .str1 {stroke:#79C14E;stroke-width:37.87;stroke-miterlimit:22.9256}
    .str0 {stroke:#CFDD4F;stroke-width:37.87;stroke-miterlimit:22.9256}
    .fil0 {fill:none}
   ]]>
  </style>
 </defs>
 <g id="Layer_x0020_1">
  <metadata id="CorelCorpID_0Corel-Layer"/>
  <path class="fil0 str0" d="M7.95 368.56c825.49,-205.91 878.31,164.45 2391.4,0 2810.68,-305.47 2789.32,703.13 5127.2,27.3 2337.91,-675.83 3332.81,-282.93 3963.51,-50.39 624.34,230.21 1887.46,247.35 4767.32,-142.88"/>
  <path class="fil0 str1" d="M16257.38 302.56c-730.38,30.09 -1297.08,195.85 -1769.8,207.34 -694.45,16.89 -1355.76,-308.39 -1865.7,-359.25 -624.59,-62.3 -1216.01,249.19 -2301.55,182.65 -1721.35,-122.89 -2831.27,-9.68 -4010.8,-61.83 -584.86,-25.86 -1559.15,-276.68 -2181.07,31.08 -825.24,418.01 -1817.41,-225.33 -2547.09,-20.81 -512.37,143.61 -845.79,27.5 -1581.2,20.81"/>
 </g>
</svg>
