<?xml version="1.0" encoding="UTF-8"?>
<!DOCTYPE svg PUBLIC "-//W3C//DTD SVG 1.1//EN" "http://www.w3.org/Graphics/SVG/1.1/DTD/svg11.dtd">
<!-- Creator: CorelDRAW 2018 (64-Bit Evaluation Version) -->
<svg xmlns="http://www.w3.org/2000/svg" xml:space="preserve" width="311.066mm" height="211.674mm" version="1.1" style="shape-rendering:geometricPrecision; text-rendering:geometricPrecision; image-rendering:optimizeQuality; fill-rule:evenodd; clip-rule:evenodd"
viewBox="0 0 8846.28 6019.72"
 xmlns:xlink="http://www.w3.org/1999/xlink">
 <defs>
  <style type="text/css">
   <![CDATA[
    .str0 {stroke:#79C14E;stroke-width:37.62;stroke-miterlimit:22.9256}
    .str1 {stroke:#CFDD4F;stroke-width:37.62;stroke-miterlimit:22.9256}
    .fil0 {fill:none}
   ]]>
  </style>
 </defs>
 <g id="Layer_x0020_1">
  <metadata id="CorelCorpID_0Corel-Layer"/>
  <path class="fil0 str0" d="M4174.09 5462.84c1502.33,-749.73 1528.89,270.72 3350.83,-233.38 1257.68,-347.98 1641.24,-1911.85 990.85,-3105.27 -789.03,-1447.83 -1315.7,-1319.24 -2844.39,-1858.21 -1670.04,-588.8 -2609.37,-49.01 -3898.62,801.48 -1289.23,850.5 -1828.3,1605.28 -1745.8,2861.93 82.49,1256.66 1147.88,1823.47 1566.07,1946.26 418.18,122.8 1078.74,336.9 2581.06,-412.82z"/>
  <path class="fil0 str1" d="M5094.13 1010.75c-1616.23,255.77 -1414.74,-736.97 -3284.64,-817.64 -1290.8,-55.69 -2008.92,1333.69 -1647.1,2687.44 438.96,1642.34 975.67,1682.17 2330.5,2677.88 1480.1,1087.77 1892.4,-411.57 3325.49,-830.84 1433.1,-419.29 2735.23,291.15 2935.36,-946.86 200.13,-1238.01 -701.54,-2116.41 -1077.66,-2365.01 -376.1,-248.6 -965.71,-660.73 -2581.95,-404.97z"/>
 </g>
</svg>
