<?xml version="1.0" encoding="UTF-8"?>
<!DOCTYPE svg PUBLIC "-//W3C//DTD SVG 1.1//EN" "http://www.w3.org/Graphics/SVG/1.1/DTD/svg11.dtd">
<!-- Creator: CorelDRAW 2018 (64-Bit Evaluation Version) -->
<svg xmlns="http://www.w3.org/2000/svg" xml:space="preserve" width="181.393mm" height="197.769mm" version="1.1" style="shape-rendering:geometricPrecision; text-rendering:geometricPrecision; image-rendering:optimizeQuality; fill-rule:evenodd; clip-rule:evenodd"
viewBox="0 0 7661.83 8353.54"
 xmlns:xlink="http://www.w3.org/1999/xlink">
 <defs>
  <style type="text/css">
   <![CDATA[
    .str0 {stroke:red;stroke-width:55.88;stroke-linecap:round;stroke-linejoin:round;stroke-miterlimit:22.9256}
    .fil1 {fill:black}
    .fil0 {fill:#CCCCCC}
   ]]>
  </style>
 </defs>
 <g id="Layer_x0020_1">
  <metadata id="CorelCorpID_0Corel-Layer"/>
  <path id="MS" class="fil0 str0" d="M7189.93 3868.66l-5.89 7.34 -10.72 24.2c-0.52,1.18 -1.14,2.11 -2.02,3.06l-12.49 13.39 -29.31 65.41c-0.38,0.84 -0.79,1.52 -1.36,2.25l-6.28 8.09c-0.8,1.03 -1.65,1.8 -2.75,2.51l-12.34 7.92 -27.02 18.86 -13.47 19.25 -31.88 61.76 -6.04 16.76c-0.56,1.57 -1.34,2.81 -2.51,4l-23.78 24.16c-0.35,0.36 -0.67,0.65 -1.07,0.95l-46.1 36.03c-0.04,0.03 -0.08,0.07 -0.13,0.11l-9.39 7.55 -8.63 9.21 -8.94 15.57 -33.1 89.39 -5.5 31.7 10.94 22.26c1.61,3.29 1.55,6.82 -0.17,10.05l-3.72 6.96 0 5.28c0,0.66 -0.05,1.22 -0.16,1.87l-6.01 34.92 2.33 34.02 5.72 24.46 10.51 18.79c1.15,2.06 1.58,4.14 1.34,6.48l-5.02 49.6c-0.15,1.4 -0.49,2.58 -1.12,3.84l-8.77 17.43c-0.85,1.7 -1.95,2.97 -3.5,4.06l-40.06 28.19c-1.85,1.3 -3.78,1.94 -6.04,2l-46.19 1.25 -8.47 7.24 -27.54 39.78 -18.85 37.86 -3.51 27.65c-0.14,1.08 -0.38,1.98 -0.81,2.97l-15.06 34.92c-1.07,2.49 -2.78,4.29 -5.2,5.5l-15.72 7.84 -5.85 10.45c-0.77,1.37 -1.66,2.4 -2.9,3.36l-8.77 6.73c-1.29,0.99 -2.57,1.61 -4.16,1.98l-22.56 5.38c-1.12,0.27 -2.11,0.35 -3.25,0.28l-17.9 -1.14 -3.94 2.34 -1.43 8.49 2.41 38.98c0.06,0.95 0.01,1.76 -0.16,2.69l-3.09 16.58 14.69 30.26c0.36,0.75 0.6,1.42 0.8,2.23l9.36 38.79 4.27 4.56c2.64,2.83 3.58,6.51 2.61,10.26l-9.76 37.99 -3.72 44.69c-0.08,1.01 -0.27,1.85 -0.61,2.8l-6.24 17.43c-0.57,1.6 -1.37,2.86 -2.56,4.06l-38.43 38.61 -11.26 28.95 -3.61 22.99c-0.06,0.4 -0.13,0.74 -0.24,1.13l-7.51 28.14c-0.58,2.17 -1.63,3.87 -3.3,5.37l-20.92 18.71 -12.84 26.21c-0.31,0.64 -0.63,1.16 -1.06,1.74l-5.02 6.73c-0.97,1.31 -2.04,2.24 -3.47,3.04l-31.29 17.43c-2.51,1.4 -5.14,1.76 -7.94,1.09l-59.34 -14.29 -4.42 0.6 -8.8 8.48 -15.14 26.22 -8.29 19.94 2.55 9.13c0.15,0.45 0.27,0.9 0.36,1.37l29.36 27.79c1.64,1.55 2.64,3.31 3.16,5.5l5.93 25.5 13.17 25.62c0.84,1.63 1.21,3.2 1.21,5.03l0 22.81c0,1.63 -0.3,3.02 -0.96,4.5l-28.8 64.37c-0.52,1.17 -1.13,2.09 -2.01,3.02l-16.67 17.87 -9.41 16.34c-1.44,2.5 -3.52,4.17 -6.28,5.03l-36.54 11.36 -17.81 15.71 -21.94 47.05 -1.12 15.41c-0.06,0.82 -0.18,1.51 -0.41,2.3l-6.29 21.46c-0.54,1.84 -1.39,3.29 -2.74,4.65l-43.19 43.63 -15.76 22.09c-1.13,1.59 -2.46,2.7 -4.22,3.55l-8.82 4.21 -3.39 4.52c-1.43,1.9 -3.18,3.15 -5.44,3.87l-9.42 3.02 -31.93 39.1 -9.12 23.24 -27.4 106.67c-0.3,1.16 -0.71,2.12 -1.35,3.13l-33.82 53.66c-0.8,1.27 -1.7,2.22 -2.92,3.09l-14.08 10.04 -4.31 4.66 -10.57 22.56c-0.56,1.18 -1.2,2.11 -2.11,3.04l-51.32 52.35c-0.35,0.35 -0.67,0.64 -1.05,0.95l-21.63 17.01 -6.4 14.86c-0.69,1.61 -1.6,2.85 -2.93,3.99l-6.24 5.37c-0.35,0.3 -0.67,0.54 -1.06,0.8l-10.04 6.73c-1.3,0.87 -2.56,1.39 -4.09,1.67l-19.54 3.69 -27.24 15.21c-0.43,0.24 -0.81,0.42 -1.27,0.61l-28.08 11.27 -22.24 21.33c-0.95,0.91 -1.89,1.55 -3.09,2.09l-22.42 10.14 -32.67 27.23c-1.19,0.99 -2.39,1.63 -3.88,2.09l-37.86 11.4 -28.31 24c-0.91,0.77 -1.79,1.31 -2.89,1.77l-21.27 8.86 -53.32 40.28 -42.09 42.48 -14.23 27.97c-0.84,1.66 -1.92,2.9 -3.44,3.98l-3.75 2.67c-0.58,0.41 -1.09,0.71 -1.73,1.01l-28.8 13.41c-0.28,0.13 -0.53,0.23 -0.82,0.34l-64.63 23.97 -48.85 22.45 -14.54 28.73c-1.22,2.4 -3.02,4.09 -5.49,5.15l-41.97 17.99 -25.01 24.36 -25.27 43.11 0 14.99 2.97 7.43c1.42,3.53 1,7.22 -1.17,10.35l-25.28 36.55 -55.11 73.76c-0.48,0.64 -0.94,1.14 -1.54,1.67l-21.3 18.79c-1.71,1.51 -3.56,2.36 -5.82,2.66l-38.66 5.18 -89.64 36.81 -27.68 14.2 -5.12 3.67 -15.13 23.69c-1.54,2.41 -3.67,3.97 -6.43,4.71l-22.95 6.17 -6.31 4.81 -20.66 22.13c-0.93,1 -1.87,1.7 -3.08,2.31l-20.58 10.4 -35.66 25.02c-0.64,0.45 -1.22,0.78 -1.94,1.09l-51.43 22.29 -9.98 7.48 -9.96 14.9 -0.95 9.37c-0.22,2.13 -0.92,3.9 -2.23,5.6l-11.3 14.73c-1.06,1.39 -2.24,2.36 -3.81,3.14l-17.36 8.69 -15.67 14.52 -9.09 25.63c-0.29,0.82 -0.63,1.5 -1.09,2.24l-15.52 24.34c0.25,0.56 0.45,1.14 0.61,1.75 0.22,0.82 0.35,1.63 0.39,2.45l1.12 9.88c0.07,0.61 0.09,1.14 0.06,1.76l-6.24 135.46c-0.1,2.23 -0.76,4.11 -2.06,5.92l-22.64 31.52 0.88 9.31c0.23,2.36 -0.22,4.44 -1.4,6.5l-27.02 47.3 -29.67 91.52c-0.07,0.22 -0.14,0.41 -0.22,0.62l-16.27 41.56c-0.29,0.74 -0.61,1.36 -1.05,2.03l-32.68 49.77 -9.99 14.77c-1.35,2 -3.07,3.34 -5.33,4.17l-46.46 17.01 -61.6 39.59c-0.29,0.18 -0.54,0.33 -0.84,0.49l-58.87 30.85c-1.81,0.95 -3.57,1.34 -5.61,1.25l-28.26 -1.27 -0.99 0.27 -9.71 8.34 -3.32 4.42 -21.47 58.84 -3.66 38.83c-0.09,0.94 -0.26,1.74 -0.57,2.63l-17.06 48.39 -4.88 49.56 -2.49 26.83c-0.18,1.95 -0.77,3.59 -1.88,5.2l-12.75 18.63 -5.5 19.95 -2.42 44.38c-0.09,1.6 -0.45,2.95 -1.17,4.38l-22.98 45.35 -7.25 47.66 -2.21 20.31 1.81 5.86c0.68,2.22 0.68,4.3 0,6.51l-4.22 13.65 3.37 21.65c0,0 0,0 0,0l4.98 27.95c0.32,1.8 0.23,3.4 -0.31,5.15l-21.29 69.74c-0.32,1.03 -0.71,1.88 -1.29,2.78l-11.3 17.44c-0.19,0.3 -0.36,0.54 -0.59,0.82l-20.03 25.47c-1.05,1.33 -2.2,2.27 -3.71,3.03l-39.04 19.63 -76.71 60.98 -5.02 4.02c-1.09,0.87 -2.15,1.44 -3.47,1.88l-26.97 8.8 -12.27 9.53c-4.73,3.67 -11.57,2.88 -15.33,-1.79l-23.78 -29.5c-1.04,-1.29 -1.69,-2.59 -2.1,-4.2l-3.33 -13.12 -6.61 -10.61c-1.27,-2.04 -1.8,-4.14 -1.63,-6.53l0.64 -9.93 -8 -2.29 -17.74 2.4c-3.65,0.5 -7.02,-0.7 -9.53,-3.4l-12.11 -12.98 -7.76 -3.1c-2.12,-0.85 -3.73,-2.14 -5.02,-4.04l-18.18 -26.77 -13.23 -5.47c-3.1,-1.28 -5.25,-3.62 -6.28,-6.8l-12.38 -38.46c-0.13,-0.35 -0.24,-0.71 -0.33,-1.09 -0.05,-0.17 -0.09,-0.34 -0.12,-0.51l-3.12 -13.36 -4.4 -5.51 -10.24 -5 -33.6 -6.41c-2.76,-0.53 -4.96,-1.88 -6.67,-4.11l-7.51 -9.76c-2.41,1.69 -5.47,2.37 -8.57,1.73l-2.89 -0.6 -3.06 1.3c-4.73,2.03 -10.07,0.59 -13.15,-3.53l-6.73 -9 -5.73 0c-1.9,0 -3.53,-0.41 -5.2,-1.31l-6.41 -3.44 -19.78 4.47c-5.63,1.27 -11.25,-1.99 -12.95,-7.49l-2.49 -8.04c-0.8,-2.58 -0.68,-5.06 0.38,-7.54l2.67 -6.32 -8.61 -5.66c-0.94,-0.62 -1.74,-1.32 -2.41,-2.12l-1.85 3.46c-1.97,3.67 -5.55,5.81 -9.71,5.81l-10.04 0c-4.77,0 -8.83,-2.88 -10.4,-7.38l-4.92 -14.08c-2.27,-0.05 -4.23,-0.72 -6.1,-2.05l-3.36 -2.41 -11.34 2.83c-5.17,1.29 -10.41,-1.21 -12.66,-6.04l-5.19 -11.14 -7.15 -1.52c-0.2,-0.05 -0.41,-0.09 -0.61,-0.14l-8.96 12.55c-0.38,0.62 -0.83,1.2 -1.34,1.74 -0.47,0.52 -0.98,0.98 -1.51,1.38l-8.08 6.91 0 13.71c0,2.56 -0.76,4.76 -2.34,6.78l-6.28 8.04c-1.85,2.37 -4.28,3.75 -7.26,4.14l-41.32 5.37c-4.63,0.6 -8.94,-1.61 -11.14,-5.73l-1.03 -1.92c-2.26,3.59 -6.28,5.52 -10.61,5.01l-4.93 -0.59 -1.21 1.61c-2.59,3.48 -6.69,5.06 -10.96,4.23l-6.56 -1.29 -2.17 3.26c-0.88,1.33 -1.88,2.31 -3.22,3.18l-9.83 6.31 -2.41 5.18c-2.29,4.94 -7.74,7.44 -12.99,5.96l-17.34 -4.9 -5.81 6.24 0.78 8.52c0.33,3.65 -0.99,6.94 -3.76,9.33 -2.78,2.4 -6.23,3.24 -9.79,2.38l-8.41 -2.03 -10.98 3.2c-4.29,1.25 -8.65,-0.07 -11.52,-3.49l-1.98 -2.36c-0.98,5.27 -5.48,9.01 -10.84,9.01l-8.93 -0 -2.2 5.27c-1.28,3.09 -3.62,5.24 -6.8,6.26l-2.89 0.93c1.27,1.9 1.85,4.05 1.76,6.45 -0.11,3.05 -1.31,5.63 -3.56,7.69l-4.02 3.69 3.56 15.23c0.74,3.19 0.14,6.22 -1.75,8.89 -1.9,2.67 -4.57,4.23 -7.84,4.57l-5.75 0.6 -0.13 0.35c-1.69,4.49 -5.87,7.29 -10.67,7.14 -3.81,-0.12 -7.11,-2.08 -9.01,-5.17l-16.62 2.36c-3.42,0.48 -6.56,-0.51 -9.08,-2.87l-3.97 -3.72 -4.14 2.47c-3.42,2.04 -7.36,2.13 -10.87,0.25l-5.97 -3.21 -16.79 14.02c-1.49,1.24 -3.03,1.98 -4.94,2.35l-10.58 2.08 -11.44 11.13c-2.74,2.67 -6.52,3.65 -10.02,2.88l-3.84 5.15c-3.07,4.13 -8.41,5.58 -13.15,3.56l-12.52 -5.33c-1.25,-0.53 -2.37,-1.26 -3.3,-2.14 -0.16,-0.04 -0.32,-0.08 -0.49,-0.14l-13.79 -4.02c-2.93,-0.85 -5.13,-2.63 -6.59,-5.31l-5.68 -10.42c-0.59,-0.33 -1.15,-0.71 -1.68,-1.16l-3.82 5.72c-1.39,2.1 -3.2,3.49 -5.58,4.31l-3.8 1.31c-0.5,0.17 -1.01,0.31 -1.52,0.41 -1.26,2.24 -3.05,3.8 -5.47,4.77l-20.03 8.04c-3.74,1.5 -7.76,0.91 -10.83,-1.49 -0.33,0.15 -0.68,0.28 -1.04,0.41l-20.03 6.69c-5.61,1.87 -11.7,-1.02 -13.8,-6.56l-0.05 -0.14 -0.18 -0.01c-0.34,1.62 -1.01,3.03 -2.08,4.39l-6.28 8.04c-2.16,2.76 -5.17,4.23 -8.68,4.23l-40.06 0c-1.9,0 -3.53,-0.41 -5.2,-1.31l-16.76 -8.98c-1.04,-0.46 -2.01,-1.08 -2.88,-1.85 -0.95,-0.82 -1.73,-1.77 -2.33,-2.84 -2.82,-0.52 -5.18,-2.05 -6.88,-4.47l-1.15 -1.63 -3.06 -0.55c-3.18,-0.57 -5.69,-2.27 -7.4,-5.01l-3.74 -5.99 -19.16 -12.55 -3.46 -1.01 -15.9 30.82c-1.33,2.57 -3.33,4.33 -6.05,5.31l-7.51 2.71c-2.79,1.01 -5.54,0.9 -8.25,-0.31l-15.02 -6.73c-1.97,-0.88 -3.45,-2.13 -4.65,-3.93l-3.8 -5.67 -8.14 -1.73c-4.17,-0.89 -7.29,-3.87 -8.36,-7.97l-5.39 2.89c-3.06,1.63 -6.38,1.78 -9.57,0.4l-6.28 -2.71c-3.21,-1.38 -5.39,-3.92 -6.29,-7.3l-0.32 -1.2 -0.29 0c-3.78,0 -7.03,-1.74 -9.14,-4.87l-6.28 -9.35c-1.71,-2.56 -2.27,-5.38 -1.64,-8.4l1.47 -7.02 -6.76 -1.46c-3.09,-0.67 -5.5,-2.39 -7.12,-5.1 -1.62,-2.71 -2.01,-5.65 -1.14,-8.69l2.68 -9.39 -10.36 -6.34c-4.68,-2.87 -6.54,-8.63 -4.4,-13.69l5.6 -13.24 3.34 -33.5 -2.94 -8.4c-0.39,-1.12 -0.58,-2.12 -0.62,-3.31l-1.2 -39.33 -1.45 -3.1 -3.56 -2.29c-4.94,-3.18 -6.52,-9.66 -3.59,-14.75l18.1 -31.52 -2.64 -16.99 -8.95 -9.58c-3.59,-3.84 -3.99,-9.52 -0.98,-13.83l0.65 -0.94 -3.41 -10.92c-0.6,-1.91 -0.67,-3.69 -0.24,-5.65l3.55 -16.16c-2.54,0.1 -4.88,-0.66 -6.98,-2.26l-8.77 -6.69c-1.66,-1.26 -2.78,-2.74 -3.55,-4.67l-3.75 -9.39c-0.77,-1.92 -0.98,-3.74 -0.66,-5.78l3.02 -19.45 -1.37 -1.75 -4.49 -1.6c-4.63,-1.64 -7.52,-5.93 -7.32,-10.83l1.1 -26.68 -0.93 -1.14c-4.47,1.26 -9.24,-0.4 -11.97,-4.31l-1.82 -2.61 -14.35 -5.52c-2.96,-1.14 -5.15,-3.31 -6.26,-6.1l-9.91 3.53c-3.91,1.4 -7.97,0.6 -11.05,-2.17l-7.51 -6.73c-3.67,-3.29 -4.72,-8.39 -2.63,-12.87l2.52 -5.4 -2.25 -27.94c-0.24,-3 0.61,-5.67 2.54,-7.97l7.39 -8.8 -1.97 -6.31c-1.06,-3.41 -0.49,-6.86 1.53,-9.66l-5.14 -7.57c-1.3,-1.9 -1.9,-3.89 -1.9,-6.19l0 -14.75 -5.01 -9.68c-0.88,-1.7 -1.3,-3.43 -1.25,-5.23 -3.03,-1.97 -4.78,-5 -4.98,-8.61l-1.16 -20.86 -4.39 -10.2 -1.68 -0.3c-4.58,-0.82 -8,-4.22 -8.87,-8.79l-1.14 -5.98c-0.14,-0.55 -0.23,-1.12 -0.28,-1.71 -0.06,-0.6 -0.08,-1.18 -0.04,-1.76l0 -7.32c0,-3.21 1.22,-5.97 3.58,-8.13 2.37,-2.17 5.22,-3.13 8.42,-2.84l5.15 0.46 2.39 -12.25 -2.24 -4.79c-1.64,-3.52 -1.39,-7.33 0.71,-10.61l29.29 -45.72 10.61 -33.01 -2.99 -5.36 -4.52 -1.38c-4.4,-1.33 -7.38,-5.02 -7.77,-9.6l-1.03 -11.99 -12.43 -18.89 -19.78 -14.93c-3.84,-2.9 -5.33,-7.7 -3.82,-12.27l5.24 -15.78 -5.49 -22.4c-0.73,-2.98 -0.28,-5.81 1.33,-8.42l2.48 -4.02c0.98,-1.57 2.14,-2.72 3.74,-3.67l21.21 -12.61 0.51 -0.54 -0.49 -0.09c-3.84,-0.69 -6.82,-3.11 -8.27,-6.74l-3.75 -9.36c-1.18,-2.92 -1.1,-5.88 0.23,-8.74l1.66 -3.59 -6.78 -15.55c-1.37,-3.13 -1.27,-6.39 0.29,-9.43 1.56,-3.04 4.14,-5.03 7.48,-5.75l7.97 -1.73 4.3 -6.91 1.31 -4.16 -16.29 -15.41c-2.39,-2.27 -3.57,-5.16 -3.44,-8.46l0.84 -20.03 -4.45 -0.86c-1.96,-0.38 -3.56,-1.15 -5.08,-2.46l-10.25 -8.8 -1.19 -0.21 -20.71 9.34c-3.69,1.66 -7.7,1.26 -10.98,-1.11 -3.29,-2.37 -4.93,-6.04 -4.51,-10.08l2.31 -22.07 -3.19 -11.39c-0.93,-3.32 -0.24,-6.71 1.61,-9.33l-2.45 -9.19 -16.57 -25.35c-3.05,-4.66 -2.18,-10.78 2.06,-14.4l2.12 -1.82 -0.82 -13.87 -1.63 -3.46c-1.58,-3.34 -1.44,-6.92 0.39,-10.13l1.42 -2.52 -0.34 -1.09 -6.81 -7.32 -15.55 -7.13c-4.94,-2.26 -7.47,-7.67 -6.04,-12.91l7.92 -29.09 -1.56 -4.95c-1.37,-4.36 -0.05,-8.86 3.47,-11.78l4.15 -3.45 -11.65 -20.14c-1.46,-2.51 -1.86,-5.2 -1.22,-7.95 -3.16,-0.19 -5.87,-1.62 -7.87,-4.14 -2.16,-2.72 -2.89,-5.96 -2.1,-9.34l1.5 -6.45 -4.05 -6.98c-2.04,-3.51 -2.04,-7.55 0,-11.07l3.92 -6.75 -5.02 -18.32c-0.63,-2.31 -0.54,-4.48 0.29,-6.73l1.44 -3.89 -1.19 -6.4 -6.84 -5.48c-2.91,-2.34 -4.37,-5.67 -4.1,-9.4l1.09 -15.1 -5.49 -15.24c-1.19,-3.29 -0.83,-6.61 1.03,-9.58l5.87 -9.38 0 -16.98c0,-2.14 0.52,-3.98 1.65,-5.8l2.67 -4.31 -1.6 -7.76c-0.75,-3.61 0.22,-7.05 2.73,-9.74l2.38 -2.55 -1.36 -6.46c-0.84,-4 0.45,-7.85 3.52,-10.54l11.57 -10.17 4.07 -11.94c0.94,-2.75 2.67,-4.79 5.23,-6.16l4.24 -2.27c-0.39,-2.85 0.38,-5.79 2.27,-8.22l3.95 -5.05 0 -6.96c0,-3.32 1.31,-6.18 3.83,-8.35l0.44 -0.38c-0.5,-1.55 -0.63,-3.03 -0.43,-4.68l2.37 -19.13 -1.2 -19.08c-0.14,-2.12 0.3,-4.11 1.22,-5.86l2.85 -6.84 -4.44 -10.52c-0.76,-1.79 -1.01,-3.48 -0.81,-5.42l1.83 -17.8 -2.31 -1.65c-2.45,-1.76 -3.94,-4.14 -4.45,-7.11l-4.4 -25.85 -16.67 -15.64 -19.28 -12.91c-1.08,-0.72 -1.9,-1.5 -2.68,-2.54l-3.43 -4.57 -11.4 -5.57c-1.27,-0.62 -2.26,-1.35 -3.22,-2.38l-12.52 -13.42c-1.63,-1.75 -2.56,-3.7 -2.87,-6.07l-1.71 -12.88 -22.21 -10.82c-2.42,-1.18 -4.14,-2.95 -5.24,-5.41l-27.58 -61.71c-0.66,-1.48 -0.96,-2.87 -0.96,-4.49l0 -15.8 -3.26 -10.46c-0.72,-2.32 -0.69,-4.52 0.09,-6.82l5.02 -14.78c0.93,-2.75 2.67,-4.8 5.24,-6.17l3.1 -1.66c-0.26,-1.35 -0.24,-2.75 0.05,-4.2l3.46 -17.23 -2.05 -25.49 -4.93 -5.28c-3.02,-3.24 -3.82,-7.67 -2.12,-11.75l2.27 -5.46 -12.98 -4.11 -6.29 2.53c-2.43,0.98 -4.81,1.08 -7.32,0.32l-3.91 -1.19 -2 1.28c-2.99,1.91 -6.39,2.29 -9.73,1.06 -3.34,-1.22 -5.69,-3.7 -6.74,-7.09l-1.55 -5.01 -10.11 -8.68c-4.25,-3.65 -5.1,-9.83 -1.99,-14.48l3.23 -4.82 -0.73 -2.08 -20.81 -14.08c-1.8,-1.22 -3.05,-2.72 -3.92,-4.71l-8.77 -20.1c-0.38,-0.87 -0.62,-1.66 -0.77,-2.6l-5.66 -34.06 -9.96 -9.84 -39.81 4.74c-2.05,0.24 -3.86,-0.03 -5.75,-0.86l-13.63 -6.01c-2.41,1.48 -5.34,1.98 -8.28,1.28l-7.81 -1.85 -8.41 3.46 -2.12 6.07c-1.22,3.48 -3.81,5.93 -7.36,6.96 -3.55,1.02 -7.05,0.32 -9.93,-1.99l-1.58 -1.26 -10.61 0.93c-3.14,0.27 -5.93,-0.66 -8.29,-2.75l-10.42 -9.28 -6.89 2.12 -2.95 6.31c-1.52,3.25 -4.23,5.39 -7.74,6.12l-6.28 1.31c-5.28,1.1 -10.48,-1.69 -12.48,-6.7l-1.37 -3.41 -23.68 -3.17c-1.09,-0.15 -2.01,-0.41 -3.02,-0.86l-11.9 -5.3 -5.12 6.25c-2.92,3.57 -7.49,4.92 -11.89,3.51l-6.89 -2.21 -0.4 0.32c-2.57,2.06 -5.71,2.84 -8.78,2.28 -2.79,0.48 -5.76,-0.13 -8.24,-1.9l-20 -14.25c-0.74,0.69 -1.56,1.26 -2.44,1.71l-0.65 2.4c-0.82,3.04 -2.66,5.36 -5.44,6.85l-7.51 4.02c-2.94,1.57 -6.08,1.76 -9.19,0.56l-9.04 -3.51 -3.1 1.65c-1.74,0.93 -3.59,1.36 -5.42,1.33 -3.34,4.03 -9.01,5.18 -13.69,2.68l-10.04 -5.38c-1.12,-0.6 -2.1,-1.36 -2.92,-2.23 -1.63,0.71 -3.45,1 -5.34,0.83 -3.94,-0.34 -7.16,-2.54 -8.91,-6.05 -3.07,1.2 -6.44,0.96 -9.34,-0.71l-2.1 0.76c-5.59,2.01 -11.77,-0.76 -13.98,-6.28l-2.66 -6.64 -16.48 -12.95c-2.75,-2.15 -4.21,-5.17 -4.21,-8.66l0 -9.62 -1.7 -3.66 -16.82 2.7c-3.73,0.6 -7.22,-0.6 -9.8,-3.36l-0.91 -0.98c-2.44,1.62 -5.16,2.17 -8.08,1.62 -3.06,-0.57 -5.49,-2.2 -7.2,-4.8l-7.58 -11.6 -14.19 -9.79 -1.77 -0.47 -0.47 0.51c-2.43,2.63 -5.65,3.84 -9.22,3.48 -3.56,-0.37 -6.47,-2.21 -8.31,-5.28l-7.33 -12.19c-2.17,-0.33 -4.21,-1.34 -5.91,-2.98 -1.36,-1.31 -2.34,-2.85 -2.88,-4.52 -2.46,-1.01 -4.3,-2.72 -5.53,-5.13l-7.55 -14.72c-0.65,-1.26 -1.01,-2.49 -1.15,-3.83 -1.44,-0.91 -2.62,-2.13 -3.48,-3.59 -1.86,-0.1 -3.62,-0.69 -5.29,-1.77l-6.28 -4.06c-2.32,-1.5 -3.83,-3.53 -4.6,-6.18l-5.17 -17.77 -0.63 -0.45c-3,-2.13 -4.64,-5.3 -4.64,-8.98l0 -8.04c0,-2.27 0.59,-4.21 1.84,-6.1l2.82 -4.25 -2.88 -6.21 -6.34 -6.75c-2.18,-2.32 -3.21,-5.28 -2.99,-8.27l-1.54 -2.05c-1.45,-1.93 -2.2,-4.11 -2.24,-6.37l-8.27 -8.86c-2.59,-2.78 -3.54,-6.37 -2.67,-10.07l1.27 -5.33c0.19,-0.8 0.45,-1.56 0.79,-2.27l-3.94 -1.4 -4.35 0.46 -0.97 1.73c-1.66,2.99 -4.32,4.88 -7.68,5.48 -2.31,0.41 -4.52,0.14 -6.53,-0.8 -3.74,2.88 -9.06,3.11 -13.09,0.25l-2.32 -1.65 -2.99 1.37c-3.06,1.4 -6.26,1.39 -9.3,-0.05 -0.2,-0.1 -0.4,-0.2 -0.6,-0.3 -0.84,-0.03 -1.69,-0.15 -2.54,-0.38l-3.3 -0.89c-2.52,1.34 -5.29,1.65 -7.94,0.92 0.39,2.86 -0.33,5.59 -2.11,7.98 -2.02,2.7 -4.84,4.22 -8.2,4.41l-22.51 1.28 -0.86 0.26 -0.18 1.22c-0.54,3.56 -2.55,6.39 -5.73,8.08l-5.72 3.04 -2.55 10.04c-0.27,1.06 -0.67,2.04 -1.19,2.93 0.56,2.45 0.27,4.93 -0.77,7.11l3.37 6.03c1.96,3.51 1.93,7.48 -0.11,10.95 -2.04,3.47 -5.48,5.44 -9.5,5.45l-0.05 0 -0.98 2.46c-0.68,1.7 -1.72,3.14 -3.01,4.26 0.03,0.33 0.04,0.66 0.04,1l0 4.02c0,4.25 -2.23,7.89 -6.02,9.82l-16.34 8.32 2.12 10.6c0.64,3.18 -0.04,6.17 -1.99,8.77l-2.81 3.74 0 3.06c0,5.27 -3.6,9.7 -8.76,10.79l-1.13 0.23 -3.87 7.47c-2.33,4.48 -7.19,6.77 -12.12,5.69l-2.33 -0.5c-1.36,2.02 -3.4,3.53 -5.91,4.3l-4.51 1.38 -1.63 2.89c-1.97,3.49 -5.38,5.52 -9.39,5.61 -0.86,0.01 -1.7,-0.06 -2.5,-0.22l0.61 3.27c0.78,4.2 -0.78,8.22 -4.19,10.79l-21.25 16.08c-2.24,1.7 -4.88,2.45 -7.5,2.24l1.55 6.61c0.72,3.07 0.2,5.96 -1.54,8.59 -1.73,2.62 -4.2,4.24 -7.3,4.78l-7.51 1.31c-3.01,0.52 -5.78,-0.11 -8.27,-1.87l-7.51 -5.33c-1.76,-1.25 -3.02,-2.81 -3.79,-4.7l-3.62 0c-2.16,0 -4.01,-0.53 -5.85,-1.68l-15.01 -9.39c-2.46,-1.53 -4.05,-3.69 -4.8,-6.49l-2.39 -8.95c-0.73,0.84 -1.56,1.53 -2.53,2.11l0.16 1.22c0.66,4.87 -1.85,9.43 -6.33,11.48l-5.39 2.47 -8.29 15.48c-1.55,2.9 -4,4.78 -7.2,5.53 -3.19,0.75 -6.23,0.15 -8.91,-1.75l-15.02 -10.71c-3.14,-2.24 -4.8,-5.79 -4.63,-9.43 -1.21,0.88 -2.63,1.5 -4.2,1.84 -0.87,0.19 -1.73,0.27 -2.57,0.26 -0.47,0.57 -1.01,1.1 -1.61,1.58l-15.01 12.06c-3.51,2.83 -8.11,3.26 -12.09,1.13l-12.52 -6.69c-0.11,-0.06 -0.22,-0.12 -0.34,-0.19l0.24 3.02c0.18,2.27 -0.27,4.27 -1.38,6.26l-1.25 2.22 3.23 8.62c1.07,2.86 0.96,5.72 -0.33,8.5 -1.29,2.78 -3.4,4.71 -6.29,5.74l-14.49 5.19 -3.07 6.56c-1.13,2.4 -2.83,4.12 -5.23,5.27l-11.26 5.37c-0.93,0.44 -1.77,0.71 -2.79,0.9l-7.51 1.35c-4.13,0.75 -8.06,-0.76 -10.65,-4.07l-6.83 -8.77c-4.75,2.14 -10.33,0.69 -13.43,-3.59l-7.27 -10.04 -7.78 -4.13c-4.42,-2.35 -6.66,-7.16 -5.61,-12.05l3.15 -14.65 -2.06 -6.62 -1.81 0.9 0 7.92c0,5.25 -3.56,9.67 -8.7,10.78l-6.29 1.35c-4.63,1 -9.18,-0.93 -11.68,-4.96l-2.53 -4.08 -1.63 -0.34c-3.16,-0.66 -5.62,-2.44 -7.25,-5.22 -0,-0 -0,-0.01 -0.01,-0.02 -1.37,0.8 -2.86,1.26 -4.54,1.41l-15.06 1.31c-3.13,0.27 -5.93,-0.66 -8.28,-2.75l-7.51 -6.69c-1.4,-1.25 -2.34,-2.61 -2.99,-4.37l-2.04 -5.45c-2.36,3.3 -6.15,4.98 -10.25,4.49l-11.26 -1.36c-2.34,-0.28 -4.28,-1.16 -6.04,-2.74l-7.51 -6.73c-1.28,-1.15 -2.24,-2.48 -2.85,-3.96l-0.19 0.22c-3.24,3.82 -8.44,4.98 -13,2.89l-0.71 -0.32c-2.57,2.28 -6.04,3.19 -9.56,2.43l-7.6 -1.64 -8.5 6.37c-3.89,2.92 -9.02,2.99 -12.99,0.16l-1.44 -1.03 -3.31 2.37c-1.44,1.03 -2.88,1.62 -4.63,1.9l-11.69 1.92 -1.09 1.56c-2.12,3.04 -5.32,4.71 -9.03,4.71l-3.76 0c-2.35,0 -4.52,-0.7 -6.31,-1.94 -1.65,0.57 -3.45,0.74 -5.31,0.46l-8.77 -1.31c-2.31,-0.34 -4.2,-1.25 -5.91,-2.85l-10.04 -9.39c-2.74,-2.57 -3.94,-6.15 -3.38,-9.67 -0.01,0 -0.01,-0 -0.02,-0l-11.12 -3.64 -9.31 6.34c-4.29,2.92 -9.86,2.51 -13.67,-1.01l-0.24 -0.22c-1.42,0.94 -3.05,1.52 -4.87,1.72 -1.73,0.19 -3.36,0.01 -4.88,-0.53 -2.44,1.71 -5.52,2.38 -8.64,1.71l-2.33 -0.5 -3.94 2.11c-3.51,1.88 -7.44,1.79 -10.86,-0.26 -3.42,-2.04 -5.36,-5.47 -5.36,-9.45l0 -2.8 -3.31 -4.04c-0.04,0.18 -0.09,0.36 -0.15,0.54 -1.22,4.16 -4.59,7.09 -8.73,7.76l-0.97 5.73c-0.61,3.64 -2.76,6.5 -6.09,8.1l-25.05 12.06c-4.26,2.05 -9.12,1.25 -12.49,-2.06l-12.23 -12 -11.08 -0.97c-1.68,-0.14 -3.24,-0.65 -4.61,-1.44 -1.94,0.34 -3.98,0.15 -5.96,-0.63 -4.3,-1.69 -6.99,-5.63 -6.99,-10.26l0 -4.1 -0.34 -0.27c-1.94,0.71 -3.96,0.86 -5.95,0.42 -0.71,1.82 -1.92,3.4 -3.58,4.68 -2.44,1.86 -5.26,2.6 -8.19,2.17l0.23 0.49c1.31,2.8 1.42,5.68 0.32,8.57 -1.09,2.88 -3.08,4.97 -5.91,6.2l-6.24 2.71c-4.35,1.89 -9.2,0.89 -12.44,-2.59l-8.01 -8.58c-0.93,0.03 -1.85,-0.06 -2.74,-0.27 -1.58,0.35 -3.27,0.35 -4.96,-0.03 -1.83,-0.42 -3.46,-1.25 -4.79,-2.39 -1.47,-0.14 -2.93,-0.58 -4.31,-1.33 -0.5,0.42 -1.04,0.81 -1.63,1.16 -2.93,1.73 -6.15,2.04 -9.35,0.88l-3.76 -1.36c-1.23,-0.44 -2.31,-1.05 -3.26,-1.81l-3.67 1.58c-4.18,1.8 -8.78,0.94 -12.04,-2.24 -1.52,-1.48 -2.54,-3.26 -3.02,-5.17 -0.64,-0.39 -1.25,-0.87 -1.83,-1.4 -2.95,-2.77 -4.12,-6.61 -3.2,-10.55l2.02 -8.64 -0.45 -0.3c-2.46,1.17 -5.1,1.35 -7.79,0.54 -3.11,-0.94 -5.43,-2.95 -6.81,-5.89l-1.75 -3.75 -8.84 -2.96 -3.94 4.2c-3.36,3.59 -8.46,4.52 -12.88,2.36 -1.99,-0.97 -3.56,-2.44 -4.63,-4.2 -2.6,-0.14 -5.05,-1.22 -7.02,-3.18l-5.64 -5.54c-1.39,1.43 -3.19,2.49 -5.27,3 -4.37,1.09 -8.76,-0.51 -11.4,-3.97 -3.4,0.8 -7.09,-0.05 -9.87,-2.54l-0.7 -0.63 -1.51 1.16c-2.93,2.25 -6.44,2.88 -9.96,1.79l-8.77 -2.71c-3.3,-1.02 -5.76,-3.3 -6.98,-6.42l-4.44 1.2c-4.41,1.2 -8.87,-0.32 -11.64,-3.95l-7.43 -9.74c-0.74,0.5 -1.55,0.93 -2.45,1.27l-21.3 8.04c-2.42,0.92 -4.79,0.98 -7.26,0.18l-22.43 -7.2 -4.81 0.87c-4.38,0.79 -8.56,-0.97 -11.07,-4.65l-10.04 -14.77c-1.69,-2.5 -2.27,-5.25 -1.71,-8.22l2.12 -11.34c-1.1,-0.26 -2.17,-0.7 -3.19,-1.31 -1.69,-1.01 -3.02,-2.38 -3.94,-3.96 -2.34,-0.44 -4.52,-1.66 -6.21,-3.59 -2.38,-2.71 -3.25,-6.2 -2.54,-9.52 -1.83,-1.5 -3.11,-3.56 -3.67,-5.96 -1.97,-0.6 -3.76,-1.78 -5.19,-3.47 -2.7,-3.19 -3.37,-7.32 -1.82,-11.2l1.98 -4.96 -2.99 -6.37c-0.26,-0.55 -0.46,-1.11 -0.63,-1.66l-10.65 5.44c-1.62,0.83 -3.18,1.2 -5.01,1.2l-26.31 0c-2.61,0 -4.85,-0.79 -6.88,-2.42l-2.72 -2.18 -5.86 -0.9c-2.88,-0.44 -5.22,-1.82 -7.01,-4.12l-6.46 -8.29 -0.32 0.2c-0.83,0.51 -1.69,0.91 -2.56,1.18 -0.61,2.65 -2.21,5.01 -4.63,6.63l-6.56 4.38 -1.45 5.4c-1.05,3.89 -3.86,6.71 -7.76,7.77 -3.89,1.06 -7.74,0.05 -10.61,-2.78l-0.11 -0.11c0.19,1.35 0.13,2.75 -0.2,4.16l-3.75 16.08c-0.7,2.98 -2.37,5.3 -4.98,6.89l-8.77 5.37c-3.07,1.88 -6.51,2.17 -9.85,0.83l-6.9 -2.76 -2.94 0.64c-2.96,0.64 -5.74,0.14 -8.28,-1.49l-12.97 -8.32 -8.56 19.54c-1.47,3.35 -4.2,5.58 -7.77,6.35l-6.29 1.36c-4.75,1.02 -9.41,-1.04 -11.85,-5.24l-4.49 -7.73 -5.58 -2.56c-3.15,-1.44 -5.26,-3.99 -6.1,-7.35l-2.91 -11.67 -19.24 6.61c0.42,3.97 -1.33,7.84 -4.77,10.18 -4.08,2.78 -9.28,2.57 -13.12,-0.52l-6.56 -5.3 -10.58 0.95c-4.71,0.43 -8.97,-2.03 -10.98,-6.31l-1.17 -2.52 -7.46 1.86c-1.68,0.42 -3.19,0.45 -4.87,0.11l-26.31 -5.37c-3.61,-0.73 -6.38,-2.97 -7.87,-6.33 -1.49,-3.37 -1.28,-6.92 0.6,-10.09l2.36 -3.97 -0.98 -0.42c-3.07,-1.32 -5.18,-3.67 -6.18,-6.86l-4.52 -14.53 -2.69 0.57c-3.45,0.73 -6.75,-0.09 -9.41,-2.36l-1.52 2.08c-1.87,2.57 -4.44,4.08 -7.59,4.46l-11.26 1.36c-3.04,0.37 -5.85,-0.43 -8.15,-2.28l-1.2 0.73c-3.84,2.35 -8.45,2.2 -12.13,-0.41 -3.68,-2.6 -5.35,-6.9 -4.41,-11.31l6.3 -29.24 -2.19 -2.34 -11.96 -5.84c-3.24,-1.58 -5.34,-4.35 -6,-7.89l-2.49 -13.42c-0.46,-2.51 -0.12,-4.8 1.05,-7.08l6.24 -12.06c0.92,-1.77 2.1,-3.08 3.78,-4.17l32.44 -21.09 2.76 -5.91 1.17 -25.96c0.09,-2.05 0.65,-3.79 1.77,-5.51l8.03 -12.34 17.36 -48.32 -0.92 -4.89 -3.56 -1.64c-3.34,-1.54 -5.53,-4.34 -6.22,-7.96l-1.27 -6.68c-0.7,-3.69 0.38,-7.18 3.03,-9.84l18.76 -18.79c1.82,-1.82 4.02,-2.9 6.45,-3.17l-46.83 -27.87c-2.64,-1.57 -4.34,-3.87 -5.07,-6.85 -0.73,-2.98 -0.28,-5.8 1.33,-8.42l2.49 -4.02c1.37,-2.21 3.21,-3.7 5.66,-4.57l17.62 -6.31 15.02 -9.66 18.1 -38.76 2.75 -14.73 -3.07 -0.61c-1.47,-0.29 -2.68,-0.78 -3.93,-1.61l-16.27 -10.7c-0.77,-0.5 -1.37,-1.02 -2,-1.69l-8.77 -9.39c-1.98,-2.12 -2.97,-4.61 -2.97,-7.52l0 -8.04c0,-2.24 0.57,-4.16 1.8,-6.03l8.77 -13.42c0.77,-1.18 1.62,-2.07 2.76,-2.89l41.53 -30.09 10.74 -12.56 -0.42 -0.91 -38.18 -21.08c-1.65,-0.91 -2.87,-2.04 -3.9,-3.62l-8.77 -13.42c-0.66,-1.01 -1.09,-1.96 -1.41,-3.13l-8.77 -32.16c-0.83,-3.07 -0.4,-6.02 1.28,-8.71l12.52 -20.14c0.73,-1.19 1.55,-2.09 2.66,-2.94l12.82 -9.8 -3.53 -5.06 -37.57 -18.85c-2.5,-1.25 -4.24,-3.15 -5.28,-5.74l-7.55 -18.79c-0.49,-1.21 -0.73,-2.32 -0.79,-3.63l-1.22 -28.14c-0.08,-1.85 0.24,-3.45 1.01,-5.12l9.99 -21.5c0.77,-1.67 1.79,-2.94 3.24,-4.06l12.12 -9.41 13.58 -23.08 4.76 -11.17 -2.04 -13c-0.37,-2.36 -0.04,-4.49 1.03,-6.62l19.38 -38.86 3.47 -18.59c0.34,-1.81 1.01,-3.29 2.13,-4.74l42.94 -55.22 6.47 -15.01 2.76 -14.82 -39.11 -11.64c-1.63,-0.48 -2.93,-1.21 -4.2,-2.34l-15.01 -13.41c-0.67,-0.6 -1.17,-1.17 -1.69,-1.89l-11.3 -16.13c-2.04,-2.9 -2.55,-6.26 -1.49,-9.63l1.27 -4.02c0.68,-2.17 1.84,-3.85 3.61,-5.28l63.24 -50.8 6.82 -13.56 3.29 -28.22 -15.76 -61.07c-0.35,-1.33 -0.44,-2.53 -0.29,-3.9l1.27 -12.06c0.12,-1.17 0.38,-2.15 0.85,-3.23l14.13 -32.64 -18.71 -34.17c-0.77,-1.42 -1.18,-2.76 -1.32,-4.37l-2.48 -29.5c-0.26,-3.1 0.65,-5.86 2.7,-8.19l19.32 -22 21.97 -37.95c0.44,-0.76 0.88,-1.36 1.48,-2l6.36 -6.81 -5.87 -13.47c-1.03,-2.35 -1.21,-4.68 -0.57,-7.16l4.37 -16.91 -10.14 9.06c-2.1,1.88 -4.52,2.8 -7.35,2.8l-15.05 0c-2.69,0 -5,-0.84 -7.06,-2.56l-11.26 -9.39c-1.45,-1.21 -2.44,-2.56 -3.15,-4.31l-11.89 -29.31 -5.91 -7.22 -4.68 -1.87 -15.85 2.26c-3.05,0.44 -5.82,-0.3 -8.26,-2.17l-8.77 -6.73c-4.37,-3.35 -5.6,-9.31 -2.91,-14.12l7.51 -13.42c1.03,-1.84 2.36,-3.16 4.19,-4.21l20.25 -11.47 35.21 -31.61 3.66 -18.6 -2.88 -6.97 -26.95 -26.53 -7.01 -0.67 -24.96 10.91c-1.47,0.64 -2.83,0.93 -4.42,0.93l-15.02 -0c-1,0 -1.86,-0.11 -2.83,-0.37l-10.04 -2.67c-3.64,-0.97 -6.33,-3.46 -7.57,-7.02l-3.75 -10.75c-1,-2.86 -0.84,-5.69 0.47,-8.41l20.03 -41.6c0.5,-1.06 1.07,-1.89 1.88,-2.74l8.77 -9.39c1.79,-1.92 3.91,-3.02 6.5,-3.39l18.81 -2.67c1.25,-0.17 2.35,-0.15 3.59,0.08l38.04 7.19 -2.3 -2.83c-1.01,-1.24 -1.64,-2.48 -2.07,-4.02l-5.63 -20.43 -27.19 -31.64c-0.76,-0.89 -1.3,-1.75 -1.76,-2.83l-6.75 -15.69 -3.93 -4.23 -0.74 0.45 -19.89 41.35c-2.02,4.19 -6.2,6.59 -10.85,6.2l-32.55 -2.71c-4.57,-0.38 -8.25,-3.33 -9.61,-7.7l-3.76 -12.06c-0.45,-1.47 -0.59,-2.79 -0.44,-4.31l1.27 -13.42c0.16,-1.71 0.63,-3.15 1.52,-4.63l10.41 -17.37 4.36 -17.68 -12.3 -3.76c-2.02,-0.62 -3.62,-1.65 -5.02,-3.24l-22.56 -25.47c-2.14,-2.42 -3.06,-5.31 -2.71,-8.52l2.53 -22.81c0.16,-1.48 0.55,-2.71 1.25,-4.02l11.53 -21.37 -21.11 -66.64c-0.49,-1.55 -0.63,-2.98 -0.44,-4.6l3.76 -32.21c0.17,-1.48 0.57,-2.71 1.28,-4.02l19.95 -36.42 0 -10.19 -23.72 -39.24 -39.58 -10.89c-2.06,-0.57 -3.68,-1.55 -5.13,-3.1l-22.56 -24.16c-1.15,-1.23 -1.9,-2.51 -2.42,-4.11l-18.76 -57.69c-0.82,-2.5 -0.75,-4.9 0.19,-7.36l8.3 -21.6 4.65 -35.07 -0.87 -10.45 -2.1 -2.8 -3.63 -2.58 -10.31 -0.86 -5.51 2.61 -8.28 14.45c-0.93,1.61 -2.05,2.8 -3.62,3.8l-6.28 4.02c-3.81,2.44 -8.46,2.36 -12.19,-0.21l-17.5 -12.06c-2.54,-1.75 -4.09,-4.18 -4.61,-7.23l-5.02 -29.54c-0.17,-1.03 -0.2,-1.93 -0.1,-2.96l1.22 -12.06c0.2,-1.97 0.81,-3.61 1.95,-5.22l11.3 -16.08c1.23,-1.74 2.71,-2.94 4.67,-3.79l21.87 -9.38 3.16 -5.09 -0.29 -1.09 -6.52 -4.9 -21.38 0c-1.88,0 -3.5,-0.41 -5.17,-1.29l-5.02 -2.67c-3.06,-1.62 -5.02,-4.29 -5.66,-7.69l-1.27 -6.73c-0.38,-1.99 -0.24,-3.77 0.43,-5.67l3.75 -10.75c0.53,-1.51 1.25,-2.72 2.35,-3.89l11.26 -12.06c1.99,-2.12 4.41,-3.28 7.31,-3.48l17.87 -1.2 13.47 -6.72 9.62 -19.48c0.38,-0.77 0.77,-1.39 1.31,-2.04l16.28 -20.15c1.93,-2.39 4.46,-3.76 7.53,-4.04l37.17 -3.51 1.3 -2.08 10.83 -38.72c0.84,-3 2.67,-5.28 5.42,-6.75l15.05 -8.04c1.18,-0.63 2.29,-1 3.62,-1.19l18.76 -2.71c1.23,-0.18 2.3,-0.16 3.53,0.06l10.12 1.82 9.02 -7.25 12.71 -28.46c1.36,-3.06 3.76,-5.14 6.97,-6.09l13.75 -4.02c1.5,-0.44 2.85,-0.55 4.4,-0.36l11.3 1.36c1.43,0.17 2.62,0.54 3.89,1.22l7.51 4.02c1.02,0.55 1.82,1.15 2.64,1.98l14.24 14.42 10.67 -21.05c0.27,-0.55 0.54,-1 0.91,-1.49l24.68 -34.03 1.29 -8.9 -279.9 -250.91c-3.55,-3.19 -4.65,-8.05 -2.8,-12.46l363.18 -867.95c1.73,-4.12 5.5,-6.69 9.97,-6.76l71.55 -1.25 9 -14.83c-1.01,-1.88 -1.4,-4 -1.17,-6.26l0.87 -8.3 -5.36 -8.6 -3.95 -5.91 -6.04 -1.63c-4.87,-1.31 -8.14,-5.58 -8.14,-10.63l0 -82.59 -37.51 1.04c-3.6,0.1 -6.75,-1.38 -8.98,-4.22 -2.22,-2.84 -2.91,-6.24 -1.95,-9.72l217.92 -790.12c1.24,-4.48 4.91,-7.58 9.54,-8.03l82.36 -8.13 -0.96 -0.84c-2.81,-2.49 -4.11,-5.96 -3.63,-9.6l-1.22 -1.05c-1.39,-1.2 -2.42,-2.64 -3.07,-4.22 -2.83,0.61 -5.82,0.05 -8.4,-1.66l-3.44 -2.3c-4.46,2.56 -10.2,1.71 -13.72,-2.25l-72.61 -81.8c-1.22,-1.38 -1.99,-2.81 -2.44,-4.6l-26.04 -102.23 -125.98 -260.58c-1.7,-3.52 -1.49,-7.34 0.58,-10.65 2.07,-3.31 5.43,-5.17 9.33,-5.17l29.04 -0 0 -8.9 -35.99 -39.76c-2.42,-2.68 -3.35,-6.04 -2.63,-9.58l8.99 -44.47 -3.85 -4.64 -6.91 -0.83c-4.36,-0.53 -7.8,-3.35 -9.16,-7.54l-7.56 -23.24 -0.72 0c-4.74,0 -8.77,-2.83 -10.37,-7.29l-12.02 -33.46 -0.44 -0.63 -8.31 -1.77c-3.87,-0.82 -6.8,-3.4 -8.11,-7.14l-7.51 -21.46c-1.06,-3.04 -0.82,-6.07 0.72,-8.9l7.86 -14.45 0.04 -0.25c-1.76,-1 -3.19,-2.49 -4.21,-4.41l-4.97 -9.39c-2.3,-4.34 -1.52,-9.47 1.93,-12.93 -3.1,-1.69 -5.12,-4.65 -5.62,-7.97 -2.53,-2.15 -3.86,-5.04 -3.86,-8.38l0 -5.37c0,-3.46 1.43,-6.44 4.13,-8.6l0.89 -0.71c0,0 0,0 0,-0l-4.43 -3.37c-2.11,-1.61 -3.43,-3.65 -4.04,-6.23l-1.27 -5.37c-0.6,-2.53 -0.35,-4.87 0.76,-7.22l2.53 -5.38c1.86,-3.95 5.58,-6.32 9.95,-6.33l7.51 -0.01c1.15,0 2.14,0.15 3.25,0.49l25.12 7.7 8.9 -23.84c0.87,-2.32 2.28,-4.08 4.37,-5.42l12.52 -8.04c4.52,-2.91 10.34,-2.18 14.01,1.75l16.27 17.44c1.85,1.99 2.81,4.27 2.95,6.97l1.11 22.39 8.3 12.22c1.7,2.5 2.28,5.25 1.71,8.23l-1.83 9.71 5.83 11.42c1.8,3.51 1.65,7.4 -0.41,10.77 -0.17,0.28 -0.36,0.56 -0.55,0.82l5.33 15.72 3.03 1.93c4.14,2.65 6,7.51 4.67,12.25l-1.05 3.77c3.24,1.97 5.22,5.43 5.22,9.38l0 0.75c2.05,0.96 3.7,2.51 4.86,4.62 1.61,2.91 1.84,6.04 0.69,9.15l-0.13 0.36 2.87 3.07c1.99,2.12 2.97,4.62 2.97,7.52l0 1.06c1.54,1.33 2.66,3.07 3.29,5.15 1.04,3.45 0.44,6.87 -1.71,9.76l-0.73 0.99c0.65,2.11 0.61,4.33 -0.12,6.56 -1.05,3.2 -3.22,5.52 -6.34,6.79l-4.33 1.76 -1.06 6.31 1.88 7.09c0.52,1.99 0.51,3.81 -0.04,5.79l-1.16 4.12 3.66 1.57c3.26,1.39 5.52,4.07 6.34,7.34 0.78,0.47 1.5,1.03 2.16,1.7l5.05 -1.79 0.08 -0.46c0.54,-2.94 2.03,-5.28 4.46,-7.01l3.75 -2.67c4.73,-3.35 11.2,-2.49 14.89,1.97l18.81 22.81c0.89,1.08 1.48,2.14 1.93,3.46l3.44 10.12 1.77 0.77c3.86,1.68 6.31,5.13 6.6,9.33 0.29,4.2 -1.64,7.97 -5.23,10.17l-0.66 0.4 1.29 3.02 11.09 7.58c3.81,2.61 5.55,7.05 4.53,11.55l-1.22 5.37c-0.84,3.67 -3.36,6.51 -6.66,7.8l1.93 7.25 19.92 -2.91c5.49,-0.8 10.65,2.53 12.18,7.85l2.72 9.47 5.49 0c4.64,0 8.6,2.71 10.28,7.04l4.76 12.31 18.95 10.13c4.41,2.36 6.63,7.16 5.58,12.04l-1.9 8.79 15.17 6.96 29.22 -4.82c3.31,-0.55 6.37,0.3 8.93,2.47 2.55,2.17 3.89,5.06 3.89,8.41l0 20.42 11.55 15.01 -0.97 -15.97c-0.28,-4.63 2.18,-8.74 6.39,-10.67l6.59 -3.04 15.99 -18.32c3.04,-3.48 7.66,-4.68 12.01,-3.13l2.87 1.03 6.12 -4.93 1.63 -7c0.94,-4.07 3.85,-7.08 7.88,-8.16 3.51,-0.93 7,-0.19 9.73,2.03l4.22 -10.32c1.73,-4.23 5.63,-6.85 10.2,-6.85l10.04 -0c3.93,0 7.31,1.88 9.37,5.22l3.42 5.52 2.23 1.19 2.3 -1.24c0.36,-0.19 0.72,-0.36 1.09,-0.51 1.67,-2.5 4.32,-4.21 7.48,-4.69l8.98 -1.36c0.88,-2.18 2.48,-4.02 4.66,-5.29l10.79 -6.31 2.34 -4.98c1.47,-3.13 4.02,-5.22 7.38,-6.03 3.36,-0.82 6.59,-0.13 9.32,1.99l3.08 2.37 3.75 -2.01c3.41,-1.83 7.34,-1.74 10.54,0.05 1.66,-0.14 3.38,0.12 5.05,0.79l14.14 5.68 8.71 -6.8 -3.44 -8.82c-1.7,-4.38 -0.56,-9.13 2.96,-12.25 3.52,-3.12 8.37,-3.69 12.52,-1.47l1.4 0.76 1.9 -2.72c1.85,-2.65 4.63,-4.28 7.63,-4.65 1,-2.46 2.85,-4.42 5.38,-5.64 3.43,-1.66 7.15,-1.5 10.42,0.44l8.66 5.14 10.49 -0 25.14 -13.42c2.15,-1.15 4.33,-1.53 6.74,-1.19l12.3 1.75 6.12 -8.19c3.21,-4.3 8.91,-5.66 13.71,-3.27l20.38 10.1c1.7,-3.28 4.92,-5.48 8.77,-5.82l7.71 -0.7 4.05 -13.05c1.03,-3.32 3.29,-5.74 6.53,-7l9.27 -3.62 4.49 -11.56c1.49,-3.84 4.72,-6.38 8.8,-6.93l6.68 -0.9 4.98 -4.47c3.29,-2.95 7.78,-3.65 11.75,-1.9l10.08 -34.54c1.2,-4.11 4.41,-6.99 8.62,-7.76l4.74 -0.85c0.14,-1.71 0.68,-3.32 1.65,-4.87l9.99 -16.08c1.8,-2.89 4.51,-4.65 7.88,-5.1l6.43 -0.87 8.63 -8.39 3.14 -17.95c0.29,-1.66 0.85,-3.03 1.82,-4.41l12.91 -18.48 -6.03 -2.8c-3.44,-1.6 -5.66,-4.54 -6.25,-8.28l-1.27 -8.04c-0.5,-3.18 0.28,-6.11 2.29,-8.62l3.51 -4.36 -5.14 -12.76c-1.41,-3.5 -1.02,-7.16 1.09,-10.28 2.11,-3.13 5.35,-4.85 9.13,-4.85l3.72 0 3.09 -5.3c1.74,-2.97 4.46,-4.82 7.86,-5.33l11.49 -1.75 6.34 -14.57c1.06,-2.44 2.73,-4.21 5.1,-5.42l23.87 -12.17 5.93 -8.46c3.22,-4.59 9.28,-6.03 14.23,-3.39l10.82 5.8 10.21 -3.43 4.57 -14.71c0.96,-3.12 3.04,-5.46 5.95,-6.77l1.41 -3.38 -3.26 -7.83c-1.12,-2.68 -1.17,-5.37 -0.14,-8.09l5.02 -13.42c1.93,-5.15 7.24,-8.06 12.61,-6.91l0.38 0.08 -0.67 -2.15c-0.68,-2.22 -0.69,-4.31 -0,-6.53l2.49 -8.04c1.45,-4.68 5.61,-7.76 10.52,-7.76l9.42 -0 -8.87 -7.31c-2.43,-2 -3.78,-4.64 -3.98,-7.78 -0.21,-3.15 0.79,-5.93 2.94,-8.24l6.07 -6.5 -6.64 -5.96c-2.29,-2.05 -3.52,-4.64 -3.65,-7.71 -0.14,-3.07 0.85,-5.76 2.95,-8.01l8.83 -9.45 2.08 -16.56c0.6,-4.73 3.96,-8.4 8.62,-9.4l25.05 -5.37c2.2,-0.47 4.22,-0.31 6.32,0.51l1.52 0.59c-0.45,-1.93 -0.38,-3.76 0.22,-5.69l2.49 -8.04c0.99,-3.2 3.12,-5.56 6.19,-6.88l19.91 -8.5 0.01 -0.04 -5.32 -6.53c-2.05,-2.51 -2.85,-5.47 -2.34,-8.67 0.5,-3.2 2.17,-5.77 4.9,-7.54l7.45 -4.83 0 -6.07c0,-3.24 1.25,-6.03 3.66,-8.2 2.41,-2.17 5.32,-3.1 8.54,-2.76l8.36 0.9 0.75 -0.53 2.8 -12.02c1.1,-4.71 4.93,-8.04 9.74,-8.47l15.02 -1.36c4.54,-0.41 8.65,1.84 10.76,5.88l3.2 6.13 15.83 0c0.88,0 1.73,0.09 2.55,0.27 2.26,-2.1 5.01,-3.09 8.11,-2.92 3.19,0.18 5.88,1.55 7.9,4.02l6.65 8.12c2.09,-2.65 5.12,-4.11 8.59,-4.12l2.39 0c1.36,-3.31 4.11,-5.63 7.68,-6.46 3.94,-0.9 7.77,0.27 10.53,3.22l5.95 6.37 3.33 -2.41c2.9,-2.1 6.29,-2.65 9.71,-1.6l8.77 2.71c2.74,0.85 4.82,2.5 6.24,4.94 2.15,-0.36 4.38,-0.04 6.5,0.96l7.17 3.41 4.7 -1.68c-0.42,-3.78 1.13,-7.46 4.26,-9.87l8.77 -6.73c3.28,-2.52 7.37,-3.01 11.16,-1.34l16.06 7.08 15.13 -9.11c2.53,-1.52 5.44,-1.9 8.11,-1.3 2.29,-2.17 5.44,-3.27 8.65,-2.94l-2.9 -4.66c-2.52,-4.05 -2.21,-9.02 0.78,-12.73 2.74,-3.4 6.99,-4.82 11.14,-3.81l1.67 -2.86c2.3,-3.95 6.53,-6 11.05,-5.36 4.52,0.63 8.02,3.77 9.15,8.19l1.64 6.46 0.2 0c2.52,0 4.69,0.73 6.7,2.27l7.74 5.92c0.59,-0.33 1.22,-0.63 1.89,-0.86l3.79 -1.36c3.03,-1.08 6.05,-0.86 8.89,0.65 2.84,1.51 4.7,3.89 5.5,7.01l0.45 1.79c3.03,-1.17 6.21,-0.95 9.13,0.63 3.2,1.74 5.19,4.63 5.67,8.24l0.71 5.34 0.91 -1.2c1,-1.31 2.1,-2.24 3.55,-3.02l15.02 -8.04c3.43,-1.84 7.37,-1.74 10.58,0.08l1.1 -2.14c1.34,-2.59 3.37,-4.36 6.12,-5.33l10 -3.54 3.26 -9.69c1.02,-3.01 3.02,-5.22 5.91,-6.53l16.47 -7.43 -0.32 -2.69c-0.44,-3.76 0.89,-7.18 3.76,-9.64l6.24 -5.38c3.41,-2.94 7.98,-3.53 12.02,-1.55l13.79 6.73c3.23,1.58 5.36,4.5 6,7.8 0.72,-1.07 1.66,-2.02 2.79,-2.83l11.3 -8.08c3.51,-2.51 7.84,-2.78 11.64,-0.74l6.8 3.66c1.44,-1.12 3.13,-1.84 5.06,-2.14l2.94 -0.45 1.82 -3.91 -3.37 -9.1c-1.29,-3.49 -0.84,-7.07 1.28,-10.12 2.12,-3.05 5.32,-4.73 9.04,-4.73l4.27 0c0.4,-0.66 0.87,-1.3 1.42,-1.88l3.76 -4.02c0.98,-1.05 2.11,-1.88 3.32,-2.47 -0.27,-3.7 1.37,-7.35 4.56,-9.65l2.92 -2.11c0.05,-3.21 1.51,-6.19 4.15,-8.31l5.02 -4.02c2.89,-2.31 6.42,-3.01 9.97,-1.98l13.79 4.02c0.86,0.25 1.66,0.58 2.38,0.98 0.85,-1.43 2.05,-2.69 3.55,-3.67 1.96,-1.28 4.16,-1.88 6.34,-1.81 0.41,-2.86 1.94,-5.42 4.41,-7.24 3.33,-2.44 7.46,-2.83 11.14,-1.1l1.83 -2.28c2.44,-3.03 6.09,-4.49 9.77,-4.07l1.68 -10.83c0.64,-4.12 3.31,-7.32 7.24,-8.7 3.67,-1.29 7.46,-0.65 10.45,1.72 1.77,-2.03 4.1,-3.26 6.87,-3.61 3.24,-0.41 6.2,0.5 8.65,2.66l3.88 -3.71c2.13,-2.03 4.65,-3.05 7.6,-3.05l2.37 -0c0.36,-0.82 0.83,-1.61 1.4,-2.36 2.56,-3.35 6.5,-4.89 10.65,-4.17l2.17 0.38 4.77 -4.38c2.33,-2.14 5.22,-3.13 8.24,-2.88l3.13 -3.91c1.89,-2.37 4.37,-3.74 7.39,-4.07 3.02,-0.33 5.74,0.45 8.11,2.35l7.95 6.36 13.3 2.67 10.17 -5.93c3.97,-2.31 8.7,-2 12.3,0.81l0.2 -0.08c3.34,-1.42 7,-1.08 9.92,0.65 1.66,-1.01 3.56,-1.52 5.65,-1.52l5.02 0c3.33,0 6.2,1.32 8.36,3.84l11.8 13.75 13.36 4.41c2.49,0.83 4.38,2.29 5.8,4.49l11.26 17.44c1.77,2.75 2.24,5.8 1.35,8.95 -0.66,2.38 -1.96,4.32 -3.83,5.74 0.77,2.37 0.69,4.96 -0.3,7.44l-2.7 6.76 0.16 1.26c0.46,0.12 0.92,0.27 1.37,0.45 3.78,1.49 6.31,4.72 6.86,8.63l4.13 0.01c4.53,0.01 8.42,2.77 10.11,6.69 3.42,-0 6.49,1.51 8.63,4.29l3.6 4.67 14.53 -4.42c4.26,-1.3 8.63,-0.03 11.54,3.34 2.91,3.37 3.53,7.88 1.62,11.91l-1.12 2.37 3.06 4.53 5.01 -8.07c1.73,-2.78 4.29,-4.51 7.51,-5.06 3.23,-0.54 6.21,0.24 8.76,2.29l6.8 5.48 27.13 -1.17c3.11,-0.14 5.85,0.9 8.1,3.05 1.19,1.14 2.07,2.42 2.64,3.84 0.67,-0.13 1.35,-0.21 2.07,-0.22 3.1,-0.05 5.78,1.03 7.97,3.21l10.94 10.9c3.28,-2.31 7.25,-2.68 10.91,-1.01 3.68,1.69 6.02,4.96 6.39,8.99l0.55 5.81c0.49,-0.23 1.01,-0.43 1.55,-0.6l8.77 -2.67c4.05,-1.23 8.17,-0.16 11.12,2.88 1.77,1.83 2.81,4.06 3.07,6.42l11.3 1.02c2.25,0.2 4.14,0.96 5.9,2.37l5.02 4.02c3.5,2.8 4.92,7.14 3.76,11.47l-0.99 3.67 7.16 8.11c1.29,-0.77 2.75,-1.27 4.35,-1.47 4.09,-0.51 7.86,1.13 10.28,4.47l0.82 1.13 6.66 -2.35c2.71,-0.96 5.37,-0.87 8.01,0.26l18.76 8.04c2.59,1.11 4.45,2.91 5.64,5.47l1.58 3.37 5.06 1.35c2.34,0.62 4.18,1.81 5.71,3.68l1.16 1.42 5.13 -5c2.75,-2.69 6.36,-3.71 10.1,-2.87 2.99,0.67 5.39,2.37 6.92,4.85 2.91,-2.37 6.93,-3.16 10.69,-1.8l2.57 0.93c0.97,-0.89 2.12,-1.6 3.43,-2.12 3.11,-1.23 6.27,-1.06 9.23,0.51l5.02 2.67c1.52,0.81 2.77,1.87 3.72,3.16l2.75 -3.23c2.9,-3.42 7.29,-4.71 11.58,-3.41 2.25,0.68 4.13,1.97 5.48,3.68l4.51 -1.94c3.1,-1.34 6.31,-1.25 9.33,0.28 3.02,1.52 5,4.05 5.77,7.34l3.23 13.89 4.65 6.24c1.26,-1.73 3.05,-3.07 5.22,-3.84 3.99,-1.42 8.14,-0.55 11.23,2.34l9.5 8.9 6.88 4.92 2.93 -0.53c4.29,-0.78 8.39,0.89 10.92,4.44 1.35,1.89 2.05,4.02 2.09,6.17 0.01,0 0.01,0.01 0.02,0.02 2.16,2.67 2.94,5.85 2.23,9.21l-1.94 9.24 1.66 5.29c0.17,0.54 0.3,1.09 0.39,1.63 2.69,2.24 4.12,5.58 3.84,9.23 -0.34,4.44 -3.1,8.06 -7.3,9.55l-0.6 0.22c2.9,-0.55 5.77,0.08 8.29,1.86 3.02,2.13 4.66,5.31 4.66,9l0 8.32c2.47,0.8 4.55,2.47 5.95,4.82 2.77,0.15 5.36,1.36 7.37,3.51l9.99 10.7c1.73,1.85 2.73,4.11 2.95,6.46l0.22 0.08c3.35,1.2 5.78,3.84 6.79,7.01 1.68,1.29 2.97,3.08 3.68,5.21 0.79,0.32 1.55,0.75 2.28,1.27l11.26 8.09c3.12,2.23 4.78,5.71 4.6,9.39l4.06 -1.46c3.48,-1.25 7.03,-0.77 10.06,1.36 0.45,0.31 0.87,0.65 1.25,1.01 1.28,0.3 2.44,0.79 3.48,1.47l3.4 -3.64c2.16,-2.32 4.88,-3.5 8.05,-3.5 3.17,0 5.89,1.19 8.05,3.5l0.56 0.6c3.26,-0.44 6.64,0.62 9.15,3.09l15.02 14.77c1.88,1.85 2.96,4.05 3.22,6.59 1.9,1.19 3.37,2.93 4.23,4.98 2.29,-0.24 4.62,0.27 6.74,1.53l7.31 4.35 5.5 -1.47c3.42,-0.91 6.75,-0.24 9.55,1.91 1.14,0.87 2.06,1.89 2.76,3.03l5.65 -2.01c2.72,-0.97 5.38,-0.88 8.03,0.25l12.52 5.38c1.11,0.47 2.08,1.08 2.93,1.81 0.13,0.01 0.26,0.03 0.39,0.05 1.73,-2.2 4.22,-3.62 7.16,-4.01 4,-0.54 7.69,0.98 10.16,4.16l4.37 5.63 10.95 4.27c2.01,0.79 3.55,1.95 4.83,3.68l5.02 6.73c1.2,1.61 1.86,3.25 2.1,5.23l0.91 7.34c0.08,-0.04 0.17,-0.08 0.26,-0.11 3.14,-1.28 6.37,-1.12 9.36,0.49l0.62 0.33 3.01 -2.76c3.75,-3.43 9.15,-3.89 13.42,-1.14l1.94 1.25 12.65 -3.88c1.76,-0.54 3.37,-0.63 5.18,-0.31l7.51 1.36c3.29,0.59 5.89,2.41 7.56,5.3 1.26,2.15 1.75,4.46 1.45,6.8 3.28,0.64 5.94,2.62 7.54,5.65 0.21,0.4 0.39,0.81 0.56,1.22 1.67,-1.08 3.64,-1.67 5.78,-1.71 3.86,-0.07 7.21,1.68 9.36,4.9l6.28 9.39c1.79,2.68 2.32,5.72 1.55,8.75 0.23,0.14 0.46,0.29 0.69,0.45l3.75 2.67c3.31,2.35 4.99,6.1 4.6,9.99l0.79 0.84c1.54,1.63 2.5,3.54 2.85,5.61 1.96,0.9 3.65,2.39 4.81,4.35l4.35 0c3.76,0 7.06,1.76 9.09,4.77 1.47,0.59 2.83,1.51 3.98,2.75l8.77 9.39c1.37,1.47 2.29,3.16 2.71,4.98l0.52 -0.12c4.75,-1.09 9.51,1.09 11.91,5.05l0.6 0c2.77,0 5.31,0.99 7.25,2.68 3.32,-1.84 7.35,-1.83 10.79,0.16 2.39,1.39 4.09,3.5 4.93,5.93 0.22,0.23 0.44,0.49 0.65,0.74l7.44 9.31c4.05,0.34 7.46,2.78 9.12,6.59 0.27,0.61 0.47,1.24 0.63,1.86l14.24 -1.69c3.59,-0.43 6.86,0.77 9.33,3.4 2.32,2.48 3.33,5.58 2.9,8.9l3 1.61 5.38 -4.2 3.99 -12.8c1.22,-3.9 4.23,-6.64 8.22,-7.49l12.52 -2.67c3.29,-0.7 6.54,0.09 9.03,2.02 3.02,-1.37 6.58,-1.32 9.7,0.34l4.21 2.24 3.78 -0.66c4.43,-0.77 8.65,1.06 11.11,4.83l2.01 3.08c0.87,0.1 1.73,0.31 2.57,0.63 2.17,-0.78 4.59,-0.9 6.96,-0.18l0.21 0.07c3.01,-3.04 7.62,-4.14 11.82,-2.5l6.8 2.65c1.76,-1.85 3.97,-2.97 6.33,-3.32 0.85,-0.49 1.74,-0.85 2.66,-1.09 1.33,-3.49 4.16,-5.94 7.86,-6.77 1.93,-0.44 3.83,-0.37 5.59,0.16 2.88,-0.86 5.83,-0.52 8.53,1.03l7.46 4.27c0.48,-0.3 0.98,-0.57 1.5,-0.79l1.49 -4.25c1.4,-4 4.7,-6.69 8.9,-7.27 0.61,-0.08 1.21,-0.12 1.8,-0.11l1.34 -2.4c2.33,-4.17 6.98,-6.26 11.48,-5.48 1.44,-0.86 3.09,-1.36 4.9,-1.48l14.99 -1.01 1.99 -2.65c2.23,-2.97 5.48,-4.52 9.19,-4.39l37.57 1.31c3.03,0.11 5.6,1.28 7.67,3.49l7.6 8.14 8.25 -2.92c2.56,-0.91 5.04,-0.88 7.58,0.08l13.5 5.11 5.07 -6.77c2.4,-3.21 6.03,-4.79 10.01,-4.36l10.01 1.09 9.5 -3.4 0.26 -0.35 -0.54 -3.46c-0.63,-3.97 0.79,-7.69 3.9,-10.24l21.3 -17.44c2.05,-1.69 4.33,-2.5 6.99,-2.5l5.55 0 10.58 -10.29c1.24,-1.2 2.53,-1.99 4.17,-2.55l10.6 -3.56c-2.46,-3.69 -2.51,-8.6 0.15,-12.41l5.19 -7.43 -0.88 -9.39c-0.22,-2.33 0.21,-4.38 1.36,-6.42l7.51 -13.42c1.17,-2.1 2.77,-3.58 4.94,-4.6l20.07 -9.39c2.61,-1.22 5.29,-1.4 8.04,-0.51l2.99 0.96c0.97,-1.25 2.22,-2.24 3.75,-3l10.94 -5.43 0.57 -4.79c0.57,-4.82 4.03,-8.56 8.79,-9.51 4.76,-0.95 9.39,1.18 11.76,5.41l1.48 2.64 4.17 1.12 0.51 -0.54c3.07,-3.26 7.5,-4.33 11.71,-2.83l2.24 0.79 5.23 -3.56 0.52 -3.33c0.52,-3.32 2.3,-5.96 5.17,-7.7 2.87,-1.74 6.04,-2.09 9.22,-1.02l15.7 5.28 12.19 -6.06c2.78,-1.38 5.84,-1.52 8.57,-0.56l21.36 -11.46 6 -8.56c1.82,-2.59 4.34,-4.14 7.47,-4.58 3.12,-0.45 5.98,0.33 8.45,2.31l5.68 4.55c3.51,-0.82 6.94,0.02 9.69,2.39 1.8,1.56 3,3.5 3.52,5.66 1.03,0.63 1.97,1.44 2.78,2.42l2.24 2.73 10.41 -7.43c3.35,-2.39 7.43,-2.75 11.15,-0.98l8.38 4 19.4 -2.29c2.99,-0.35 5.69,0.4 8.06,2.25l10.12 7.88 5.47 -0.71c3.56,-0.46 6.81,0.67 9.32,3.24 2.45,2.51 3.51,5.73 3.02,9.19l1.18 0.54c5.39,2.47 7.86,8.77 5.58,14.25l-1.12 2.69c1.7,1.66 2.79,3.85 3.13,6.37 0.38,2.81 -0.25,5.47 -1.77,7.67l4 6.67 30.25 5.8c2.4,0.46 4.32,1.52 5.99,3.3l1.03 1.11 3.01 -0.46c4.07,-0.63 7.86,0.89 10.39,4.13l6.24 8.04c1.2,1.54 1.88,3.12 2.18,5.04l0.25 1.61 1.39 0.49c3.78,1.37 6.36,4.41 7.09,8.35l1.36 7.31 15.48 5.85c2.78,1.05 4.81,2.93 6.08,5.62l2.53 5.38c1.65,3.5 1.42,7.28 -0.64,10.56l-2.53 4.02c-0,0.01 -0.01,0.02 -0.02,0.03l3.62 5.44c2.29,3.46 2.5,7.59 0.56,11.26l-0.19 0.36c0.11,0.48 0.19,0.97 0.23,1.47 3.12,1.03 5.42,3.18 6.69,6.24 1.3,3.15 1.14,6.39 -0.46,9.4l-10.37 19.42 25.58 17.25c1.34,0.91 2.33,1.93 3.18,3.3l0.32 0.52c3.69,-1.02 7.46,-0.11 10.33,2.54l2.98 2.75 0.58 -0.32c3.16,-1.71 6.62,-1.82 9.88,-0.31l4.66 2.16 7.05 -2.53c3.06,-1.1 6.12,-0.87 8.98,0.68l4.19 -4.5c3.75,-4.04 9.8,-4.69 14.32,-1.57l13.26 -2.65 15.82 -10.6 6.21 -12.17c1.14,-2.25 2.78,-3.85 5.06,-4.94l22.52 -10.75c2.09,-1 4.14,-1.3 6.43,-0.95l3.01 0.47 4.8 -5.14c2.62,-2.81 6.33,-4 9.92,-3.36l3.4 -4.15c1.47,-1.8 3.21,-2.94 5.44,-3.59l13.79 -4.02c3.04,-0.89 5.99,-0.52 8.71,1.1l7.74 4.6 10.97 -1.95c4.32,-0.76 8.43,0.93 10.95,4.52l0.68 0.98c1.03,-0.26 2.11,-0.38 3.24,-0.33 3.31,0.13 6.12,1.54 8.18,4.14l1.79 2.23 4.44 -2.37c2.76,-1.47 5.68,-1.72 8.65,-0.74 1.24,0.41 2.34,0.99 3.31,1.73 1.38,-0.61 2.91,-0.93 4.52,-0.93l13.77 -0c1.61,0 3,0.29 4.48,0.95l4.94 2.19 -0.13 -0.65c-0.69,-3.32 0.07,-6.45 2.18,-9.1l4.63 -5.8 -0.73 -6.18c-0.34,-2.87 0.34,-5.46 2.05,-7.79l20.43 -27.95 0 -16.5c0,-2.03 0.47,-3.78 1.49,-5.53l2.39 -4.12c-2.73,-0.85 -4.87,-2.63 -6.29,-5.21 -1.28,-2.34 -1.67,-4.84 -1.17,-7.35 -1.74,-1.96 -2.71,-4.49 -2.71,-7.29l0 -9.39c0,-2.28 0.59,-4.23 1.86,-6.12l6.28 -9.39c2.22,-3.31 5.91,-5.06 9.64,-4.9l0.87 -0.65 2.89 -13.46c0.58,-2.7 1.95,-4.84 4.16,-6.5l12.52 -9.39c0.89,-0.67 1.74,-1.13 2.78,-1.52l32.55 -12.06c3.23,-1.2 6.5,-0.9 9.45,0.86l5.42 3.21 0.56 -0.35c1.24,-0.79 2.53,-1.32 3.86,-1.58 1.17,-2.1 2.94,-3.67 5.25,-4.65l15.23 -6.5 3.15 -5.96c0.7,-1.31 1.52,-2.32 2.66,-3.28l14.89 -12.49 1.63 -6.05c0.63,-2.35 1.84,-4.19 3.73,-5.72l7.8 -6.27 3.94 -9.5c0.6,-1.45 1.37,-2.59 2.49,-3.67l26.2 -25.53 9.21 -18.43c0.84,-1.68 1.92,-2.95 3.45,-4.05l11.26 -8.04c0.71,-0.51 1.37,-0.87 2.18,-1.21l30.42 -12.63 -3.16 -15.19c-0.42,-2 -0.31,-3.82 0.35,-5.76l16.27 -48.33c0.89,-2.63 2.5,-4.6 4.9,-6.01l13.79 -8.04c1.57,-0.91 3.1,-1.37 4.91,-1.48l16.35 -0.95 12.14 -22.73c0.64,-1.19 1.36,-2.11 2.36,-3.01l4.3 -3.86 0.86 -9.12c0.24,-2.53 1.18,-4.63 2.91,-6.48l3.76 -4.02c1.88,-2.02 4.16,-3.16 6.91,-3.44l9.03 -0.94 11.1 -9.78c1.51,-1.33 3.12,-2.13 5.1,-2.53l26.31 -5.33c2.61,-0.54 5.03,-0.18 7.39,1.08l15.01 8.04c3.09,1.66 5.06,4.39 5.66,7.85l1.71 9.96 8.46 5.46c3.42,2.2 5.25,5.81 5.03,9.88l-27.58 489.65c-0.22,3.8 -2.15,6.97 -5.44,8.89l-13.75 8.04c-3.16,1.85 -6.71,2.04 -10.06,0.55l-9.42 -4.22 -8.66 5.92c-1.66,1.14 -3.35,1.74 -5.36,1.89l-17.54 1.36c-0.44,0.03 -0.87,0.04 -1.3,0.02l-11.74 -0 -3.19 2.73c-3.41,2.92 -7.97,3.5 -12.01,1.52l-10.64 -5.2 -0.71 0.11 -4.81 6.86c-1.17,1.65 -2.54,2.8 -4.37,3.66l-27.59 12.84 -11.05 8.89 -4.16 17.76c-0.6,2.59 -1.91,4.63 -4.02,6.23l-14.39 11.03 -1.62 6.88c-0.4,1.7 -1.08,3.08 -2.18,4.44l-7.59 9.3 -7.21 19.86 0.9 6.67c0.41,3.05 -0.33,5.81 -2.22,8.24l-11.36 14.64 -5.65 17c-0.36,1.1 -0.82,2 -1.5,2.94l-27.15 37.94 -0.93 7.89c-0.25,2.09 -0.96,3.83 -2.26,5.49l-3.02 3.87 0.05 0.22c0.7,2.97 0.24,5.77 -1.36,8.35l-5.09 8.17 0.21 0.91c0.44,1.86 0.41,3.55 -0.08,5.39l-1.61 5.99 6.28 16.84c0.6,1.63 0.82,3.3 0.68,4.91 1.36,1.18 2.38,2.65 3.02,4.25 0.18,-0.03 0.36,-0.06 0.55,-0.09 3.17,-0.5 6.08,0.28 8.58,2.29l4.37 3.5 6.11 -3.27c1.96,-1.05 4.01,-1.48 6.1,-1.28l5.64 -3.64c3.07,-1.98 6.57,-2.33 9.96,-1l13.79 5.37c1.85,0.72 3.27,1.75 4.52,3.28l0.73 0.9c2.24,-1.01 4.77,-1.22 7.31,-0.54 3.05,0.81 5.45,2.71 6.86,5.34 2.65,-0.73 5.46,-0.41 8.03,0.96 2.71,1.45 4.58,3.76 5.39,6.55l5.43 2.56c2.53,1.2 4.42,3.2 5.44,5.6 0.14,0.07 0.27,0.14 0.41,0.22 1.66,-0.29 3.41,-0.19 5.14,0.33 4.11,1.24 6.98,4.49 7.69,8.72l0.14 0.77c1.38,0.46 2.69,1.2 3.84,2.23l7.51 6.69c2.93,2.61 4.21,6.31 3.54,10.07l4.54 0.68c3.56,0.53 6.39,2.52 8.09,5.7 0.92,1.72 1.37,3.53 1.34,5.34 2.25,1.45 3.9,3.7 4.6,6.39 1.69,-0.28 3.47,-0.17 5.22,0.39 4.27,1.35 7.17,4.95 7.62,9.29 2.18,1.4 3.84,3.57 4.61,6.25l3.9 13.55 3.05 2.03 35.76 -5.97c3.5,-0.59 6.75,0.4 9.35,2.82l2.66 2.5c3.88,-3.47 9.48,-3.79 13.73,-0.77l3.76 2.67c1.9,1.34 3.24,3.1 3.98,5.15l5 -0.42c0.8,-0.07 1.58,-0.05 2.34,0.04 0.73,-0.9 1.62,-1.69 2.66,-2.35l8.49 -5.45 0.37 -2.02c0.79,-4.37 3.89,-7.66 8.19,-8.73l8.87 -2.19 0.37 -3.13c0.64,-5.39 4.98,-9.44 10.4,-9.71l27.54 -1.36c2.92,-0.14 5.48,0.73 7.7,2.64l2.23 1.9 8.55 -1.68c5.14,-1.01 10.15,1.62 12.24,6.43l7.27 16.76 15.61 8.89c2.57,1.46 4.35,3.71 5.12,6.38l1.38 0.37 5.57 -5.22c2.56,-2.39 5.75,-3.38 9.21,-2.85l8.77 1.36c5.02,0.77 8.77,4.72 9.28,9.78l0.09 0.88c1.1,0.1 2.18,0.38 3.27,0.85l16.16 6.91 9.66 -1.05c4.77,-0.51 9.14,1.95 11.17,6.3l1.12 2.42 6.35 0.68c4.63,0.5 8.28,3.64 9.47,8.14l1.06 3.98 3.84 1.5 5.56 -2.98c1.5,-0.8 3.1,-1.24 4.7,-1.32l0.97 -4.64c0.43,-2.04 1.28,-3.7 2.7,-5.23l3.77 -4.06 2.13 -19.2c0.49,-4.4 3.41,-7.93 7.49,-9.25 0.44,-4.46 3.57,-8.3 8.09,-9.52l3.32 -0.9c0.73,-3.74 3.12,-6.63 6.66,-8.07 3.08,-1.25 6.3,-1.11 9.14,0.37l0.73 -0.31c3.41,-1.45 7.01,-1.16 10.13,0.79 1.65,-0.45 3.41,-0.5 5.21,-0.12 2.6,0.54 4.78,1.89 6.33,3.84 1.37,-0.16 2.78,-0.07 4.21,0.31 2.99,0.79 5.37,2.64 6.79,5.2 1.63,0.3 3.12,0.96 4.53,2.02l21.17 15.88 16.52 -3.12c1.25,-0.24 2.34,-0.26 3.59,-0.08l17.08 2.42 1.47 -0.26 2.4 -3.22c1.69,-2.27 3.91,-3.67 6.69,-4.22l33.82 -6.69c1.6,-0.32 3.02,-0.29 4.61,0.08l63.23 14.59c0.49,0.09 0.97,0.21 1.45,0.36l21.29 6.73c1.48,0.47 2.67,1.13 3.84,2.13l7.34 6.27c5.47,-2.32 11.79,0.11 14.3,5.5l7.02 15.11 11.47 5.25 103.85 -3.92c3.63,-0.14 6.81,1.33 9.07,4.19 2.25,2.86 2.94,6.29 1.96,9.8l-3.75 13.42c-0.8,2.84 -2.46,5.01 -5,6.51l-11.3 6.69c-1.35,0.8 -2.64,1.24 -4.19,1.44l-37.68 4.9 -9.14 8.92 -2.08 6.61 14.42 65.56c0.22,1 0.3,1.87 0.25,2.88l-1.18 25.02 19.52 68c0.3,1.04 0.43,1.96 0.43,3.04l0 33.31 8.31 27.96c0.29,0.97 0.43,1.82 0.46,2.83l1.16 41.68 26.9 31.02 21.62 1.11c1.82,0.1 3.36,0.55 4.94,1.46l8.77 5.06 7.98 -20.9c0.82,-2.14 2.08,-3.77 3.96,-5.09l36.3 -25.52c1.02,-0.72 1.99,-1.19 3.18,-1.54l31.33 -9.35c1.63,-0.49 3.13,-0.6 4.82,-0.34l26.27 4.02c0.64,0.1 1.18,0.23 1.8,0.43l50.54 16.75 52.88 -3.86c1.48,-0.11 2.76,0.05 4.17,0.5l25.05 8.04c0.78,0.25 1.43,0.54 2.14,0.95l16.28 9.39c0.99,0.57 1.77,1.19 2.55,2.03l16.27 17.44c0.36,0.39 0.65,0.74 0.95,1.17l7.55 10.71c1.68,2.38 2.31,4.99 1.9,7.87l-3.76 26.83c-0.37,2.65 -1.51,4.82 -3.49,6.62l-23.27 21.19 -11.58 27.32c-1.46,3.44 -4.27,5.75 -7.95,6.5l-71.5 14.57 -6.29 36.83c-0.5,2.98 -1.99,5.36 -4.45,7.11l-17.16 12.27 -8.01 11.79 -7.02 22.56c-1.02,3.27 -3.24,5.67 -6.41,6.95l-27.16 10.94 -15.49 21.03 -1 4.78 8.23 10.76c1.17,1.53 1.84,3.1 2.14,5.01l2.02 13.06 8.08 9.71c0.56,0.67 0.96,1.29 1.36,2.06l7.51 14.78c1.31,2.58 1.57,5.25 0.77,8.04l-0.97 3.37 3.49 0c2.14,-0.15 4.18,0.3 5.99,1.31 1.07,0.59 2.04,1.36 2.88,2.31l7.38 7.9c2.27,2.43 3.27,5.42 2.9,8.73l-1.47 13.29 34.82 5.47c1.77,0.28 3.24,0.88 4.7,1.93l26.27 18.79c1.74,1.24 2.94,2.74 3.75,4.68l2.37 0c2.12,0 3.94,0.52 5.75,1.63l4.73 2.9 15.45 -4.15c3.33,-0.9 6.58,-0.29 9.36,1.75l20.92 15.31 17.65 0c2.12,0 3.93,0.52 5.74,1.61l14.54 8.88 15.29 -1.07c1.01,-0.07 1.88,-0.02 2.87,0.18l10.53 2.04 33.31 -13.54c1.86,-0.76 3.64,-0.98 5.63,-0.71l9.99 1.35c0.57,0.08 1.03,0.18 1.58,0.33l32.55 9.39c1.75,0.51 3.14,1.3 4.48,2.54l3.44 3.23 3.92 -2.8c2.08,-1.48 4.3,-2.14 6.86,-2.04l24.7 1.03 2.9 -4.97c0.55,-0.95 1.14,-1.7 1.94,-2.45l21.3 -20.14c1.17,-1.1 2.36,-1.84 3.87,-2.37l6.94 -2.48 0.58 -1.23c1.96,-4.16 6.04,-6.59 10.63,-6.31l22.52 1.35c2.37,0.14 4.37,0.91 6.23,2.4l10.04 8.04c1.9,1.52 3.16,3.45 3.76,5.65l15.03 4.49c0.67,0.2 1.22,0.42 1.85,0.74l24.93 12.71 26.05 5.03c3.45,0.67 6.14,2.69 7.73,5.82l22.69 44.63 1.32 2.85 10.3 7.73c2.38,1.79 3.81,4.16 4.27,7.1l1.19 7.55 1.03 4.4 6.59 2.12c5.21,1.67 8.37,6.8 7.52,12.2l-0.43 2.73 17.63 18.89c0.43,0.45 0.81,0.93 1.14,1.43 1.93,1.44 3.25,3.4 3.91,5.79l1.9 0.69c2.87,1.03 4.97,2.96 6.26,5.73 0.2,0.44 0.38,0.9 0.53,1.34l4.17 0.35c4.57,0.38 8.25,3.33 9.61,7.71l3.76 12.06c0.16,0.53 0.29,1.06 0.37,1.59 1.44,1.2 2.5,2.71 3.18,4.57l0.3 0.8 1.33 0.24c3.33,0.6 5.96,2.46 7.63,5.4l1.59 2.8 9.46 2.77c1.33,0.39 2.41,0.93 3.52,1.76l8.39 6.3 0.7 -0.16 1.66 -4.11c1.78,-4.41 5.94,-7.08 10.69,-6.88l25.09 1.09c1.47,-1.2 3.25,-2 5.27,-2.31 3.73,-0.59 7.21,0.6 9.78,3.36l9.77 10.47 29.81 3.54c1.01,0.12 1.87,0.34 2.81,0.72l9.99 4.02c1.19,0.48 2.23,1.1 3.13,1.88 1.79,-0.05 3.57,0.36 5.22,1.21l6.97 -2.99c2.89,-1.24 5.83,-1.23 8.71,0.01l6.29 2.71c3.65,1.58 6.02,4.7 6.55,8.64l0.03 0.21c1.71,1.09 3.14,2.67 4.06,4.64l2.2 4.72 4.28 2.29c3.67,1.97 5.82,5.55 5.82,9.71l0 3.42c2.35,1.1 4.25,3.04 5.36,5.59 0.46,1.06 0.76,2.15 0.88,3.23l0.41 0.29c2.72,1.95 4.33,4.87 4.59,8l1.37 -0.73c5.02,-2.66 11.17,-1.11 14.33,3.61l3.01 4.51 1.62 0c1.55,0 2.88,0.27 4.31,0.88l5.69 2.42c0.78,-0.27 1.6,-0.46 2.46,-0.56 3.93,-0.46 7.53,1.04 9.96,4.16l6.29 8.04c2.17,2.78 2.86,6.09 2,9.5l-0.93 3.63c1.09,1.3 1.85,2.84 2.26,4.63l1.22 5.37c0.36,1.59 0.36,3.17 0.05,4.67l2.18 2.84 2.07 0c3.73,0 6.94,1.68 9.06,4.74 2.12,3.07 2.57,6.66 1.25,10.15l-0.27 0.73 3.37 4.05 6.49 1.17 7.51 -5.37c3.9,-2.8 8.92,-2.79 12.82,0l3.27 2.34c5.71,-1.53 11.62,1.73 13.37,7.38l0.52 1.68c0.97,0.1 1.94,0.33 2.9,0.69l17.54 6.73c3.24,1.24 5.57,3.82 6.56,6.9 0.54,-0.23 1.12,-0.44 1.72,-0.59l5.02 -1.31c4.87,-1.27 9.8,0.8 12.31,5.14l7.35 -1.3c2.01,-0.35 4,-0.15 5.78,0.51 1.02,-2.04 2.68,-3.73 4.86,-4.84 4.18,-2.14 9.01,-1.49 12.47,1.68l7.21 6.61c0.53,-0.07 1.07,-0.11 1.63,-0.11l0.89 0 2.93 -3.78c2.13,-2.75 5.12,-4.23 8.6,-4.26 3.48,-0.03 6.49,1.39 8.68,4.1l4.97 6.15 3.46 0.63c4.33,0.78 7.62,3.87 8.7,8.01l0.57 -0.07c4.35,-0.52 8.36,1.41 10.67,5.13l4.27 6.89 2.63 0c4.06,0 7.54,2.02 9.56,5.54l9.99 17.44c1.44,2.51 1.83,5.15 1.17,7.97l-0.18 0.77c2.31,0.94 4.09,2.53 5.34,4.78l3.68 6.58c1.17,0.22 2.31,0.66 3.42,1.29 2.91,1.66 4.75,4.24 5.37,7.52l0.71 3.75 5.42 6.22c0.74,-0.43 1.54,-0.77 2.4,-1.03l8.77 -2.67c3.37,-1.02 6.71,-0.48 9.59,1.56l7.51 5.33c2.52,1.79 4.06,4.29 4.51,7.27l4.25 -0.95c3.07,-0.68 5.97,-0.14 8.58,1.63l23.78 16.08c2.98,2.01 4.71,5.17 4.86,8.57 1.63,0.76 3.02,1.93 4.13,3.47 4.3,-2.9 10.09,-2.42 13.87,1.3l11.46 11.28 13.83 -1c4.01,-0.29 7.6,1.44 9.87,4.75 1.84,2.67 2.4,5.77 1.66,8.77 2.6,-0.45 5.11,0.03 7.44,1.43 2.42,1.44 4.05,3.51 4.85,6.13 1.51,-1.73 3.48,-2.89 5.85,-3.42 3.17,-0.71 6.18,-0.1 8.82,1.79l7.51 5.37c3.18,2.28 4.83,5.75 4.58,9.65 -0.05,0.74 -0.16,1.47 -0.34,2.15 3.19,-0.96 6.41,-0.49 9.23,1.39l30.18 20.09 13.91 -9.32c4.11,-2.75 9.33,-2.49 13.14,0.65l12.57 10.35 5.26 -0.71c3.04,-0.41 5.81,0.33 8.22,2.2l2.6 -1.12 3.24 -6.91c2.32,-4.96 7.81,-7.43 13.07,-5.9l6.92 2.03c1.51,-0.76 3.21,-1.17 5.02,-1.16 4,0.01 7.47,2.01 9.45,5.38l15.58 0c4.6,0 8.52,2.66 10.23,6.93l1.9 4.77 2.5 0.9 8.54 -3.67c3.92,-1.68 8.18,-1.05 11.44,1.7l12.49 10.51 3.89 -1.56c3.27,-1.31 6.63,-1.06 9.67,0.72 3.04,1.78 4.9,4.59 5.36,8.08l0.8 6.15 3.55 -1.04 4.22 -4.5c4.12,-4.39 11.04,-4.65 15.48,-0.58l8.73 8 8.53 -3.41c5.41,-2.17 11.55,0.24 14.05,5.5l0.84 1.75 3.42 4.73 2.39 -2.05c2.08,-1.79 4.44,-2.67 7.18,-2.67l5.03 -0.01c4.6,-0.01 8.54,2.65 10.25,6.93l0.5 1.25c1.76,0.31 3.43,1.08 4.93,2.28l5.02 4.02c4.15,3.32 5.33,8.99 2.88,13.68l7.24 7.76 16.1 -1.03c3.85,-0.24 7.27,1.35 9.56,4.45l4.98 6.73c1.46,1.98 2.16,4.09 2.16,6.55l0 3.7 3.32 3.55c0.49,0.53 0.93,1.1 1.31,1.69l7.88 -3.11c4.3,-1.7 8.95,-0.65 12.1,2.73l4.73 5.06 17.94 -3.03c0.63,-0.11 1.18,-0.16 1.83,-0.16l5.02 -0c3.72,-0 6.91,1.66 9.04,4.71l3.76 5.37c1.82,2.6 2.41,5.53 1.74,8.63l-1.28 5.93c1.83,0.54 3.41,1.54 4.79,3.01l9.56 10.21 0.22 -0.05c5.49,-1.14 10.89,1.95 12.68,7.26l3.27 9.67 12.6 4.51c3.6,-3.32 9.11,-3.94 13.42,-1.19l1.14 0.73 3.37 -1.6 4.67 -6.01c2.58,-3.32 6.52,-4.83 10.66,-4.08l7.51 1.35c1.9,0.34 3.45,1.05 4.95,2.26l2.34 1.88c2.42,-1.52 5.29,-2 8.23,-1.32 3.55,0.81 6.28,3.1 7.66,6.37l8.91 3.44c2.87,1.11 4.94,3.1 6.15,5.93l5.46 12.71 7.25 2.12 23.46 0c3.17,0 5.89,1.18 8.05,3.49l14.71 15.72 1.6 -0.29c2.41,-0.43 4.59,-0.13 6.79,0.94l10.99 5.36 10.64 -1.04c1.39,-0.14 2.6,-0.04 3.95,0.33l5.02 1.35c4.87,1.32 8.15,5.59 8.15,10.64l0 0.6 16.15 10.18c1.55,0.97 2.77,2.23 3.65,3.69 4.49,-0.23 8.56,2.2 10.5,6.35l0.33 0.71c2.56,0.67 4.86,2.27 6.42,4.66l8.77 13.41c1.22,1.87 1.8,3.79 1.8,6.03l0 8.98 1.82 0.48c3.44,0.92 6.01,3.18 7.35,6.48l7.45 18.23 3.35 2.14c2.85,1.82 4.57,4.54 4.99,7.91 0.41,3.24 -0.5,6.21 -2.64,8.64l0.1 -0.04c4.71,-1.91 9.93,-0.45 12.97,3.63l5.01 6.73c0.79,1.06 1.37,2.19 1.74,3.37l4.86 -0.93c3.34,-0.64 6.47,0.16 9.09,2.33 2.62,2.17 4,5.09 4,8.49l0 18.04 26.86 10.65c2.56,1.02 4.44,2.71 5.71,5.15l5.07 9.72 5.36 3.84c2.03,1.46 3.36,3.29 4.11,5.69l3.76 12.06c1.72,5.54 -1.12,11.44 -6.52,13.54l-11.21 4.37 -9.58 11.2 -0.76 11.35 31.67 46.5c0.52,0.77 0.89,1.48 1.22,2.35l7.51 20.1c0.4,1.06 0.6,2.02 0.68,3.16l1.27 20.15c0.1,1.51 -0.08,2.81 -0.57,4.25l-5.02 14.72c-0.99,2.92 -2.9,5.06 -5.69,6.39l-11.26 5.37c-2.07,0.99 -4.1,1.29 -6.37,0.95l-8.77 -1.31c-1.74,-0.26 -3.18,-0.83 -4.63,-1.83l-13.8 -9.52 -1.66 0.3 -11.08 5.08 -2.71 14.53c-0.13,0.72 -0.3,1.32 -0.57,2l-22.56 57.68c-0.73,1.88 -1.79,3.31 -3.35,4.57l-8 6.44 -13.09 28 -2.36 36.82c-0.14,2.11 -0.76,3.89 -1.97,5.63l-5.51 7.86 0 3.32 16.25 19.76c2.86,3.48 3.35,8.07 1.27,12.07l-10.31 19.89 4.29 11.92 10.68 17.78c0.8,1.33 1.26,2.62 1.47,4.16l5.02 36.22c0.09,0.66 0.12,1.23 0.1,1.9l-1.17 33.65 20.23 44.62c0.9,2 1.18,3.94 0.87,6.1l-2.49 17.44c-0.13,0.93 -0.34,1.71 -0.69,2.58l-18.76 46.35 0.27 1.17 14.7 36.82c0.6,1.5 0.84,2.89 0.78,4.5l-1.22 32.21c-0.08,1.95 -0.57,3.6 -1.58,5.28l-10.18 16.87 -0.52 3.48 7.58 25.52 9.04 13.36c1.48,2.19 2.09,4.54 1.85,7.17l-1.22 13.42c-0.11,1.24 -0.38,2.29 -0.88,3.43l-28.67 65.32 -19.76 56.91 -11.16 41.19c-0.24,0.91 -0.55,1.67 -1.02,2.49l-11.26 20.14c-0.65,1.18 -1.39,2.08 -2.41,2.96l-32.75 28.35 -27.58 22.77c-0.85,0.7 -1.66,1.19 -2.67,1.63l-25.05 10.75c-0.38,0.16 -0.72,0.29 -1.12,0.41l-17.54 5.37c-0.51,0.15 -0.95,0.26 -1.48,0.35l-74.62 11.98 -57.2 14.36 -24.23 12.35 -21.85 17.27z"/>
  <g id="Amambai">
   <path class="fil1" d="M3421.4 7266.94c0,-33.78 41.45,-58.91 73.09,-30.23 10.82,9.81 16.64,31.52 8.63,47.66 -2.32,4.68 -5.15,8.98 -8.63,12.81 -1.14,1.25 -4.4,3.68 -5.98,4.73 -2.47,1.66 -4.19,2.58 -6.83,3.89 -17.96,8.93 -41.52,1.67 -52.39,-14.6 -4.42,-6.61 -7.89,-15.45 -7.89,-24.26zm42.19 127.24c5.92,0 6.19,-1.14 10.5,-3.56l36.19 -24.09 13.88 -12.91c7.21,-6.02 21.82,-25.72 26.28,-33.99 18.19,-33.8 19.16,-71.98 -0.58,-104.79 -10.97,-18.23 -27.46,-31.65 -46.75,-40.31l-15.24 -4.86c-29.79,-6.35 -59.12,-1.25 -83.31,16.82 -2.82,2.1 -4.65,3.85 -7.37,6.02 -2.51,2.01 -4.71,4.32 -6.6,6.8 -4.27,5.6 -6.32,6.16 -11.67,15.11 -3.48,5.82 -6.32,11.18 -8.66,18.12 -1.31,3.9 -2.2,5.75 -3.24,10.15 -0.82,3.49 -1.38,7.22 -1.99,11.41 -0.94,6.44 -1.31,17.55 -0.28,24.63 2.52,17.35 6.45,27.65 13.12,40.46 0.89,1.71 1.47,2.41 2.46,4.24 0.98,1.82 1.33,2.56 2.52,4.18 12.02,16.38 11.03,15.13 24.67,28.9 12.89,13.02 30.46,25.25 46.48,33.88 3.08,1.65 5.16,3.8 9.6,3.8z"/>
   <path class="fil1" d="M3349.75 7395.52c0,33.23 46.87,49.84 74.52,54.06 34.37,5.24 80.97,4.79 113.2,-8.98 13.93,-5.96 29.07,-14.71 36.61,-27.68 6.25,-10.76 6.21,-24.52 -0.25,-35.2 -3.11,-5.15 -6.75,-8.46 -10.93,-12.51 -10.33,-9.99 -26.3,-5.98 -26.3,10.23 0,10.72 14.5,13.31 13.01,21.06 -1.15,6 -13.77,12.99 -19.26,15.55 -33.65,15.68 -98.5,15.69 -132.16,0 -5.6,-2.61 -18.08,-9.38 -19.26,-15.55 -1.58,-8.25 13.01,-9.07 13.01,-22.4 0,-4.08 -0.86,-6.2 -2.86,-8.53 -5.99,-6.95 -14.44,-7.52 -19.73,-3.35 -1.14,0.9 -2.2,1.74 -3.33,2.69 -9.03,7.6 -16.27,17.55 -16.27,30.61z"/>
  </g>
  <g id="Aral-Moreira">
   <path class="fil1" d="M2872.73 6804.08c0,-33.78 41.45,-58.91 73.09,-30.23 10.82,9.81 16.64,31.52 8.63,47.66 -2.32,4.68 -5.15,8.98 -8.63,12.81 -1.14,1.25 -4.4,3.68 -5.98,4.73 -2.47,1.66 -4.19,2.58 -6.83,3.89 -17.96,8.93 -41.52,1.67 -52.39,-14.6 -4.42,-6.61 -7.89,-15.45 -7.89,-24.26zm42.19 127.24c5.92,0 6.19,-1.14 10.5,-3.56l36.19 -24.09 13.88 -12.91c7.21,-6.02 21.82,-25.72 26.28,-33.99 18.19,-33.8 19.16,-71.98 -0.58,-104.79 -10.97,-18.23 -27.46,-31.65 -46.75,-40.31l-15.24 -4.86c-29.79,-6.35 -59.12,-1.25 -83.31,16.82 -2.82,2.1 -4.65,3.85 -7.37,6.02 -2.51,2.01 -4.71,4.32 -6.6,6.8 -4.27,5.6 -6.32,6.16 -11.67,15.11 -3.48,5.82 -6.32,11.18 -8.66,18.12 -1.31,3.9 -2.2,5.75 -3.24,10.15 -0.82,3.49 -1.38,7.22 -1.99,11.41 -0.94,6.44 -1.31,17.55 -0.28,24.63 2.52,17.35 6.45,27.65 13.12,40.46 0.89,1.71 1.47,2.41 2.46,4.24 0.98,1.82 1.33,2.56 2.52,4.18 12.02,16.38 11.03,15.13 24.67,28.9 12.89,13.02 30.46,25.25 46.48,33.88 3.08,1.65 5.16,3.8 9.6,3.8z"/>
   <path class="fil1" d="M2801.07 6932.66c0,33.23 46.87,49.84 74.52,54.06 34.37,5.24 80.97,4.79 113.2,-8.98 13.93,-5.96 29.07,-14.71 36.61,-27.68 6.25,-10.76 6.21,-24.52 -0.25,-35.2 -3.11,-5.15 -6.75,-8.46 -10.93,-12.51 -10.33,-9.99 -26.3,-5.98 -26.3,10.23 0,10.72 14.5,13.31 13.01,21.06 -1.15,6 -13.77,12.99 -19.26,15.55 -33.65,15.68 -98.5,15.69 -132.16,0 -5.6,-2.61 -18.08,-9.38 -19.26,-15.55 -1.58,-8.25 13.01,-9.07 13.01,-22.4 0,-4.08 -0.86,-6.2 -2.86,-8.53 -5.99,-6.95 -14.44,-7.52 -19.73,-3.35 -1.14,0.9 -2.2,1.74 -3.33,2.69 -9.03,7.6 -16.27,17.55 -16.27,30.61z"/>
  </g>
  <g id="Laguna">
   <path class="fil1" d="M3161.06 6466.57c0,-33.78 41.45,-58.91 73.09,-30.23 10.82,9.81 16.64,31.52 8.63,47.66 -2.32,4.68 -5.15,8.98 -8.63,12.81 -1.14,1.25 -4.4,3.68 -5.98,4.73 -2.47,1.66 -4.19,2.58 -6.83,3.89 -17.96,8.93 -41.52,1.67 -52.39,-14.6 -4.42,-6.61 -7.89,-15.45 -7.89,-24.26zm42.19 127.24c5.92,0 6.19,-1.14 10.5,-3.56l36.19 -24.09 13.88 -12.91c7.21,-6.02 21.82,-25.72 26.28,-33.99 18.19,-33.8 19.16,-71.98 -0.58,-104.79 -10.97,-18.23 -27.46,-31.65 -46.75,-40.31l-15.24 -4.86c-29.79,-6.35 -59.12,-1.25 -83.31,16.82 -2.82,2.1 -4.65,3.85 -7.37,6.02 -2.51,2.01 -4.71,4.32 -6.6,6.8 -4.27,5.6 -6.32,6.16 -11.67,15.11 -3.48,5.82 -6.32,11.18 -8.66,18.12 -1.31,3.9 -2.2,5.75 -3.24,10.15 -0.82,3.49 -1.38,7.22 -1.99,11.41 -0.94,6.44 -1.31,17.55 -0.28,24.63 2.52,17.35 6.45,27.65 13.12,40.46 0.89,1.71 1.47,2.41 2.46,4.24 0.98,1.82 1.33,2.56 2.52,4.18 12.02,16.38 11.03,15.13 24.67,28.9 12.89,13.02 30.46,25.25 46.48,33.88 3.08,1.65 5.16,3.8 9.6,3.8z"/>
   <path class="fil1" d="M3089.4 6595.15c0,33.23 46.87,49.84 74.52,54.06 34.37,5.24 80.97,4.79 113.2,-8.98 13.93,-5.96 29.07,-14.71 36.61,-27.68 6.25,-10.76 6.21,-24.52 -0.25,-35.2 -3.11,-5.15 -6.75,-8.46 -10.93,-12.51 -10.33,-9.99 -26.3,-5.98 -26.3,10.23 0,10.72 14.5,13.31 13.01,21.06 -1.15,6 -13.77,12.99 -19.26,15.55 -33.65,15.68 -98.5,15.69 -132.16,0 -5.6,-2.61 -18.08,-9.38 -19.26,-15.55 -1.58,-8.25 13.01,-9.07 13.01,-22.4 0,-4.08 -0.86,-6.2 -2.86,-8.53 -5.99,-6.95 -14.44,-7.52 -19.73,-3.35 -1.14,0.9 -2.2,1.74 -3.33,2.69 -9.03,7.6 -16.27,17.55 -16.27,30.61z"/>
  </g>
  <g id="Ponta-Pora">
   <path class="fil1" d="M2692.28 6133.09c0,-33.78 41.45,-58.91 73.09,-30.23 10.82,9.81 16.64,31.52 8.63,47.66 -2.32,4.68 -5.15,8.98 -8.63,12.81 -1.14,1.25 -4.4,3.68 -5.98,4.73 -2.47,1.66 -4.19,2.58 -6.83,3.89 -17.96,8.93 -41.52,1.67 -52.39,-14.6 -4.42,-6.61 -7.89,-15.45 -7.89,-24.26zm42.19 127.24c5.92,0 6.19,-1.14 10.5,-3.56l36.19 -24.09 13.88 -12.91c7.21,-6.02 21.82,-25.72 26.28,-33.99 18.19,-33.8 19.16,-71.98 -0.58,-104.79 -10.97,-18.23 -27.46,-31.65 -46.75,-40.31l-15.24 -4.86c-29.79,-6.35 -59.12,-1.25 -83.31,16.82 -2.82,2.1 -4.65,3.85 -7.37,6.02 -2.51,2.01 -4.71,4.32 -6.6,6.8 -4.27,5.6 -6.32,6.16 -11.67,15.11 -3.48,5.82 -6.32,11.18 -8.66,18.12 -1.31,3.9 -2.2,5.75 -3.24,10.15 -0.82,3.49 -1.38,7.22 -1.99,11.41 -0.94,6.44 -1.31,17.55 -0.28,24.63 2.52,17.35 6.45,27.65 13.12,40.46 0.89,1.71 1.47,2.41 2.46,4.24 0.98,1.82 1.33,2.56 2.52,4.18 12.02,16.38 11.03,15.13 24.67,28.9 12.89,13.02 30.46,25.25 46.48,33.88 3.08,1.65 5.16,3.8 9.6,3.8z"/>
   <path class="fil1" d="M2620.63 6261.68c0,33.23 46.87,49.84 74.52,54.06 34.37,5.24 80.97,4.79 113.2,-8.98 13.93,-5.96 29.07,-14.71 36.61,-27.68 6.25,-10.76 6.21,-24.52 -0.25,-35.2 -3.11,-5.15 -6.75,-8.46 -10.93,-12.51 -10.33,-9.99 -26.3,-5.98 -26.3,10.23 0,10.72 14.5,13.31 13.01,21.06 -1.15,6 -13.77,12.99 -19.26,15.55 -33.65,15.68 -98.5,15.69 -132.16,0 -5.6,-2.61 -18.08,-9.38 -19.26,-15.55 -1.58,-8.25 13.01,-9.07 13.01,-22.4 0,-4.08 -0.86,-6.2 -2.86,-8.53 -5.99,-6.95 -14.44,-7.52 -19.73,-3.35 -1.14,0.9 -2.2,1.74 -3.33,2.69 -9.03,7.6 -16.27,17.55 -16.27,30.61z"/>
  </g>
  <g id="Dourados">
   <path class="fil1" d="M4017.89 5776.29c0,-33.78 41.45,-58.91 73.09,-30.23 10.82,9.81 16.64,31.52 8.63,47.66 -2.32,4.68 -5.15,8.98 -8.63,12.81 -1.14,1.25 -4.4,3.68 -5.98,4.73 -2.47,1.66 -4.19,2.58 -6.83,3.89 -17.96,8.93 -41.52,1.67 -52.39,-14.6 -4.42,-6.61 -7.89,-15.45 -7.89,-24.26zm42.19 127.24c5.92,0 6.19,-1.14 10.5,-3.56l36.19 -24.09 13.88 -12.91c7.21,-6.02 21.82,-25.72 26.28,-33.99 18.19,-33.8 19.16,-71.98 -0.58,-104.79 -10.97,-18.23 -27.46,-31.65 -46.75,-40.31l-15.24 -4.86c-29.79,-6.35 -59.12,-1.25 -83.31,16.82 -2.82,2.1 -4.65,3.85 -7.37,6.02 -2.51,2.01 -4.71,4.32 -6.6,6.8 -4.27,5.6 -6.32,6.16 -11.67,15.11 -3.48,5.82 -6.32,11.18 -8.66,18.12 -1.31,3.9 -2.2,5.75 -3.24,10.15 -0.82,3.49 -1.38,7.22 -1.99,11.41 -0.94,6.44 -1.31,17.55 -0.28,24.63 2.52,17.35 6.45,27.65 13.12,40.46 0.89,1.71 1.47,2.41 2.46,4.24 0.98,1.82 1.33,2.56 2.52,4.18 12.02,16.38 11.03,15.13 24.67,28.9 12.89,13.02 30.46,25.25 46.48,33.88 3.08,1.65 5.16,3.8 9.6,3.8z"/>
   <path class="fil1" d="M3946.24 5904.87c0,33.23 46.87,49.84 74.52,54.06 34.37,5.24 80.97,4.79 113.2,-8.98 13.93,-5.96 29.07,-14.71 36.61,-27.68 6.25,-10.76 6.21,-24.52 -0.25,-35.2 -3.11,-5.15 -6.75,-8.46 -10.93,-12.51 -10.33,-9.99 -26.3,-5.98 -26.3,10.23 0,10.72 14.5,13.31 13.01,21.06 -1.15,6 -13.77,12.99 -19.26,15.55 -33.65,15.68 -98.5,15.69 -132.16,0 -5.6,-2.61 -18.08,-9.38 -19.26,-15.55 -1.58,-8.25 13.01,-9.07 13.01,-22.4 0,-4.08 -0.86,-6.2 -2.86,-8.53 -5.99,-6.95 -14.44,-7.52 -19.73,-3.35 -1.14,0.9 -2.2,1.74 -3.33,2.69 -9.03,7.6 -16.27,17.55 -16.27,30.61z"/>
  </g>
  <g id="Ribas-do-Rio-Pardo">
   <path class="fil1" d="M4881.51 4033.95c0,-33.78 41.45,-58.91 73.09,-30.23 10.82,9.81 16.64,31.52 8.63,47.66 -2.32,4.68 -5.15,8.98 -8.63,12.81 -1.14,1.25 -4.4,3.68 -5.98,4.73 -2.47,1.66 -4.19,2.58 -6.83,3.89 -17.96,8.93 -41.52,1.67 -52.39,-14.6 -4.42,-6.61 -7.89,-15.45 -7.89,-24.26zm42.19 127.24c5.92,0 6.19,-1.14 10.5,-3.56l36.19 -24.09 13.88 -12.91c7.21,-6.02 21.82,-25.72 26.28,-33.99 18.19,-33.8 19.16,-71.98 -0.58,-104.79 -10.97,-18.23 -27.46,-31.65 -46.75,-40.31l-15.24 -4.86c-29.79,-6.35 -59.12,-1.25 -83.31,16.82 -2.82,2.1 -4.65,3.85 -7.37,6.02 -2.51,2.01 -4.71,4.32 -6.6,6.8 -4.27,5.6 -6.32,6.16 -11.67,15.11 -3.48,5.82 -6.32,11.18 -8.66,18.12 -1.31,3.9 -2.2,5.75 -3.24,10.15 -0.82,3.49 -1.38,7.22 -1.99,11.41 -0.94,6.44 -1.31,17.55 -0.28,24.63 2.52,17.35 6.45,27.65 13.12,40.46 0.89,1.71 1.47,2.41 2.46,4.24 0.98,1.82 1.33,2.56 2.52,4.18 12.02,16.38 11.03,15.13 24.67,28.9 12.89,13.02 30.46,25.25 46.48,33.88 3.08,1.65 5.16,3.8 9.6,3.8z"/>
   <path class="fil1" d="M4809.85 4162.53c0,33.23 46.87,49.84 74.52,54.06 34.37,5.24 80.97,4.79 113.2,-8.98 13.93,-5.96 29.07,-14.71 36.61,-27.68 6.25,-10.76 6.21,-24.52 -0.25,-35.2 -3.11,-5.15 -6.75,-8.46 -10.93,-12.51 -10.33,-9.99 -26.3,-5.98 -26.3,10.23 0,10.72 14.5,13.31 13.01,21.06 -1.15,6 -13.77,12.99 -19.26,15.55 -33.65,15.68 -98.5,15.69 -132.16,0 -5.6,-2.61 -18.08,-9.38 -19.26,-15.55 -1.58,-8.25 13.01,-9.07 13.01,-22.4 0,-4.08 -0.86,-6.2 -2.86,-8.53 -5.99,-6.95 -14.44,-7.52 -19.73,-3.35 -1.14,0.9 -2.2,1.74 -3.33,2.69 -9.03,7.6 -16.27,17.55 -16.27,30.61z"/>
  </g>
  <g id="Jaraquari">
   <path class="fil1" d="M4189.47 3678.29c0,-33.78 41.45,-58.91 73.09,-30.23 10.82,9.81 16.64,31.52 8.63,47.66 -2.32,4.68 -5.15,8.98 -8.63,12.81 -1.14,1.25 -4.4,3.68 -5.98,4.73 -2.47,1.66 -4.19,2.58 -6.83,3.89 -17.96,8.93 -41.52,1.67 -52.39,-14.6 -4.42,-6.61 -7.89,-15.45 -7.89,-24.26zm42.19 127.24c5.92,0 6.19,-1.14 10.5,-3.56l36.19 -24.09 13.88 -12.91c7.21,-6.02 21.82,-25.72 26.28,-33.99 18.19,-33.8 19.16,-71.98 -0.58,-104.79 -10.97,-18.23 -27.46,-31.65 -46.75,-40.31l-15.24 -4.86c-29.79,-6.35 -59.12,-1.25 -83.31,16.82 -2.82,2.1 -4.65,3.85 -7.37,6.02 -2.51,2.01 -4.71,4.32 -6.6,6.8 -4.27,5.6 -6.32,6.16 -11.67,15.11 -3.48,5.82 -6.32,11.18 -8.66,18.12 -1.31,3.9 -2.2,5.75 -3.24,10.15 -0.82,3.49 -1.38,7.22 -1.99,11.41 -0.94,6.44 -1.31,17.55 -0.28,24.63 2.52,17.35 6.45,27.65 13.12,40.46 0.89,1.71 1.47,2.41 2.46,4.24 0.98,1.82 1.33,2.56 2.52,4.18 12.02,16.38 11.03,15.13 24.67,28.9 12.89,13.02 30.46,25.25 46.48,33.88 3.08,1.65 5.16,3.8 9.6,3.8z"/>
   <path class="fil1" d="M4117.81 3806.87c0,33.23 46.87,49.84 74.52,54.06 34.37,5.24 80.97,4.79 113.2,-8.98 13.93,-5.96 29.07,-14.71 36.61,-27.68 6.25,-10.76 6.21,-24.52 -0.25,-35.2 -3.11,-5.15 -6.75,-8.46 -10.93,-12.51 -10.33,-9.99 -26.3,-5.98 -26.3,10.23 0,10.72 14.5,13.31 13.01,21.06 -1.15,6 -13.77,12.99 -19.26,15.55 -33.65,15.68 -98.5,15.69 -132.16,0 -5.6,-2.61 -18.08,-9.38 -19.26,-15.55 -1.58,-8.25 13.01,-9.07 13.01,-22.4 0,-4.08 -0.86,-6.2 -2.86,-8.53 -5.99,-6.95 -14.44,-7.52 -19.73,-3.35 -1.14,0.9 -2.2,1.74 -3.33,2.69 -9.03,7.6 -16.27,17.55 -16.27,30.61z"/>
  </g>
  <g id="Bandeirantes">
   <path class="fil1" d="M4233.68 3077.9c0,-33.78 41.45,-58.91 73.09,-30.23 10.82,9.81 16.64,31.52 8.63,47.66 -2.32,4.68 -5.15,8.98 -8.63,12.81 -1.14,1.25 -4.4,3.68 -5.98,4.73 -2.47,1.66 -4.19,2.58 -6.83,3.89 -17.96,8.93 -41.52,1.67 -52.39,-14.6 -4.42,-6.61 -7.89,-15.45 -7.89,-24.26zm42.19 127.24c5.92,0 6.19,-1.14 10.5,-3.56l36.19 -24.09 13.88 -12.91c7.21,-6.02 21.82,-25.72 26.28,-33.99 18.19,-33.8 19.16,-71.98 -0.58,-104.79 -10.97,-18.23 -27.46,-31.65 -46.75,-40.31l-15.24 -4.86c-29.79,-6.35 -59.12,-1.25 -83.31,16.82 -2.82,2.1 -4.65,3.85 -7.37,6.02 -2.51,2.01 -4.71,4.32 -6.6,6.8 -4.27,5.6 -6.32,6.16 -11.67,15.11 -3.48,5.82 -6.32,11.18 -8.66,18.12 -1.31,3.9 -2.2,5.75 -3.24,10.15 -0.82,3.49 -1.38,7.22 -1.99,11.41 -0.94,6.44 -1.31,17.55 -0.28,24.63 2.52,17.35 6.45,27.65 13.12,40.46 0.89,1.71 1.47,2.41 2.46,4.24 0.98,1.82 1.33,2.56 2.52,4.18 12.02,16.38 11.03,15.13 24.67,28.9 12.89,13.02 30.46,25.25 46.48,33.88 3.08,1.65 5.16,3.8 9.6,3.8z"/>
   <path class="fil1" d="M4162.02 3206.48c0,33.23 46.87,49.84 74.52,54.06 34.37,5.24 80.97,4.79 113.2,-8.98 13.93,-5.96 29.07,-14.71 36.61,-27.68 6.25,-10.76 6.21,-24.52 -0.25,-35.2 -3.11,-5.15 -6.75,-8.46 -10.93,-12.51 -10.33,-9.99 -26.3,-5.98 -26.3,10.23 0,10.72 14.5,13.31 13.01,21.06 -1.15,6 -13.77,12.99 -19.26,15.55 -33.65,15.68 -98.5,15.69 -132.16,0 -5.6,-2.61 -18.08,-9.38 -19.26,-15.55 -1.58,-8.25 13.01,-9.07 13.01,-22.4 0,-4.08 -0.86,-6.2 -2.86,-8.53 -5.99,-6.95 -14.44,-7.52 -19.73,-3.35 -1.14,0.9 -2.2,1.74 -3.33,2.69 -9.03,7.6 -16.27,17.55 -16.27,30.61z"/>
  </g>
 </g>
</svg>
