<?xml version="1.0" encoding="UTF-8"?>
<!DOCTYPE svg PUBLIC "-//W3C//DTD SVG 1.1//EN" "http://www.w3.org/Graphics/SVG/1.1/DTD/svg11.dtd">
<!-- Creator: CorelDRAW 2018 (64-Bit Evaluation Version) -->
<?xml-stylesheet href="map-svg.css" type="text/css"?>
<svg xmlns="http://www.w3.org/2000/svg" xml:space="preserve" width="508mm" height="285.75mm" version="1.1" style="shape-rendering:geometricPrecision; text-rendering:geometricPrecision; image-rendering:optimizeQuality; fill-rule:evenodd; clip-rule:evenodd"
viewBox="0 0 50799.98 28575"
 xmlns:xlink="http://www.w3.org/1999/xlink"
 sodipodi:version="0.32"
 inkscape:version="1.1 (c68e22c387, 2021-05-23)"
 sodipodi:docname="Brazil_Mato_Grosso_do_Sul_location_map.svg"
 inkscape:output_extension="org.inkscape.output.svg.inkscape"
 xmlns:inkscape="http://www.inkscape.org/namespaces/inkscape"
 xmlns:sodipodi="http://sodipodi.sourceforge.net/DTD/sodipodi-0.dtd"
 xmlns:svg="http://www.w3.org/2000/svg"
 xmlns:rdf="http://www.w3.org/1999/02/22-rdf-syntax-ns#"
 xmlns:cc="http://creativecommons.org/ns#"
 xmlns:dc="http://purl.org/dc/elements/1.1/"
 xmlns:x="&ns_extend;"
 xmlns:i="&ns_ai;"
 xmlns:graph="&ns_graphs;"
 xmlns:a="http://ns.adobe.com/AdobeSVGViewerExtensions/3.0/"
 enable-background="new 0 0 415.729 418.17">
 <g id="Mato-Grosso-do-Sul">
  <metadata id="CorelCorpID_0Corel-Layer"/>
  <sodipodi:namedview inkscape:window-height="1377" inkscape:window-width="2560" inkscape:pageshadow="2" inkscape:pageopacity="0.0" guidetolerance="10.0" gridtolerance="10.0" objecttolerance="10.0" borderopacity="1.0" bordercolor="#666666" pagecolor="#ffffff" id="base" showgrid="false" inkscape:zoom="0.8" inkscape:cx="341.875" inkscape:cy="343.125" inkscape:window-x="-8" inkscape:window-y="-8" inkscape:current-layer="svg2" inkscape:window-maximized="1" inkscape:pagecheckerboard="0" inkscape:document-units="mm" height="207.6mm"/>
  <path id="MS" class="fil0 str0" d="M20949.84 13224.48l-13.95 17.38 -25.39 57.3c-1.23,2.8 -2.69,5 -4.78,7.24l-29.58 31.69 -69.4 154.85c-0.9,1.99 -1.87,3.61 -3.21,5.33l-14.87 19.15c-1.9,2.44 -3.9,4.27 -6.51,5.94l-29.22 18.76 -63.97 44.65 -31.88 45.58 -75.48 146.21 -14.3 39.68c-1.33,3.72 -3.18,6.65 -5.95,9.46l-56.3 57.21c-0.83,0.85 -1.59,1.53 -2.53,2.26l-109.13 85.31c-0.1,0.08 -0.2,0.17 -0.31,0.25l-22.23 17.88 -20.43 21.8 -21.16 36.86 -78.37 211.62 -13.02 75.05 25.91 52.71c3.81,7.78 3.68,16.15 -0.41,23.8l-8.8 16.47 0 12.51c0,1.56 -0.12,2.89 -0.38,4.43l-14.24 82.67 5.52 80.53 13.55 57.9 24.88 44.49c2.72,4.87 3.74,9.79 3.18,15.35l-11.88 117.42c-0.35,3.32 -1.16,6.11 -2.65,9.1l-20.77 41.27c-2.02,4.02 -4.61,7.02 -8.29,9.61l-94.84 66.73c-4.38,3.08 -8.94,4.59 -14.31,4.74l-109.36 2.96 -20.05 17.14 -65.19 94.18 -44.62 89.64 -8.32 65.46c-0.33,2.55 -0.91,4.68 -1.92,7.03l-35.65 82.67c-2.54,5.9 -6.57,10.16 -12.31,13.02l-37.22 18.55 -13.85 24.74c-1.82,3.24 -3.94,5.69 -6.87,7.95l-20.77 15.94c-3.05,2.35 -6.09,3.8 -9.84,4.68l-53.4 12.73c-2.65,0.63 -4.99,0.82 -7.7,0.66l-42.37 -2.7 -9.33 5.54 -3.39 20.1 5.7 92.29c0.14,2.25 0.02,4.17 -0.39,6.38l-7.32 39.26 34.79 71.63c0.86,1.77 1.43,3.36 1.89,5.28l22.15 91.83 10.1 10.8c6.25,6.71 8.47,15.42 6.19,24.3l-23.11 89.94 -8.8 105.81c-0.2,2.38 -0.63,4.39 -1.44,6.63l-14.77 41.27c-1.36,3.79 -3.24,6.77 -6.07,9.62l-90.99 91.41 -26.65 68.54 -8.55 54.43c-0.15,0.94 -0.31,1.75 -0.56,2.68l-17.77 66.62c-1.37,5.13 -3.86,9.17 -7.81,12.71l-49.52 44.3 -30.41 62.06c-0.74,1.52 -1.5,2.75 -2.51,4.11l-11.89 15.94c-2.29,3.09 -4.84,5.31 -8.21,7.2l-74.08 41.27c-5.94,3.31 -12.18,4.16 -18.8,2.58l-140.49 -33.84 -10.47 1.42 -20.84 20.07 -35.85 62.07 -19.63 47.2 6.04 21.61c0.36,1.06 0.64,2.13 0.86,3.25l69.5 65.79c3.89,3.68 6.26,7.83 7.48,13.03l14.04 60.38 31.18 60.66c1.98,3.86 2.87,7.58 2.87,11.92l0 54c0,3.85 -0.7,7.15 -2.27,10.66l-68.19 152.39c-1.23,2.76 -2.67,4.94 -4.75,7.15l-39.47 42.3 -22.27 38.68c-3.41,5.93 -8.34,9.87 -14.87,11.9l-86.51 26.9 -42.17 37.2 -51.94 111.4 -2.66 36.49c-0.14,1.94 -0.43,3.57 -0.98,5.44l-14.88 50.8c-1.27,4.35 -3.3,7.8 -6.49,11.02l-102.24 103.3 -37.32 52.3c-2.68,3.77 -5.82,6.4 -10,8.4l-20.88 9.96 -8.03 10.71c-3.39,4.5 -7.52,7.45 -12.89,9.17l-22.29 7.16 -75.6 92.56 -21.59 55.02 -64.88 252.54c-0.71,2.75 -1.69,5.01 -3.2,7.42l-80.06 127.05c-1.9,3 -4.02,5.26 -6.92,7.32l-33.33 23.77 -10.21 11.03 -25.03 53.41c-1.32,2.79 -2.83,4.99 -4.99,7.2l-121.5 123.94c-0.83,0.84 -1.58,1.51 -2.49,2.24l-51.2 40.28 -15.16 35.19c-1.63,3.8 -3.78,6.74 -6.93,9.45l-14.77 12.72c-0.83,0.72 -1.58,1.29 -2.5,1.9l-23.76 15.94c-3.07,2.05 -6.05,3.28 -9.68,3.96l-46.25 8.73 -64.49 36c-1.01,0.57 -1.91,1 -3,1.44l-66.48 26.67 -52.65 50.5c-2.25,2.15 -4.48,3.66 -7.31,4.94l-53.08 24 -77.34 64.46c-2.82,2.35 -5.65,3.87 -9.18,4.94l-89.63 26.98 -67.03 56.81c-2.15,1.82 -4.24,3.1 -6.84,4.18l-50.35 20.97 -126.24 95.37 -99.64 100.57 -33.7 66.21c-2,3.92 -4.55,6.87 -8.14,9.43l-8.88 6.31c-1.37,0.97 -2.59,1.69 -4.1,2.39l-68.18 31.75c-0.67,0.31 -1.25,0.55 -1.94,0.81l-153 56.76 -115.65 53.15 -34.42 68.01c-2.88,5.69 -7.14,9.68 -13,12.2l-99.36 42.58 -59.2 57.68 -59.83 102.07 0 35.49 7.02 17.58c3.35,8.36 2.36,17.1 -2.76,24.51l-59.86 86.54 -130.48 174.63c-1.13,1.51 -2.23,2.71 -3.64,3.95l-50.42 44.49c-4.04,3.57 -8.44,5.58 -13.78,6.3l-91.52 12.27 -212.23 87.15 -65.54 33.62 -12.12 8.68 -35.82 56.08c-3.64,5.7 -8.68,9.39 -15.22,11.14l-54.33 14.61 -14.93 11.38 -48.92 52.4c-2.19,2.36 -4.43,4.03 -7.3,5.48l-48.73 24.61 -84.42 59.23c-1.52,1.07 -2.9,1.85 -4.6,2.59l-121.77 52.78 -23.62 17.72 -23.57 35.28 -2.24 22.19c-0.51,5.04 -2.18,9.24 -5.27,13.25l-26.76 34.87c-2.51,3.28 -5.31,5.59 -9.01,7.44l-41.1 20.58 -37.09 34.38 -21.51 60.68c-0.69,1.95 -1.48,3.56 -2.59,5.31l-36.75 57.63c0.59,1.32 1.07,2.71 1.44,4.15 0.53,1.93 0.83,3.87 0.92,5.81l2.66 23.39c0.17,1.45 0.21,2.7 0.14,4.16l-14.77 320.71c-0.24,5.27 -1.8,9.73 -4.88,14.01l-53.6 74.62 2.08 22.03c0.54,5.58 -0.53,10.52 -3.31,15.39l-63.96 111.98 -70.25 216.67c-0.16,0.52 -0.32,0.96 -0.52,1.47l-38.53 98.39c-0.69,1.76 -1.44,3.21 -2.49,4.8l-77.37 117.83 -23.66 34.97c-3.2,4.73 -7.27,7.91 -12.63,9.88l-110 40.28 -145.83 93.72c-0.68,0.43 -1.27,0.79 -1.99,1.16l-139.37 73.04c-4.28,2.24 -8.46,3.17 -13.28,2.95l-66.9 -3.01 -2.34 0.63 -23 19.75 -7.86 10.46 -50.83 139.3 -8.67 91.94c-0.21,2.23 -0.62,4.11 -1.36,6.22l-40.39 114.56 -11.56 117.33 -5.89 63.53c-0.43,4.62 -1.82,8.49 -4.44,12.32l-30.18 44.1 -13.01 47.22 -5.73 105.08c-0.21,3.79 -1.07,6.99 -2.78,10.38l-54.41 107.37 -17.16 112.84 -5.24 48.09 4.29 13.87c1.62,5.25 1.62,10.18 0,15.42l-10 32.31 7.97 51.26c0,0 0,0.01 0,0.01l11.78 66.16c0.76,4.26 0.54,8.06 -0.73,12.19l-50.41 165.12c-0.75,2.44 -1.68,4.44 -3.06,6.58l-26.76 41.28c-0.45,0.7 -0.86,1.27 -1.39,1.93l-47.41 60.31c-2.48,3.16 -5.2,5.38 -8.79,7.18l-92.43 46.48 -181.61 144.36 -11.88 9.51c-2.57,2.06 -5.08,3.42 -8.22,4.44l-63.85 20.83 -29.06 22.56c-11.21,8.7 -27.39,6.82 -36.3,-4.23l-56.31 -69.84c-2.46,-3.06 -4,-6.13 -4.98,-9.95l-7.88 -31.05 -15.64 -25.11c-3,-4.83 -4.25,-9.8 -3.87,-15.47l1.51 -23.51 -18.94 -5.43 -42 5.68c-8.64,1.18 -16.61,-1.66 -22.57,-8.04l-28.67 -30.73 -18.36 -7.35c-5.03,-2.01 -8.83,-5.07 -11.88,-9.56l-43.03 -63.37 -31.31 -12.95c-7.33,-3.03 -12.43,-8.56 -14.86,-16.11l-29.32 -91.05c-0.3,-0.83 -0.57,-1.68 -0.78,-2.57 -0.11,-0.41 -0.21,-0.81 -0.29,-1.21l-7.39 -31.62 -10.42 -13.05 -24.24 -11.84 -79.54 -15.17c-6.53,-1.25 -11.74,-4.45 -15.79,-9.73l-17.77 -23.11c-5.71,4.01 -12.96,5.62 -20.28,4.09l-6.84 -1.42 -7.24 3.08c-11.21,4.8 -23.84,1.4 -31.14,-8.36l-15.94 -21.3 -13.57 0c-4.49,0 -8.35,-0.97 -12.31,-3.09l-15.18 -8.14 -46.82 10.59c-13.32,3 -26.64,-4.7 -30.67,-17.74l-5.89 -19.03c-1.89,-6.11 -1.6,-11.97 0.89,-17.86l6.32 -14.97 -20.38 -13.4c-2.22,-1.46 -4.13,-3.13 -5.71,-5.02l-4.39 8.18c-4.67,8.69 -13.13,13.75 -22.99,13.75l-23.76 0c-11.29,0 -20.9,-6.82 -24.63,-17.47l-11.65 -33.33c-5.37,-0.13 -10.02,-1.71 -14.44,-4.86l-7.96 -5.7 -26.84 6.69c-12.25,3.06 -24.64,-2.86 -29.97,-14.3l-12.28 -26.38 -16.92 -3.6c-0.48,-0.11 -0.97,-0.22 -1.44,-0.34l-21.21 29.72c-0.91,1.46 -1.97,2.83 -3.18,4.12 -1.11,1.22 -2.31,2.31 -3.58,3.27l-19.12 16.36 0 32.47c0,6.06 -1.8,11.28 -5.54,16.06l-14.87 19.04c-4.38,5.6 -10.13,8.88 -17.19,9.8l-97.83 12.72c-10.97,1.43 -21.16,-3.82 -26.37,-13.57l-2.43 -4.55c-5.35,8.49 -14.87,13.08 -25.11,11.85l-11.66 -1.4 -2.86 3.82c-6.14,8.25 -15.85,11.99 -25.94,10.01l-15.53 -3.05 -5.13 7.72c-2.09,3.15 -4.45,5.46 -7.63,7.52l-23.27 14.94 -5.7 12.27c-5.43,11.7 -18.32,17.62 -30.75,14.11l-41.06 -11.6 -13.76 14.77 1.84 20.16c0.79,8.64 -2.34,16.43 -8.91,22.1 -6.57,5.68 -14.74,7.67 -23.17,5.63l-19.91 -4.8 -25.99 7.58c-10.15,2.96 -20.47,-0.17 -27.28,-8.27l-4.68 -5.59c-2.32,12.48 -12.97,21.33 -25.66,21.32l-21.13 -0.01 -5.2 12.48c-3.04,7.32 -8.57,12.4 -16.11,14.81l-6.84 2.2c3,4.49 4.39,9.6 4.17,15.26 -0.27,7.22 -3.11,13.32 -8.43,18.21l-9.52 8.73 8.42 36.05c1.76,7.55 0.34,14.73 -4.15,21.05 -4.5,6.33 -10.83,10.02 -18.55,10.82l-13.61 1.42 -0.31 0.84c-3.99,10.64 -13.89,17.26 -25.25,16.91 -9.02,-0.29 -16.84,-4.92 -21.34,-12.25l-39.35 5.59c-8.09,1.14 -15.53,-1.2 -21.5,-6.79l-9.41 -8.8 -9.79 5.85c-8.1,4.84 -17.42,5.05 -25.73,0.59l-14.13 -7.6 -39.76 33.2c-3.52,2.94 -7.18,4.68 -11.69,5.56l-25.04 4.93 -27.09 26.36c-6.49,6.31 -15.43,8.63 -23.72,6.82l-9.09 12.2c-7.28,9.77 -19.91,13.2 -31.14,8.42l-29.64 -12.61c-2.97,-1.26 -5.61,-2.99 -7.82,-5.06 -0.38,-0.1 -0.76,-0.2 -1.15,-0.32l-32.64 -9.51c-6.93,-2.02 -12.15,-6.23 -15.61,-12.56l-13.45 -24.66c-1.39,-0.77 -2.72,-1.69 -3.98,-2.74l-9.04 13.55c-3.3,4.96 -7.57,8.26 -13.2,10.2l-8.99 3.1c-1.19,0.4 -2.39,0.73 -3.61,0.97 -2.98,5.3 -7.23,9 -12.94,11.3l-47.42 19.03c-8.85,3.55 -18.37,2.16 -25.64,-3.52 -0.79,0.36 -1.62,0.67 -2.47,0.96l-47.42 15.83c-13.29,4.43 -27.71,-2.42 -32.66,-15.52l-0.12 -0.32 -0.43 -0.03c-0.81,3.83 -2.4,7.17 -4.92,10.39l-14.87 19.04c-5.11,6.54 -12.25,10.02 -20.55,10.02l-94.85 0c-4.5,0 -8.35,-0.97 -12.32,-3.1l-39.67 -21.25c-2.47,-1.09 -4.76,-2.56 -6.81,-4.38 -2.25,-1.93 -4.1,-4.2 -5.52,-6.72 -6.67,-1.22 -12.26,-4.85 -16.3,-10.59l-2.72 -3.87 -7.24 -1.3c-7.52,-1.35 -13.47,-5.38 -17.51,-11.85l-8.85 -14.17 -45.35 -29.71 -8.19 -2.39 -37.65 72.97c-3.14,6.08 -7.89,10.25 -14.33,12.57l-17.77 6.41c-6.6,2.39 -13.12,2.14 -19.52,-0.74l-35.55 -15.94c-4.67,-2.09 -8.16,-5.04 -11.01,-9.3l-8.99 -13.43 -19.28 -4.1c-9.88,-2.1 -17.26,-9.16 -19.79,-18.88l-12.77 6.85c-7.25,3.87 -15.1,4.21 -22.65,0.95l-14.87 -6.41c-7.6,-3.27 -12.77,-9.28 -14.89,-17.28l-0.75 -2.84 -0.69 0c-8.96,0 -16.65,-4.11 -21.65,-11.54l-14.87 -22.14c-4.06,-6.05 -5.37,-12.74 -3.88,-19.88l3.47 -16.62 -16 -3.46c-7.31,-1.58 -13.01,-5.67 -16.86,-12.08 -3.84,-6.42 -4.76,-13.37 -2.71,-20.57l6.34 -22.22 -24.52 -15c-11.09,-6.79 -15.48,-20.43 -10.42,-32.4l13.25 -31.34 7.91 -79.3 -6.97 -19.88c-0.93,-2.64 -1.37,-5.03 -1.46,-7.84l-2.83 -93.12 -3.43 -7.35 -8.44 -5.43c-11.69,-7.54 -15.43,-22.87 -8.5,-34.92l42.86 -74.62 -6.25 -40.23 -21.18 -22.68c-8.5,-9.1 -9.45,-22.54 -2.32,-32.75l1.55 -2.23 -8.07 -25.85c-1.41,-4.52 -1.59,-8.73 -0.57,-13.37l8.41 -38.25c-6.02,0.23 -11.56,-1.56 -16.52,-5.35l-20.76 -15.83c-3.92,-2.99 -6.58,-6.48 -8.41,-11.06l-8.88 -22.24c-1.82,-4.54 -2.31,-8.85 -1.56,-13.68l7.16 -46.05 -3.25 -4.15 -10.62 -3.78c-10.95,-3.89 -17.81,-14.03 -17.34,-25.64l2.6 -63.16 -2.2 -2.7c-10.59,2.98 -21.88,-0.95 -28.35,-10.21l-4.32 -6.18 -33.98 -13.07c-7,-2.7 -12.2,-7.84 -14.82,-14.45l-23.46 8.35c-9.25,3.31 -18.86,1.41 -26.17,-5.14l-17.77 -15.94c-8.69,-7.79 -11.17,-19.87 -6.23,-30.46l5.97 -12.78 -5.33 -66.15c-0.57,-7.11 1.44,-13.42 6.02,-18.88l17.5 -20.84 -4.66 -14.94c-2.5,-8.07 -1.17,-16.24 3.63,-22.87l-12.17 -17.92c-3.07,-4.51 -4.51,-9.2 -4.51,-14.66l0 -34.92 -11.85 -22.91c-2.08,-4.03 -3.07,-8.13 -2.96,-12.39 -7.18,-4.67 -11.32,-11.83 -11.79,-20.39l-2.75 -49.39 -10.4 -24.16 -3.98 -0.72c-10.84,-1.95 -18.95,-9.99 -21,-20.82l-2.69 -14.15c-0.32,-1.31 -0.54,-2.66 -0.66,-4.06 -0.14,-1.41 -0.18,-2.8 -0.1,-4.17l0 -17.33c0,-7.6 2.88,-14.13 8.48,-19.25 5.61,-5.13 12.37,-7.41 19.94,-6.73l12.2 1.1 5.65 -28.99 -5.3 -11.34c-3.89,-8.34 -3.29,-17.36 1.68,-25.11l69.34 -108.25 25.13 -78.14 -7.09 -12.68 -10.71 -3.26c-10.41,-3.16 -17.48,-11.88 -18.4,-22.73l-2.44 -28.38 -29.43 -44.72 -46.82 -35.35c-9.09,-6.87 -12.63,-18.24 -9.04,-29.05l12.41 -37.36 -12.99 -53.02c-1.73,-7.05 -0.67,-13.75 3.16,-19.93l5.88 -9.52c2.31,-3.72 5.07,-6.45 8.85,-8.69l50.21 -29.86 1.2 -1.29 -1.15 -0.21c-9.1,-1.63 -16.15,-7.37 -19.59,-15.95l-8.88 -22.15c-2.79,-6.92 -2.6,-13.92 0.55,-20.7l3.94 -8.49 -16.06 -36.81c-3.24,-7.42 -3,-15.12 0.68,-22.32 3.69,-7.2 9.79,-11.9 17.7,-13.61l18.86 -4.09 10.18 -16.37 3.1 -9.84 -38.56 -36.48c-5.67,-5.37 -8.46,-12.22 -8.14,-20.03l1.98 -47.42 -10.53 -2.03c-4.64,-0.91 -8.43,-2.73 -12.02,-5.82l-24.26 -20.84 -2.82 -0.5 -49.02 22.12c-8.74,3.94 -18.22,2.99 -26,-2.63 -7.79,-5.62 -11.67,-14.31 -10.67,-23.86l5.47 -52.26 -7.55 -26.97c-2.2,-7.85 -0.57,-15.89 3.81,-22.1l-5.81 -21.75 -39.24 -60.02c-7.22,-11.04 -5.15,-25.52 4.88,-34.1l5.02 -4.3 -1.93 -32.84 -3.85 -8.18c-3.73,-7.91 -3.4,-16.38 0.92,-23.98l3.37 -5.96 -0.81 -2.58 -16.12 -17.34 -36.82 -16.88c-11.69,-5.36 -17.68,-18.15 -14.3,-30.57l18.75 -68.86 -3.69 -11.73c-3.24,-10.32 -0.11,-20.98 8.21,-27.89l9.82 -8.17 -27.59 -47.67c-3.45,-5.94 -4.41,-12.3 -2.88,-18.82 -7.47,-0.46 -13.9,-3.84 -18.64,-9.81 -5.11,-6.44 -6.84,-14.11 -4.97,-22.12l3.55 -15.28 -9.6 -16.52c-4.82,-8.32 -4.82,-17.87 0,-26.2l9.29 -15.99 -11.88 -43.37c-1.5,-5.48 -1.29,-10.6 0.69,-15.93l3.4 -9.21 -2.81 -15.15 -16.2 -12.97c-6.9,-5.54 -10.34,-13.42 -9.7,-22.25l2.59 -35.75 -12.99 -36.08c-2.81,-7.78 -1.96,-15.66 2.43,-22.67l13.9 -22.21 0 -40.2c0,-5.07 1.23,-9.42 3.9,-13.73l6.31 -10.21 -3.78 -18.38c-1.77,-8.55 0.51,-16.69 6.47,-23.07l5.64 -6.04 -3.22 -15.29c-1.98,-9.47 1.06,-18.58 8.33,-24.96l27.4 -24.07 9.64 -28.26c2.22,-6.5 6.33,-11.34 12.38,-14.59l10.04 -5.37c-0.92,-6.75 0.89,-13.71 5.38,-19.46l9.34 -11.96 0 -16.47c0,-7.86 3.11,-14.63 9.06,-19.76l1.04 -0.9c-1.18,-3.66 -1.5,-7.17 -1.02,-11.08l5.6 -45.29 -2.85 -45.16c-0.32,-5.02 0.7,-9.74 2.89,-13.88l6.74 -16.19 -10.52 -24.9c-1.79,-4.23 -2.39,-8.25 -1.91,-12.82l4.33 -42.15 -5.46 -3.9c-5.81,-4.16 -9.33,-9.79 -10.53,-16.84l-10.41 -61.19 -39.47 -37.02 -45.64 -30.57c-2.55,-1.71 -4.5,-3.55 -6.34,-6.01l-8.12 -10.81 -26.99 -13.18c-3.01,-1.47 -5.35,-3.19 -7.62,-5.64l-29.65 -31.76c-3.87,-4.14 -6.06,-8.75 -6.79,-14.37l-4.05 -30.49 -52.59 -25.62c-5.74,-2.79 -9.8,-6.99 -12.4,-12.81l-65.29 -146.09c-1.57,-3.51 -2.27,-6.79 -2.27,-10.64l0 -37.41 -7.71 -24.77c-1.71,-5.49 -1.64,-10.69 0.22,-16.14l11.88 -34.98c2.21,-6.51 6.33,-11.37 12.41,-14.61l7.34 -3.93c-0.61,-3.2 -0.57,-6.51 0.12,-9.95l8.18 -40.8 -4.86 -60.35 -11.67 -12.49c-7.15,-7.66 -9.04,-18.16 -5.02,-27.82l5.37 -12.92 -30.74 -9.72 -14.9 6c-5.75,2.31 -11.39,2.55 -17.32,0.76l-9.25 -2.81 -4.73 3.03c-7.09,4.53 -15.13,5.41 -23.03,2.52 -7.9,-2.89 -13.47,-8.75 -15.96,-16.78l-3.67 -11.86 -23.93 -20.55c-10.07,-8.65 -12.07,-23.27 -4.7,-34.29l7.64 -11.41 -1.73 -4.92 -49.26 -33.34c-4.27,-2.89 -7.22,-6.44 -9.28,-11.16l-20.76 -47.59c-0.91,-2.07 -1.46,-3.94 -1.83,-6.16l-13.39 -80.64 -23.57 -23.29 -94.24 11.23c-4.86,0.58 -9.15,-0.06 -13.62,-2.03l-32.27 -14.24c-5.7,3.51 -12.65,4.68 -19.61,3.03l-18.5 -4.37 -19.92 8.18 -5.02 14.38c-2.88,8.25 -9.03,14.05 -17.42,16.47 -8.4,2.42 -16.7,0.75 -23.51,-4.7l-3.73 -2.99 -25.13 2.19c-7.43,0.65 -14.05,-1.56 -19.63,-6.51l-24.66 -21.98 -16.31 5.01 -6.99 14.95c-3.6,7.69 -10.01,12.77 -18.32,14.49l-14.87 3.1c-12.5,2.6 -24.81,-3.99 -29.54,-15.86l-3.24 -8.07 -56.06 -7.5c-2.59,-0.35 -4.77,-0.97 -7.15,-2.03l-28.17 -12.55 -12.11 14.79c-6.92,8.46 -17.74,11.64 -28.15,8.3l-16.31 -5.23 -0.95 0.76c-6.08,4.88 -13.51,6.73 -20.78,5.39 -6.61,1.13 -13.63,-0.31 -19.51,-4.49l-47.34 -33.73c-1.76,1.64 -3.69,2.99 -5.77,4.05l-1.53 5.69c-1.94,7.2 -6.29,12.68 -12.87,16.21l-17.77 9.52c-6.96,3.71 -14.4,4.17 -21.75,1.32l-21.4 -8.3 -7.33 3.91c-4.12,2.19 -8.5,3.23 -12.84,3.15 -7.91,9.55 -21.33,12.26 -32.4,6.34l-23.76 -12.73c-2.66,-1.43 -4.98,-3.21 -6.92,-5.28 -3.86,1.67 -8.16,2.36 -12.65,1.96 -9.32,-0.81 -16.96,-6.01 -21.09,-14.32 -7.28,2.85 -15.25,2.27 -22.12,-1.67l-4.98 1.81c-13.23,4.77 -27.87,-1.81 -33.09,-14.86l-6.29 -15.73 -39.02 -30.65c-6.5,-5.1 -9.97,-12.24 -9.97,-20.51l0 -22.78 -4.02 -8.66 -39.83 6.4c-8.84,1.41 -17.1,-1.41 -23.2,-7.96l-2.16 -2.31c-5.78,3.84 -12.22,5.13 -19.12,3.84 -7.25,-1.36 -13,-5.2 -17.04,-11.37l-17.95 -27.47 -33.59 -23.17 -4.19 -1.12 -1.11 1.2c-5.76,6.22 -13.38,9.1 -21.82,8.23 -8.43,-0.87 -15.31,-5.24 -19.68,-12.51l-17.36 -28.86c-5.13,-0.79 -9.96,-3.18 -13.99,-7.05 -3.23,-3.09 -5.53,-6.75 -6.83,-10.71 -5.82,-2.4 -10.17,-6.44 -13.1,-12.14l-17.87 -34.86c-1.53,-2.99 -2.4,-5.9 -2.73,-9.06 -3.4,-2.16 -6.2,-5.05 -8.23,-8.5 -4.4,-0.24 -8.57,-1.63 -12.52,-4.19l-14.87 -9.62c-5.49,-3.55 -9.06,-8.35 -10.88,-14.62l-12.24 -42.08 -1.48 -1.06c-7.1,-5.04 -10.98,-12.54 -10.98,-21.26l0 -19.03c0,-5.37 1.4,-9.97 4.36,-14.44l6.68 -10.06 -6.83 -14.7 -15 -15.98c-5.17,-5.5 -7.61,-12.51 -7.09,-19.58l-3.64 -4.86c-3.44,-4.58 -5.22,-9.73 -5.3,-15.07l-19.57 -20.97c-6.14,-6.58 -8.39,-15.07 -6.31,-23.84l3 -12.61c0.45,-1.9 1.07,-3.7 1.86,-5.37l-9.32 -3.32 -10.29 1.08 -2.29 4.1c-3.94,7.07 -10.22,11.55 -18.19,12.98 -5.48,0.97 -10.71,0.32 -15.45,-1.9 -8.86,6.82 -21.45,7.37 -31,0.6l-5.49 -3.9 -7.07 3.24c-7.24,3.32 -14.81,3.28 -22.01,-0.12 -0.48,-0.23 -0.95,-0.47 -1.42,-0.72 -1.99,-0.06 -4,-0.35 -6.01,-0.89l-7.81 -2.11c-5.97,3.17 -12.52,3.91 -18.8,2.18 0.92,6.78 -0.78,13.23 -5,18.89 -4.78,6.4 -11.45,9.99 -19.42,10.44l-53.29 3.03 -2.03 0.61 -0.43 2.88c-1.27,8.43 -6.03,15.14 -13.56,19.13l-13.55 7.2 -6.04 23.77c-0.64,2.51 -1.59,4.84 -2.81,6.94 1.32,5.8 0.63,11.68 -1.82,16.83l7.99 14.28c4.65,8.3 4.56,17.72 -0.25,25.93 -4.82,8.21 -12.98,12.89 -22.5,12.9l-0.11 0 -2.33 5.83c-1.6,4.02 -4.07,7.44 -7.12,10.09 0.07,0.78 0.1,1.57 0.1,2.37l0 9.52c0,10.06 -5.28,18.68 -14.25,23.24l-38.69 19.7 5.02 25.1c1.51,7.54 -0.1,14.61 -4.72,20.77l-6.66 8.86 0 7.24c0,12.48 -8.52,22.97 -20.73,25.54l-2.67 0.55 -9.17 17.68c-5.51,10.6 -17.02,16.02 -28.69,13.48l-5.51 -1.19c-3.23,4.78 -8.05,8.36 -13.98,10.18l-10.68 3.26 -3.87 6.85c-4.66,8.27 -12.73,13.08 -22.23,13.27 -2.04,0.03 -4.02,-0.15 -5.93,-0.52l1.44 7.75c1.85,9.95 -1.84,19.45 -9.91,25.55l-50.32 38.07c-5.3,4.03 -11.56,5.8 -17.75,5.3l3.66 15.65c1.7,7.26 0.48,14.12 -3.64,20.34 -4.1,6.21 -9.94,10.03 -17.28,11.31l-17.77 3.1c-7.12,1.23 -13.69,-0.25 -19.57,-4.43l-17.78 -12.62c-4.16,-2.96 -7.16,-6.66 -8.98,-11.12l-8.57 0c-5.12,0 -9.5,-1.26 -13.84,-3.98l-35.54 -22.24c-5.82,-3.63 -9.6,-8.74 -11.36,-15.37l-5.66 -21.19c-1.73,1.98 -3.7,3.62 -5.98,4.99l0.38 2.88c1.56,11.54 -4.38,22.33 -14.98,27.19l-12.77 5.85 -19.62 36.64c-3.66,6.86 -9.48,11.32 -17.05,13.09 -7.56,1.78 -14.76,0.35 -21.09,-4.15l-35.55 -25.35c-7.43,-5.3 -11.37,-13.7 -10.95,-22.33 -2.87,2.08 -6.22,3.55 -9.95,4.35 -2.07,0.45 -4.1,0.65 -6.09,0.62 -1.11,1.35 -2.39,2.6 -3.81,3.73l-35.54 28.55c-8.31,6.69 -19.2,7.71 -28.62,2.68l-29.65 -15.83c-0.26,-0.14 -0.53,-0.29 -0.8,-0.45l0.57 7.15c0.42,5.38 -0.63,10.11 -3.27,14.82l-2.95 5.26 7.64 20.41c2.54,6.78 2.28,13.55 -0.77,20.12 -3.05,6.58 -8.05,11.14 -14.88,13.58l-34.3 12.28 -7.28 15.52c-2.67,5.69 -6.71,9.76 -12.38,12.47l-26.66 12.72c-2.2,1.05 -4.2,1.69 -6.61,2.13l-17.77 3.2c-9.78,1.77 -19.09,-1.79 -25.21,-9.64l-16.17 -20.77c-11.25,5.06 -24.45,1.63 -31.79,-8.5l-17.21 -23.77 -18.41 -9.77c-10.46,-5.56 -15.76,-16.95 -13.28,-28.52l7.45 -34.69 -4.87 -15.67 -4.29 2.12 0 18.75c0,12.43 -8.44,22.89 -20.59,25.51l-14.88 3.2c-10.97,2.36 -21.73,-2.21 -27.65,-11.74l-6 -9.66 -3.85 -0.81c-7.47,-1.56 -13.31,-5.77 -17.16,-12.35 -0.01,-0.01 -0.01,-0.03 -0.02,-0.04 -3.25,1.9 -6.77,2.99 -10.75,3.33l-35.65 3.1c-7.41,0.64 -14.04,-1.56 -19.6,-6.51l-17.77 -15.83c-3.32,-2.95 -5.54,-6.18 -7.09,-10.34l-4.83 -12.91c-5.58,7.82 -14.56,11.8 -24.27,10.64l-26.66 -3.21c-5.55,-0.67 -10.14,-2.74 -14.3,-6.48l-17.77 -15.94c-3.03,-2.72 -5.3,-5.88 -6.75,-9.38l-0.45 0.53c-7.68,9.05 -19.98,11.79 -30.77,6.84l-1.67 -0.76c-6.09,5.39 -14.29,7.56 -22.63,5.75l-18 -3.89 -20.12 15.09c-9.22,6.92 -21.35,7.08 -30.76,0.39l-3.41 -2.43 -7.83 5.61c-3.41,2.43 -6.82,3.84 -10.95,4.51l-27.67 4.54 -2.59 3.7c-5.03,7.2 -12.59,11.14 -21.38,11.14l-8.89 0c-5.57,0 -10.71,-1.65 -14.95,-4.59 -3.91,1.36 -8.17,1.76 -12.56,1.1l-20.76 -3.1c-5.47,-0.81 -9.94,-2.97 -13.98,-6.75l-23.76 -22.24c-6.49,-6.08 -9.33,-14.55 -8.01,-22.9 -0.02,0 -0.03,-0.01 -0.05,-0.01l-26.33 -8.62 -22.04 15.01c-10.15,6.91 -23.34,5.95 -32.37,-2.38l-0.58 -0.53c-3.36,2.23 -7.22,3.6 -11.53,4.07 -4.09,0.46 -7.96,0.03 -11.56,-1.25 -5.77,4.06 -13.07,5.63 -20.45,4.04l-5.51 -1.19 -9.32 5c-8.31,4.45 -17.62,4.23 -25.72,-0.62 -8.09,-4.84 -12.68,-12.95 -12.68,-22.38l0 -6.62 -7.84 -9.57c-0.1,0.43 -0.22,0.86 -0.35,1.29 -2.89,9.84 -10.87,16.78 -20.67,18.37l-2.29 13.56c-1.45,8.62 -6.53,15.39 -14.41,19.18l-59.3 28.55c-10.09,4.86 -21.59,2.96 -29.58,-4.88l-28.96 -28.42 -26.23 -2.29c-3.98,-0.34 -7.68,-1.53 -10.92,-3.42 -4.6,0.81 -9.43,0.35 -14.11,-1.49 -10.19,-3.99 -16.56,-13.33 -16.56,-24.28l0 -9.71 -0.81 -0.65c-4.6,1.69 -9.37,2.03 -14.08,0.99 -1.68,4.3 -4.54,8.05 -8.48,11.07 -5.77,4.4 -12.46,6.15 -19.4,5.13l0.55 1.17c3.09,6.62 3.35,13.44 0.76,20.28 -2.59,6.83 -7.3,11.77 -14,14.68l-14.78 6.42c-10.31,4.48 -21.78,2.1 -29.45,-6.12l-18.97 -20.32c-2.2,0.08 -4.37,-0.14 -6.49,-0.64 -3.75,0.84 -7.73,0.84 -11.74,-0.08 -4.34,-1 -8.18,-2.96 -11.33,-5.67 -3.48,-0.32 -6.94,-1.38 -10.2,-3.16 -1.18,1 -2.47,1.92 -3.86,2.75 -6.93,4.1 -14.57,4.82 -22.14,2.09l-8.89 -3.21c-2.91,-1.04 -5.48,-2.48 -7.72,-4.29l-8.68 3.73c-9.9,4.25 -20.78,2.23 -28.5,-5.3 -3.59,-3.5 -6.01,-7.72 -7.16,-12.24 -1.52,-0.93 -2.97,-2.05 -4.33,-3.32 -6.99,-6.55 -9.75,-15.64 -7.58,-24.97l4.78 -20.46 -1.07 -0.71c-5.82,2.76 -12.07,3.19 -18.45,1.28 -7.37,-2.22 -12.86,-6.98 -16.12,-13.95l-4.15 -8.87 -20.92 -7 -9.33 9.95c-7.96,8.49 -20.03,10.7 -30.49,5.59 -4.7,-2.3 -8.44,-5.77 -10.96,-9.94 -6.16,-0.34 -11.95,-2.9 -16.63,-7.52l-13.35 -13.12c-3.29,3.39 -7.56,5.89 -12.48,7.11 -10.34,2.57 -20.74,-1.2 -26.99,-9.39 -8.05,1.9 -16.79,-0.11 -23.37,-6.02l-1.65 -1.48 -3.58 2.75c-6.93,5.32 -15.25,6.82 -23.59,4.23l-20.76 -6.42c-7.81,-2.41 -13.63,-7.81 -16.52,-15.19l-10.5 2.84c-10.45,2.83 -20.99,-0.76 -27.55,-9.36l-17.59 -23.07c-1.75,1.19 -3.68,2.2 -5.79,3l-50.42 19.03c-5.74,2.17 -11.33,2.31 -17.18,0.42l-53.1 -17.04 -11.38 2.05c-10.36,1.88 -20.27,-2.29 -26.2,-11.01l-23.76 -34.97c-4.01,-5.91 -5.37,-12.43 -4.06,-19.45l5.02 -26.84c-2.6,-0.62 -5.13,-1.66 -7.56,-3.11 -4,-2.39 -7.16,-5.63 -9.33,-9.38 -5.53,-1.05 -10.71,-3.94 -14.71,-8.49 -5.63,-6.41 -7.69,-14.69 -6.01,-22.55 -4.33,-3.54 -7.36,-8.42 -8.68,-14.11 -4.67,-1.42 -8.9,-4.21 -12.29,-8.22 -6.39,-7.55 -7.97,-17.33 -4.3,-26.51l4.68 -11.74 -7.08 -15.09c-0.61,-1.31 -1.1,-2.62 -1.5,-3.93l-25.21 12.88c-3.84,1.96 -7.54,2.85 -11.86,2.85l-62.29 0c-6.18,0 -11.49,-1.86 -16.3,-5.72l-6.45 -5.17 -13.88 -2.14c-6.83,-1.05 -12.35,-4.3 -16.6,-9.75l-15.29 -19.63 -0.76 0.47c-1.97,1.21 -4,2.15 -6.07,2.8 -1.44,6.28 -5.24,11.86 -10.97,15.7l-15.52 10.38 -3.44 12.79c-2.48,9.21 -9.15,15.89 -18.36,18.39 -9.2,2.5 -18.33,0.12 -25.13,-6.58l-0.26 -0.26c0.46,3.19 0.31,6.5 -0.47,9.85l-8.88 38.06c-1.65,7.06 -5.6,12.54 -11.78,16.32l-20.76 12.72c-7.26,4.45 -15.42,5.14 -23.33,1.97l-16.33 -6.54 -6.97 1.51c-7.01,1.52 -13.58,0.34 -19.61,-3.53l-30.7 -19.69 -20.27 46.26c-3.47,7.93 -9.94,13.22 -18.4,15.04l-14.88 3.21c-11.24,2.41 -22.28,-2.47 -28.05,-12.41l-10.62 -18.3 -13.22 -6.06c-7.46,-3.41 -12.46,-9.44 -14.44,-17.39l-6.9 -27.62 -45.54 15.66c0.99,9.41 -3.16,18.56 -11.3,24.1 -9.65,6.57 -21.96,6.08 -31.06,-1.24l-15.54 -12.54 -25.04 2.26c-11.15,1.01 -21.24,-4.8 -25.99,-14.94l-2.78 -5.97 -17.67 4.41c-3.97,0.99 -7.55,1.07 -11.54,0.25l-62.29 -12.72c-8.54,-1.74 -15.11,-7.02 -18.64,-14.99 -3.52,-7.97 -3.02,-16.39 1.43,-23.88l5.58 -9.41 -2.33 -0.99c-7.26,-3.12 -12.27,-8.68 -14.62,-16.23l-10.7 -34.39 -6.37 1.36c-8.17,1.74 -15.99,-0.22 -22.27,-5.58l-3.59 4.92c-4.42,6.09 -10.52,9.67 -17.98,10.56l-26.66 3.21c-7.2,0.87 -13.86,-1.02 -19.29,-5.4l-2.84 1.74c-9.09,5.57 -20.01,5.21 -28.71,-0.96 -8.71,-6.16 -12.66,-16.34 -10.43,-26.77l14.91 -69.23 -5.18 -5.55 -28.31 -13.82c-7.67,-3.74 -12.65,-10.29 -14.21,-18.68l-5.89 -31.76c-1.09,-5.94 -0.29,-11.37 2.49,-16.75l14.77 -28.55c2.17,-4.19 4.98,-7.3 8.95,-9.87l76.81 -49.94 6.53 -14 2.77 -61.45c0.21,-4.86 1.54,-8.98 4.19,-13.05l19 -29.21 41.11 -114.4 -2.18 -11.57 -8.44 -3.89c-7.9,-3.64 -13.09,-10.27 -14.72,-18.84l-3 -15.82c-1.65,-8.73 0.89,-17 7.17,-23.29l44.42 -44.49c4.32,-4.32 9.52,-6.86 15.26,-7.5l-110.86 -65.97c-6.24,-3.71 -10.28,-9.16 -12,-16.22 -1.73,-7.06 -0.67,-13.74 3.15,-19.93l5.89 -9.51c3.24,-5.23 7.59,-8.76 13.39,-10.83l41.72 -14.94 35.57 -22.87 42.84 -91.76 6.52 -34.87 -7.28 -1.44c-3.48,-0.68 -6.34,-1.85 -9.31,-3.8l-38.53 -25.34c-1.82,-1.19 -3.25,-2.41 -4.73,-4l-20.76 -22.24c-4.69,-5.02 -7.02,-10.92 -7.02,-17.8l0 -19.03c0,-5.3 1.35,-9.84 4.25,-14.27l20.76 -31.76c1.82,-2.8 3.83,-4.9 6.53,-6.85l98.33 -71.23 25.43 -29.73 -1 -2.16 -90.4 -49.9c-3.91,-2.16 -6.8,-4.84 -9.23,-8.57l-20.76 -31.76c-1.57,-2.4 -2.59,-4.65 -3.34,-7.41l-20.76 -76.14c-1.97,-7.26 -0.95,-14.25 3.02,-20.63l29.65 -47.69c1.74,-2.81 3.67,-4.94 6.3,-6.96l30.34 -23.2 -8.36 -11.97 -88.94 -44.62c-5.91,-2.97 -10.04,-7.45 -12.5,-13.59l-17.87 -44.49c-1.16,-2.87 -1.73,-5.5 -1.86,-8.59l-2.9 -66.62c-0.19,-4.37 0.56,-8.16 2.4,-12.13l23.66 -50.9c1.83,-3.95 4.23,-6.95 7.66,-9.61l28.69 -22.28 32.16 -54.65 11.28 -26.45 -4.83 -30.78c-0.87,-5.59 -0.1,-10.62 2.43,-15.68l45.89 -92.01 8.21 -44.01c0.8,-4.28 2.38,-7.78 5.05,-11.22l101.67 -130.73 15.31 -35.53 6.54 -35.08 -92.59 -27.56c-3.85,-1.14 -6.94,-2.87 -9.94,-5.55l-35.54 -31.75c-1.58,-1.41 -2.77,-2.76 -3.99,-4.48l-26.75 -38.18c-4.82,-6.86 -6.04,-14.81 -3.53,-22.81l3 -9.52c1.62,-5.14 4.35,-9.12 8.54,-12.49l149.72 -120.28 16.15 -32.1 7.79 -66.82 -37.32 -144.59c-0.82,-3.16 -1.03,-5.99 -0.69,-9.24l3 -28.55c0.29,-2.77 0.91,-5.09 2.01,-7.64l33.46 -77.27 -44.29 -80.89c-1.83,-3.35 -2.79,-6.54 -3.12,-10.34l-5.88 -69.83c-0.61,-7.33 1.54,-13.87 6.39,-19.4l45.73 -52.09 52.02 -89.85c1.04,-1.8 2.09,-3.23 3.51,-4.74l15.06 -16.13 -13.9 -31.88c-2.44,-5.57 -2.87,-11.07 -1.35,-16.95l10.34 -40.03 -24.01 21.46c-4.98,4.45 -10.71,6.64 -17.39,6.64l-35.63 0c-6.36,0 -11.83,-1.98 -16.71,-6.06l-26.66 -22.24c-3.44,-2.87 -5.78,-6.06 -7.46,-10.21l-28.16 -69.39 -14 -17.1 -11.07 -4.43 -37.52 5.34c-7.21,1.03 -13.77,-0.7 -19.55,-5.14l-20.76 -15.94c-10.35,-7.94 -13.25,-22.04 -6.88,-33.43l17.77 -31.76c2.44,-4.35 5.58,-7.49 9.92,-9.96l47.95 -27.15 83.35 -74.84 8.67 -44.03 -6.83 -16.49 -63.8 -62.82 -16.59 -1.58 -59.09 25.84c-3.47,1.52 -6.69,2.19 -10.47,2.19l-35.56 -0.01c-2.37,0 -4.4,-0.27 -6.69,-0.88l-23.76 -6.31c-8.62,-2.29 -14.99,-8.19 -17.93,-16.61l-8.88 -25.45c-2.37,-6.78 -2,-13.46 1.12,-19.92l47.42 -98.49c1.19,-2.5 2.54,-4.47 4.44,-6.49l20.76 -22.24c4.23,-4.54 9.25,-7.15 15.4,-8.03l44.53 -6.31c2.97,-0.41 5.56,-0.35 8.5,0.2l90.07 17.02 -5.45 -6.71c-2.38,-2.93 -3.88,-5.86 -4.89,-9.51l-13.32 -48.37 -64.38 -74.9c-1.8,-2.1 -3.07,-4.14 -4.17,-6.69l-15.99 -37.14 -9.3 -10.02 -1.75 1.06 -47.08 97.89c-4.79,9.93 -14.69,15.6 -25.68,14.68l-77.07 -6.42c-10.81,-0.89 -19.52,-7.89 -22.74,-18.24l-8.89 -28.55c-1.07,-3.47 -1.4,-6.6 -1.05,-10.21l3 -31.76c0.38,-4.05 1.49,-7.45 3.59,-10.96l24.64 -41.12 10.32 -41.86 -29.12 -8.91c-4.79,-1.47 -8.56,-3.9 -11.88,-7.66l-53.4 -60.31c-5.07,-5.72 -7.24,-12.58 -6.41,-20.16l5.99 -54.01c0.39,-3.5 1.3,-6.42 2.97,-9.52l27.3 -50.59 -49.97 -157.78c-1.17,-3.68 -1.49,-7.06 -1.04,-10.89l8.89 -76.25c0.4,-3.5 1.34,-6.42 3.02,-9.51l47.22 -86.22 0 -24.13 -56.15 -92.89 -93.7 -25.79c-4.87,-1.34 -8.71,-3.66 -12.15,-7.35l-53.41 -57.21c-2.72,-2.92 -4.5,-5.94 -5.73,-9.73l-44.42 -136.57c-1.93,-5.92 -1.78,-11.6 0.46,-17.42l19.65 -51.13 11.01 -83.03 -2.05 -24.73 -4.96 -6.64 -8.6 -6.11 -24.4 -2.03 -13.04 6.19 -19.6 34.21c-2.19,3.81 -4.86,6.62 -8.57,9l-14.87 9.52c-9.03,5.78 -20.03,5.59 -28.87,-0.49l-41.43 -28.56c-6.02,-4.15 -9.68,-9.9 -10.92,-17.11l-11.88 -69.94c-0.41,-2.43 -0.48,-4.56 -0.23,-7l2.9 -28.55c0.47,-4.66 1.91,-8.55 4.61,-12.37l26.75 -38.07c2.91,-4.13 6.41,-6.97 11.06,-8.98l51.77 -22.21 7.49 -12.04 -0.69 -2.58 -15.44 -11.59 -50.62 0c-4.46,0 -8.29,-0.96 -12.24,-3.05l-11.88 -6.31c-7.24,-3.84 -11.88,-10.16 -13.39,-18.21l-3 -15.94c-0.89,-4.7 -0.57,-8.92 1.01,-13.42l8.88 -25.46c1.25,-3.58 2.97,-6.43 5.56,-9.2l26.66 -28.55c4.7,-5.03 10.45,-7.76 17.31,-8.23l42.31 -2.85 31.88 -15.9 22.77 -46.12c0.89,-1.82 1.83,-3.28 3.1,-4.84l38.54 -47.7c4.57,-5.67 10.57,-8.89 17.83,-9.57l87.99 -8.31 3.07 -4.92 25.65 -91.67c1.99,-7.11 6.31,-12.5 12.83,-15.98l35.64 -19.03c2.8,-1.5 5.41,-2.36 8.56,-2.81l44.42 -6.42c2.91,-0.42 5.45,-0.38 8.35,0.15l23.95 4.31 21.36 -17.17 30.08 -67.38c3.23,-7.24 8.89,-12.18 16.5,-14.41l32.55 -9.52c3.54,-1.04 6.75,-1.3 10.42,-0.86l26.76 3.21c3.38,0.4 6.2,1.29 9.21,2.9l17.77 9.51c2.42,1.31 4.32,2.73 6.24,4.68l33.72 34.15 25.26 -49.84c0.65,-1.3 1.29,-2.36 2.15,-3.53l58.42 -80.56 3.05 -21.08 -662.65 -594.03c-8.41,-7.55 -11.01,-19.06 -6.64,-29.49l859.83 -2054.86c4.09,-9.76 13.03,-15.83 23.61,-16.01l169.4 -2.95 21.3 -35.12c-2.38,-4.46 -3.32,-9.46 -2.76,-14.81l2.07 -19.65 -12.69 -20.37 -9.34 -13.99 -14.3 -3.87c-11.54,-3.11 -19.28,-13.22 -19.28,-25.17l0 -195.52 -88.8 2.47c-8.53,0.24 -15.99,-3.26 -21.26,-9.99 -5.26,-6.72 -6.88,-14.78 -4.61,-23.02l515.92 -1870.6c2.93,-10.61 11.63,-17.95 22.58,-19.02l194.98 -19.25 -2.27 -2c-6.66,-5.9 -9.73,-14.12 -8.6,-22.72l-2.9 -2.49c-3.29,-2.84 -5.74,-6.24 -7.26,-9.98 -6.69,1.44 -13.79,0.13 -19.88,-3.94l-8.14 -5.45c-10.55,6.06 -24.16,4.06 -32.48,-5.32l-171.91 -193.66c-2.9,-3.27 -4.7,-6.66 -5.77,-10.88l-61.64 -242.03 -298.25 -616.93c-4.02,-8.33 -3.53,-17.38 1.38,-25.21 4.91,-7.83 12.86,-12.23 22.1,-12.23l68.76 -0.01 0 -21.08 -85.2 -94.13c-5.74,-6.34 -7.92,-14.29 -6.23,-22.67l21.28 -105.28 -9.12 -10.98 -16.36 -1.96c-10.32,-1.25 -18.47,-7.94 -21.69,-17.84l-17.9 -55.02 -1.71 0c-11.22,0 -20.76,-6.71 -24.55,-17.27l-28.45 -79.22 -1.05 -1.49 -19.67 -4.18c-9.16,-1.95 -16.09,-8.06 -19.19,-16.91l-17.77 -50.8c-2.51,-7.2 -1.93,-14.37 1.71,-21.07l18.61 -34.21 0.09 -0.6c-4.16,-2.37 -7.56,-5.9 -9.97,-10.45l-11.77 -22.24c-5.44,-10.28 -3.6,-22.43 4.56,-30.6 -7.35,-4 -12.13,-11 -13.31,-18.87 -6,-5.1 -9.15,-11.93 -9.15,-19.84l0 -12.72c0,-8.19 3.38,-15.24 9.77,-20.36l2.1 -1.69c0,0 0,0 0,-0.01l-10.49 -7.99c-5,-3.81 -8.13,-8.63 -9.57,-14.76l-3 -12.72c-1.41,-5.98 -0.82,-11.54 1.79,-17.09l5.99 -12.73c4.4,-9.34 13.22,-14.96 23.56,-14.98l17.77 -0.03c2.73,0 5.07,0.35 7.69,1.15l59.46 18.24 21.06 -56.43c2.05,-5.5 5.39,-9.65 10.34,-12.83l29.65 -19.03c10.7,-6.88 24.49,-5.15 33.17,4.15l38.53 41.28c4.37,4.7 6.66,10.1 6.98,16.51l2.63 53.01 19.65 28.92c4.02,5.92 5.39,12.44 4.05,19.49l-4.33 22.99 13.81 27.03c4.26,8.32 3.91,17.52 -0.98,25.5 -0.41,0.67 -0.85,1.32 -1.31,1.94l12.61 37.22 7.17 4.58c9.81,6.28 14.2,17.78 11.05,29.01l-2.49 8.93c7.67,4.67 12.35,12.85 12.35,22.21l0 1.78c4.86,2.27 8.75,5.95 11.51,10.93 3.8,6.88 4.36,14.29 1.64,21.67l-0.31 0.85 6.79 7.28c4.7,5.02 7.02,10.93 7.02,17.8l0 2.51c3.64,3.14 6.3,7.27 7.78,12.2 2.46,8.17 1.04,16.26 -4.05,23.1l-1.74 2.35c1.53,4.99 1.45,10.25 -0.28,15.53 -2.48,7.57 -7.62,13.08 -15,16.07l-10.26 4.16 -2.52 14.93 4.45 16.79c1.24,4.7 1.21,9.02 -0.1,13.71l-2.74 9.76 8.66 3.71c7.71,3.3 13.06,9.64 15,17.38 1.84,1.11 3.56,2.45 5.11,4.03l11.95 -4.24 0.19 -1.09c1.27,-6.96 4.8,-12.5 10.56,-16.6l8.88 -6.31c11.19,-7.94 26.51,-5.9 35.24,4.67l44.53 54c2.1,2.56 3.5,5.06 4.57,8.19l8.15 23.95 4.2 1.82c9.15,3.97 14.93,12.15 15.63,22.1 0.69,9.95 -3.88,18.86 -12.39,24.07l-1.56 0.95 3.05 7.15 26.25 17.94c9.03,6.18 13.15,16.68 10.72,27.34l-2.9 12.72c-1.98,8.68 -7.95,15.42 -15.76,18.47l4.57 17.16 47.16 -6.89c12.99,-1.9 25.21,5.98 28.84,18.59l6.45 22.43 13 0c10.99,0 20.36,6.42 24.33,16.67l11.28 29.15 44.86 23.98c10.43,5.58 15.69,16.95 13.21,28.51l-4.49 20.82 35.92 16.48 69.18 -11.42c7.83,-1.3 15.08,0.72 21.13,5.84 6.04,5.13 9.21,11.97 9.21,19.9l0 48.34 27.34 35.54 -2.3 -37.81c-0.67,-10.95 5.16,-20.69 15.12,-25.27l15.59 -7.19 37.86 -43.38c7.2,-8.24 18.13,-11.09 28.43,-7.42l6.79 2.43 14.48 -11.67 3.85 -16.57c2.23,-9.64 9.12,-16.75 18.66,-19.31 8.31,-2.21 16.58,-0.45 23.03,4.8l9.99 -24.44c4.09,-10.01 13.32,-16.21 24.14,-16.21l23.77 -0.01c9.3,0 17.3,4.44 22.19,12.35l8.09 13.08 5.27 2.82 5.45 -2.93c0.85,-0.45 1.71,-0.86 2.57,-1.21 3.95,-5.93 10.22,-9.96 17.72,-11.1l21.25 -3.23c2.09,-5.17 5.87,-9.51 11.03,-12.53l25.54 -14.94 5.54 -11.8c3.48,-7.41 9.52,-12.35 17.48,-14.27 7.95,-1.93 15.59,-0.3 22.06,4.7l7.3 5.62 8.88 -4.75c8.08,-4.33 17.37,-4.12 24.95,0.13 3.94,-0.33 8,0.28 11.95,1.87l33.47 13.44 20.61 -16.11 -8.14 -20.87c-4.03,-10.38 -1.32,-21.61 7,-28.99 8.34,-7.38 19.82,-8.73 29.63,-3.48l3.32 1.79 4.5 -6.45c4.39,-6.28 10.95,-10.13 18.06,-11.01 2.36,-5.83 6.75,-10.46 12.74,-13.36 8.13,-3.93 16.92,-3.55 24.68,1.05l20.5 12.17 24.84 -0.01 59.52 -31.78c5.1,-2.72 10.24,-3.63 15.96,-2.82l29.12 4.14 14.5 -19.38c7.6,-10.18 21.09,-13.39 32.47,-7.75l48.26 23.9c4.02,-7.76 11.65,-12.97 20.77,-13.78l18.25 -1.65 9.59 -30.9c2.44,-7.85 7.79,-13.59 15.45,-16.57l21.94 -8.56 10.62 -27.37c3.53,-9.09 11.17,-15.11 20.83,-16.41l15.81 -2.13 11.8 -10.58c7.79,-6.99 18.41,-8.65 27.82,-4.51l23.86 -81.77c2.84,-9.73 10.43,-16.56 20.41,-18.36l11.22 -2.02c0.32,-4.04 1.61,-7.86 3.9,-11.53l23.66 -38.07c4.25,-6.84 10.68,-11.01 18.66,-12.08l15.23 -2.06 20.42 -19.86 7.44 -42.49c0.68,-3.94 2.02,-7.17 4.31,-10.45l30.57 -43.74 -14.28 -6.62c-8.14,-3.78 -13.39,-10.75 -14.79,-19.61l-3 -19.03c-1.18,-7.54 0.66,-14.46 5.43,-20.41l8.31 -10.32 -12.17 -30.21c-3.34,-8.29 -2.42,-16.94 2.58,-24.34 5,-7.41 12.67,-11.49 21.61,-11.49l8.81 0 7.31 -12.54c4.12,-7.04 10.55,-11.4 18.6,-12.63l27.2 -4.14 15.01 -34.49c2.51,-5.77 6.46,-9.96 12.07,-12.82l56.5 -28.81 14.04 -20.04c7.63,-10.86 21.98,-14.28 33.68,-8.02l25.61 13.72 24.18 -8.11 10.82 -34.83c2.28,-7.39 7.19,-12.93 14.09,-16.02l3.33 -8.01 -7.71 -18.53c-2.64,-6.35 -2.76,-12.71 -0.34,-19.16l11.88 -31.76c4.56,-12.19 17.13,-19.08 29.86,-16.37l0.89 0.19 -1.59 -5.1c-1.62,-5.26 -1.63,-10.2 -0.01,-15.46l5.89 -19.04c3.43,-11.09 13.29,-18.37 24.91,-18.37l22.3 -0.01 -21.01 -17.31c-5.76,-4.74 -8.95,-10.98 -9.43,-18.43 -0.5,-7.45 1.86,-14.05 6.96,-19.5l14.38 -15.4 -15.73 -14.12c-5.42,-4.85 -8.33,-10.99 -8.64,-18.26 -0.33,-7.27 2.02,-13.64 6.99,-18.96l20.9 -22.38 4.93 -39.21c1.41,-11.2 9.37,-19.88 20.41,-22.25l59.3 -12.72c5.22,-1.12 10,-0.74 14.97,1.21l3.59 1.4c-1.07,-4.57 -0.9,-8.89 0.52,-13.48l5.89 -19.03c2.35,-7.58 7.38,-13.16 14.66,-16.28l47.14 -20.13 0.02 -0.1 -12.59 -15.45c-4.85,-5.95 -6.74,-12.94 -5.55,-20.53 1.19,-7.58 5.14,-13.66 11.59,-17.84l17.64 -11.43 0 -14.37c0,-7.67 2.95,-14.28 8.66,-19.41 5.71,-5.13 12.59,-7.35 20.23,-6.53l19.79 2.14 1.77 -1.25 6.63 -28.46c2.61,-11.16 11.66,-19.03 23.06,-20.05l35.55 -3.21c10.76,-0.98 20.49,4.35 25.48,13.93l7.57 14.51 37.47 0c2.08,0 4.09,0.22 6.03,0.65 5.34,-4.98 11.85,-7.32 19.2,-6.91 7.56,0.43 13.92,3.66 18.71,9.52l15.75 19.23c4.94,-6.27 12.13,-9.74 20.34,-9.75l5.65 0c3.23,-7.84 9.73,-13.34 18.18,-15.29 9.33,-2.14 18.4,0.63 24.92,7.62l14.09 15.08 7.89 -5.7c6.86,-4.96 14.89,-6.28 22.98,-3.78l20.76 6.42c6.48,2.01 11.42,5.92 14.78,11.7 5.1,-0.85 10.37,-0.1 15.38,2.28l16.97 8.08 11.13 -3.98c-0.99,-8.95 2.67,-17.66 10.09,-23.37l20.76 -15.94c7.77,-5.96 17.46,-7.13 26.42,-3.17l38.03 16.77 35.82 -21.57c5.99,-3.61 12.87,-4.51 19.21,-3.08 5.43,-5.14 12.88,-7.74 20.47,-6.96l-6.86 -11.03c-5.96,-9.59 -5.24,-21.35 1.84,-30.13 6.49,-8.06 16.55,-11.42 26.37,-9.03l3.96 -6.78c5.44,-9.34 15.45,-14.2 26.16,-12.69 10.71,1.49 18.99,8.92 21.66,19.4l3.88 15.3 0.47 0c5.97,0 11.1,1.74 15.86,5.37l18.33 14.01c1.39,-0.79 2.88,-1.48 4.47,-2.04l8.98 -3.21c7.17,-2.56 14.32,-2.03 21.04,1.55 6.72,3.58 11.13,9.21 13.02,16.6l1.07 4.24c7.17,-2.76 14.71,-2.25 21.62,1.5 7.57,4.11 12.29,10.97 13.42,19.51l1.68 12.64 2.16 -2.83c2.37,-3.1 4.97,-5.31 8.4,-7.15l35.55 -19.03c8.12,-4.35 17.44,-4.13 25.05,0.18l2.61 -5.07c3.17,-6.13 7.97,-10.33 14.48,-12.63l23.68 -8.39 7.72 -22.94c2.41,-7.13 7.14,-12.36 13.99,-15.46l38.99 -17.59 -0.76 -6.36c-1.04,-8.89 2.11,-17 8.89,-22.83l14.77 -12.73c8.08,-6.95 18.89,-8.35 28.46,-3.67l32.65 15.93c7.64,3.73 12.7,10.65 14.2,18.46 1.71,-2.54 3.92,-4.79 6.6,-6.7l26.75 -19.14c8.3,-5.94 18.57,-6.59 27.55,-1.76l16.09 8.67c3.41,-2.65 7.42,-4.35 11.99,-5.06l6.97 -1.07 4.3 -9.25 -7.99 -21.54c-3.06,-8.27 -1.98,-16.74 3.04,-23.97 5.03,-7.23 12.6,-11.19 21.41,-11.19l10.11 0c0.95,-1.57 2.07,-3.07 3.37,-4.46l8.89 -9.52c2.32,-2.49 4.99,-4.45 7.87,-5.84 -0.63,-8.77 3.25,-17.4 10.79,-22.85l6.92 -5c0.13,-7.59 3.57,-14.66 9.82,-19.67l11.89 -9.52c6.84,-5.47 15.19,-7.13 23.6,-4.68l32.64 9.52c2.03,0.59 3.92,1.37 5.64,2.33 2.02,-3.39 4.85,-6.37 8.4,-8.68 4.65,-3.03 9.85,-4.45 15.01,-4.29 0.96,-6.77 4.59,-12.84 10.45,-17.13 7.89,-5.77 17.65,-6.71 26.38,-2.61l4.33 -5.4c5.77,-7.18 14.41,-10.63 23.12,-9.63l3.98 -25.63c1.52,-9.75 7.83,-17.33 17.15,-20.6 8.68,-3.05 17.67,-1.53 24.74,4.08 4.18,-4.81 9.7,-7.72 16.27,-8.55 7.68,-0.96 14.68,1.19 20.48,6.29l9.19 -8.79c5.04,-4.81 11.02,-7.21 17.99,-7.22l5.62 -0.01c0.86,-1.94 1.96,-3.82 3.31,-5.59 6.07,-7.93 15.38,-11.57 25.21,-9.87l5.13 0.9 11.29 -10.36c5.52,-5.06 12.37,-7.42 19.51,-6.83l7.41 -9.26c4.48,-5.62 10.35,-8.85 17.49,-9.64 7.15,-0.79 13.58,1.07 19.19,5.57l18.81 15.06 31.48 6.32 24.08 -14.04c9.39,-5.48 20.59,-4.73 29.13,1.92l0.47 -0.2c7.91,-3.35 16.57,-2.56 23.48,1.54 3.94,-2.38 8.44,-3.6 13.37,-3.6l11.88 0c7.88,0 14.67,3.12 19.8,9.1l27.93 32.56 31.62 10.44c5.9,1.96 10.38,5.42 13.74,10.62l26.66 41.29c4.2,6.51 5.3,13.73 3.2,21.18 -1.57,5.64 -4.64,10.23 -9.06,13.59 1.83,5.61 1.63,11.74 -0.72,17.61l-6.4 16.01 0.38 2.98c1.08,0.29 2.17,0.63 3.24,1.06 8.96,3.53 14.95,11.18 16.25,20.42l9.77 0.02c10.72,0.02 19.94,6.55 23.93,15.83 8.09,-0.01 15.36,3.57 20.44,10.16l8.53 11.06 34.41 -10.47c10.09,-3.07 20.42,-0.08 27.33,7.91 6.89,7.99 8.35,18.65 3.84,28.19l-2.65 5.61 7.24 10.73 11.86 -19.1c4.09,-6.58 10.15,-10.67 17.79,-11.97 7.64,-1.29 14.71,0.56 20.75,5.41l16.09 12.97 64.24 -2.78c7.37,-0.32 13.84,2.12 19.17,7.22 2.82,2.7 4.9,5.74 6.24,9.1 1.58,-0.31 3.2,-0.49 4.9,-0.52 7.33,-0.12 13.68,2.44 18.88,7.61l25.89 25.8c7.76,-5.47 17.16,-6.34 25.82,-2.4 8.72,3.99 14.25,11.74 15.14,21.28l1.31 13.76c1.17,-0.55 2.39,-1.01 3.67,-1.41l20.76 -6.31c9.6,-2.92 19.35,-0.39 26.33,6.82 4.2,4.33 6.66,9.61 7.27,15.2l26.75 2.42c5.33,0.47 9.79,2.27 13.96,5.61l11.88 9.52c8.28,6.63 11.64,16.91 8.89,27.15l-2.34 8.7 16.95 19.2c3.05,-1.82 6.52,-3 10.3,-3.47 9.69,-1.21 18.61,2.68 24.34,10.58l1.94 2.68 15.76 -5.56c6.42,-2.27 12.71,-2.06 18.97,0.62l44.42 19.04c6.12,2.62 10.54,6.89 13.36,12.94l3.73 7.98 11.97 3.19c5.55,1.47 9.89,4.28 13.52,8.72l2.74 3.36 12.14 -11.84c6.5,-6.36 15.05,-8.78 23.91,-6.79 7.07,1.59 12.75,5.61 16.38,11.49 6.9,-5.62 16.41,-7.47 25.3,-4.26l6.08 2.19c2.29,-2.1 5.02,-3.78 8.12,-5.01 7.36,-2.92 14.85,-2.5 21.85,1.21l11.88 6.31c3.61,1.92 6.55,4.43 8.8,7.49l6.51 -7.65c6.87,-8.09 17.27,-11.15 27.42,-8.08 5.32,1.61 9.77,4.66 12.97,8.72l10.67 -4.6c7.35,-3.17 14.95,-2.95 22.09,0.66 7.15,3.6 11.84,9.58 13.66,17.37l7.65 32.88 11.01 14.77c2.99,-4.1 7.21,-7.26 12.36,-9.1 9.44,-3.35 19.27,-1.31 26.59,5.53l22.5 21.06 16.29 11.64 6.94 -1.25c10.16,-1.84 19.86,2.11 25.85,10.51 3.2,4.47 4.85,9.51 4.95,14.61 0.02,0.01 0.03,0.03 0.05,0.05 5.12,6.32 6.95,13.84 5.28,21.8l-4.59 21.87 3.94 12.53c0.4,1.29 0.71,2.57 0.92,3.87 6.37,5.31 9.75,13.22 9.1,21.86 -0.8,10.52 -7.34,19.08 -17.29,22.61l-1.43 0.52c6.86,-1.3 13.67,0.2 19.62,4.4 7.15,5.04 11.04,12.56 11.04,21.31l0 19.69c5.85,1.9 10.77,5.84 14.08,11.42 6.56,0.36 12.69,3.21 17.45,8.31l23.66 25.34c4.09,4.39 6.47,9.73 6.98,15.29l0.51 0.19c7.94,2.84 13.69,9.09 16.08,16.59 3.97,3.05 7.02,7.29 8.71,12.33 1.86,0.76 3.67,1.77 5.39,3l26.65 19.15c7.39,5.29 11.31,13.53 10.88,22.23l9.61 -3.46c8.24,-2.96 16.65,-1.83 23.82,3.21 1.06,0.74 2.05,1.54 2.96,2.39 3.02,0.7 5.78,1.86 8.25,3.47l8.05 -8.62c5.11,-5.49 11.56,-8.29 19.06,-8.29 7.5,0 13.95,2.81 19.07,8.29l1.32 1.41c7.72,-1.04 15.72,1.47 21.66,7.32l35.55 34.97c4.44,4.37 7,9.6 7.63,15.6 4.51,2.82 7.98,6.93 10.01,11.8 5.42,-0.58 10.93,0.64 15.96,3.63l17.31 10.31 13.02 -3.48c8.1,-2.16 15.98,-0.58 22.62,4.52 2.69,2.07 4.88,4.48 6.53,7.18l13.37 -4.76c6.43,-2.29 12.74,-2.09 19.02,0.6l29.65 12.73c2.62,1.12 4.93,2.55 6.93,4.29 0.31,0.03 0.62,0.07 0.93,0.11 4.09,-5.21 9.99,-8.57 16.94,-9.5 9.46,-1.27 18.21,2.32 24.06,9.86l10.35 13.34 25.93 10.11c4.77,1.86 8.4,4.62 11.44,8.71l11.89 15.94c2.83,3.8 4.4,7.69 4.98,12.39l2.15 17.38c0.2,-0.09 0.41,-0.18 0.62,-0.25 7.43,-3.04 15.07,-2.64 22.16,1.15l1.46 0.79 7.12 -6.54c8.87,-8.12 21.66,-9.21 31.76,-2.7l4.59 2.96 29.94 -9.18c4.17,-1.27 7.99,-1.49 12.27,-0.73l17.77 3.21c7.8,1.4 13.94,5.7 17.91,12.54 2.98,5.1 4.14,10.57 3.44,16.11 7.77,1.52 14.06,6.21 17.86,13.38 0.49,0.95 0.93,1.92 1.32,2.88 3.95,-2.55 8.61,-3.95 13.68,-4.05 9.14,-0.16 17.07,3.98 22.15,11.59l14.87 22.24c4.24,6.34 5.49,13.55 3.67,20.71 0.55,0.33 1.09,0.69 1.63,1.07l8.88 6.32c7.83,5.56 11.81,14.45 10.9,23.64l1.88 1.99c3.64,3.87 5.91,8.37 6.75,13.27 4.65,2.14 8.63,5.67 11.38,10.29l10.3 0c8.9,0 16.71,4.17 21.52,11.3 3.47,1.4 6.69,3.58 9.42,6.5l20.76 22.24c3.25,3.48 5.41,7.49 6.41,11.8l1.23 -0.28c11.24,-2.59 22.52,2.57 28.19,11.96l1.42 0c6.55,0 12.56,2.35 17.17,6.35 7.86,-4.35 17.39,-4.34 25.55,0.38 5.66,3.28 9.68,8.28 11.66,14.05 0.53,0.55 1.04,1.15 1.53,1.76l17.61 22.04c9.6,0.81 17.66,6.58 21.58,15.59 0.63,1.45 1.12,2.93 1.49,4.41l33.71 -3.99c8.49,-1.01 16.23,1.82 22.09,8.05 5.5,5.87 7.89,13.22 6.86,21.08l7.1 3.82 12.73 -9.95 9.45 -30.3c2.89,-9.24 10.01,-15.73 19.47,-17.74l29.65 -6.32c7.79,-1.65 15.48,0.21 21.38,4.79 7.14,-3.24 15.57,-3.13 22.97,0.81l9.96 5.3 8.95 -1.56c10.49,-1.82 20.48,2.52 26.31,11.43l4.76 7.29c2.06,0.24 4.1,0.74 6.09,1.49 5.13,-1.85 10.87,-2.13 16.47,-0.42l0.5 0.16c7.12,-7.19 18.05,-9.81 27.99,-5.92l16.1 6.27c4.17,-4.37 9.39,-7.04 14.98,-7.86 2.02,-1.15 4.13,-2.02 6.3,-2.58 3.15,-8.27 9.84,-14.06 18.61,-16.03 4.57,-1.03 9.07,-0.87 13.24,0.37 6.82,-2.04 13.81,-1.22 20.2,2.44l17.67 10.11c1.13,-0.72 2.31,-1.34 3.54,-1.87l3.53 -10.06c3.32,-9.47 11.12,-15.85 21.07,-17.21 1.44,-0.2 2.86,-0.29 4.26,-0.26l3.18 -5.68c5.52,-9.87 16.52,-14.83 27.18,-12.98 3.42,-2.03 7.31,-3.22 11.59,-3.51l35.48 -2.4 4.72 -6.27c5.27,-7.03 12.97,-10.71 21.76,-10.4l88.95 3.09c7.18,0.25 13.26,3.02 18.16,8.27l17.99 19.26 19.52 -6.92c6.06,-2.15 11.94,-2.08 17.94,0.19l31.96 12.09 12 -16.03c5.68,-7.6 14.27,-11.33 23.69,-10.32l23.69 2.57 22.49 -8.05 0.61 -0.82 -1.29 -8.19c-1.48,-9.41 1.88,-18.21 9.24,-24.24l50.42 -41.28c4.86,-3.99 10.26,-5.91 16.54,-5.91l13.15 0.01 25.05 -24.37c2.93,-2.85 5.99,-4.72 9.87,-6.03l25.1 -8.43c-5.82,-8.73 -5.94,-20.35 0.35,-29.37l12.29 -17.6 -2.09 -22.22c-0.52,-5.51 0.5,-10.38 3.21,-15.2l17.77 -31.76c2.78,-4.97 6.55,-8.47 11.7,-10.88l47.52 -22.24c6.19,-2.9 12.52,-3.31 19.03,-1.21l7.08 2.27c2.3,-2.95 5.26,-5.31 8.87,-7.11l25.89 -12.86 1.34 -11.33c1.35,-11.41 9.54,-20.27 20.81,-22.52 11.26,-2.25 22.22,2.79 27.84,12.81l3.51 6.25 9.87 2.64 1.2 -1.27c7.26,-7.71 17.75,-10.25 27.72,-6.7l5.3 1.87 12.38 -8.43 1.24 -7.89c1.24,-7.85 5.44,-14.11 12.24,-18.24 6.8,-4.13 14.3,-4.95 21.84,-2.42l37.17 12.5 28.86 -14.34c6.58,-3.27 13.83,-3.61 20.29,-1.32l50.58 -27.14 14.21 -20.26c4.3,-6.12 10.27,-9.79 17.68,-10.84 7.39,-1.07 14.16,0.79 20,5.46l13.44 10.77c8.3,-1.95 16.42,0.04 22.94,5.67 4.27,3.69 7.1,8.29 8.33,13.41 2.44,1.49 4.67,3.42 6.57,5.74l5.31 6.47 24.65 -17.58c7.93,-5.66 17.6,-6.5 26.39,-2.31l19.85 9.48 45.92 -5.43c7.07,-0.84 13.46,0.94 19.08,5.32l23.96 18.65 12.95 -1.69c8.42,-1.09 16.13,1.59 22.06,7.68 5.81,5.95 8.3,13.56 7.15,21.75l2.79 1.29c12.77,5.84 18.61,20.77 13.21,33.73l-2.65 6.38c4.03,3.93 6.61,9.12 7.41,15.09 0.9,6.65 -0.6,12.95 -4.2,18.15l9.48 15.8 71.61 13.74c5.68,1.09 10.23,3.61 14.17,7.82l2.45 2.63 7.12 -1.09c9.63,-1.49 18.62,2.1 24.59,9.78l14.77 19.04c2.83,3.64 4.45,7.38 5.17,11.93l0.59 3.81 3.28 1.17c8.95,3.24 15.05,10.43 16.78,19.78l3.21 17.3 36.66 13.84c6.58,2.49 11.39,6.93 14.39,13.3l5.98 12.73c3.91,8.28 3.36,17.24 -1.52,24.99l-5.98 9.51c-0.01,0.02 -0.02,0.04 -0.04,0.06l8.57 12.89c5.43,8.19 5.92,17.97 1.33,26.65l-0.46 0.86c0.25,1.13 0.44,2.3 0.54,3.47 7.39,2.45 12.84,7.53 15.84,14.77 3.08,7.46 2.71,15.14 -1.1,22.26l-24.55 45.98 60.55 40.84c3.18,2.15 5.51,4.56 7.54,7.81l0.76 1.24c8.74,-2.41 17.66,-0.25 24.45,6.01l7.05 6.51 1.38 -0.75c7.48,-4.05 15.68,-4.31 23.4,-0.73l11.03 5.12 16.68 -6c7.24,-2.6 14.48,-2.06 21.25,1.61l9.91 -10.65c8.87,-9.56 23.2,-11.1 33.9,-3.72l31.4 -6.28 37.46 -25.1 14.7 -28.81c2.71,-5.33 6.59,-9.12 11.99,-11.69l53.31 -25.46c4.94,-2.36 9.81,-3.08 15.22,-2.24l7.12 1.11 11.36 -12.16c6.21,-6.66 14.98,-9.47 23.48,-7.95l8.04 -9.82c3.48,-4.25 7.6,-6.97 12.88,-8.51l32.64 -9.51c7.19,-2.1 14.17,-1.22 20.61,2.61l18.33 10.88 25.98 -4.62c10.23,-1.81 19.96,2.21 25.93,10.7l1.62 2.32c2.43,-0.62 5,-0.89 7.68,-0.78 7.84,0.31 14.48,3.65 19.37,9.79l4.24 5.29 10.52 -5.61c6.53,-3.49 13.45,-4.08 20.48,-1.76 2.94,0.98 5.55,2.34 7.84,4.1 3.26,-1.44 6.88,-2.21 10.7,-2.21l32.59 -0.01c3.82,0 7.1,0.69 10.6,2.25l11.7 5.19 -0.31 -1.53c-1.63,-7.86 0.16,-15.28 5.17,-21.55l10.96 -13.73 -1.72 -14.64c-0.8,-6.79 0.81,-12.92 4.85,-18.44l48.37 -66.17 0 -39.06c0,-4.81 1.12,-8.94 3.53,-13.1l5.67 -9.75c-6.47,-2.02 -11.54,-6.22 -14.89,-12.33 -3.03,-5.55 -3.96,-11.46 -2.77,-17.4 -4.13,-4.63 -6.42,-10.63 -6.42,-17.26l0 -22.24c0,-5.39 1.4,-10.02 4.4,-14.49l14.87 -22.24c5.25,-7.84 13.98,-11.99 22.82,-11.59l2.05 -1.55 6.85 -31.87c1.38,-6.4 4.62,-11.45 9.85,-15.38l29.65 -22.24c2.11,-1.59 4.11,-2.67 6.59,-3.59l77.06 -28.55c7.64,-2.83 15.38,-2.13 22.38,2.03l12.83 7.61 1.32 -0.84c2.93,-1.88 5.99,-3.12 9.15,-3.73 2.77,-4.97 6.95,-8.68 12.42,-11.02l36.05 -15.4 7.45 -14.1c1.66,-3.11 3.59,-5.5 6.29,-7.77l35.24 -29.58 3.86 -14.32c1.5,-5.57 4.35,-9.93 8.84,-13.55l18.46 -14.85 9.32 -22.49c1.42,-3.44 3.24,-6.12 5.9,-8.7l62.02 -60.45 21.8 -43.64c1.99,-3.98 4.54,-6.98 8.17,-9.58l26.66 -19.03c1.69,-1.2 3.24,-2.06 5.16,-2.86l72.01 -29.9 -7.49 -35.97c-0.99,-4.74 -0.73,-9.04 0.82,-13.64l38.53 -114.42c2.1,-6.23 5.91,-10.9 11.59,-14.22l32.64 -19.03c3.71,-2.16 7.34,-3.25 11.63,-3.51l38.7 -2.25 28.75 -53.82c1.51,-2.82 3.21,-5 5.59,-7.13l10.18 -9.13 2.04 -21.6c0.56,-5.98 2.8,-10.96 6.9,-15.34l8.89 -9.52c4.46,-4.79 9.84,-7.47 16.35,-8.15l21.37 -2.23 26.29 -23.15c3.58,-3.16 7.38,-5.04 12.07,-5.99l62.29 -12.62c6.19,-1.27 11.91,-0.42 17.49,2.56l35.54 19.03c7.32,3.93 11.98,10.4 13.39,18.58l4.04 23.59 20.03 12.93c8.1,5.22 12.44,13.75 11.9,23.38l-65.29 1159.24c-0.52,8.99 -5.1,16.5 -12.88,21.04l-32.55 19.04c-7.49,4.39 -15.89,4.84 -23.82,1.3l-22.31 -9.99 -20.51 14.01c-3.94,2.7 -7.94,4.11 -12.7,4.47l-41.53 3.21c-1.04,0.07 -2.06,0.09 -3.07,0.05l-27.79 -0.01 -7.55 6.46c-8.08,6.92 -18.88,8.29 -28.43,3.6l-25.19 -12.32 -1.67 0.25 -11.38 16.25c-2.76,3.91 -6.01,6.64 -10.35,8.67l-65.33 30.41 -26.16 21.05 -9.85 42.04c-1.43,6.12 -4.53,10.95 -9.52,14.76l-34.06 26.11 -3.84 16.29c-0.95,4.03 -2.56,7.29 -5.17,10.5l-17.97 22.02 -17.06 47.01 2.14 15.78c0.97,7.21 -0.79,13.76 -5.25,19.5l-26.9 34.65 -13.37 40.24c-0.86,2.61 -1.94,4.73 -3.54,6.96l-64.27 89.82 -2.21 18.69c-0.59,4.95 -2.28,9.07 -5.35,13l-7.16 9.17 0.11 0.53c1.66,7.03 0.58,13.65 -3.23,19.78l-12.04 19.34 0.5 2.16c1.05,4.41 0.98,8.4 -0.2,12.77l-3.81 14.17 14.86 39.87c1.43,3.86 1.95,7.81 1.61,11.62 3.23,2.8 5.64,6.28 7.14,10.06 0.43,-0.08 0.86,-0.15 1.3,-0.22 7.5,-1.18 14.4,0.67 20.32,5.41l10.34 8.28 14.47 -7.73c4.65,-2.48 9.49,-3.5 14.45,-3.03l13.36 -8.61c7.26,-4.68 15.55,-5.51 23.59,-2.37l32.65 12.72c4.37,1.7 7.74,4.14 10.71,7.77l1.74 2.12c5.3,-2.38 11.29,-2.88 17.31,-1.28 7.21,1.91 12.9,6.42 16.23,12.65 6.27,-1.72 12.92,-0.98 19.02,2.27 6.41,3.43 10.85,8.91 12.75,15.5l12.85 6.06c6,2.83 10.46,7.58 12.89,13.25 0.33,0.16 0.64,0.34 0.96,0.53 3.93,-0.69 8.07,-0.45 12.18,0.78 9.73,2.93 16.52,10.62 18.2,20.65l0.32 1.83c3.26,1.09 6.36,2.85 9.08,5.27l17.77 15.83c6.94,6.17 9.96,14.94 8.39,23.83l10.75 1.61c8.42,1.25 15.13,5.97 19.15,13.49 2.18,4.07 3.24,8.35 3.18,12.64 5.32,3.43 9.23,8.75 10.9,15.13 4.01,-0.67 8.22,-0.4 12.36,0.92 10.1,3.2 16.97,11.71 18.05,22 5.17,3.31 9.08,8.46 10.91,14.79l9.23 32.09 7.21 4.81 84.66 -14.13c8.28,-1.39 15.99,0.94 22.13,6.68l6.3 5.91c9.18,-8.22 22.45,-8.97 32.5,-1.83l8.89 6.32c4.49,3.18 7.68,7.35 9.43,12.19l11.83 -0.99c1.9,-0.16 3.74,-0.13 5.54,0.09 1.72,-2.12 3.83,-3.99 6.29,-5.56l20.11 -12.91 0.87 -4.78c1.87,-10.34 9.21,-18.13 19.4,-20.66l21 -5.19 0.88 -7.41c1.51,-12.75 11.8,-22.36 24.63,-22.99l65.19 -3.21c6.91,-0.33 12.97,1.74 18.23,6.24l5.28 4.51 20.25 -3.98c12.17,-2.4 24.04,3.84 28.97,15.23l17.2 39.69 36.95 21.04c6.09,3.46 10.29,8.78 12.13,15.11l3.26 0.87 13.19 -12.35c6.05,-5.66 13.62,-8 21.81,-6.74l20.76 3.21c11.89,1.83 20.76,11.17 21.97,23.15l0.21 2.08c2.6,0.24 5.15,0.9 7.74,2.02l38.26 16.35 22.86 -2.48c11.29,-1.21 21.64,4.62 26.44,14.91l2.66 5.72 15.03 1.61c10.96,1.19 19.6,8.61 22.42,19.26l2.5 9.43 9.09 3.54 13.17 -7.05c3.56,-1.9 7.35,-2.93 11.13,-3.12l2.3 -10.99c1.01,-4.84 3.04,-8.75 6.4,-12.38l8.92 -9.62 5.04 -45.46c1.16,-10.42 8.08,-18.78 17.73,-21.91 1.04,-10.55 8.46,-19.64 19.16,-22.53l7.87 -2.13c1.73,-8.86 7.38,-15.7 15.77,-19.1 7.3,-2.97 14.91,-2.63 21.65,0.88l1.74 -0.74c8.08,-3.43 16.6,-2.75 23.99,1.88 3.9,-1.07 8.08,-1.18 12.34,-0.29 6.16,1.29 11.32,4.47 14.98,9.09 3.24,-0.39 6.59,-0.16 9.97,0.74 7.09,1.86 12.71,6.24 16.07,12.3 3.87,0.7 7.38,2.28 10.72,4.79l50.11 37.59 39.12 -7.38c2.95,-0.56 5.54,-0.62 8.5,-0.2l40.44 5.74 3.49 -0.61 5.68 -7.62c4.01,-5.38 9.25,-8.7 15.84,-10l80.07 -15.83c3.78,-0.75 7.16,-0.69 10.92,0.18l149.7 34.53c1.15,0.22 2.29,0.49 3.44,0.86l50.41 15.93c3.5,1.11 6.31,2.67 9.1,5.05l17.37 14.85c12.94,-5.5 27.92,0.27 33.85,13.02l16.61 35.78 27.15 12.43 245.86 -9.28c8.6,-0.32 16.13,3.16 21.47,9.91 5.32,6.76 6.95,14.9 4.63,23.19l-8.88 31.76c-1.89,6.72 -5.83,11.86 -11.84,15.41l-26.75 15.83c-3.19,1.89 -6.26,2.94 -9.93,3.42l-89.2 11.6 -21.63 21.11 -4.92 15.65 34.14 155.22c0.53,2.36 0.7,4.42 0.59,6.83l-2.79 59.23 46.22 160.98c0.71,2.46 1.02,4.65 1.02,7.2l0 78.87 19.67 66.2c0.68,2.29 1.01,4.31 1.08,6.71l2.74 98.68 63.68 73.44 51.19 2.63c4.31,0.23 7.96,1.3 11.7,3.46l20.76 11.99 18.9 -49.49c1.93,-5.07 4.93,-8.92 9.37,-12.04l85.95 -60.42c2.41,-1.7 4.71,-2.81 7.53,-3.65l74.18 -22.14c3.87,-1.16 7.41,-1.41 11.41,-0.8l62.19 9.52c1.52,0.23 2.8,0.54 4.26,1.02l119.66 39.66 125.2 -9.14c3.5,-0.26 6.54,0.11 9.87,1.18l59.31 19.03c1.85,0.6 3.38,1.27 5.06,2.24l38.54 22.24c2.34,1.36 4.18,2.81 6.03,4.8l38.53 41.28c0.85,0.92 1.53,1.75 2.25,2.77l17.87 25.35c3.97,5.63 5.47,11.82 4.51,18.64l-8.89 63.52c-0.87,6.28 -3.58,11.41 -8.26,15.68l-55.08 50.16 -27.42 64.68c-3.45,8.15 -10.12,13.61 -18.81,15.38l-169.27 34.5 -14.88 87.19c-1.19,7.05 -4.72,12.68 -10.54,16.84l-40.63 29.04 -18.96 27.91 -16.61 53.41c-2.42,7.74 -7.66,13.42 -15.17,16.45l-64.3 25.89 -36.67 49.78 -2.37 11.31 19.49 25.47c2.77,3.63 4.36,7.35 5.06,11.86l4.78 30.92 19.13 23c1.32,1.58 2.28,3.05 3.21,4.87l17.77 34.98c3.11,6.11 3.71,12.43 1.82,19.03l-2.3 7.99 8.26 0c5.06,-0.36 9.89,0.72 14.17,3.11 2.54,1.39 4.83,3.22 6.82,5.48l17.47 18.7c5.38,5.76 7.73,12.84 6.86,20.67l-3.49 31.46 82.44 12.94c4.2,0.66 7.67,2.08 11.13,4.56l62.19 44.48c4.12,2.94 6.96,6.49 8.87,11.09l5.62 0c5.02,0 9.33,1.22 13.61,3.85l11.21 6.86 36.58 -9.82c7.89,-2.12 15.57,-0.68 22.17,4.15l49.52 36.24 41.79 0c5.01,0 9.31,1.22 13.59,3.82l34.43 21.02 36.21 -2.53c2.39,-0.16 4.44,-0.04 6.79,0.42l24.93 4.84 78.87 -32.05c4.41,-1.8 8.61,-2.33 13.32,-1.69l23.66 3.2c1.34,0.18 2.45,0.42 3.73,0.79l77.07 22.24c4.14,1.2 7.44,3.07 10.6,6.02l8.15 7.64 9.28 -6.63c4.93,-3.51 10.19,-5.07 16.24,-4.83l58.47 2.45 6.86 -11.77c1.31,-2.26 2.71,-4.02 4.6,-5.81l50.42 -47.69c2.76,-2.61 5.58,-4.35 9.16,-5.62l16.44 -5.87 1.37 -2.91c4.64,-9.86 14.29,-15.59 25.17,-14.93l53.31 3.2c5.61,0.34 10.34,2.16 14.74,5.68l23.76 19.04c4.49,3.6 7.49,8.16 8.89,13.38l35.58 10.64c1.58,0.48 2.9,1 4.37,1.76l59.01 30.08 61.67 11.91c8.17,1.58 14.53,6.37 18.31,13.79l53.72 105.67 3.12 6.75 24.39 18.3c5.64,4.23 9.03,9.84 10.12,16.8l2.81 17.87 2.45 10.42 15.6 5.01c12.34,3.95 19.81,16.09 17.8,28.89l-1.02 6.47 41.73 44.71c1.01,1.07 1.92,2.21 2.71,3.38 4.56,3.41 7.69,8.05 9.25,13.71l4.5 1.63c6.8,2.45 11.77,7.01 14.81,13.57 0.48,1.05 0.9,2.12 1.25,3.18l9.88 0.82c10.81,0.9 19.53,7.89 22.75,18.25l8.89 28.55c0.39,1.25 0.68,2.5 0.88,3.77 3.41,2.83 5.91,6.42 7.54,10.82l0.7 1.9 3.14 0.56c7.89,1.42 14.1,5.83 18.06,12.79l3.76 6.64 22.4 6.55c3.16,0.93 5.71,2.2 8.34,4.17l19.87 14.91 1.65 -0.39 3.93 -9.74c4.21,-10.43 14.07,-16.77 25.31,-16.29l59.39 2.57c3.47,-2.85 7.7,-4.73 12.47,-5.48 8.83,-1.4 17.06,1.43 23.15,7.96l23.14 24.78 70.58 8.39c2.4,0.28 4.42,0.81 6.66,1.7l23.66 9.52c2.81,1.13 5.28,2.61 7.41,4.44 4.24,-0.12 8.46,0.85 12.37,2.87l16.49 -7.08c6.84,-2.93 13.8,-2.92 20.62,0.03l14.88 6.42c8.65,3.73 14.26,11.13 15.51,20.46l0.07 0.5c4.05,2.59 7.43,6.32 9.61,10.98l5.2 11.18 10.13 5.41c8.7,4.66 13.77,13.13 13.77,23l0 8.09c5.57,2.6 10.07,7.19 12.7,13.23 1.1,2.51 1.79,5.08 2.08,7.65l0.98 0.69c6.44,4.62 10.25,11.53 10.86,18.94l3.24 -1.73c11.88,-6.3 26.45,-2.63 33.93,8.54l7.13 10.67 3.83 0c3.67,0 6.82,0.64 10.2,2.08l13.47 5.74c1.84,-0.65 3.79,-1.1 5.83,-1.33 9.3,-1.09 17.83,2.46 23.58,9.84l14.88 19.03c5.14,6.58 6.78,14.41 4.73,22.49l-2.19 8.6c2.59,3.08 4.38,6.73 5.34,10.95l2.9 12.72c0.85,3.76 0.86,7.51 0.13,11.06l5.16 6.72 4.9 0c8.83,0 16.43,3.97 21.45,11.23 5.03,7.26 6.08,15.76 2.97,24.03l-0.65 1.73 7.98 9.6 15.36 2.77 17.79 -12.72c9.24,-6.62 21.12,-6.61 30.36,0l7.73 5.53c13.53,-3.62 27.51,4.09 31.66,17.48l1.23 3.97c2.3,0.23 4.6,0.77 6.86,1.64l41.53 15.94c7.66,2.93 13.18,9.04 15.52,16.33 1.29,-0.55 2.64,-1.03 4.08,-1.4l11.88 -3.1c11.52,-3 23.21,1.89 29.15,12.16l17.41 -3.08c4.77,-0.84 9.46,-0.36 13.69,1.21 2.41,-4.82 6.35,-8.84 11.5,-11.47 9.89,-5.07 21.32,-3.52 29.52,3.98l17.06 15.64c1.25,-0.16 2.54,-0.25 3.85,-0.25l2.11 0 6.94 -8.95c5.05,-6.51 12.11,-10.01 20.36,-10.09 8.24,-0.08 15.36,3.29 20.54,9.71l11.77 14.57 8.2 1.48c10.24,1.85 18.05,9.17 20.59,18.97l1.34 -0.16c10.31,-1.23 19.8,3.33 25.27,12.15l10.12 16.32 6.23 0c9.61,0 17.85,4.79 22.64,13.12l23.66 41.28c3.4,5.94 4.33,12.2 2.77,18.87l-0.42 1.82c5.47,2.22 9.68,5.99 12.65,11.31l8.72 15.58c2.77,0.53 5.48,1.56 8.1,3.06 6.88,3.92 11.24,10.03 12.71,17.8l1.67 8.88 12.83 14.73c1.76,-1.01 3.65,-1.83 5.69,-2.45l20.76 -6.31c7.99,-2.42 15.89,-1.14 22.7,3.7l17.77 12.62c5.97,4.23 9.62,10.15 10.67,17.2l10.05 -2.25c7.28,-1.62 14.14,-0.32 20.31,3.85l56.3 38.07c7.06,4.77 11.15,12.25 11.5,20.28 3.87,1.81 7.16,4.57 9.77,8.22 10.17,-6.86 23.88,-5.74 32.84,3.07l27.14 26.7 32.75 -2.36c9.5,-0.68 17.99,3.4 23.37,11.24 4.35,6.33 5.69,13.66 3.93,20.77 6.16,-1.06 12.09,0.07 17.62,3.39 5.72,3.42 9.58,8.31 11.48,14.52 3.57,-4.1 8.23,-6.84 13.84,-8.09 7.5,-1.69 14.62,-0.24 20.89,4.24l17.77 12.72c7.52,5.39 11.43,13.61 10.85,22.85 -0.12,1.76 -0.39,3.47 -0.8,5.1 7.56,-2.28 15.18,-1.15 21.86,3.3l71.46 47.57 32.94 -22.07c9.72,-6.51 22.08,-5.9 31.1,1.54l29.75 24.51 12.46 -1.67c7.2,-0.98 13.76,0.79 19.46,5.22l6.15 -2.64 7.67 -16.36c5.5,-11.74 18.5,-17.6 30.94,-13.97l16.38 4.8c3.57,-1.8 7.6,-2.76 11.89,-2.75 9.47,0.02 17.69,4.75 22.37,12.74l36.89 0.01c10.89,0 20.18,6.29 24.22,16.41l4.51 11.3 5.93 2.12 20.22 -8.68c9.29,-3.98 19.36,-2.48 27.09,4.03l29.56 24.89 9.22 -3.7c7.74,-3.11 15.7,-2.51 22.89,1.71 7.19,4.21 11.61,10.86 12.68,19.13l1.9 14.55 8.41 -2.46 10 -10.65c9.76,-10.4 26.13,-11 36.64,-1.37l20.66 18.93 20.19 -8.08c12.81,-5.14 27.35,0.56 33.26,13.01l1.98 4.15 8.09 11.19 5.65 -4.86c4.92,-4.24 10.5,-6.31 16.99,-6.32l11.9 -0.02c10.9,-0.02 20.22,6.28 24.26,16.41l1.19 2.95c4.16,0.74 8.11,2.55 11.67,5.4l11.88 9.52c9.82,7.87 12.61,21.29 6.83,32.38l17.15 18.37 38.11 -2.43c9.11,-0.57 17.21,3.2 22.63,10.54l11.78 15.93c3.46,4.69 5.11,9.69 5.11,15.51l0 8.76 7.86 8.41c1.17,1.26 2.21,2.61 3.09,4.01l18.66 -7.37c10.18,-4.02 21.2,-1.53 28.65,6.46l11.19 11.99 42.47 -7.18c1.5,-0.26 2.8,-0.37 4.33,-0.37l11.89 -0.01c8.8,-0.01 16.37,3.94 21.4,11.15l8.89 12.72c4.31,6.16 5.7,13.09 4.12,20.43l-3.03 14.05c4.34,1.28 8.08,3.64 11.34,7.12l22.63 24.17 0.53 -0.11c12.99,-2.71 25.78,4.62 30.03,17.19l7.73 22.9 29.82 10.67c8.52,-7.87 21.57,-9.33 31.76,-2.81l2.7 1.74 7.98 -3.79 11.06 -14.23c6.11,-7.86 15.43,-11.43 25.23,-9.66l17.77 3.2c4.5,0.81 8.17,2.49 11.73,5.35l5.53 4.44c5.72,-3.59 12.52,-4.73 19.48,-3.13 8.4,1.92 14.87,7.34 18.13,15.08l21.1 8.15c6.79,2.63 11.69,7.35 14.56,14.04l12.92 30.09 17.17 5.02 55.54 0.01c7.5,0 13.94,2.8 19.05,8.26l34.82 37.21 3.79 -0.68c5.7,-1.02 10.87,-0.3 16.07,2.23l26.01 12.69 25.19 -2.47c3.29,-0.33 6.15,-0.09 9.35,0.77l11.88 3.2c11.54,3.12 19.29,13.24 19.29,25.19l0 1.43 38.24 24.09c3.66,2.3 6.56,5.28 8.63,8.73 10.62,-0.54 20.27,5.22 24.86,15.03l0.78 1.68c6.06,1.58 11.5,5.38 15.19,11.03l20.76 31.75c2.9,4.43 4.25,8.98 4.25,14.27l0 21.25 4.3 1.14c8.14,2.18 14.23,7.54 17.41,15.34l17.64 43.15 7.92 5.06c6.74,4.32 10.82,10.76 11.81,18.72 0.97,7.68 -1.18,14.7 -6.25,20.45l0.23 -0.09c11.14,-4.53 23.52,-1.07 30.71,8.59l11.87 15.94c1.88,2.5 3.25,5.18 4.12,7.98l11.5 -2.19c7.9,-1.51 15.32,0.39 21.52,5.52 6.21,5.13 9.46,12.05 9.46,20.1l0 42.7 63.59 25.22c6.07,2.41 10.51,6.42 13.52,12.2l12 23.02 12.7 9.09c4.81,3.45 7.96,7.8 9.72,13.46l8.89 28.55c4.07,13.11 -2.65,27.08 -15.44,32.06l-26.54 10.34 -22.68 26.52 -1.81 26.88 74.99 110.08c1.24,1.82 2.11,3.5 2.88,5.56l17.77 47.59c0.94,2.52 1.43,4.79 1.6,7.48l3 47.7c0.23,3.57 -0.19,6.66 -1.34,10.05l-11.88 34.86c-2.35,6.91 -6.87,11.99 -13.46,15.13l-26.66 12.72c-4.89,2.34 -9.71,3.06 -15.08,2.26l-20.76 -3.1c-4.12,-0.61 -7.53,-1.96 -10.96,-4.33l-32.68 -22.54 -3.94 0.71 -26.24 12.02 -6.41 34.39c-0.31,1.7 -0.72,3.12 -1.35,4.73l-53.4 136.56c-1.73,4.44 -4.23,7.84 -7.94,10.83l-18.95 15.24 -30.98 66.29 -5.58 87.16c-0.32,5 -1.8,9.21 -4.67,13.32l-13.05 18.6 0 7.87 38.48 46.78c6.78,8.24 7.92,19.1 3.01,28.58l-24.4 47.09 10.16 28.21 25.29 42.1c1.9,3.16 2.98,6.2 3.48,9.85l11.88 85.76c0.22,1.57 0.29,2.91 0.23,4.49l-2.78 79.66 47.89 105.64c2.14,4.73 2.8,9.32 2.07,14.45l-5.89 41.28c-0.31,2.2 -0.81,4.05 -1.64,6.11l-44.41 109.73 0.65 2.76 34.81 87.17c1.42,3.55 1.99,6.85 1.85,10.66l-2.89 76.25c-0.18,4.61 -1.35,8.53 -3.73,12.49l-24.09 39.94 -1.24 8.25 17.95 60.41 21.41 31.64c3.51,5.19 4.94,10.74 4.37,16.98l-2.9 31.76c-0.26,2.94 -0.91,5.41 -2.09,8.11l-67.87 154.65 -46.78 134.73 -26.42 97.51c-0.58,2.16 -1.31,3.95 -2.41,5.9l-26.65 47.69c-1.55,2.79 -3.3,4.93 -5.7,7.01l-77.53 67.12 -65.29 53.9c-2.01,1.65 -3.93,2.82 -6.32,3.85l-59.3 25.46c-0.91,0.38 -1.7,0.68 -2.65,0.97l-41.53 12.72c-1.21,0.36 -2.26,0.61 -3.51,0.82l-176.67 28.36 -135.41 33.99 -57.36 29.24 -51.74 40.88z"/>
  <g id="Amambai">
   <path class="fil1" d="M12027.91 21269.84c0,-79.98 98.13,-139.47 173.04,-71.57 25.61,23.22 39.39,74.62 20.42,112.83 -5.5,11.07 -12.2,21.25 -20.42,30.32 -2.7,2.97 -10.42,8.71 -14.15,11.21 -5.84,3.93 -9.92,6.1 -16.17,9.2 -42.53,21.13 -98.29,3.96 -124.04,-34.56 -10.46,-15.65 -18.68,-36.58 -18.68,-57.43zm99.88 301.25c14.02,0 14.65,-2.71 24.86,-8.44l85.67 -57.03 32.86 -30.56c17.06,-14.26 51.66,-60.89 62.21,-80.48 43.07,-80.01 45.37,-170.42 -1.37,-248.1 -25.96,-43.16 -65.01,-74.92 -110.68,-95.43l-36.07 -11.5c-70.53,-15.03 -139.97,-2.95 -197.23,39.81 -6.67,4.98 -11.01,9.12 -17.45,14.26 -5.94,4.75 -11.14,10.22 -15.62,16.09 -10.12,13.26 -14.97,14.58 -27.64,35.78 -8.23,13.78 -14.97,26.46 -20.5,42.91 -3.11,9.23 -5.22,13.62 -7.68,24.03 -1.95,8.26 -3.26,17.1 -4.71,27.01 -2.23,15.24 -3.1,41.56 -0.67,58.31 5.96,41.08 15.28,65.47 31.06,95.78 2.1,4.05 3.47,5.71 5.82,10.04 2.33,4.3 3.15,6.07 5.96,9.9 28.45,38.77 26.12,35.82 58.41,68.43 30.52,30.83 72.11,59.79 110.05,80.2 7.29,3.91 12.21,8.99 22.72,8.99z"/>
   <path class="fil1" d="M11858.26 21574.26c0,78.68 110.97,118 176.43,127.98 81.38,12.41 191.7,11.35 267.99,-21.27 32.98,-14.11 68.82,-34.83 86.67,-65.54 14.8,-25.47 14.7,-58.04 -0.6,-83.34 -7.37,-12.19 -15.97,-20.03 -25.88,-29.61 -24.46,-23.64 -62.26,-14.16 -62.26,24.21 0,25.38 34.32,31.5 30.81,49.87 -2.72,14.2 -32.59,30.75 -45.6,36.82 -79.66,37.13 -233.2,37.14 -312.89,0 -13.26,-6.19 -42.8,-22.2 -45.59,-36.82 -3.74,-19.54 30.81,-21.48 30.81,-53.04 0,-9.66 -2.03,-14.69 -6.77,-20.19 -14.18,-16.45 -34.19,-17.81 -46.72,-7.92 -2.69,2.12 -5.21,4.13 -7.88,6.38 -21.37,17.99 -38.52,41.54 -38.52,72.47z"/>
  </g>
  <g id="Aral-Moreira">
   <path class="fil1" d="M10728.92 20174.02c0,-79.98 98.13,-139.47 173.04,-71.57 25.61,23.22 39.39,74.62 20.42,112.83 -5.5,11.07 -12.2,21.25 -20.42,30.32 -2.7,2.97 -10.42,8.71 -14.15,11.21 -5.84,3.93 -9.92,6.1 -16.17,9.2 -42.53,21.13 -98.29,3.96 -124.04,-34.56 -10.46,-15.65 -18.68,-36.58 -18.68,-57.43zm99.88 301.25c14.02,0 14.65,-2.71 24.86,-8.44l85.67 -57.03 32.86 -30.56c17.06,-14.26 51.66,-60.89 62.21,-80.48 43.07,-80.01 45.37,-170.42 -1.37,-248.1 -25.96,-43.16 -65.01,-74.92 -110.68,-95.43l-36.07 -11.5c-70.53,-15.03 -139.97,-2.95 -197.23,39.81 -6.67,4.98 -11.01,9.12 -17.45,14.26 -5.94,4.75 -11.14,10.22 -15.62,16.09 -10.12,13.26 -14.97,14.58 -27.64,35.78 -8.23,13.78 -14.97,26.46 -20.5,42.91 -3.11,9.23 -5.22,13.62 -7.68,24.03 -1.95,8.26 -3.26,17.1 -4.71,27.01 -2.23,15.24 -3.1,41.56 -0.67,58.31 5.96,41.08 15.28,65.47 31.06,95.78 2.1,4.05 3.47,5.71 5.82,10.04 2.33,4.3 3.15,6.07 5.96,9.9 28.45,38.77 26.12,35.82 58.41,68.43 30.52,30.83 72.11,59.79 110.05,80.2 7.29,3.91 12.21,8.99 22.72,8.99z"/>
   <path class="fil1" d="M10559.27 20478.44c0,78.68 110.97,118 176.43,127.98 81.38,12.41 191.7,11.35 267.99,-21.27 32.98,-14.11 68.82,-34.83 86.67,-65.54 14.8,-25.47 14.7,-58.04 -0.6,-83.34 -7.37,-12.19 -15.97,-20.03 -25.88,-29.61 -24.46,-23.64 -62.26,-14.16 -62.26,24.21 0,25.38 34.32,31.5 30.81,49.87 -2.72,14.2 -32.59,30.75 -45.6,36.82 -79.66,37.13 -233.2,37.14 -312.89,0 -13.26,-6.19 -42.8,-22.2 -45.59,-36.82 -3.74,-19.54 30.81,-21.48 30.81,-53.04 0,-9.66 -2.03,-14.69 -6.77,-20.19 -14.18,-16.45 -34.19,-17.81 -46.72,-7.92 -2.69,2.12 -5.21,4.13 -7.88,6.38 -21.37,17.99 -38.52,41.54 -38.52,72.47z"/>
  </g>
  <g id="Laguna">
   <path class="fil1" d="M11411.55 19374.98c0,-79.98 98.13,-139.47 173.04,-71.57 25.61,23.22 39.39,74.62 20.42,112.83 -5.5,11.07 -12.2,21.25 -20.42,30.32 -2.7,2.97 -10.42,8.71 -14.15,11.21 -5.84,3.93 -9.92,6.1 -16.17,9.2 -42.53,21.13 -98.29,3.96 -124.04,-34.56 -10.46,-15.65 -18.68,-36.58 -18.68,-57.43zm99.88 301.25c14.02,0 14.65,-2.71 24.86,-8.44l85.67 -57.03 32.86 -30.56c17.06,-14.26 51.66,-60.89 62.21,-80.48 43.07,-80.01 45.37,-170.42 -1.37,-248.1 -25.96,-43.16 -65.01,-74.92 -110.68,-95.43l-36.07 -11.5c-70.53,-15.03 -139.97,-2.95 -197.23,39.81 -6.67,4.98 -11.01,9.12 -17.45,14.26 -5.94,4.75 -11.14,10.22 -15.62,16.09 -10.12,13.26 -14.97,14.58 -27.64,35.78 -8.23,13.78 -14.97,26.46 -20.5,42.91 -3.11,9.23 -5.22,13.62 -7.68,24.03 -1.95,8.26 -3.26,17.1 -4.71,27.01 -2.23,15.24 -3.1,41.56 -0.67,58.31 5.96,41.08 15.28,65.47 31.06,95.78 2.1,4.05 3.47,5.71 5.82,10.04 2.33,4.3 3.15,6.07 5.96,9.9 28.45,38.77 26.12,35.82 58.41,68.43 30.52,30.83 72.11,59.79 110.05,80.2 7.29,3.91 12.21,8.99 22.72,8.99z"/>
   <path class="fil1" d="M11241.9 19679.4c0,78.68 110.97,118 176.43,127.98 81.38,12.41 191.7,11.35 267.99,-21.27 32.98,-14.11 68.82,-34.83 86.67,-65.54 14.8,-25.47 14.7,-58.04 -0.6,-83.34 -7.37,-12.19 -15.97,-20.03 -25.88,-29.61 -24.46,-23.64 -62.26,-14.16 -62.26,24.21 0,25.38 34.32,31.5 30.81,49.87 -2.72,14.2 -32.59,30.75 -45.6,36.82 -79.66,37.13 -233.2,37.14 -312.89,0 -13.26,-6.19 -42.8,-22.2 -45.59,-36.82 -3.74,-19.54 30.81,-21.48 30.81,-53.04 0,-9.66 -2.03,-14.69 -6.77,-20.19 -14.18,-16.45 -34.19,-17.81 -46.72,-7.92 -2.69,2.12 -5.21,4.13 -7.88,6.38 -21.37,17.99 -38.52,41.54 -38.52,72.47z"/>
  </g>
  <g id="Ponta-Pora">
   <path class="fil1" d="M10301.73 18585.48c0,-79.98 98.13,-139.47 173.04,-71.57 25.61,23.22 39.39,74.62 20.42,112.83 -5.5,11.07 -12.2,21.25 -20.42,30.32 -2.7,2.97 -10.42,8.71 -14.15,11.21 -5.84,3.93 -9.92,6.1 -16.17,9.2 -42.53,21.13 -98.29,3.96 -124.04,-34.56 -10.46,-15.65 -18.68,-36.58 -18.68,-57.43zm99.88 301.25c14.02,0 14.65,-2.71 24.86,-8.44l85.67 -57.03 32.86 -30.56c17.06,-14.26 51.66,-60.89 62.21,-80.48 43.07,-80.01 45.37,-170.42 -1.37,-248.1 -25.96,-43.16 -65.01,-74.92 -110.68,-95.43l-36.07 -11.5c-70.53,-15.03 -139.97,-2.95 -197.23,39.81 -6.67,4.98 -11.01,9.12 -17.45,14.26 -5.94,4.75 -11.14,10.22 -15.62,16.09 -10.12,13.26 -14.97,14.58 -27.64,35.78 -8.23,13.78 -14.97,26.46 -20.5,42.91 -3.11,9.23 -5.22,13.62 -7.68,24.03 -1.95,8.26 -3.26,17.1 -4.71,27.01 -2.23,15.24 -3.1,41.56 -0.67,58.31 5.96,41.08 15.28,65.47 31.06,95.78 2.1,4.05 3.47,5.71 5.82,10.04 2.33,4.3 3.15,6.07 5.96,9.9 28.45,38.77 26.12,35.82 58.41,68.43 30.52,30.83 72.11,59.79 110.05,80.2 7.29,3.91 12.21,8.99 22.72,8.99z"/>
   <path class="fil1" d="M10132.08 18889.9c0,78.68 110.97,118 176.43,127.98 81.38,12.41 191.7,11.35 267.99,-21.27 32.98,-14.11 68.82,-34.83 86.67,-65.54 14.8,-25.47 14.7,-58.04 -0.6,-83.34 -7.37,-12.19 -15.97,-20.03 -25.88,-29.61 -24.46,-23.64 -62.26,-14.16 -62.26,24.21 0,25.38 34.32,31.5 30.81,49.87 -2.72,14.2 -32.59,30.75 -45.6,36.82 -79.66,37.13 -233.2,37.14 -312.89,0 -13.26,-6.19 -42.8,-22.2 -45.59,-36.82 -3.74,-19.54 30.81,-21.48 30.81,-53.04 0,-9.66 -2.03,-14.69 -6.77,-20.19 -14.18,-16.45 -34.19,-17.81 -46.72,-7.92 -2.69,2.12 -5.21,4.13 -7.88,6.38 -21.37,17.99 -38.52,41.54 -38.52,72.47z"/>
  </g>
  <g id="Dourados">
   <path class="fil1" d="M13440.09 17740.74c0,-79.98 98.13,-139.47 173.04,-71.57 25.61,23.22 39.39,74.62 20.42,112.83 -5.5,11.07 -12.2,21.25 -20.42,30.32 -2.7,2.97 -10.42,8.71 -14.15,11.21 -5.84,3.93 -9.92,6.1 -16.17,9.2 -42.53,21.13 -98.29,3.96 -124.04,-34.56 -10.46,-15.65 -18.68,-36.58 -18.68,-57.43zm99.88 301.25c14.02,0 14.65,-2.71 24.86,-8.44l85.67 -57.03 32.86 -30.56c17.06,-14.26 51.66,-60.89 62.21,-80.48 43.07,-80.01 45.37,-170.42 -1.37,-248.1 -25.96,-43.16 -65.01,-74.92 -110.68,-95.43l-36.07 -11.5c-70.53,-15.03 -139.97,-2.95 -197.23,39.81 -6.67,4.98 -11.01,9.12 -17.45,14.26 -5.94,4.75 -11.14,10.22 -15.62,16.09 -10.12,13.26 -14.97,14.58 -27.64,35.78 -8.23,13.78 -14.97,26.46 -20.5,42.91 -3.11,9.23 -5.22,13.62 -7.68,24.03 -1.95,8.26 -3.26,17.1 -4.71,27.01 -2.23,15.24 -3.1,41.56 -0.67,58.31 5.96,41.08 15.28,65.47 31.06,95.78 2.1,4.05 3.47,5.71 5.82,10.04 2.33,4.3 3.15,6.07 5.96,9.9 28.45,38.77 26.12,35.82 58.41,68.43 30.52,30.83 72.11,59.79 110.05,80.2 7.29,3.91 12.21,8.99 22.72,8.99z"/>
   <path class="fil1" d="M13270.44 18045.16c0,78.68 110.97,118 176.43,127.98 81.38,12.41 191.7,11.35 267.99,-21.27 32.98,-14.11 68.82,-34.83 86.67,-65.54 14.8,-25.47 14.7,-58.04 -0.6,-83.34 -7.37,-12.19 -15.97,-20.03 -25.88,-29.61 -24.46,-23.64 -62.26,-14.16 -62.26,24.21 0,25.38 34.32,31.5 30.81,49.87 -2.72,14.2 -32.59,30.75 -45.6,36.82 -79.66,37.13 -233.2,37.14 -312.89,0 -13.26,-6.19 -42.8,-22.2 -45.59,-36.82 -3.74,-19.54 30.81,-21.48 30.81,-53.04 0,-9.66 -2.03,-14.69 -6.77,-20.19 -14.18,-16.45 -34.19,-17.81 -46.72,-7.92 -2.69,2.12 -5.21,4.13 -7.88,6.38 -21.37,17.99 -38.52,41.54 -38.52,72.47z"/>
  </g>
  <g id="Ribas-do-Rio-Pardo">
   <path class="fil1" d="M15484.68 13615.79c0,-79.98 98.13,-139.47 173.04,-71.57 25.61,23.22 39.39,74.62 20.42,112.83 -5.5,11.07 -12.2,21.25 -20.42,30.32 -2.7,2.97 -10.42,8.71 -14.15,11.21 -5.84,3.93 -9.92,6.1 -16.17,9.2 -42.53,21.13 -98.29,3.96 -124.04,-34.56 -10.46,-15.65 -18.68,-36.58 -18.68,-57.43zm99.88 301.25c14.02,0 14.65,-2.71 24.86,-8.44l85.67 -57.03 32.86 -30.56c17.06,-14.26 51.66,-60.89 62.21,-80.48 43.07,-80.01 45.37,-170.42 -1.37,-248.1 -25.96,-43.16 -65.01,-74.92 -110.68,-95.43l-36.07 -11.5c-70.53,-15.03 -139.97,-2.95 -197.23,39.81 -6.67,4.98 -11.01,9.12 -17.45,14.26 -5.94,4.75 -11.14,10.22 -15.62,16.09 -10.12,13.26 -14.97,14.58 -27.64,35.78 -8.23,13.78 -14.97,26.46 -20.5,42.91 -3.11,9.23 -5.22,13.62 -7.68,24.03 -1.95,8.26 -3.26,17.1 -4.71,27.01 -2.23,15.24 -3.1,41.56 -0.67,58.31 5.96,41.08 15.28,65.47 31.06,95.78 2.1,4.05 3.47,5.71 5.82,10.04 2.33,4.3 3.15,6.07 5.96,9.9 28.45,38.77 26.12,35.82 58.41,68.43 30.52,30.83 72.11,59.79 110.05,80.2 7.29,3.91 12.21,8.99 22.72,8.99z"/>
   <path class="fil1" d="M15315.03 13920.21c0,78.68 110.97,118 176.43,127.98 81.38,12.41 191.7,11.35 267.99,-21.27 32.98,-14.11 68.82,-34.83 86.67,-65.54 14.8,-25.47 14.7,-58.04 -0.6,-83.34 -7.37,-12.19 -15.97,-20.03 -25.88,-29.61 -24.46,-23.64 -62.26,-14.16 -62.26,24.21 0,25.38 34.32,31.5 30.81,49.87 -2.72,14.2 -32.59,30.75 -45.6,36.82 -79.66,37.13 -233.2,37.14 -312.89,0 -13.26,-6.19 -42.8,-22.2 -45.59,-36.82 -3.74,-19.54 30.81,-21.48 30.81,-53.04 0,-9.66 -2.03,-14.69 -6.77,-20.19 -14.18,-16.45 -34.19,-17.81 -46.72,-7.92 -2.69,2.12 -5.21,4.13 -7.88,6.38 -21.37,17.99 -38.52,41.54 -38.52,72.47z"/>
  </g>
  <g id="Jaraquari">
   <path class="fil1" d="M13846.28 12773.76c0,-79.98 98.13,-139.47 173.04,-71.57 25.61,23.22 39.39,74.62 20.42,112.83 -5.5,11.07 -12.2,21.25 -20.42,30.32 -2.7,2.97 -10.42,8.71 -14.15,11.21 -5.84,3.93 -9.92,6.1 -16.17,9.2 -42.53,21.13 -98.29,3.96 -124.04,-34.56 -10.46,-15.65 -18.68,-36.58 -18.68,-57.43zm99.88 301.25c14.02,0 14.65,-2.71 24.86,-8.44l85.67 -57.03 32.86 -30.56c17.06,-14.26 51.66,-60.89 62.21,-80.48 43.07,-80.01 45.37,-170.42 -1.37,-248.1 -25.96,-43.16 -65.01,-74.92 -110.68,-95.43l-36.07 -11.5c-70.53,-15.03 -139.97,-2.95 -197.23,39.81 -6.67,4.98 -11.01,9.12 -17.45,14.26 -5.94,4.75 -11.14,10.22 -15.62,16.09 -10.12,13.26 -14.97,14.58 -27.64,35.78 -8.23,13.78 -14.97,26.46 -20.5,42.91 -3.11,9.23 -5.22,13.62 -7.68,24.03 -1.95,8.26 -3.26,17.1 -4.71,27.01 -2.23,15.24 -3.1,41.56 -0.67,58.31 5.96,41.08 15.28,65.47 31.06,95.78 2.1,4.05 3.47,5.71 5.82,10.04 2.33,4.3 3.15,6.07 5.96,9.9 28.45,38.77 26.12,35.82 58.41,68.43 30.52,30.83 72.11,59.79 110.05,80.2 7.29,3.91 12.21,8.99 22.72,8.99z"/>
   <path class="fil1" d="M13676.63 13078.18c0,78.68 110.97,118 176.43,127.98 81.38,12.41 191.7,11.35 267.99,-21.27 32.98,-14.11 68.82,-34.83 86.67,-65.54 14.8,-25.47 14.7,-58.04 -0.6,-83.34 -7.37,-12.19 -15.97,-20.03 -25.88,-29.61 -24.46,-23.64 -62.26,-14.16 -62.26,24.21 0,25.38 34.32,31.5 30.81,49.87 -2.72,14.2 -32.59,30.75 -45.6,36.82 -79.66,37.13 -233.2,37.14 -312.89,0 -13.26,-6.19 -42.8,-22.2 -45.59,-36.82 -3.74,-19.54 30.81,-21.48 30.81,-53.04 0,-9.66 -2.03,-14.69 -6.77,-20.19 -14.18,-16.45 -34.19,-17.81 -46.72,-7.92 -2.69,2.12 -5.21,4.13 -7.88,6.38 -21.37,17.99 -38.52,41.54 -38.52,72.47z"/>
  </g>
  <g id="Bandeirantes">
   <path class="fil1" d="M13950.96 11352.35c0,-79.98 98.13,-139.47 173.04,-71.57 25.61,23.22 39.39,74.62 20.42,112.83 -5.5,11.07 -12.2,21.25 -20.42,30.32 -2.7,2.97 -10.42,8.71 -14.15,11.21 -5.84,3.93 -9.92,6.1 -16.17,9.2 -42.53,21.13 -98.29,3.96 -124.04,-34.56 -10.46,-15.65 -18.68,-36.58 -18.68,-57.43zm99.88 301.25c14.02,0 14.65,-2.71 24.86,-8.44l85.67 -57.03 32.86 -30.56c17.06,-14.26 51.66,-60.89 62.21,-80.48 43.07,-80.01 45.37,-170.42 -1.37,-248.1 -25.96,-43.16 -65.01,-74.92 -110.68,-95.43l-36.07 -11.5c-70.53,-15.03 -139.97,-2.95 -197.23,39.81 -6.67,4.98 -11.01,9.12 -17.45,14.26 -5.94,4.75 -11.14,10.22 -15.62,16.09 -10.12,13.26 -14.97,14.58 -27.64,35.78 -8.23,13.78 -14.97,26.46 -20.5,42.91 -3.11,9.23 -5.22,13.62 -7.68,24.03 -1.95,8.26 -3.26,17.1 -4.71,27.01 -2.23,15.24 -3.1,41.56 -0.67,58.31 5.96,41.08 15.28,65.47 31.06,95.78 2.1,4.05 3.47,5.71 5.82,10.04 2.33,4.3 3.15,6.07 5.96,9.9 28.45,38.77 26.12,35.82 58.41,68.43 30.52,30.83 72.11,59.79 110.05,80.2 7.29,3.91 12.21,8.99 22.72,8.99z"/>
   <path class="fil1" d="M13781.31 11656.77c0,78.68 110.97,118 176.43,127.98 81.38,12.41 191.7,11.35 267.99,-21.27 32.98,-14.11 68.82,-34.83 86.67,-65.54 14.8,-25.47 14.7,-58.04 -0.6,-83.34 -7.37,-12.19 -15.97,-20.03 -25.88,-29.61 -24.46,-23.64 -62.26,-14.16 -62.26,24.21 0,25.38 34.32,31.5 30.81,49.87 -2.72,14.2 -32.59,30.75 -45.6,36.82 -79.66,37.13 -233.2,37.14 -312.89,0 -13.26,-6.19 -42.8,-22.2 -45.59,-36.82 -3.74,-19.54 30.81,-21.48 30.81,-53.04 0,-9.66 -2.03,-14.69 -6.77,-20.19 -14.18,-16.45 -34.19,-17.81 -46.72,-7.92 -2.69,2.12 -5.21,4.13 -7.88,6.38 -21.37,17.99 -38.52,41.54 -38.52,72.47z"/>
  </g>
 </g>
</svg>
