<?xml version="1.0" encoding="UTF-8"?>
<!DOCTYPE svg PUBLIC "-//W3C//DTD SVG 1.1//EN" "http://www.w3.org/Graphics/SVG/1.1/DTD/svg11.dtd">
<!-- Creator: CorelDRAW 2018 (64-Bit Evaluation Version) -->
<svg xmlns="http://www.w3.org/2000/svg" xml:space="preserve" width="180.036mm" height="196.452mm" version="1.1" shape-rendering="geometricPrecision" text-rendering="geometricPrecision" image-rendering="optimizeQuality" fill-rule="evenodd" clip-rule="evenodd"
viewBox="0 0 18003.56 19645.24"
 xmlns:xlink="http://www.w3.org/1999/xlink">
 <g id="Mato-Grosso-do-Sul">
  <metadata id="CorelCorpID_0Corel-Layer"/>
  <path id="MS" fill="gray" d="M16953.99 9093.53c-30.45,37.94 -31.86,68.79 -44.12,81.92l-29.58 31.69c-17.9,26.95 -61.97,164.72 -93.99,185.27l-93.19 63.41c-37.24,37.2 -127.59,240.91 -127.61,240.93 -77.5,78.68 -72.2,71.53 -168.27,145.03 -29.45,22.53 -47.74,42.2 -63.82,76.54 -16.32,34.87 -96.98,247.74 -91.39,286.67 2.21,15.43 37.89,53.32 25.5,76.51 -19.92,49.98 -26.18,141.47 -17.9,196.61 12.33,82.02 43.92,94.94 41.61,117.74 -12.17,120.19 1.64,94.42 -35.3,167.79l-117.44 81.08 -109.36 2.96c-29.31,11.27 -119.69,167.38 -129.86,200.96l-10.24 72.49c-11.54,26.78 -32.44,87.94 -47.96,95.69 -79.54,39.63 -9.93,14.38 -78.71,67.18l-122.64 20.91c-7.72,45.8 5.31,100.6 1.92,118.77 -9.8,52.42 -12.4,29.3 27.47,110.89 16.45,33.67 7.86,79.76 34.14,107.91 18.66,20 -9.05,67.63 -16.92,114.24 -4.24,25.1 -3.04,135.12 -31.08,163.33 -119.35,119.98 -92.94,73.7 -126.19,214.38l-26.14 82.01c-61.6,55.12 -42.77,30.28 -79.93,106.36 -16.14,33.06 -99.74,74.88 -115.49,71.1l-150.96 -32.42c-24.07,11.66 -75.72,119.47 -76.32,129.34 -2.31,37.92 77.23,75.14 83.88,103.68 38.34,164.75 48.09,55.54 48.09,186.96l-75.21 170.2 -61.74 80.98c-11.61,20.19 -81.9,27.85 -101.38,38.8l-42.17 37.2 -51.94 111.4c-0.05,0.17 -5.51,84.04 -25.01,103.75 -71.35,72.18 -82.95,76.18 -139.56,155.6 -11.15,15.65 -20.86,5 -38.91,29.07 -9,11.98 -30.47,13.11 -35.18,16.33l-75.6 92.56c-26.58,45.43 -79.82,299.32 -89.67,314.98l-86.98 134.37c-83.27,59.3 -42.26,63.44 -73.56,95.41l-123.99 126.18c-57.38,45.4 -45.53,27.08 -66.36,75.47l-57.64 43.97c-91.34,17.18 -57.23,23.53 -113.74,46.17 -82.99,33.24 -54.14,14.93 -119.13,77.17l-60.39 28.94 -86.52 69.4c-109.49,33 -72.43,12.36 -156.66,83.79l-57.19 25.15 -126.24 95.37 -99.64 100.57c-39.7,54.94 0.25,70.43 -124.94,116.9l-268.65 109.91c-8.81,8.48 -27.73,71.76 -47.42,80.21l-99.36 42.58 -59.2 57.68 -59.83 102.07c-8.31,30.61 17.33,58.68 4.26,77.58 -34.86,50.42 -207.6,309.11 -258.18,315.91l-91.52 12.27c-19.27,5.16 -269.7,108.16 -289.89,129.45 -13.9,14.67 -30.23,61.63 -51.04,67.22 -74.89,20.12 -54.06,9.54 -118.18,78.39l-56.03 30.09 -89.02 61.82c-53.37,23.12 -148.72,49.42 -168.96,105.78 -10.41,28.98 19.37,0.35 -34.27,70.31 -7.24,9.46 -66.71,31.26 -87.2,62.4 -26.78,53.24 4.67,20.87 -60.85,123.62 12.42,27.73 -7.34,308.14 -9.61,358.22 -0.84,18.48 -56.03,79.59 -58.48,88.63l-1.23 37.42 -63.96 111.98c-12.2,27.59 -88.3,285.6 -111.79,321.33 -11.2,17.04 -96.03,156.21 -113.66,162.68 -155.26,56.97 -107.48,39.03 -255.83,134l-154.64 77.15c-41.33,-1.86 -76.84,-15.06 -100.1,27.83l-50.83 139.3 -10.03 98.16c-48.13,136.94 -38.11,87.19 -51.95,231.89l-10.33 75.85c-22.17,32.41 -35.99,47.18 -43.19,91.32l-8.51 115.46c-59.01,116.37 -54.27,87.61 -71.57,220.21l-0.95 61.96c4.63,14.99 -9.36,39.02 -10,47.73l19.02 129.62c-53.01,173.57 -30.36,149.57 -129.03,275.22l-101.22 53.66 -201.71 158.31c-62.28,20.35 -50.82,10.7 -92.91,43.39 -29.1,22.6 -56.92,-29.82 -92.61,-74.07 -11.23,-13.94 1.49,-17.86 -28.5,-66.11l-2.36 -38.98c-47.33,-13.55 -63.92,13.19 -83.51,-7.79 -27.88,-29.87 -20.21,-27.34 -47.03,-38.08 -16.97,-6.8 -46.57,-66.15 -54.91,-72.93 -28.97,-23.59 -38.02,26.55 -76.27,-122.68 -14.96,-58.36 -11.62,-51.88 -121.88,-72.89l-33.56 -32.84c-15.31,10.74 -18,-1.24 -34.36,5.75 -22.99,9.83 -34.35,-12.66 -47.08,-29.66 -61.99,0 2.68,-21.1 -87.88,-0.64 -22.04,4.98 -48.85,-23.42 -29.35,-69.6l-26.09 -18.42c-19.85,37 -69.01,23.76 -75.77,4.46l-11.65 -33.33 -22.4 -10.56c-50.11,12.5 -47.41,12.59 -69.09,-33.99l-18.36 -3.94 -47.09 53.47c0,46.62 4.22,36.05 -20.41,67.57 -11.91,15.24 -81.15,18.11 -115.02,22.52 -15.32,1.99 -22.79,-6.83 -28.8,-18.12 -9.55,15.15 -23.59,12.03 -36.77,10.45 -14.24,19.05 -22.98,14.97 -44.33,10.78 -21.69,32.65 -27.72,12.29 -41.73,42.45 -12.13,26.11 -42.39,10.81 -71.81,2.51l-13.76 14.77c6.38,69.8 -27.78,42.56 -50.15,43.09 -17.43,0.42 -33.27,23.19 -57.95,-6.28 -4.63,24.9 -29.22,21.32 -46.79,21.31 -8.41,20.18 -7.84,22.96 -28.15,29.49 13.04,19.51 -4.16,33.38 -13.78,42.2 10.31,44.17 21.12,64.23 -27.89,69.34 -8.59,22.81 -36.4,22.63 -46.9,5.5 -49.29,7 -46.88,11.88 -70.26,-10 -23.84,14.23 -24.55,12.34 -49.65,-1.16 -99.68,83.22 -36,4.31 -103.58,70.05 -6.49,6.31 -15.43,8.63 -23.72,6.82 -31.77,42.62 -30.26,16.76 -111.48,-6.88 -19.91,-5.79 -18.56,-27.96 -33.04,-39.96 -10.72,16.08 -14.53,23.85 -34.84,27.82 -5.31,9.42 -66.12,42.34 -86,26.81 -27.47,12.21 -71.82,30.77 -82.67,0.95l-0.43 -0.03c-1.26,5.93 -20.32,39.45 -40.34,39.45 -125.76,0 -77.71,9.31 -146.84,-24.35l-38.59 -26.86c-19.6,-3.52 -28.5,-43.13 -79.9,-58.12 -41.21,79.86 -29.77,77.51 -69.75,91.95 -17.67,6.38 -109.56,-44.79 -114.14,-62.39 -35.4,18.97 -60.53,1.74 -65.93,-18.73 -15.5,0 -47.43,-23.19 -37.62,-70.18 -43.34,-9.38 -40.26,-19.67 -29.23,-58.33 -60.93,-37.28 -33.08,-34.13 -21.69,-78.74l7.91 -79.3 -8.43 -27.72c-1.94,-62.57 5.89,-92.64 -14.7,-105.9 -37.53,-24.17 29.89,-85.48 34.36,-109.54 1,-68.3 -54.94,-59.39 -28.2,-97.89 -12.91,-41.37 -11.42,-26.58 -0.23,-77.47 -25.66,0.97 -60.03,-43.08 -56.13,-68.16l7.16 -46.05c-24.82,-31.75 -31.59,31.32 -30.81,-99.43 -21.66,6.09 -31.44,-15.44 -32.67,-16.39 -7.79,-6.1 -41.28,-8.57 -48.8,-27.52 -40.57,14.45 -35.51,15.87 -67.4,-12.73 -19.04,-17.06 -1.12,-38.46 -0.26,-43.24 8.29,-46.12 -29.97,-48.5 18.19,-105.87 -4.33,-13.9 -10.1,-25.27 -1.03,-37.81 -38.98,-57.4 3.29,-28.82 -28.53,-90.41 -2.08,-4.03 -3.07,-8.13 -2.96,-12.39 -24.19,-15.75 0.11,-35.78 -24.94,-93.94 -31.36,-5.68 -53.87,-92.06 12.19,-86.13l0.35 -40.33c-12.88,-27.59 53.05,-95.24 71.02,-133.36l25.13 -78.14c-15.61,-27.92 -33.75,-9.95 -36.2,-38.67 -4.71,-54.95 -21.62,-65.34 -78.69,-108.45 -24.26,-18.33 2.81,-52.41 3.37,-66.41 0.61,-15.17 -32.21,-69.12 4.9,-91.16l51.41 -31.15c-18.3,-3.28 -39.72,-36.07 -25.13,-67.5 -21.88,-50.16 -33.84,-64.91 21.18,-76.83l13.28 -26.21c-55.82,-52.81 -47.68,-32.71 -44.72,-103.93 -69.39,-13.39 -1.86,-50.74 -98.65,-7.07 -53.81,24.28 -31.12,-77.84 -31.2,-78.75 -1.04,-12.25 -15.54,-32.34 -3.74,-49.07 -18.56,-69.5 -75.93,-85.24 -35.15,-120.17 -3.28,-55.77 -15.18,-46.79 -1.49,-70.96 -9.98,-31.87 -79,-27.15 -68.05,-67.37 6.42,-23.58 22.33,-57.48 15.06,-80.59 -5.81,-18.48 7.33,-27.16 18.03,-36.06 -12.69,-21.93 -34.24,-50.42 -30.47,-66.49 -36.13,-2.24 -20.05,-47.15 -20.06,-47.21 -2.72,-18.03 -27.76,-11.45 -0.31,-58.71 -21.52,-78.53 -9.63,-47.12 -7.79,-68.51 2.24,-26.09 -30.74,-22.31 -28.71,-50.37l-10.4 -71.83c-7.18,-19.92 13.84,-36.22 16.33,-44.88l3.9 -53.93c17.02,-27.49 -14.72,-26.28 14.64,-57.7 -10.9,-51.85 15.97,-39.57 32.51,-64.32 11.4,-17.03 -2.96,-29.48 32.06,-48.22 -2.16,-15.86 25.68,-37.81 29.4,-124.92 1.36,-45.63 -11.31,-31.82 6.78,-75.23 -17.05,-40.35 -13.68,-25.61 -8.1,-79.87 -30.12,-21.53 -16.25,-63.05 -26.4,-81.93l-91.45 -73.6c-22.14,-29.54 -9.65,5.81 -72.38,-61.39l-10.84 -44.86c-22.02,-10.73 -58.48,-23.87 -64.99,-38.43l-67.56 -156.73c0,-98.6 -23.14,-32.19 4.39,-113.3 6.39,-9.93 25.49,-6.66 28.05,-69.29 4.18,-102.51 -40.87,-54.22 -16.18,-113.58 -66.08,-20.89 -24.8,8.63 -72.21,-5.77 -39.16,25.05 -47.04,-22.57 -47.39,-23.09 -13.02,-19.85 -52.12,-19.72 -20.99,-66.25 -9.11,-25.89 -55.78,-9.25 -82.86,-103.17 -14.18,-85.99 -3.6,-70.96 -36.96,-103.93 -106.7,12.71 -82.77,20.27 -140.13,-5.04 -22.41,13.79 -15.36,-10.69 -58.03,6.84 -18.51,52.99 -40.44,25.96 -49.68,23.16 -25.28,-7.66 -11.31,25.48 -69.42,-26.3l-16.31 5.01c-20.97,44.89 -58.83,43.89 -72.96,8.61 -55.71,-7.45 -44.78,-1.33 -91.38,-22.08 -22.79,27.82 -22.45,28.8 -56.57,17.86 -27.56,22.11 -60.61,-12.14 -88.58,-32.07 -1.76,1.64 -3.69,2.99 -5.77,4.05 -14.68,54.65 -75.19,24.44 -75.32,24.44 -16.08,-0.26 -44.24,36.98 -83.25,-4.61 -12.26,5.29 -27.36,0.49 -33.74,-12.36 -7.28,2.85 -15.25,2.27 -22.12,-1.67 -37.49,13.58 -38.68,-21.2 -44.36,-28.78 -26.47,-35.34 -42.16,2.18 -53.01,-82.6 -34.51,5.54 -49.15,13.26 -65.19,-3.87 -37.17,24.68 -43.04,-46.3 -91.89,-59.29 -34.93,37.71 -47.01,-29.02 -80.79,-49.7 -15.32,-6.33 -33.25,-51.69 -33.7,-56.06 -3.4,-2.16 -6.2,-5.05 -8.23,-8.5 -43.94,-2.37 -46.26,-67.48 -51.99,-71.57 -16.41,-11.68 -15.19,-41.81 0.06,-64.79 -19.31,-41.51 -16.97,-9.5 -28.92,-50.26 -11.78,-40.24 -45.01,-27.05 -29.96,-82.72l-19.61 -2.24c-8.12,14.55 -20.83,22.25 -35.93,15.18 -13.56,10.44 -25.51,4.49 -36.49,-3.3 -27.16,12.43 -33.55,-1.82 -44.32,-0.6 -5.97,3.17 -12.52,3.91 -18.8,2.18 5.67,41.97 -60.22,27.09 -79.74,32.97 -2.81,18.65 -11.08,20.47 -27.54,29.21l-10.67 47.54c17.01,30.4 12.78,53.11 -14.87,53.11 -29.3,49.4 19.57,29.08 -62.29,70.75 13.11,65.53 -6.36,34.16 -6.36,61.97 0,14.38 -9.46,23.21 -23.4,26.09 -11.58,22.32 -15.07,36.1 -43.37,29.97l-56.69 33.04c6.03,32.45 -8.77,33.49 -58.79,71.37 -5.3,4.03 -11.56,5.8 -17.75,5.3 16.07,68.74 -52.54,47.43 -54.6,45.97l-26.76 -23.74c-27.26,0 -65.63,-27.74 -69.31,-41.59l-5.66 -21.19c-1.73,1.98 -3.7,3.62 -5.98,4.99 4.03,30.2 -23.02,31.83 -27.37,35.92 -6.63,6.24 -23.04,70.31 -57.76,45.58 -22.96,-16.36 -47.47,-27.65 -46.5,-47.68 -66.74,20.69 -32.41,67.5 -114.46,23.65l-5.65 27.23c18.11,48.41 10.93,47.33 -42.31,66.39 -14.22,30.32 -27.3,38.21 -70.7,46.04 -19.73,3.56 -28.25,-13.55 -41.38,-30.41 -28.01,12.6 -40.7,-25.06 -49,-32.27 -29.43,-25.6 -34.31,12.97 -29.11,-88.65l-4.29 2.12c0,35.45 0.1,39.81 -35.47,47.46 -24.58,5.29 -13.7,-8.87 -54.68,-34.6 -17.46,10.23 -73.59,19.88 -95.69,-39.16 -16.98,23.8 -77.19,5.9 -89.75,-24.37 -56.51,11.36 -34.8,16.86 -73.52,8.47 -21.79,16.35 -31.75,29.08 -54.29,13.05l-46.45 14.66c-14.02,20.06 -37.99,17.08 -47.81,10.25 -32.45,11.3 -82.96,-29.33 -79.07,-53.89l-26.38 -8.63c-17.66,12.02 -35.76,30 -54.99,12.1l-58.37 10.67c-34.01,18.22 -33.85,-24.05 -46.24,-39.19 -65.37,61.16 35.32,17.21 -97.02,80.95 -27.48,13.23 -47.23,-28.09 -58.54,-33.3 -21.8,-10.03 -67.82,11.6 -67.82,-41.19l-0.81 -0.65 -41.96 17.19c15.82,33.62 -38.38,56.29 -56.92,36.43 -24.63,-26.38 -11.48,-18.52 -58.73,-29.87 -13.65,11.6 -34.27,4.07 -42.61,-2.66 -36.83,15.82 -34.25,-3.64 -48.67,-17.13 -13.58,-12.71 -6.95,-27.64 -2.8,-45.43l-1.07 -0.71c-21.08,10.01 -32.08,-7.33 -38.72,-21.54l-20.92 -7c-32.45,34.61 -34.83,16.57 -80.76,-15.04 -17.84,18.33 -25.79,1.82 -64.49,-9.78 -23.17,17.81 -59.19,-1.21 -64.45,-14.63 -31.76,8.59 -31.62,1.91 -55.64,-29.59 -1.81,1.24 -58.02,27.4 -73.39,22.45 -20.43,-6.56 -43.07,-18.85 -64.48,-14.99 -26.55,4.8 -56.65,-51.35 -54.02,-65.43l5.02 -26.84c-23.82,-17.62 -42.51,-20.7 -37.61,-43.53 -4.33,-3.54 -7.36,-8.42 -8.68,-14.11 -26.2,-7.96 -17.53,-32.39 -11.91,-46.47l-8.58 -19.02c-43.94,22.45 -27.86,15.73 -99.36,15.73 -19.36,0 -6.88,-8.43 -36.63,-13.03l-31.89 -29.38 -6.83 3.27c-5.38,23.43 -22.14,9.93 -29.93,38.87 -5.01,18.62 -28.27,26.47 -43.75,11.55 0.55,3.77 -4.93,54.31 -21.13,64.23 -57.32,35.1 -37.86,3.26 -67.39,9.66 -15.6,3.38 -31.87,-11.39 -50.31,-23.22 -25.19,57.48 -18.02,56.86 -53.55,64.51 -30.91,6.65 -21.24,-22.73 -51.89,-36.77 -15.46,-7.08 -16.28,-24.76 -21.34,-45.01l-45.54 15.66c2.36,22.49 -24.04,37.61 -42.36,22.86 -39.81,-32.07 -48.8,12.9 -69.35,-31.19 -15.63,3.9 -143.51,11.74 -103.13,-56.34 -18.75,-8.03 -18.96,-23.67 -27.65,-51.61l-28.64 -4.22c-17.48,23.97 -58.13,20.86 -67.52,13.29 -26.35,16.11 -46.16,-6.54 -41.98,-25.99l14.91 -69.23c-32.23,-34.56 -38.88,9.75 -53.59,-69.81l26.21 -55.17c96.93,-62.98 82.12,-36.61 86.11,-125.39l23.19 -42.26 41.11 -114.4 -2.18 -11.57c-34.75,-16 -28.71,-52.1 -18.99,-61.84l59.68 -51.99c-109.25,-65.02 -141.52,-66.86 -113.82,-111.63 10.54,-17.04 70.71,-25.78 90.68,-48.64l42.84 -91.76 6.52 -34.87c-34.82,-6.88 -112.15,-63.96 -83.38,-107.92 60.48,-92.43 70.56,-45.49 151.05,-139.57 -7.65,-16.43 -107.73,-37.34 -124.73,-99.8 -28.16,-103.52 -32.69,-72.69 11.91,-144.46l36.64 -30.16c-23.26,-33.28 -99.32,-44.08 -109.8,-70.18 -26.71,-66.52 -19.23,-43.11 -22.63,-119.7l33.72 -72.64c31.49,-24.45 36.85,-29.38 60.85,-76.93 23.7,-46.97 -2.79,-49.52 8.88,-72.91 35.91,-71.97 41.42,-68.08 54.1,-136.02 4.6,-24.59 104.23,-118.99 122.03,-177.48l6.54 -35.08c-105.19,-31.3 -108.05,-20.84 -168.81,-107.52 -31.55,-45 97.16,-104.72 157.73,-165.1 15.74,-19.47 25.52,-75.82 23.94,-98.92 -2.59,-37.88 -52.99,-143.82 -33,-190.02l33.46 -77.27c-55.92,-102.12 -44.89,-60.9 -53.29,-161.06 -1.83,-21.75 33.52,-45.59 52.12,-71.49 27.8,-38.73 29.29,-66.47 70.59,-110.72 -21.25,-48.71 -19.64,-31.85 -4.91,-88.86 -37.28,33.31 -24.01,28.1 -77.03,28.1 -16.14,0 -47.86,-31.2 -50.83,-38.51 -40.7,-100.27 -32.88,-93.82 -90.75,-85.58 -14.98,2.13 -62.83,-26.54 -47.19,-54.51 38.29,-68.43 19.26,-28.33 75.64,-68.87l83.35 -74.84c0.04,-0.06 14.07,-42.37 1.84,-60.52l-63.8 -62.82c-31.4,-14.64 -49.78,46.44 -152.16,19.25 -20.25,-5.39 -32.22,-48.43 -25.69,-61.98 74.77,-155.09 61.54,-156.39 231.12,-124.34 -19.59,-24.13 -16.01,-50.22 -23.66,-64.59 -35.01,-51.82 -42.98,-33.92 -93.84,-128.75 -18.41,11.23 -35.88,116.85 -74.51,113.63 -79.64,-6.63 -116.7,9.89 -106.75,-95.18 6.18,-20.3 19.35,-16.03 38.55,-93.94 -52.48,-16.06 -33.36,-7.97 -94.4,-76.88 -14.22,-16.05 1.39,-81.52 2.55,-83.69l27.3 -50.59 -51.01 -168.67 11.91 -85.76c13.28,-24.28 54.79,-83.16 47.22,-110.35l-56.15 -92.89c-6.87,-5.2 -93.57,-19.98 -105.85,-33.14 -82.38,-88.27 -50.96,-42.03 -103.56,-203.51 -6.56,-20.14 28.95,-63.06 31.12,-151.58 1.48,-60.21 -51.95,-34.34 -53.05,-33.32 -0.08,0.08 -35.04,77.63 -71.91,52.24 -62.62,-43.14 -48.19,-20.29 -64.23,-115.61 -6.95,-41.34 32.12,-89.38 45.09,-94.97 37.67,-16.2 47.15,-14.81 59.26,-34.25 -8.67,-32.43 -95.1,7.08 -104.26,-41.74 -11.48,-61.17 43.23,-99.91 56.42,-100.8 100.07,-6.74 64.28,-25.52 100.06,-69.71 57.5,-71.02 26.13,-54.42 144.36,-65.58 15.84,-25.4 18.63,-100.33 41.55,-112.57 46.51,-24.83 66.95,-33.52 120.92,-23.8 32.68,-26.27 25.35,-26.04 51.44,-84.55 11.11,-24.92 87.9,-36.49 119.45,-4.49l33.72 34.15 27.41 -53.37c30.59,-49.8 55.11,-57.78 61.47,-101.64l-662.65 -594.03c-8.41,-7.55 -11.01,-19.06 -6.64,-29.49l859.83 -2054.86c4.09,-9.76 13.03,-15.83 23.61,-16.01l169.4 -2.95 21.3 -35.12c-6.84,-12.83 10.75,-49.29 -37.02,-72.69 -11.54,-3.11 -19.28,-13.22 -19.28,-25.17l0 -195.52c-46.45,1.3 -127.76,16.95 -114.67,-30.54l515.92 -1870.6c2.93,-10.61 11.63,-17.95 22.58,-19.02l194.98 -19.25c-17.51,-39.8 -13.9,-34.81 -49.05,-46.58 -10.55,6.06 -24.16,4.06 -32.48,-5.32l-177.68 -204.54 -61.64 -242.03 -298.25 -616.93c-24.17,-50 72.4,-37.45 92.24,-37.45l0 -21.08c-7.66,-19.88 -97.52,-86.59 -91.43,-116.8l21.28 -105.28c-34.07,-41.01 -25.16,36.88 -65.07,-85.8 -40.94,0 -41.42,-88.5 -55.76,-97.98 -25.91,-17.13 -20.86,30.45 -56.63,-71.89 -7.2,-20.59 18.81,-45.2 20.41,-55.88 -5.92,-3.39 -37.91,-42.52 -17.18,-63.29 -11.24,-6.11 -39.16,-50.55 -10.59,-73.48 0,0 0,0 0,-0.01 -49.03,-37.36 -13.97,-93.74 33.74,-79.15l59.46 18.24c27.4,-73.42 13.38,-57.68 61.05,-88.29 30.1,-19.33 78.16,51.47 78.68,61.94 3.12,62.12 -3.59,43.87 22.28,81.93 10.4,15.29 -1.21,35.99 -0.28,42.48 1.43,9.94 27.17,33.05 11.52,54.47l19.78 41.8c24.64,28 -2.06,39.84 20.91,61.93 12.09,5.64 17.98,19.62 12.84,33.45 17.97,35.88 31.42,44.24 15.8,65.24 6.91,22.42 -12.92,30.64 -25.54,35.76 -6.49,38.37 9.48,18.09 -0.91,55.19l28.77 25.12 11.95 -4.24c3.72,-20.52 37.08,-40.89 54.87,-19.33 43.3,52.48 41.72,40.54 57.25,86.14 27.63,11.99 24.21,37.69 5.88,48.94 12.71,29.82 49.44,11.17 37.12,65.15 -1.98,8.68 -7.95,15.42 -15.76,18.47l4.57 17.16c68.25,-9.97 68.1,-15.78 82.45,34.13 51.15,0 35.09,30.55 48.61,45.82 23.1,26.09 68.75,2.92 53.58,73.31 47.97,22.01 25.21,18.24 105.1,5.06 44.58,-7.36 26.88,63.9 30.34,74.08l27.34 35.54c-4.69,-77.15 3.22,-51.42 28.41,-70.27 26.92,-20.15 31.71,-63.14 73.08,-48.37 14.81,-22.81 31.74,-65.75 60.02,-42.75 17.23,-42.15 13.39,-40.65 57.9,-40.66 22.33,0 20.67,20.28 35.55,28.25 26.36,-14.15 0.39,-11.38 46.99,-18.47 8.35,-20.63 29.23,-11.81 42.11,-39.27 9.85,-20.99 29.11,-17.61 46.84,-3.95 27.79,-14.88 45.78,-2.75 79.25,10.69l20.61 -16.11c-31.97,-81.98 23.03,-27.7 54.37,-69.01 16.22,-39.95 50.03,8.05 82.76,-0.15 43.78,-10.96 28.93,-41.22 104.6,-30.46 31.55,-42.18 27.05,-37 95.23,-3.23 7.86,-15.19 22.89,-13.97 39.02,-15.43 14.6,-47.02 8.03,-40.83 46.98,-56.03 28.25,-72.77 22.58,-23.76 59.06,-56.49 7.79,-6.99 18.41,-8.65 27.82,-4.51 24.67,-84.54 17.45,-95.3 55.49,-102.15 0.36,-4.56 24.42,-58.74 46.22,-61.68 52.08,-7.03 30.64,-50.87 47.4,-74.86l30.57 -43.74c-43.18,-20.01 -34.98,-38.74 -18.33,-75.99 -9.13,-22.65 -33.95,-66.04 20.83,-66.04 15.93,-27.31 13.57,-23.29 53.11,-29.31l27.08 -47.31c51.29,-26.15 49.29,-18.54 70.54,-48.85 16.15,-23.01 40.23,-4.51 59.29,5.7l24.18 -8.11c23.61,-76.02 17.05,-31.96 28.24,-58.86 -14.16,-34.01 -12.91,-24.69 3.83,-69.45l30.75 -16.18c-6.28,-20.17 3.74,-57.96 29.2,-57.97l22.3 -0.01c-37.21,-30.66 -42.46,-34.9 -9.1,-70.64 -52.46,-47.07 -8.28,-48.55 3.52,-73.72 5.52,-11.78 -4.37,-55.09 25.34,-61.46 30.17,-6.47 59.23,-17.37 77.86,-10.11 -9.78,-42.03 38.34,-56.16 68.21,-68.92l0.02 -0.1c-28.24,-34.66 -25.85,-41.32 11.09,-65.25 0,-63.93 44.79,-31 50.45,-39.42 18.26,-27.19 -22.36,-43.8 65.24,-51.72 20.16,-1.82 25.78,14.5 33.05,28.44l43.5 0.65c23.93,-22.29 43.93,9.97 53.66,21.84l25.99 -9.75c14.09,-34.17 42.61,-8.19 57.19,7.41 46.9,-33.88 67.21,30.26 109.89,15.02 -2.27,-20.52 36.58,-51.61 57.27,-42.48l38.03 16.77c19.38,-11.67 39.4,-28.18 55.03,-24.65 5.43,-5.14 12.88,-7.74 20.47,-6.96 -28.12,-45.28 10.07,-52.94 21.35,-50.19 15.23,-26.12 43.16,-34 55.66,15.23l34.66 19.38c19.99,-11.34 41.67,-10.14 48.58,17.14 26.37,-10.16 34.19,14.6 36.72,33.65 6.54,-8.57 51,-40.25 71.16,-28.83 9.58,-18.59 14.92,-16.93 40.77,-26.09 13.81,-41.04 6.48,-31.52 60.7,-55.99 -3.95,-33.13 33.31,-54.41 51.36,-45.59 21.59,10.54 43.42,16.53 46.85,34.39 1.55,-2.29 38.21,-39.82 60.9,-27.6l16.09 8.67 18.96 -6.13 4.3 -9.25c-8.93,-24.07 -23.61,-56.7 26.57,-56.7l20.13 -19.82c-1.07,-14.84 8.19,-20.97 17.71,-27.85 0.41,-24.28 35.8,-48.51 83.59,-22.02l23.41 -12.97c2.39,-16.76 20.81,-27.26 36.83,-19.74l27.45 -15.03c3.62,-23.26 14.26,-67.23 45.87,-42.15 9.18,-10.57 25.73,-11.95 36.75,-2.26l32.8 -16.02c6.81,-15.44 19.57,-17.02 33.65,-14.56l30.8 -17.19c32.58,-40.75 43.66,-7.25 62.9,1.73 46.13,21.53 55.54,-28.48 84.69,-5.8l23.95 1.34c37.3,-22.53 66.87,33.97 72.98,38.06 34.64,23.21 16.27,-24.01 72.02,62.35l-12.6 71.37 19.49 21.48c12.79,0.03 26.68,-0.46 33.7,15.85 14.95,-0.02 20.62,10.4 28.97,21.22 25.82,-7.86 47.06,-19.55 61.74,-2.56 10.26,11.88 6.46,22.66 1.19,33.8l7.24 10.73c37.72,-60.74 45.55,-19.58 66.49,-12.69 17.42,5.72 76.88,-18.4 89.65,13.54 19.42,-3.77 31.03,14.32 49.67,32.89 17.13,-12.06 38.57,-6.43 42.27,32.64 19.97,-9.4 54.7,-16.61 58.03,14.3 27.65,2.5 71.68,6.76 59.14,53.4l16.95 19.2c13.3,-7.92 26.98,-3.47 36.58,9.79 33.57,-11.84 25.13,-9.05 79.15,14.1 14.29,10.76 -6.33,8.25 45.32,36.19 9.8,-9.56 35.06,-35.29 52.43,-7.14 43.6,-2.88 62.86,-18.17 82.03,7.93 12.83,-15.08 31.39,-26.64 46.9,-7.01 56.45,-24.31 37.57,24.16 65.08,61.08 22.07,-30.19 47.84,7.78 77.74,29.13 22.09,-3.99 37.37,4.63 37.74,23.87 15.07,7.54 -5.88,39.94 5.6,60.12 0.99,1.74 25.82,32.28 -9.62,44.99 33.55,-6.36 30.66,33 30.66,45.4 5.85,1.9 10.77,5.84 14.08,11.42 29.5,1.59 51.36,62.2 73.39,78.05 6.32,2.61 43.91,24.05 42.92,44.38l44.64 5.61c11.64,-12.47 28.02,-28.15 47.5,-7.21 21.14,-2.84 63.58,45.9 64.84,57.89 4.51,2.82 7.98,6.93 10.01,11.8l33.27 13.94c13.34,-3.57 30.89,-10.22 42.17,8.22 43.55,-15.49 51.26,10.07 69.9,12.97 23.73,-30.23 51.32,13.67 51.35,13.7 18.63,13.91 48.79,3.16 56.39,64.53l24.24 1.69c14.9,-13.69 23.14,-19.38 43.47,-6.28 16.98,-5.2 87.13,-23.95 81.33,21.95l19.18 16.26c30.12,-19.45 58.32,34.97 54.37,50.49 31.48,19.1 15.69,33.09 30.04,46.29 4.65,2.14 8.63,5.67 11.38,10.29 36.91,0 66.64,44.18 68.41,51.84l48.01 18.03c27.9,-15.43 31.31,16.51 79.42,58.23 14.77,-1.76 67.9,-15.02 62.66,25.14l7.1 3.82c44.22,-34.55 -13.34,-46.3 71.3,-64.31 7.79,-1.65 15.48,0.21 21.38,4.79 20.45,-9.27 20.99,8.19 41.88,4.55 17.17,-2.98 24.15,8.13 31.07,18.72l23.06 1.23c14.04,-14.19 29.33,-5.4 44.09,0.35l21.28 -10.44c11.58,-30.31 50.8,-13.93 69.72,-3.11 1.13,-0.72 2.31,-1.34 3.54,-1.87 4.42,-12.63 8.87,-27.95 28.86,-27.53 14.32,-25.61 50.46,-22.74 77.43,-24.57 20.15,-26.81 40.71,-16.16 115.43,-13.58 14.93,0.51 23.59,14.09 36.15,27.53 34.96,-12.38 24.88,-11.49 69.42,5.36 40.02,-53.47 62.19,-5.48 82.48,-32.65 -5.07,-32.2 8.73,-33.06 58.37,-73.71 11.75,-9.62 26.4,-4.57 29.69,-5.9 16.05,-6.51 -1.23,-18.26 60.02,-38.83 -14.43,-21.65 11.04,-40.92 12.64,-46.97 5.98,-22.66 -19.83,0.01 18.89,-69.18 3.59,-6.42 53.41,-42.28 85.33,-32.06l34.76 -19.97c5.33,-44.99 37.69,-42.93 53.5,-14.79l9.87 2.64c11.47,-12.13 20.87,-10.82 34.22,-6.1l12.38 -8.43c7.26,-46.12 38.46,-27.49 72.49,-16.05 18.05,-8.97 34.46,-20.88 49.15,-15.66 48.2,-25.85 43.71,-17.37 64.79,-47.4 17.5,-24.92 40.78,-2.89 51.12,5.39 20,-4.7 26.08,10.48 43.15,31.29 58.47,-41.69 42.39,-15.12 70.89,-10.41 37.79,6.25 28.32,-28.66 88.96,18.54 19.93,-2.59 46.2,-0.95 42.16,27.74 40.2,18.47 -6.12,36.89 26.04,90.44 33.57,6.44 73.86,8.79 88.23,24.19 33.37,-5.12 50.12,29.85 52.24,43.47 20.32,7.28 19.42,17.52 23.27,38.25 38.27,14.45 76.74,26.01 49.53,74.37 -0.01,0.02 -0.02,0.04 -0.04,0.06 23.74,35.71 8.59,27.32 9.98,43.87 38.31,12.68 3.5,58.09 -9.81,83.01l68.85 49.89c14.88,-4.1 22.59,4.3 31.5,12.52 26.81,-14.65 15.78,10.85 52.49,-2.36 7.24,-2.6 14.48,-2.06 21.25,1.61 9.71,-10.43 23.69,-28.25 43.81,-14.37 91.39,-18.28 69.02,-59.22 95.55,-71.88 37.06,-17.7 50.87,-30.44 75.65,-26.59 10.29,-11.03 18.29,-23.07 34.84,-20.11 21.64,-26.41 61.16,-32.95 74.17,-25.23 23.13,13.74 12.48,11.91 44.31,6.26l27.55 13.02c15.67,-3.99 23.66,4.76 31.29,14.3 11.55,-6.16 24.08,-14.6 38.84,-3.27l65.59 5.22c-3.43,-16.72 4.61,-22.78 15.82,-36.81l3.13 -33.08c54.64,-74.69 48.37,-51.95 48.37,-105.23l9.2 -22.85c-25.83,-43.5 -40.68,-52.34 -4.81,-105.96 21.64,-32.35 17.47,21.11 31.72,-45.01 4.41,-20.47 107.47,-90.31 158.36,-60.12l10.47 -4.57c8.25,-14.79 43.24,-21.61 48.47,-26.42l13.74 -21.87c31.4,-26.4 33.21,-22.04 39.1,-43.9 6.35,-23.58 16.93,-3.34 36.62,-50.89l67.92 -69.15c40.33,-55.23 -15.06,-43.2 133.8,-105.01l-6.67 -49.61c39.8,-118.16 27.29,-147.28 133.09,-153.43l34.34 -60.95c26.93,-24.15 -5.95,-19.23 28.01,-55.59 11.51,-12.33 32.22,-7.97 37.72,-10.38l38.36 -29.14c82.82,-16.77 59.55,-20.9 115.32,8.97 14.68,7.87 14.24,23.55 17.43,42.17 16.7,10.78 33,17.22 31.93,36.31l-65.29 1159.24c-1.2,21.09 -51.03,49.53 -69.25,41.38l-22.31 -9.99c-53,36.22 -86.43,15.47 -113.15,28.19 -21.41,18.32 -45.95,-9.9 -55.29,-8.47 -31.45,44.89 -41.79,27.16 -87.06,55.33 -49.14,30.57 -21.73,59.63 -45.53,77.85 -61.71,47.25 -23.33,28.68 -43.07,52.9 -53.83,65.98 -22.75,84.5 -38.14,104.31 -51.3,66.06 -28.33,60.25 -43.81,81.85l-64.27 89.82c-4.92,12.71 6.39,13.81 -14.72,40.86 3.35,15.1 -5.41,23.98 -15.16,39.65 7.89,33.89 -16.4,-5.77 11.35,68.97 1.43,3.86 1.95,7.81 1.61,11.62 3.23,2.8 5.64,6.28 7.14,10.06 14.7,-2.67 20.94,4.65 31.96,13.47 53.36,-24.45 58.54,-35.33 110.97,0.87 0.01,0.01 52.73,13.88 91.05,48.45 1.35,1.46 26.78,-4.61 31.66,23.79 5.32,1.77 39.04,23.5 35.24,44.93 13.33,1.99 33.44,4.91 33.08,27.74 5.32,3.43 9.23,8.75 10.9,15.13 14.51,-2.43 28.81,7.61 30.41,22.92 18.84,12.08 12.26,48.45 27.35,51.69 26.02,5.58 79.77,-32.77 113.09,-1.54 20.18,-18.05 46.91,5.86 50.82,16.68l43.77 -19.37c4.56,-25.14 16.11,-24.41 41.27,-30.63 4.55,-38.39 26.58,-30.48 90.7,-33.61l23.51 10.75c68.1,-13.39 44.46,26.45 66.42,50.94 6.42,7.16 43.52,17.06 49.08,36.15l3.26 0.87c51.6,-48.33 68.42,4.48 77.94,9.35 26.44,2.5 21.21,21.03 68.86,15.89 16.69,-1.79 23.59,8.79 29.1,20.63 27.06,2.9 32.63,2.67 39.95,30.3l33.39 -6.63c11.13,-53.25 12.73,11.19 22.66,-78.45 1.16,-10.42 8.08,-18.78 17.73,-21.91 1.71,-17.31 14.66,-21.32 27.03,-24.66 7.91,-40.32 90.95,-10.43 116.51,4.76l60.83 42.38c92.34,-17.43 81.66,10.8 97.23,-10.07 11.91,-15.97 102.69,-26.61 106.83,-25.65 19.52,4.5 195.3,41.55 212.65,56.37l17.37 14.85c34.72,-14.74 43.16,41.53 50.46,48.8l27.15 12.43 245.86 -9.28c45.95,-1.73 20.55,71.3 5.38,80.27 -71.4,42.23 -98.68,17.67 -125.88,30.85 -0.97,0.46 -25.85,20.88 -26.55,36.76l34.73 162.05 -2.79 59.23 47.24 168.18c0,93.3 -5.69,59.58 19.67,145.07l3.82 105.39 63.68 73.44c59.36,3.06 46.87,-3.16 83.65,18.08 29.74,-77.88 8.6,-47.76 114.22,-121.95l93.12 -26.59 66.45 10.54c148.15,49.08 89.46,41.88 244.86,30.52 16.96,-1.25 100.93,30.35 118.81,49.49 77.95,83.42 66.33,65.37 54.27,151.56 -2.9,20.82 -52.96,51.19 -63.34,65.84 -14.11,19.91 -19.13,74.53 -46.23,80.06l-169.27 34.5c-5.55,32.5 -9.92,92.95 -25.42,104.03 -58.46,41.8 -53.44,37.33 -76.2,110.36 -7.63,24.47 -65.12,31.2 -79.47,42.34l-39.04 61.09c55.84,73 -0.37,32.52 48.46,91.25 11.11,13.36 27.6,42.19 20.5,66.87 63.22,0 52.02,62.04 50.09,79.42 105.88,16.62 70.47,1 155.76,61.98 4.12,2.94 6.96,6.49 8.87,11.09l30.44 10.71c23.91,-6.42 44.26,-16.28 58.75,-5.67 59.35,43.45 37.47,36.24 91.31,36.24l48.02 24.84 43 -2.11c39.14,7.58 37.56,-0.26 103.8,-27.21 16.4,-6.68 112,15.2 136.53,38.2 25.13,-17.97 29.46,-11.29 83.99,-9.01 17.3,-29.69 54.64,-65.03 87.48,-76.76 15.87,-33.68 90.76,-12.02 94.59,-8.96l32.65 32.42c99.03,29.62 41.73,31.42 160.63,54.39 28.7,5.55 56.02,102.57 75.15,126.21 26.42,32.65 21.76,-13.27 39.77,63.39 23.61,7.58 37.11,10.54 32.38,40.37l74.25 80.18c44.14,3.66 30.67,30.75 42.4,51.39l8.24 12.72c33.03,5.92 -0.22,12.59 47.36,26.54l28.21 19.08 1.65 -0.39c20.11,-49.77 61.72,-14.48 88.63,-23.46 46.31,-15.45 34.03,14.74 58.76,27.26 11.03,5.6 43.95,-3.33 100.9,19.61l19.78 7.31c28.5,-12.23 24.34,-12.56 51.99,-0.63l40.52 48.53c14.03,7.5 13.77,18.99 13.77,31.09l26.62 40.51c24.61,-13.1 34.08,2.2 44.3,17.48 22.6,0 15.48,8.56 33.33,6.49 15.75,-1.84 50.16,23.96 41,59.96l13.53 41.45c25.7,0 35.93,17.64 28.67,36.99l23.34 12.37c25.84,-18.47 30.33,-25.49 55.88,-7.19 16.1,-4.31 27.85,5.19 32.89,21.45 1.96,0.2 57.53,14.04 63.91,33.91 15.29,-6.54 35.5,-8.96 45.11,7.66l31.1 -1.87c19.62,-39.23 49.18,8.54 64.04,7.9 36.94,-47.6 43.55,2.35 67.81,6.72 10.24,1.85 18.05,9.17 20.59,18.97 21.22,-2.52 26.53,11.86 36.73,28.31 36.97,0 57.95,61.65 54.88,75.09l21.37 26.89c24,4.62 10.2,15.65 35.31,44.47 44.74,-25.63 75.63,11.65 77.59,24.76 31.5,-7.05 32.99,3.39 86.66,39.67 7.06,4.77 11.15,12.25 11.5,20.28 3.87,1.81 7.16,4.57 9.77,8.22 22.57,-15.24 40.25,10.36 59.98,29.77 11.93,-0.86 70.31,-11.66 60.05,29.65l29.1 17.91c21.12,-24.27 69.08,11.17 62.55,36.82 19.93,-6.01 62.52,30.36 93.32,50.87 54.04,-36.22 44.35,-36.76 93.79,3.98l31.92 3.55c17.88,-7.69 13.01,-42.25 44.76,-32.97 29.32,8.57 38.53,-5.87 50.64,14.79 48.39,0.01 52.49,-5.15 65.62,27.72 34.8,12.45 7.95,-40.68 82.8,22.36 36.01,-14.44 42.92,2.73 46.69,31.69 33.15,-9.68 18.81,-47.69 75.71,4.45 45.22,-18.11 40.42,-11.68 63.52,20.27 20.55,-17.67 50.05,-16.58 59.99,8.16 7.96,1.42 43.78,21.58 30.38,47.3l17.15 18.37c59.74,-3.8 57.47,-10.33 88.58,60.73 33.9,-13.38 34.26,-14.9 58.5,11.08 60.05,-10.15 66.08,-16.46 88.98,16.31l1.09 34.48 33.97 31.29c27.37,-5.58 31.97,21.26 38.29,39.98 18.19,6.51 40.61,15.33 64.28,9.6 12.98,-6.16 34.39,-50.78 79.3,-14.69 13.03,-8.17 31.34,-2.92 37.61,11.95 37.09,14.34 29.57,8.02 48.58,52.28 89.1,26.06 46.89,-34.67 126.58,50.5 33.68,-6.03 15.2,17.27 71.06,11.77 10.5,-1.04 40.52,4.54 40.52,30.59 67.34,47.16 112.71,61.99 112.71,127.83 36.11,9.6 21.85,48.43 47.27,64.69 13.5,8.64 16.14,27.16 5.56,39.17 25.4,-9.94 44.69,25.26 46.93,32.42 50.21,-9.6 42.48,21.32 42.48,66.13 133,52.75 47.38,30.54 101.81,69.53 8.2,5.87 36.32,61.15 3.17,74.07 -135.44,52.77 39.7,130.19 46.21,234.45 1.3,20.87 8.39,92.45 -23.68,107.74 -22.26,10.61 -49.63,24 -73.46,7.55 -40.48,-27.92 -25.33,-27.01 -62.86,-9.81l-69.1 186.51c-2.93,4.07 -23.18,6.8 -49.93,81.53 -3.95,15.42 -0.21,86.15 -10.25,100.48 -20.47,29.21 -21.03,16.77 25.43,73.25 15.5,18.84 -4.84,43.72 -21.39,75.67 41.37,114.9 27.33,-3.69 50.81,165.92l-2.55 84.15c2.96,14.93 52.62,101.39 49.96,120.09 -13.57,95.24 -50.37,136.57 -51.94,157.12l37.31 100.59c-5.63,146.7 -9.46,69.76 -30.71,128.68l16.71 68.66c21.04,44.46 29.27,10.08 22.88,80.38l-69.96 162.76 -73.2 232.24c-17.37,64.29 -127.8,140.57 -177.58,181.62l-113.31 43.82c-100.15,16.32 -284.1,36.88 -369.44,91.59l-51.74 40.88z"/>
  <path id="Amambai" fill="black" d="M8032.06 17138.89c0,-79.98 98.13,-139.47 173.04,-71.57 25.61,23.22 39.39,74.62 20.42,112.83 -5.5,11.07 -12.2,21.25 -20.42,30.32 -2.7,2.97 -10.42,8.71 -14.15,11.21 -5.84,3.93 -9.92,6.1 -16.17,9.2 -42.53,21.13 -98.29,3.96 -124.04,-34.56 -10.46,-15.65 -18.68,-36.58 -18.68,-57.43zm-169.65 304.42c0,78.68 110.97,118 176.43,127.98 81.38,12.41 191.7,11.35 267.99,-21.27 32.98,-14.11 68.82,-34.83 86.67,-65.54 14.8,-25.47 14.7,-58.04 -0.6,-83.34 -7.37,-12.19 -15.97,-20.03 -25.88,-29.61 -24.46,-23.64 -62.26,-14.16 -62.26,24.21 0,25.38 34.32,31.5 30.81,49.87 -2.72,14.2 -32.59,30.75 -45.6,36.82 -79.66,37.13 -233.2,37.14 -312.89,0 -13.26,-6.19 -42.8,-22.2 -45.59,-36.82 -3.74,-19.54 30.81,-21.48 30.81,-53.04 0,-9.66 -2.03,-14.69 -6.77,-20.19 -14.18,-16.45 -34.19,-17.81 -46.72,-7.92 -2.69,2.12 -5.21,4.13 -7.88,6.38 -21.37,17.99 -38.52,41.54 -38.52,72.47zm269.53 -3.17c14.02,0 14.65,-2.71 24.86,-8.44l85.67 -57.03 32.86 -30.56c17.06,-14.26 51.66,-60.89 62.21,-80.48 43.07,-80.01 45.37,-170.42 -1.37,-248.1 -25.96,-43.16 -65.01,-74.92 -110.68,-95.43l-36.07 -11.5c-70.53,-15.03 -139.97,-2.95 -197.23,39.81 -6.67,4.98 -11.01,9.12 -17.45,14.26 -5.94,4.75 -11.14,10.22 -15.62,16.09 -10.12,13.26 -14.97,14.58 -27.64,35.78 -8.23,13.78 -14.97,26.46 -20.5,42.91 -3.11,9.23 -5.22,13.62 -7.68,24.03 -1.95,8.26 -3.26,17.1 -4.71,27.01 -2.23,15.24 -3.1,41.56 -0.67,58.31 5.96,41.08 15.28,65.47 31.06,95.78 2.1,4.05 3.47,5.71 5.82,10.04 2.33,4.3 3.15,6.07 5.96,9.9 28.45,38.77 26.12,35.82 58.41,68.43 30.52,30.83 72.11,59.79 110.05,80.2 7.29,3.91 12.21,8.99 22.72,8.99z"/>
  <path id="AralMoreira" fill="black" d="M6733.07 16043.08c0,-79.99 98.14,-139.48 173.04,-71.58 25.62,23.23 39.39,74.62 20.42,112.83 -5.5,11.07 -12.2,21.24 -20.42,30.32 -2.7,2.98 -10.42,8.72 -14.15,11.21 -5.84,3.93 -9.92,6.1 -16.17,9.2 -42.52,21.13 -98.29,3.97 -124.04,-34.56 -10.46,-15.65 -18.68,-36.58 -18.68,-57.42zm-169.65 304.41c0,78.68 110.97,118 176.43,127.98 81.38,12.41 191.7,11.35 267.99,-21.27 32.98,-14.11 68.82,-34.83 86.67,-65.54 14.8,-25.47 14.7,-58.04 -0.59,-83.34 -7.38,-12.19 -15.98,-20.03 -25.88,-29.61 -24.47,-23.63 -62.27,-14.16 -62.27,24.21 0,25.38 34.32,31.5 30.81,49.87 -2.72,14.2 -32.59,30.75 -45.6,36.82 -79.66,37.13 -233.2,37.14 -312.89,0 -13.25,-6.18 -42.79,-22.2 -45.59,-36.82 -3.74,-19.54 30.81,-21.48 30.81,-53.04 0,-9.66 -2.03,-14.69 -6.77,-20.18 -14.19,-16.46 -34.18,-17.82 -46.72,-7.93 -2.69,2.12 -5.21,4.13 -7.88,6.38 -21.37,17.99 -38.52,41.54 -38.52,72.47zm269.53 -3.17c14.01,0 14.65,-2.71 24.86,-8.44l85.66 -57.03 32.86 -30.56c17.07,-14.25 51.67,-60.89 62.21,-80.48 43.08,-80.01 45.38,-170.42 -1.36,-248.11 -25.96,-43.15 -65,-74.91 -110.68,-95.42l-36.07 -11.5c-70.54,-15.03 -139.97,-2.96 -197.23,39.81 -6.67,4.97 -11,9.12 -17.44,14.26 -5.95,4.75 -11.15,10.23 -15.63,16.09 -10.12,13.26 -14.97,14.59 -27.64,35.78 -8.23,13.78 -14.97,26.46 -20.5,42.91 -3.11,9.23 -5.22,13.62 -7.68,24.03 -1.95,8.27 -3.26,17.1 -4.71,27.01 -2.23,15.24 -3.1,41.56 -0.67,58.31 5.96,41.08 15.28,65.47 31.06,95.79 2.11,4.04 3.47,5.7 5.82,10.04 2.33,4.29 3.15,6.06 5.95,9.89 28.46,38.77 26.13,35.82 58.41,68.43 30.53,30.83 72.12,59.79 110.07,80.19 7.28,3.92 12.2,9 22.71,9z"/>
  <path id="Laguna" fill="black" d="M7415.7 15244.04c0,-79.99 98.14,-139.48 173.04,-71.58 25.62,23.23 39.39,74.62 20.42,112.83 -5.5,11.07 -12.2,21.24 -20.42,30.32 -2.7,2.98 -10.42,8.72 -14.15,11.21 -5.84,3.93 -9.92,6.1 -16.17,9.2 -42.52,21.13 -98.29,3.97 -124.04,-34.56 -10.46,-15.65 -18.68,-36.58 -18.68,-57.42zm-169.65 304.41c0,78.68 110.97,118 176.43,127.98 81.38,12.41 191.7,11.35 267.99,-21.27 32.98,-14.11 68.82,-34.83 86.67,-65.54 14.8,-25.47 14.7,-58.04 -0.59,-83.34 -7.38,-12.19 -15.98,-20.03 -25.88,-29.61 -24.47,-23.63 -62.27,-14.16 -62.27,24.21 0,25.38 34.32,31.5 30.81,49.87 -2.72,14.2 -32.59,30.75 -45.6,36.82 -79.66,37.13 -233.2,37.14 -312.89,0 -13.25,-6.18 -42.79,-22.2 -45.59,-36.82 -3.74,-19.54 30.81,-21.48 30.81,-53.04 0,-9.66 -2.03,-14.69 -6.77,-20.18 -14.19,-16.46 -34.18,-17.82 -46.72,-7.93 -2.69,2.12 -5.21,4.13 -7.88,6.38 -21.37,17.99 -38.52,41.54 -38.52,72.47zm269.53 -3.17c14.01,0 14.65,-2.71 24.86,-8.44l85.66 -57.03 32.86 -30.56c17.07,-14.25 51.67,-60.89 62.21,-80.48 43.08,-80.01 45.38,-170.42 -1.36,-248.11 -25.96,-43.15 -65,-74.91 -110.68,-95.42l-36.07 -11.5c-70.54,-15.03 -139.97,-2.96 -197.23,39.81 -6.67,4.97 -11,9.12 -17.44,14.26 -5.95,4.75 -11.15,10.23 -15.63,16.09 -10.12,13.26 -14.97,14.59 -27.64,35.78 -8.23,13.78 -14.97,26.46 -20.5,42.91 -3.11,9.23 -5.22,13.62 -7.68,24.03 -1.95,8.27 -3.26,17.1 -4.71,27.01 -2.23,15.24 -3.1,41.56 -0.67,58.31 5.96,41.08 15.28,65.47 31.06,95.79 2.11,4.04 3.47,5.7 5.82,10.04 2.33,4.29 3.15,6.06 5.95,9.89 28.46,38.77 26.13,35.82 58.41,68.43 30.53,30.83 72.12,59.79 110.07,80.19 7.28,3.92 12.2,9 22.71,9z"/>
  <path id="PontaPora" fill="black" d="M6305.88 14454.54c0,-79.99 98.14,-139.48 173.04,-71.58 25.62,23.23 39.39,74.62 20.42,112.83 -5.5,11.07 -12.2,21.24 -20.42,30.32 -2.7,2.98 -10.42,8.72 -14.15,11.21 -5.84,3.93 -9.92,6.1 -16.17,9.2 -42.52,21.13 -98.29,3.97 -124.04,-34.56 -10.46,-15.65 -18.68,-36.58 -18.68,-57.42zm-169.65 304.41c0,78.68 110.97,118 176.43,127.98 81.38,12.41 191.7,11.35 267.99,-21.27 32.98,-14.11 68.82,-34.83 86.67,-65.54 14.8,-25.47 14.7,-58.04 -0.59,-83.34 -7.38,-12.19 -15.98,-20.03 -25.88,-29.61 -24.47,-23.63 -62.27,-14.16 -62.27,24.21 0,25.38 34.32,31.5 30.81,49.87 -2.72,14.2 -32.59,30.75 -45.6,36.82 -79.66,37.13 -233.2,37.14 -312.89,0 -13.25,-6.18 -42.79,-22.2 -45.59,-36.82 -3.74,-19.54 30.81,-21.48 30.81,-53.04 0,-9.66 -2.03,-14.69 -6.77,-20.18 -14.19,-16.46 -34.18,-17.82 -46.72,-7.93 -2.69,2.12 -5.21,4.13 -7.88,6.38 -21.37,17.99 -38.52,41.54 -38.52,72.47zm269.53 -3.17c14.01,0 14.65,-2.71 24.86,-8.44l85.66 -57.03 32.86 -30.56c17.07,-14.25 51.67,-60.89 62.21,-80.48 43.08,-80.01 45.38,-170.42 -1.36,-248.11 -25.96,-43.15 -65,-74.91 -110.68,-95.42l-36.07 -11.5c-70.54,-15.03 -139.97,-2.96 -197.23,39.81 -6.67,4.97 -11,9.12 -17.44,14.26 -5.95,4.75 -11.15,10.23 -15.63,16.09 -10.12,13.26 -14.97,14.59 -27.64,35.78 -8.23,13.78 -14.97,26.46 -20.5,42.91 -3.11,9.23 -5.22,13.62 -7.68,24.03 -1.95,8.27 -3.26,17.1 -4.71,27.01 -2.23,15.24 -3.1,41.56 -0.67,58.31 5.96,41.08 15.28,65.47 31.06,95.79 2.11,4.04 3.47,5.7 5.82,10.04 2.33,4.29 3.15,6.06 5.95,9.89 28.46,38.77 26.13,35.82 58.41,68.43 30.53,30.83 72.12,59.79 110.07,80.19 7.28,3.92 12.2,9 22.71,9z"/>
  <path id="Dourados" fill="black" d="M9274.59 13914.21c0,78.68 110.97,118 176.43,127.98 81.38,12.41 191.7,11.35 267.99,-21.27 32.98,-14.11 68.82,-34.83 86.67,-65.54 14.8,-25.47 14.7,-58.04 -0.59,-83.34 -7.38,-12.19 -15.98,-20.03 -25.88,-29.61 -24.47,-23.63 -62.27,-14.16 -62.27,24.21 0,25.38 34.32,31.5 30.81,49.87 -2.72,14.2 -32.59,30.75 -45.6,36.82 -79.66,37.13 -233.2,37.14 -312.89,0 -13.25,-6.18 -42.79,-22.2 -45.59,-36.82 -3.74,-19.54 30.81,-21.48 30.81,-53.04 0,-9.66 -2.03,-14.69 -6.77,-20.18 -14.19,-16.46 -34.18,-17.82 -46.72,-7.93 -2.69,2.12 -5.21,4.13 -7.88,6.38 -21.37,17.99 -38.52,41.54 -38.52,72.47zm169.65 -304.41c0,-79.99 98.14,-139.48 173.04,-71.58 25.62,23.23 39.39,74.62 20.42,112.83 -5.5,11.07 -12.2,21.24 -20.42,30.32 -2.7,2.98 -10.42,8.72 -14.15,11.21 -5.84,3.93 -9.92,6.1 -16.17,9.2 -42.52,21.13 -98.29,3.97 -124.04,-34.56 -10.46,-15.65 -18.68,-36.58 -18.68,-57.42zm99.88 301.24c14.01,0 14.65,-2.71 24.86,-8.44l85.66 -57.03 32.86 -30.56c17.07,-14.25 51.67,-60.89 62.21,-80.48 43.08,-80.01 45.38,-170.42 -1.36,-248.11 -25.96,-43.15 -65,-74.91 -110.68,-95.42l-36.07 -11.5c-70.54,-15.03 -139.97,-2.96 -197.23,39.81 -6.67,4.97 -11,9.12 -17.44,14.26 -5.95,4.75 -11.15,10.23 -15.63,16.09 -10.12,13.26 -14.97,14.59 -27.64,35.78 -8.23,13.78 -14.97,26.46 -20.5,42.91 -3.11,9.23 -5.22,13.62 -7.68,24.03 -1.95,8.27 -3.26,17.1 -4.71,27.01 -2.23,15.24 -3.1,41.56 -0.67,58.31 5.96,41.08 15.28,65.47 31.06,95.79 2.11,4.04 3.47,5.7 5.82,10.04 2.33,4.29 3.15,6.06 5.95,9.89 28.46,38.77 26.13,35.82 58.41,68.43 30.53,30.83 72.12,59.79 110.07,80.19 7.28,3.92 12.2,9 22.71,9z"/>
  <path id="RibasRioPardo" fill="black" d="M11488.83 9484.85c0,-79.99 98.14,-139.48 173.04,-71.58 25.62,23.23 39.39,74.62 20.42,112.83 -5.5,11.07 -12.2,21.24 -20.42,30.32 -2.7,2.98 -10.42,8.72 -14.15,11.21 -5.84,3.93 -9.92,6.1 -16.17,9.2 -42.52,21.13 -98.29,3.97 -124.04,-34.56 -10.46,-15.65 -18.68,-36.58 -18.68,-57.42zm-169.65 304.41c0,78.68 110.97,118 176.43,127.98 81.38,12.41 191.7,11.35 267.99,-21.27 32.98,-14.11 68.82,-34.83 86.67,-65.54 14.8,-25.47 14.7,-58.04 -0.59,-83.34 -7.38,-12.19 -15.98,-20.03 -25.88,-29.61 -24.47,-23.63 -62.27,-14.16 -62.27,24.21 0,25.38 34.32,31.5 30.81,49.87 -2.72,14.2 -32.59,30.75 -45.6,36.82 -79.66,37.13 -233.2,37.14 -312.89,0 -13.25,-6.18 -42.79,-22.2 -45.59,-36.82 -3.74,-19.54 30.81,-21.48 30.81,-53.04 0,-9.66 -2.03,-14.69 -6.77,-20.18 -14.19,-16.46 -34.18,-17.82 -46.72,-7.93 -2.69,2.12 -5.21,4.13 -7.88,6.38 -21.37,17.99 -38.52,41.54 -38.52,72.47zm269.53 -3.17c14.01,0 14.65,-2.71 24.86,-8.44l85.66 -57.03 32.86 -30.56c17.07,-14.25 51.67,-60.89 62.21,-80.48 43.08,-80.01 45.38,-170.42 -1.36,-248.11 -25.96,-43.15 -65,-74.91 -110.68,-95.42l-36.07 -11.5c-70.54,-15.03 -139.97,-2.96 -197.23,39.81 -6.67,4.97 -11,9.12 -17.44,14.26 -5.95,4.75 -11.15,10.23 -15.63,16.09 -10.12,13.26 -14.97,14.59 -27.64,35.78 -8.23,13.78 -14.97,26.46 -20.5,42.91 -3.11,9.23 -5.22,13.62 -7.68,24.03 -1.95,8.27 -3.26,17.1 -4.71,27.01 -2.23,15.24 -3.1,41.56 -0.67,58.31 5.96,41.08 15.28,65.47 31.06,95.79 2.11,4.04 3.47,5.7 5.82,10.04 2.33,4.29 3.15,6.06 5.95,9.89 28.46,38.77 26.13,35.82 58.41,68.43 30.53,30.83 72.12,59.79 110.07,80.19 7.28,3.92 12.2,9 22.71,9z"/>
  <path id="Jaraguari" fill="black" d="M9850.43 8642.82c0,-79.99 98.14,-139.48 173.04,-71.58 25.62,23.23 39.39,74.62 20.42,112.83 -5.5,11.07 -12.2,21.24 -20.42,30.32 -2.7,2.98 -10.42,8.72 -14.15,11.21 -5.84,3.93 -9.92,6.1 -16.17,9.2 -42.52,21.13 -98.29,3.97 -124.04,-34.56 -10.46,-15.65 -18.68,-36.58 -18.68,-57.42zm-169.65 304.41c0,78.68 110.97,118 176.43,127.98 81.38,12.41 191.7,11.35 267.99,-21.27 32.98,-14.11 68.82,-34.83 86.67,-65.54 14.8,-25.47 14.7,-58.04 -0.59,-83.34 -7.38,-12.19 -15.98,-20.03 -25.88,-29.61 -24.47,-23.63 -62.27,-14.16 -62.27,24.21 0,25.38 34.32,31.5 30.81,49.87 -2.72,14.2 -32.59,30.75 -45.6,36.82 -79.66,37.13 -233.2,37.14 -312.89,0 -13.25,-6.18 -42.79,-22.2 -45.59,-36.82 -3.74,-19.54 30.81,-21.48 30.81,-53.04 0,-9.66 -2.03,-14.69 -6.77,-20.18 -14.19,-16.46 -34.18,-17.82 -46.72,-7.93 -2.69,2.12 -5.21,4.13 -7.88,6.38 -21.37,17.99 -38.52,41.54 -38.52,72.47zm269.53 -3.17c14.01,0 14.65,-2.71 24.86,-8.44l85.66 -57.03 32.86 -30.56c17.07,-14.25 51.67,-60.89 62.21,-80.48 43.08,-80.01 45.38,-170.42 -1.36,-248.11 -25.96,-43.15 -65,-74.91 -110.68,-95.42l-36.07 -11.5c-70.54,-15.03 -139.97,-2.96 -197.23,39.81 -6.67,4.97 -11,9.12 -17.44,14.26 -5.95,4.75 -11.15,10.23 -15.63,16.09 -10.12,13.26 -14.97,14.59 -27.64,35.78 -8.23,13.78 -14.97,26.46 -20.5,42.91 -3.11,9.23 -5.22,13.62 -7.68,24.03 -1.95,8.27 -3.26,17.1 -4.71,27.01 -2.23,15.24 -3.1,41.56 -0.67,58.31 5.96,41.08 15.28,65.47 31.06,95.79 2.11,4.04 3.47,5.7 5.82,10.04 2.33,4.29 3.15,6.06 5.95,9.89 28.46,38.77 26.13,35.82 58.41,68.43 30.53,30.83 72.12,59.79 110.07,80.19 7.28,3.92 12.2,9 22.71,9z"/>
  <path id="Bandeirantes" fill="black" d="M9955.11 7221.41c0,-79.99 98.14,-139.48 173.04,-71.58 25.62,23.23 39.39,74.62 20.42,112.83 -5.5,11.07 -12.2,21.24 -20.42,30.32 -2.7,2.98 -10.42,8.72 -14.15,11.21 -5.84,3.93 -9.92,6.1 -16.17,9.2 -42.52,21.13 -98.29,3.97 -124.04,-34.56 -10.46,-15.65 -18.68,-36.58 -18.68,-57.42zm-169.65 304.41c0,78.68 110.97,118 176.43,127.98 81.38,12.41 191.7,11.35 267.99,-21.27 32.98,-14.11 68.82,-34.83 86.67,-65.54 14.8,-25.47 14.7,-58.04 -0.59,-83.34 -7.38,-12.19 -15.98,-20.03 -25.88,-29.61 -24.47,-23.63 -62.27,-14.16 -62.27,24.21 0,25.38 34.32,31.5 30.81,49.87 -2.72,14.2 -32.59,30.75 -45.6,36.82 -79.66,37.13 -233.2,37.14 -312.89,0 -13.25,-6.18 -42.79,-22.2 -45.59,-36.82 -3.74,-19.54 30.81,-21.48 30.81,-53.04 0,-9.66 -2.03,-14.69 -6.77,-20.18 -14.19,-16.46 -34.18,-17.82 -46.72,-7.93 -2.69,2.12 -5.21,4.13 -7.88,6.38 -21.37,17.99 -38.52,41.54 -38.52,72.47zm269.53 -3.17c14.01,0 14.65,-2.71 24.86,-8.44l85.66 -57.03 32.86 -30.56c17.07,-14.25 51.67,-60.89 62.21,-80.48 43.08,-80.01 45.38,-170.42 -1.36,-248.11 -25.96,-43.15 -65,-74.91 -110.68,-95.42l-36.07 -11.5c-70.54,-15.03 -139.97,-2.96 -197.23,39.81 -6.67,4.97 -11,9.12 -17.44,14.26 -5.95,4.75 -11.15,10.23 -15.63,16.09 -10.12,13.26 -14.97,14.59 -27.64,35.78 -8.23,13.78 -14.97,26.46 -20.5,42.91 -3.11,9.23 -5.22,13.62 -7.68,24.03 -1.95,8.27 -3.26,17.1 -4.71,27.01 -2.23,15.24 -3.1,41.56 -0.67,58.31 5.96,41.08 15.28,65.47 31.06,95.79 2.11,4.04 3.47,5.7 5.82,10.04 2.33,4.29 3.15,6.06 5.95,9.89 28.46,38.77 26.13,35.82 58.41,68.43 30.53,30.83 72.12,59.79 110.07,80.19 7.28,3.92 12.2,9 22.71,9z"/>
 </g>
</svg>
