<?xml version="1.0" encoding="UTF-8"?>
<!DOCTYPE svg PUBLIC "-//W3C//DTD SVG 1.1//EN" "http://www.w3.org/Graphics/SVG/1.1/DTD/svg11.dtd">
<svg xmlns="http://www.w3.org/2000/svg" xml:space="preserve" width="132.475mm" height="144.554mm" version="1.1" shape-rendering="geometricPrecision" text-rendering="geometricPrecision" image-rendering="optimizeQuality" fill-rule="evenodd" clip-rule="evenodd"
viewBox="0 0 13247.46 14455.44"
 xmlns:xlink="http://www.w3.org/1999/xlink">
 <g id="Layer_x0020_1">
  <metadata id="CorelCorpID_0Corel-Layer"/>
  <path id="MS" fill="#CCCCCC" d="M12475.15 6691.24c-22.41,27.92 -23.44,50.62 -32.46,60.28l-21.77 23.32c-13.17,19.83 -45.59,121.2 -69.16,136.33l-68.57 46.65c-27.4,27.38 -93.88,177.27 -93.89,177.28 -57.04,57.9 -53.13,52.64 -123.82,106.72 -21.67,16.58 -35.13,31.06 -46.96,56.32 -12.01,25.66 -71.37,182.3 -67.25,210.94 1.62,11.35 27.88,39.23 18.76,56.3 -14.65,36.77 -19.26,104.09 -13.17,144.67 9.07,60.35 32.32,69.86 30.62,86.63 -8.95,88.44 1.21,69.48 -25.97,123.47l-86.42 59.66 -80.47 2.18c-21.57,8.29 -88.07,123.16 -95.55,147.87l-7.54 53.34c-8.49,19.7 -23.87,64.71 -35.29,70.41 -58.53,29.16 -7.3,10.58 -57.91,49.43l-90.25 15.39c-5.68,33.7 3.91,74.02 1.41,87.39 -7.21,38.57 -9.12,21.56 20.22,81.6 12.1,24.77 5.78,58.69 25.12,79.4 13.73,14.71 -6.66,49.76 -12.45,84.06 -3.12,18.47 -2.24,99.43 -22.87,120.18 -87.82,88.29 -68.39,54.23 -92.85,157.75l-19.24 60.35c-45.33,40.55 -31.47,22.27 -58.81,78.25 -11.88,24.33 -73.39,55.11 -84.98,52.32l-111.08 -23.85c-17.72,8.57 -55.72,87.91 -56.16,95.17 -1.7,27.9 56.83,55.29 61.72,76.29 28.21,121.22 35.39,40.87 35.39,137.57l-55.34 125.24 -45.44 59.58c-8.54,14.86 -60.26,20.5 -74.59,28.55l-31.03 27.37 -38.23 81.98c-0.03,0.12 -4.04,61.84 -18.39,76.34 -52.51,53.11 -61.04,56.05 -102.69,114.49 -8.21,11.52 -15.35,3.68 -28.64,21.39 -6.62,8.82 -22.42,9.65 -25.89,12.02l-55.62 68.1c-19.56,33.44 -58.74,220.25 -65.98,231.78l-64.01 98.87c-61.27,43.63 -31.09,46.68 -54.13,70.21l-91.23 92.84c-42.22,33.41 -33.5,19.93 -48.83,55.53l-42.41 32.36c-67.21,12.64 -42.11,17.32 -83.69,33.97 -61.07,24.46 -39.84,10.99 -87.66,56.79l-44.44 21.29 -63.66 51.06c-80.57,24.29 -53.3,9.1 -115.28,61.66l-42.07 18.5 -92.9 70.18 -73.32 74.01c-29.21,40.42 0.19,51.82 -91.93,86.01l-197.68 80.87c-6.48,6.24 -20.4,52.81 -34.89,59.02l-73.11 31.34 -43.57 42.44 -44.02 75.11c-6.11,22.52 12.75,43.18 3.14,57.08 -25.65,37.1 -152.76,227.45 -189.98,232.46l-67.34 9.02c-14.18,3.8 -198.45,79.59 -213.31,95.26 -10.23,10.79 -22.24,45.35 -37.55,49.46 -55.11,14.8 -39.79,7.02 -86.96,57.68l-41.24 22.14 -65.5 45.49c-39.27,17.01 -109.43,36.36 -124.32,77.83 -7.66,21.33 14.25,0.27 -25.21,51.74 -5.34,6.96 -49.1,23 -64.17,45.91 -19.71,39.18 3.43,15.37 -44.78,90.97 9.14,20.41 -5.39,226.73 -7.07,263.59 -0.62,13.6 -41.23,58.56 -43.03,65.21l-0.9 27.54 -47.07 82.39c-8.97,20.31 -64.97,210.16 -82.25,236.45 -8.25,12.54 -70.66,114.94 -83.64,119.7 -114.25,41.92 -79.09,28.72 -188.24,98.6l-113.79 56.77c-30.42,-1.37 -56.54,-11.08 -73.66,20.48l-37.4 102.5 -7.38 72.23c-35.42,100.76 -28.04,64.15 -38.23,170.63l-7.6 55.81c-16.31,23.85 -26.48,34.71 -31.78,67.19l-6.26 84.96c-43.42,85.63 -39.94,64.47 -52.67,162.04l-0.69 45.59c3.4,11.03 -6.89,28.71 -7.36,35.12l14 95.38c-39.01,127.72 -22.35,110.06 -94.95,202.51l-74.48 39.49 -148.42 116.49c-45.83,14.97 -37.39,7.87 -68.37,31.92 -21.41,16.63 -41.88,-21.94 -68.14,-54.5 -8.26,-10.25 1.1,-13.14 -20.97,-48.64l-1.74 -28.69c-34.82,-9.97 -47.04,9.71 -61.45,-5.73 -20.51,-21.98 -14.87,-20.12 -34.61,-28.02 -12.48,-5 -34.26,-48.67 -40.4,-53.67 -21.32,-17.35 -27.97,19.55 -56.12,-90.27 -11.01,-42.94 -8.55,-38.17 -89.68,-53.63l-24.7 -24.16c-11.26,7.9 -13.24,-0.92 -25.28,4.23 -16.92,7.23 -25.28,-9.32 -34.64,-21.83 -45.62,0 1.97,-15.52 -64.66,-0.47 -16.22,3.66 -35.95,-17.23 -21.6,-51.21l-19.2 -13.56c-14.6,27.23 -50.78,17.49 -55.75,3.29l-8.58 -24.53 -16.48 -7.77c-36.87,9.2 -34.88,9.27 -50.83,-25.01l-13.52 -2.9 -34.65 39.34c0,34.31 3.11,26.53 -15.01,49.72 -8.77,11.22 -59.71,13.33 -84.64,16.58 -11.27,1.46 -16.76,-5.03 -21.19,-13.33 -7.03,11.14 -17.36,8.84 -27.05,7.68 -10.48,14.02 -16.91,11.02 -32.62,7.93 -15.96,24.03 -20.4,9.05 -30.71,31.24 -8.92,19.21 -31.2,7.96 -52.84,1.85l-10.13 10.87c4.7,51.36 -20.44,31.31 -36.9,31.7 -12.82,0.31 -24.48,17.06 -42.64,-4.62 -3.4,18.32 -21.5,15.69 -34.43,15.68 -6.19,14.85 -5.77,16.9 -20.71,21.7 9.59,14.36 -3.06,24.57 -10.14,31.05 7.59,32.5 15.54,47.26 -20.52,51.03 -6.32,16.78 -26.78,16.65 -34.51,4.04 -36.27,5.15 -34.5,8.74 -51.7,-7.36 -17.54,10.47 -18.06,9.09 -36.53,-0.85 -73.36,61.24 -26.5,3.17 -76.22,51.54 -4.78,4.65 -11.35,6.36 -17.46,5.02 -23.37,31.36 -22.26,12.33 -82.03,-5.06 -14.64,-4.26 -13.66,-20.58 -24.31,-29.4 -7.89,11.83 -10.69,17.55 -25.63,20.46 -3.91,6.94 -48.66,31.17 -63.28,19.74 -20.22,8.98 -52.85,22.64 -60.84,0.69l-0.31 -0.02c-0.93,4.36 -14.95,29.03 -29.69,29.03 -92.53,0 -57.17,6.85 -108.04,-17.92l-28.4 -19.76c-14.42,-2.59 -20.97,-31.73 -58.79,-42.76 -30.33,58.75 -21.91,57.03 -51.33,67.65 -12.99,4.7 -80.61,-32.96 -83.98,-45.91 -26.05,13.96 -44.54,1.28 -48.51,-13.78 -11.41,0 -34.9,-17.06 -27.68,-51.64 -31.9,-6.9 -29.63,-14.47 -21.51,-42.92 -44.84,-27.43 -24.34,-25.11 -15.97,-57.94l5.83 -58.35 -6.21 -20.4c-1.42,-46.03 4.34,-68.16 -10.82,-77.92 -27.61,-17.79 22,-62.9 25.29,-80.6 0.74,-50.26 -40.43,-43.71 -20.75,-72.03 -9.5,-30.44 -8.4,-19.56 -0.17,-57 -18.88,0.71 -44.17,-31.71 -41.3,-50.16l5.27 -33.89c-18.26,-23.36 -23.25,23.05 -22.68,-73.16 -15.93,4.49 -23.13,-11.36 -24.03,-12.06 -5.73,-4.49 -30.38,-6.31 -35.91,-20.25 -29.85,10.63 -26.13,11.68 -49.6,-9.37 -14,-12.55 -0.82,-28.29 -0.19,-31.81 6.11,-33.94 -22.05,-35.69 13.38,-77.9 -3.18,-10.23 -7.43,-18.6 -0.75,-27.83 -28.69,-42.23 2.42,-21.2 -20.99,-66.52 -1.54,-2.97 -2.26,-5.98 -2.18,-9.12 -17.8,-11.59 0.08,-26.32 -18.35,-69.12 -23.08,-4.18 -39.64,-67.74 8.97,-63.38l0.26 -29.67c-9.48,-20.3 39.03,-70.08 52.25,-98.13l18.49 -57.5c-11.48,-20.54 -24.83,-7.32 -26.64,-28.45 -3.46,-40.44 -15.9,-48.08 -57.9,-79.81 -17.84,-13.48 2.07,-38.56 2.48,-48.86 0.45,-11.16 -23.7,-50.86 3.61,-67.08l37.83 -22.92c-13.47,-2.42 -29.23,-26.54 -18.49,-49.67 -16.1,-36.9 -24.91,-47.76 15.58,-56.53l9.77 -19.29c-41.07,-38.86 -35.08,-24.07 -32.91,-76.47 -51.05,-9.86 -1.36,-37.34 -72.58,-5.2 -39.59,17.86 -22.9,-57.28 -22.96,-57.95 -0.76,-9.01 -11.44,-23.8 -2.75,-36.1 -13.66,-51.14 -55.87,-62.73 -25.86,-88.43 -2.42,-41.04 -11.17,-34.43 -1.1,-52.21 -7.34,-23.46 -58.14,-19.98 -50.07,-49.58 4.72,-17.35 16.43,-42.3 11.08,-59.3 -4.28,-13.6 5.39,-19.98 13.26,-26.53 -9.34,-16.14 -25.19,-37.1 -22.42,-48.93 -26.58,-1.64 -14.75,-34.69 -14.76,-34.74 -2,-13.26 -20.42,-8.42 -0.23,-43.2 -15.83,-57.78 -7.08,-34.67 -5.73,-50.4 1.65,-19.2 -22.62,-16.43 -21.12,-37.07l-7.65 -52.85c-5.29,-14.66 10.18,-26.66 12.01,-33.03l2.87 -39.68c12.53,-20.23 -10.83,-19.34 10.77,-42.45 -8.02,-38.16 11.75,-29.13 23.93,-47.33 8.38,-12.54 -2.19,-21.69 23.58,-35.49 -1.59,-11.67 18.9,-27.82 21.64,-91.92 1,-33.57 -8.32,-23.41 4.99,-55.35 -12.55,-29.69 -10.07,-18.85 -5.96,-58.77 -22.17,-15.85 -11.96,-46.39 -19.43,-60.29l-67.29 -54.16c-16.29,-21.73 -7.1,4.28 -53.26,-45.17l-7.97 -33.01c-16.21,-7.89 -43.04,-17.56 -47.83,-28.28l-49.71 -115.32c0,-72.55 -17.02,-23.68 3.23,-83.37 4.7,-7.3 18.76,-4.9 20.64,-50.98 3.08,-75.43 -30.07,-39.9 -11.9,-83.58 -48.63,-15.37 -18.25,6.35 -53.14,-4.25 -28.81,18.44 -34.61,-16.6 -34.87,-16.98 -9.58,-14.61 -38.35,-14.52 -15.45,-48.76 -6.69,-19.05 -41.04,-6.8 -60.96,-75.91 -10.44,-63.27 -2.65,-52.22 -27.2,-76.48 -78.51,9.36 -60.91,14.93 -103.11,-3.7 -16.49,10.15 -11.3,-7.87 -42.7,5.03 -13.62,38.99 -29.76,19.1 -36.56,17.04 -18.6,-5.64 -8.32,18.75 -51.08,-19.35l-12 3.68c-15.43,33.04 -43.29,32.31 -53.68,6.34 -41,-5.48 -32.96,-0.97 -67.24,-16.24 -16.78,20.47 -16.52,21.19 -41.63,13.14 -20.28,16.26 -44.6,-8.93 -65.18,-23.6 -1.29,1.21 -2.72,2.2 -4.25,2.98 -10.8,40.21 -55.32,17.99 -55.42,17.99 -11.83,-0.2 -32.55,27.2 -61.25,-3.4 -9.02,3.9 -20.14,0.36 -24.83,-9.09 -5.36,2.09 -11.22,1.67 -16.28,-1.23 -27.58,9.99 -28.46,-15.6 -32.64,-21.18 -19.48,-26 -31.02,1.6 -39.01,-60.78 -25.39,4.08 -36.16,9.76 -47.96,-2.84 -27.36,18.15 -31.67,-34.07 -67.62,-43.63 -25.7,27.75 -34.59,-21.36 -59.45,-36.57 -11.27,-4.66 -24.46,-38.04 -24.79,-41.26 -2.51,-1.58 -4.57,-3.71 -6.06,-6.25 -32.33,-1.74 -34.04,-49.65 -38.25,-52.66 -12.08,-8.6 -11.18,-30.77 0.04,-47.68 -14.21,-30.54 -12.49,-6.98 -21.28,-36.98 -8.67,-29.61 -33.12,-19.9 -22.04,-60.87l-14.44 -1.65c-5.97,10.72 -15.32,16.38 -26.43,11.18 -9.98,7.68 -18.77,3.3 -26.86,-2.43 -19.98,9.14 -24.68,-1.34 -32.61,-0.44 -4.39,2.33 -9.21,2.88 -13.83,1.6 4.17,30.89 -44.31,19.94 -58.67,24.26 -2.07,13.72 -8.16,15.07 -20.27,21.5l-7.85 34.97c12.52,22.38 9.4,39.08 -10.94,39.08 -21.56,36.35 14.4,21.4 -45.83,52.06 9.64,48.23 -4.68,25.14 -4.68,45.61 0,10.58 -6.96,17.07 -17.23,19.19 -8.51,16.42 -11.08,26.57 -31.9,22.05l-41.72 24.32c4.44,23.87 -6.46,24.64 -43.26,52.51 -3.9,2.96 -8.51,4.27 -13.06,3.9 11.82,50.58 -38.66,34.9 -40.18,33.83l-19.69 -17.47c-20.06,0 -48.29,-20.42 -51,-30.6l-4.17 -15.6c-1.26,1.46 -2.72,2.67 -4.39,3.67 2.97,22.23 -16.94,23.43 -20.14,26.44 -4.88,4.59 -16.95,51.73 -42.5,33.53 -16.9,-12.04 -34.93,-20.34 -34.22,-35.08 -49.11,15.23 -23.85,49.67 -84.22,17.41l-4.16 20.03c13.33,35.62 8.04,34.83 -31.13,48.85 -10.46,22.31 -20.09,28.12 -52.02,33.88 -14.52,2.62 -20.79,-9.97 -30.45,-22.38 -20.61,9.28 -29.95,-18.44 -36.06,-23.74 -21.65,-18.84 -25.24,9.54 -21.42,-65.24l-3.16 1.56c0,26.09 0.08,29.3 -26.09,34.93 -18.09,3.89 -10.08,-6.53 -40.24,-25.46 -12.85,7.53 -54.14,14.63 -70.41,-28.81 -12.49,17.51 -56.8,4.34 -66.04,-17.93 -41.58,8.35 -25.61,12.4 -54.1,6.22 -16.03,12.03 -23.36,21.4 -39.95,9.61l-34.18 10.78c-10.31,14.76 -27.95,12.57 -35.18,7.54 -23.87,8.32 -61.04,-21.58 -58.18,-39.65l-19.41 -6.35c-12.99,8.85 -26.31,22.08 -40.46,8.91l-42.95 7.85c-25.02,13.4 -24.91,-17.7 -34.03,-28.84 -48.1,45.01 26,12.66 -71.38,59.56 -20.22,9.74 -34.76,-20.66 -43.08,-24.5 -16.04,-7.38 -49.9,8.54 -49.9,-30.31l-0.6 -0.48 -30.87 12.65c11.64,24.74 -28.25,41.42 -41.89,26.81 -18.12,-19.41 -8.45,-13.63 -43.21,-21.98 -10.05,8.54 -25.22,3 -31.36,-1.95 -27.09,11.64 -25.2,-2.68 -35.81,-12.61 -9.99,-9.35 -5.11,-20.34 -2.06,-33.43l-0.78 -0.52c-15.52,7.36 -23.61,-5.4 -28.49,-15.85l-15.4 -5.15c-23.88,25.47 -25.63,12.19 -59.42,-11.07 -13.13,13.49 -18.98,1.34 -47.46,-7.19 -17.05,13.1 -43.55,-0.9 -47.42,-10.77 -23.37,6.32 -23.27,1.4 -40.94,-21.77 -1.34,0.91 -42.7,20.16 -54,16.52 -15.04,-4.83 -31.7,-13.88 -47.45,-11.03 -19.54,3.53 -41.69,-37.79 -39.75,-48.15l3.69 -19.75c-17.52,-12.97 -31.28,-15.23 -27.67,-32.03 -3.18,-2.6 -5.42,-6.2 -6.39,-10.38 -19.28,-5.86 -12.9,-23.84 -8.76,-34.19l-6.32 -14c-32.32,16.52 -20.5,11.57 -73.11,11.57 -14.24,0 -5.06,-6.2 -26.95,-9.58l-23.46 -21.62 -5.03 2.4c-3.96,17.24 -16.29,7.31 -22.03,28.61 -3.68,13.7 -20.8,19.47 -32.19,8.5 0.41,2.77 -3.63,39.95 -15.54,47.25 -42.18,25.83 -27.86,2.41 -49.59,7.12 -11.48,2.48 -23.45,-8.39 -37.02,-17.09 -18.54,42.3 -13.26,41.84 -39.4,47.46 -22.75,4.9 -15.63,-16.72 -38.19,-27.05 -11.37,-5.21 -11.98,-18.22 -15.7,-33.12l-33.51 11.52c1.74,16.56 -17.69,27.68 -31.17,16.82 -29.29,-23.6 -35.9,9.5 -51.03,-22.94 -11.5,2.86 -105.59,8.63 -75.88,-41.46 -13.8,-5.91 -13.96,-17.42 -20.35,-37.98l-21.08 -3.1c-12.85,17.63 -42.77,15.35 -49.68,9.78 -19.39,11.85 -33.96,-4.82 -30.88,-19.13l10.96 -50.94c-23.71,-25.43 -28.6,7.17 -39.42,-51.37l19.28 -40.59c71.32,-46.35 60.43,-26.94 63.36,-92.27l17.07 -31.09 30.24 -84.18 -1.6 -8.52c-25.57,-11.77 -21.13,-38.33 -13.97,-45.5l43.91 -38.26c-80.39,-47.83 -104.14,-49.19 -83.75,-82.14 7.76,-12.53 52.03,-18.96 66.73,-35.78l31.51 -67.52 4.8 -25.66c-25.62,-5.07 -82.52,-47.06 -61.35,-79.41 44.5,-68.02 51.92,-33.47 111.15,-102.7 -5.63,-12.09 -79.28,-27.48 -91.78,-73.44 -20.73,-76.17 -24.06,-53.48 8.76,-106.3l26.97 -22.19c-17.12,-24.48 -73.09,-32.43 -80.8,-51.64 -19.66,-48.95 -14.15,-31.72 -16.65,-88.08l24.81 -53.44c23.17,-17.99 27.11,-21.62 44.78,-56.61 17.43,-34.56 -2.06,-36.44 6.53,-53.65 26.42,-52.96 30.48,-50.09 39.81,-100.09 3.38,-18.09 76.69,-87.55 89.79,-130.59l4.81 -25.81c-77.4,-23.04 -79.51,-15.34 -124.22,-79.12 -23.21,-33.11 71.5,-77.05 116.07,-121.49 11.58,-14.32 18.77,-55.78 17.61,-72.79 -1.91,-27.86 -38.99,-105.82 -24.28,-139.81l24.62 -56.86c-41.14,-75.14 -33.03,-44.81 -39.21,-118.52 -1.34,-16 24.66,-33.54 38.35,-52.59 20.46,-28.5 21.55,-48.92 51.95,-81.48 -15.64,-35.84 -14.46,-23.43 -3.62,-65.38 -27.43,24.51 -17.67,20.67 -56.68,20.67 -11.87,0 -35.22,-22.95 -37.4,-28.34 -29.95,-73.77 -24.2,-69.02 -66.78,-62.96 -11.02,1.56 -46.23,-19.53 -34.72,-40.11 28.17,-50.36 14.17,-20.85 55.65,-50.68l61.34 -55.07c0.03,-0.05 10.35,-31.18 1.35,-44.53l-46.95 -46.23c-23.1,-10.77 -36.62,34.18 -111.96,14.17 -14.9,-3.96 -23.7,-35.64 -18.9,-45.6 55.01,-114.13 45.28,-115.08 170.06,-91.5 -14.41,-17.76 -11.78,-36.95 -17.41,-47.53 -25.76,-38.13 -31.63,-24.96 -69.05,-94.73 -13.54,8.26 -26.4,85.98 -54.83,83.61 -58.6,-4.88 -85.86,7.27 -78.55,-70.04 4.55,-14.94 14.24,-11.8 28.37,-69.12 -38.61,-11.82 -24.54,-5.86 -69.46,-56.57 -10.46,-11.81 1.02,-59.98 1.88,-61.58l20.09 -37.23 -37.54 -124.11 8.77 -63.1c9.77,-17.87 40.31,-61.19 34.74,-81.2l-41.32 -68.35c-5.05,-3.83 -68.85,-14.71 -77.88,-24.39 -60.62,-64.95 -37.5,-30.93 -76.2,-149.74 -4.83,-14.82 21.3,-46.4 22.89,-111.54 1.09,-44.31 -38.22,-25.27 -39.03,-24.52 -0.06,0.06 -25.79,57.12 -52.91,38.44 -46.08,-31.75 -35.46,-14.93 -47.27,-85.07 -5.11,-30.42 23.64,-65.77 33.18,-69.88 27.72,-11.92 34.7,-10.9 43.61,-25.2 -6.38,-23.87 -69.98,5.21 -76.72,-30.72 -8.45,-45.01 31.81,-73.51 41.52,-74.16 73.63,-4.97 47.3,-18.79 73.62,-51.3 42.31,-52.26 19.23,-40.05 106.22,-48.26 11.66,-18.69 13.71,-73.82 30.58,-82.83 34.22,-18.27 49.26,-24.66 88.97,-17.51 24.05,-19.33 18.66,-19.16 37.86,-62.22 8.17,-18.33 64.68,-26.84 87.89,-3.3l24.81 25.13 20.17 -39.27c22.51,-36.64 40.55,-42.51 45.23,-74.79l-487.59 -437.1c-6.19,-5.55 -8.11,-14.02 -4.89,-21.7l632.69 -1512.01c3,-7.19 9.58,-11.65 17.37,-11.79l124.65 -2.17 15.67 -25.84c-5.03,-9.44 7.91,-36.27 -27.24,-53.48 -8.49,-2.3 -14.19,-9.74 -14.19,-18.53l0 -143.86c-34.18,0.95 -94,12.46 -84.37,-22.48l379.62 -1376.43c2.16,-7.81 8.56,-13.21 16.62,-14l143.47 -14.16c-12.88,-29.28 -10.23,-25.61 -36.09,-34.28 -7.77,4.47 -17.78,2.99 -23.91,-3.91l-130.74 -150.51 -45.35 -178.09 -219.46 -453.95c-17.79,-36.79 53.27,-27.56 67.88,-27.56l0 -15.5c-5.64,-14.63 -71.77,-63.72 -67.28,-85.95l15.66 -77.47c-25.08,-30.18 -18.52,27.14 -47.88,-63.13 -30.13,0 -30.48,-65.12 -41.04,-72.1 -19.06,-12.6 -15.34,22.4 -41.66,-52.89 -5.3,-15.16 13.83,-33.27 15.01,-41.12 -4.35,-2.5 -27.89,-31.29 -12.64,-46.58 -8.27,-4.49 -28.81,-37.19 -7.79,-54.06 0,0 0,0 0,-0.01 -36.08,-27.5 -10.28,-68.98 24.83,-58.24l43.75 13.42c20.16,-54.03 9.84,-42.44 44.92,-64.97 22.15,-14.22 57.51,37.88 57.9,45.58 2.29,45.71 -2.65,32.28 16.39,60.29 7.65,11.25 -0.89,26.48 -0.2,31.26 1.05,7.31 19.98,24.32 8.47,40.08l14.55 30.75c18.14,20.61 -1.51,29.31 15.39,45.57 8.89,4.15 13.23,14.44 9.45,24.62 13.22,26.4 23.12,32.55 11.62,48 5.09,16.49 -9.51,22.55 -18.79,26.31 -4.77,28.24 6.98,13.31 -0.66,40.61l21.16 18.49 8.79 -3.12c2.75,-15.1 27.29,-30.09 40.38,-14.23 31.86,38.62 30.7,29.84 42.13,63.38 20.32,8.83 17.81,27.74 4.32,36.02 9.36,21.94 36.38,8.22 27.32,47.94 -1.46,6.39 -5.85,11.34 -11.6,13.59l3.36 12.62c50.23,-7.33 50.11,-11.61 60.67,25.12 37.64,0 25.82,22.48 35.77,33.71 16.99,19.21 50.59,2.15 39.42,53.95 35.3,16.19 18.55,13.42 77.34,3.72 32.8,-5.42 19.78,47.02 22.32,54.51l20.12 26.16c-3.45,-56.78 2.37,-37.84 20.91,-51.72 19.8,-14.82 23.33,-46.46 53.77,-35.58 10.9,-16.79 23.35,-48.39 44.17,-31.46 12.67,-31.02 9.84,-29.92 42.6,-29.92 16.43,0 15.21,14.92 26.16,20.79 19.39,-10.42 0.29,-8.38 34.58,-13.6 6.14,-15.18 21.51,-8.68 30.98,-28.89 7.25,-15.45 21.42,-12.96 34.47,-2.91 20.45,-10.95 33.68,-2.02 58.31,7.87l15.16 -11.86c-23.52,-60.32 16.95,-20.37 40.01,-50.77 11.94,-29.4 36.81,5.92 60.9,-0.11 32.21,-8.07 21.28,-30.34 76.97,-22.42 23.21,-31.04 19.9,-27.22 70.07,-2.37 5.78,-11.18 16.84,-10.28 28.71,-11.36 10.75,-34.6 5.91,-30.04 34.57,-41.23 20.78,-53.54 16.61,-17.48 43.46,-41.56 5.73,-5.15 13.54,-6.37 20.47,-3.32 18.15,-62.21 12.83,-70.12 40.83,-75.17 0.26,-3.35 17.97,-43.22 34.01,-45.38 38.32,-5.18 22.55,-37.43 34.87,-55.08l22.5 -32.19c-31.77,-14.72 -25.74,-28.51 -13.49,-55.92 -6.71,-16.66 -24.98,-48.59 15.33,-48.59 11.72,-20.1 9.98,-17.13 39.08,-21.57l19.92 -34.81c37.75,-19.24 36.27,-13.64 51.91,-35.94 11.88,-16.93 29.6,-3.32 43.63,4.19l17.79 -5.96c17.37,-55.94 12.55,-23.52 20.78,-43.31 -10.42,-25.03 -9.5,-18.18 2.82,-51.11l22.62 -11.91c-4.62,-14.84 2.76,-42.65 21.49,-42.65l16.41 -0.01c-27.38,-22.56 -31.24,-25.68 -6.7,-51.98 -38.6,-34.63 -6.09,-35.72 2.59,-54.24 4.07,-8.67 -3.21,-40.54 18.65,-45.22 22.2,-4.77 43.58,-12.79 57.29,-7.44 -7.2,-30.93 28.21,-41.33 50.19,-50.72l0.01 -0.07c-20.77,-25.51 -19.02,-30.4 8.17,-48.02 0,-47.04 32.95,-22.8 37.12,-29 13.44,-20.01 -16.46,-32.23 48,-38.06 14.83,-1.34 18.97,10.67 24.32,20.93l32.01 0.48c17.61,-16.41 32.33,7.33 39.48,16.07l19.13 -7.18c10.37,-25.14 31.35,-6.02 42.08,5.46 34.51,-24.94 49.46,22.26 80.86,11.05 -1.67,-15.1 26.92,-37.98 42.14,-31.26l27.99 12.34c14.26,-8.58 28.99,-20.73 40.49,-18.14 3.99,-3.78 9.47,-5.69 15.06,-5.12 -20.69,-33.31 7.41,-38.95 15.71,-36.93 11.21,-19.22 31.76,-25.02 40.96,11.21l25.5 14.26c14.71,-8.35 30.66,-7.46 35.75,12.61 19.4,-7.48 25.16,10.74 27.01,24.76 4.82,-6.31 37.53,-29.62 52.36,-21.21 7.06,-13.68 10.98,-12.46 30,-19.2 10.17,-30.2 4.77,-23.2 44.67,-41.2 -2.91,-24.38 24.51,-40.04 37.79,-33.55 15.89,7.76 31.95,12.17 34.47,25.3 1.14,-1.68 28.12,-29.29 44.82,-20.3l11.84 6.38 13.95 -4.52 3.16 -6.8c-6.57,-17.71 -17.37,-41.72 19.55,-41.72l14.81 -14.58c-0.78,-10.92 6.03,-15.44 13.04,-20.5 0.3,-17.86 26.34,-35.69 61.51,-16.2l17.22 -9.54c1.76,-12.33 15.31,-20.06 27.1,-14.53l20.2 -11.06c2.66,-17.11 10.49,-49.46 33.75,-31.01 6.76,-7.78 18.93,-8.8 27.04,-1.67l24.14 -11.78c5.01,-11.36 14.4,-12.53 24.76,-10.72l22.66 -12.64c23.98,-29.99 32.13,-5.34 46.28,1.27 33.95,15.84 40.88,-20.96 62.32,-4.27l17.63 0.99c27.44,-16.58 49.2,24.99 53.69,28 25.49,17.08 11.98,-17.66 53,45.88l-9.28 52.52 14.35 15.8c9.41,0.02 19.63,-0.34 24.8,11.66 11,-0.01 15.17,7.65 21.31,15.61 19,-5.77 34.63,-14.38 45.43,-1.88 7.55,8.75 4.75,16.68 0.88,24.87l5.32 7.9c27.76,-44.7 33.52,-14.41 48.93,-9.34 12.82,4.21 56.57,-13.53 65.97,9.96 14.29,-2.77 22.83,10.54 36.54,24.21 12.61,-8.88 28.38,-4.74 31.11,24.02 14.69,-6.92 40.25,-12.22 42.7,10.52 20.34,1.83 52.74,4.97 43.52,39.29l12.47 14.13c9.78,-5.83 19.85,-2.56 26.92,7.2 24.7,-8.71 18.49,-6.66 58.23,10.37 10.52,7.92 -4.66,6.08 33.35,26.64 7.21,-7.04 25.8,-25.97 38.58,-5.26 32.08,-2.12 46.25,-13.37 60.36,5.84 9.44,-11.1 23.1,-19.6 34.51,-5.16 41.54,-17.89 27.65,17.78 47.89,44.95 16.24,-22.22 35.2,5.71 57.2,21.43 16.26,-2.94 27.5,3.41 27.77,17.57 11.09,5.54 -4.33,29.38 4.12,44.23 0.73,1.28 19,23.75 -7.08,33.1 24.69,-4.68 22.57,24.28 22.57,33.41 4.3,1.4 7.92,4.3 10.36,8.41 21.7,1.17 37.78,45.76 54,57.42 4.65,1.92 32.3,17.7 31.58,32.66l32.84 4.13c8.57,-9.18 20.62,-20.72 34.95,-5.31 15.56,-2.09 46.79,33.78 47.72,42.6 3.31,2.08 5.87,5.1 7.36,8.68l24.48 10.26c9.82,-2.63 22.74,-7.52 31.03,6.05 32.05,-11.4 37.72,7.4 51.44,9.55 17.46,-22.25 37.76,10.05 37.79,10.08 13.7,10.23 35.9,2.32 41.48,47.48l17.84 1.24c10.97,-10.07 17.03,-14.26 31.99,-4.62 12.49,-3.83 64.11,-17.62 59.84,16.15l14.12 11.97c22.16,-14.31 42.91,25.73 40,37.14 23.17,14.06 11.55,24.35 22.11,34.07 3.42,1.57 6.35,4.17 8.37,7.57 27.16,0 49.04,32.51 50.34,38.15l35.32 13.26c20.53,-11.35 23.04,12.15 58.44,42.85 10.87,-1.29 49.97,-11.05 46.11,18.5l5.23 2.8c32.53,-25.42 -9.82,-34.06 52.46,-47.31 5.73,-1.22 11.39,0.15 15.73,3.52 15.05,-6.82 15.44,6.03 30.82,3.35 12.63,-2.2 17.77,5.98 22.86,13.78l16.97 0.9c10.33,-10.44 21.58,-3.97 32.44,0.26l15.66 -7.69c8.52,-22.3 37.38,-10.25 51.3,-2.28 0.83,-0.53 1.7,-0.99 2.6,-1.38 3.26,-9.29 6.53,-20.57 21.24,-20.26 10.54,-18.84 37.13,-16.73 56.98,-18.07 14.82,-19.74 29.95,-11.9 84.93,-10 10.99,0.38 17.36,10.37 26.6,20.26 25.73,-9.11 18.31,-8.46 51.08,3.94 29.45,-39.34 45.76,-4.03 60.7,-24.02 -3.74,-23.7 6.42,-24.33 42.94,-54.24 8.65,-7.08 19.43,-3.36 21.85,-4.34 11.81,-4.79 -0.9,-13.43 44.16,-28.57 -10.61,-15.93 8.13,-30.11 9.31,-34.57 4.39,-16.67 -14.6,0.01 13.89,-50.9 2.65,-4.72 39.31,-31.11 62.79,-23.59l25.58 -14.69c3.92,-33.11 27.73,-31.59 39.37,-10.89l7.26 1.95c8.44,-8.93 15.35,-7.97 25.18,-4.49l9.11 -6.2c5.34,-33.95 28.3,-20.24 53.34,-11.82 13.28,-6.6 25.36,-15.36 36.16,-11.52 35.47,-19.02 32.17,-12.78 47.68,-34.88 12.88,-18.33 30.01,-2.13 37.61,3.97 14.72,-3.46 19.19,7.71 31.75,23.03 43.03,-30.69 31.19,-11.14 52.17,-7.67 27.81,4.6 20.84,-21.09 65.45,13.65 14.67,-1.91 34,-0.7 31.03,20.41 29.58,13.58 -4.5,27.14 19.16,66.55 24.7,4.73 54.35,6.46 64.92,17.8 24.55,-3.78 36.88,21.96 38.44,31.98 14.95,5.35 14.29,12.89 17.12,28.15 28.17,10.63 56.47,19.13 36.45,54.72 -0.01,0.02 -0.02,0.03 -0.03,0.05 17.47,26.27 6.32,20.1 7.34,32.28 28.2,9.33 2.58,42.74 -7.22,61.08l50.67 36.7c10.94,-3.01 16.62,3.17 23.18,9.22 19.72,-10.79 11.61,7.98 38.62,-1.74 5.33,-1.91 10.65,-1.51 15.64,1.19 7.14,-7.68 17.43,-20.79 32.23,-10.58 67.25,-13.45 50.79,-43.57 70.31,-52.89 27.27,-13.02 37.43,-22.4 55.67,-19.57 7.57,-8.11 13.45,-16.97 25.63,-14.79 15.92,-19.44 45.01,-24.25 54.58,-18.57 17.02,10.11 9.18,8.77 32.6,4.61l20.27 9.58c11.53,-2.94 17.41,3.51 23.03,10.52 8.5,-4.53 17.71,-10.74 28.58,-2.41l48.26 3.85c-2.52,-12.31 3.39,-16.76 11.64,-27.09l2.3 -24.34c40.21,-54.96 35.6,-38.23 35.6,-77.43l6.76 -16.82c-19,-32 -29.93,-38.51 -3.53,-77.96 15.92,-23.81 12.85,15.53 23.34,-33.13 3.24,-15.05 79.07,-66.45 116.52,-44.23l7.71 -3.36c6.06,-10.88 31.81,-15.9 35.66,-19.44l10.11 -16.09c23.1,-19.43 24.44,-16.22 28.77,-32.31 4.67,-17.35 12.46,-2.45 26.94,-37.45l49.98 -50.88c29.68,-40.63 -11.08,-31.78 98.46,-77.27l-4.91 -36.5c29.28,-86.95 20.08,-108.37 97.93,-112.9l25.27 -44.84c19.82,-17.78 -4.38,-14.15 20.61,-40.91 8.47,-9.07 23.7,-5.86 27.75,-7.64l28.23 -21.44c60.94,-12.34 43.82,-15.38 84.85,6.6 10.81,5.79 10.48,17.33 12.83,31.03 12.29,7.93 24.28,12.67 23.49,26.72l-48.04 852.99c-0.88,15.53 -37.55,36.45 -50.95,30.45l-16.42 -7.35c-39,26.66 -63.59,11.39 -83.26,20.75 -15.75,13.48 -33.81,-7.29 -40.68,-6.23 -23.15,33.02 -30.75,19.98 -64.06,40.71 -36.16,22.49 -15.99,43.87 -33.51,57.28 -45.4,34.77 -17.16,21.11 -31.69,38.92 -39.6,48.56 -16.74,62.18 -28.06,76.76 -37.75,48.61 -20.85,44.33 -32.23,60.22l-47.3 66.1c-3.62,9.35 4.7,10.16 -10.83,30.07 2.47,11.11 -3.98,17.64 -11.16,29.17 5.81,24.93 -12.06,-4.25 8.36,50.75 1.05,2.84 1.43,5.74 1.18,8.55 2.38,2.06 4.15,4.62 5.25,7.4 10.82,-1.96 15.42,3.42 23.52,9.91 39.26,-17.99 43.08,-25.99 81.66,0.65 0.01,0 38.79,10.21 66.99,35.64 1,1.08 19.71,-3.39 23.3,17.51 3.92,1.3 28.73,17.29 25.93,33.06 9.81,1.46 24.61,3.61 24.34,20.41 3.92,2.53 6.79,6.44 8.02,11.13 10.68,-1.78 21.2,5.61 22.38,16.87 13.86,8.89 9.02,35.65 20.12,38.03 19.15,4.11 58.7,-24.11 83.22,-1.13 14.84,-13.28 34.52,4.31 37.39,12.27l32.21 -14.25c3.36,-18.5 11.86,-17.96 30.37,-22.53 3.34,-28.25 19.56,-22.43 66.73,-24.73l17.3 7.91c50.11,-9.86 32.72,19.46 48.88,37.48 4.72,5.27 32.02,12.55 36.12,26.59l2.39 0.64c37.97,-35.56 50.35,3.3 57.35,6.88 19.46,1.85 15.61,15.48 50.67,11.7 12.28,-1.32 17.36,6.47 21.42,15.17 19.9,2.15 24,1.97 29.39,22.31l24.57 -4.88c8.19,-39.19 9.37,8.23 16.67,-57.73 0.85,-7.67 5.95,-13.82 13.05,-16.13 1.26,-12.73 10.79,-15.68 19.89,-18.14 5.82,-29.66 66.92,-7.68 85.73,3.51l44.76 31.18c67.95,-12.83 60.09,7.95 71.54,-7.41 8.77,-11.75 75.57,-19.58 78.61,-18.87 14.37,3.31 143.71,30.57 156.47,41.48l12.79 10.92c25.54,-10.84 31.75,30.56 37.12,35.91l19.98 9.15 180.91 -6.83c33.81,-1.28 15.12,52.46 3.96,59.06 -52.54,31.08 -72.61,13.01 -92.62,22.7 -0.72,0.34 -19.02,15.36 -19.54,27.05l25.55 119.24 -2.05 43.58 34.76 123.76c0,68.65 -4.19,43.83 14.48,106.74l2.8 77.55 46.86 54.04c43.68,2.25 34.5,-2.32 61.56,13.3 21.88,-57.3 6.32,-35.14 84.04,-89.73l68.52 -19.57 48.9 7.76c109.01,36.11 65.82,30.81 180.17,22.45 12.48,-0.91 74.27,22.34 87.43,36.42 57.35,61.39 48.8,48.1 39.93,111.52 -2.14,15.32 -38.97,37.67 -46.61,48.45 -10.39,14.65 -14.08,54.84 -34.01,58.91l-124.56 25.39c-4.08,23.91 -7.3,68.39 -18.7,76.54 -43.02,30.76 -39.33,27.47 -56.08,81.21 -5.61,18 -47.91,22.96 -58.47,31.15l-28.73 44.95c41.09,53.72 -0.27,23.94 35.66,67.15 8.18,9.83 20.31,31.05 15.08,49.2 46.52,0 38.28,45.66 36.86,58.44 77.91,12.23 51.86,0.74 114.62,45.61 3.02,2.17 5.11,4.78 6.52,8.16l22.4 7.88c17.59,-4.72 32.57,-11.98 43.23,-4.17 43.67,31.97 27.57,26.67 67.19,26.67l35.33 18.27 31.64 -1.55c28.81,5.58 27.64,-0.19 76.38,-20.03 12.07,-4.91 82.41,11.2 100.47,28.12 18.49,-13.22 21.67,-8.31 61.8,-6.63 12.73,-21.85 40.2,-47.86 64.37,-56.49 11.67,-24.78 66.78,-8.84 69.6,-6.58l24.02 23.85c72.87,21.79 30.71,23.12 118.2,40.02 21.12,4.08 41.22,75.47 55.3,92.87 19.44,24.02 16.01,-9.77 29.26,46.64 17.37,5.58 27.3,7.76 23.82,29.71l54.64 59c32.48,2.69 22.57,22.62 31.2,37.81l6.06 9.36c24.31,4.35 -0.16,9.26 34.85,19.53l20.76 14.04 1.21 -0.29c14.8,-36.62 45.42,-10.66 65.22,-17.26 34.07,-11.37 25.04,10.84 43.23,20.06 8.12,4.11 32.35,-2.45 74.25,14.43l14.56 5.37c20.96,-9 17.91,-9.24 38.25,-0.46l29.82 35.71c10.32,5.52 10.13,13.98 10.13,22.87l19.58 29.82c18.12,-9.64 25.08,1.61 32.6,12.85 16.63,0 11.39,6.3 24.53,4.78 11.59,-1.35 36.91,17.63 30.17,44.12l9.95 30.5c18.91,0 26.44,12.99 21.1,27.22l17.17 9.1c19.01,-13.59 22.32,-18.76 41.12,-5.29 11.85,-3.17 20.49,3.82 24.2,15.79 1.44,0.14 42.34,10.32 47.02,24.95 11.26,-4.81 26.13,-6.59 33.2,5.64l22.89 -1.38c14.43,-28.87 36.18,6.28 47.11,5.81 27.19,-35.02 32.05,1.73 49.9,4.95 7.54,1.36 13.28,6.74 15.16,13.95 15.61,-1.85 19.52,8.73 27.02,20.84 27.2,0 42.64,45.36 40.39,55.25l15.71 19.79c17.67,3.39 7.51,11.51 25.99,32.72 32.92,-18.86 55.65,8.57 57.09,18.22 23.18,-5.19 24.28,2.49 63.77,29.19 5.19,3.51 8.2,9.01 8.46,14.92 2.84,1.33 5.27,3.36 7.19,6.05 16.61,-11.21 29.62,7.62 44.13,21.9 8.78,-0.63 51.74,-8.58 44.19,21.82l21.41 13.18c15.54,-17.86 50.83,8.22 46.03,27.09 14.66,-4.42 46,22.34 68.66,37.43 39.77,-26.65 32.64,-27.04 69.02,2.93l23.49 2.62c13.15,-5.66 9.57,-31.09 32.93,-24.26 21.57,6.3 28.35,-4.33 37.26,10.87 35.61,0.01 38.62,-3.78 48.29,20.4 25.6,9.16 5.85,-29.93 60.92,16.46 26.5,-10.63 31.58,2.01 34.36,23.31 24.39,-7.12 13.84,-35.09 55.71,3.28 33.27,-13.33 29.74,-8.6 46.74,14.91 15.12,-13 36.83,-12.19 44.14,6.01 5.86,1.04 32.22,15.87 22.36,34.8l12.62 13.52c43.95,-2.79 42.28,-7.6 65.18,44.69 24.94,-9.85 25.2,-10.97 43.04,8.15 44.19,-7.47 48.62,-12.11 65.47,12l0.81 25.37 24.99 23.03c20.14,-4.11 23.53,15.64 28.18,29.42 13.38,4.79 29.87,11.27 47.3,7.06 9.55,-4.54 25.3,-37.37 58.34,-10.81 9.59,-6.01 23.07,-2.15 27.68,8.79 27.29,10.55 21.76,5.9 35.75,38.47 65.56,19.18 34.5,-25.51 93.14,37.16 24.78,-4.44 11.18,12.71 52.28,8.66 7.73,-0.76 29.82,3.34 29.82,22.51 49.55,34.7 82.93,45.61 82.93,94.06 26.58,7.07 16.08,35.64 34.78,47.6 9.94,6.36 11.88,19.99 4.1,28.82 18.69,-7.31 32.88,18.59 34.53,23.86 36.95,-7.07 31.26,15.68 31.26,48.66 97.87,38.81 34.86,22.47 74.91,51.16 6.03,4.32 26.73,44.99 2.33,54.5 -99.66,38.83 29.22,95.8 34.01,172.52 0.96,15.36 6.17,68.03 -17.43,79.27 -16.37,7.81 -36.51,17.66 -54.05,5.56 -29.79,-20.54 -18.64,-19.87 -46.25,-7.22l-50.85 137.24c-2.16,3 -17.05,5.01 -36.74,59.99 -2.91,11.35 -0.15,63.39 -7.54,73.94 -15.06,21.49 -15.47,12.34 18.71,53.9 11.4,13.86 -3.56,32.17 -15.74,55.68 30.44,84.55 20.11,-2.72 37.39,122.09l-1.88 61.91c2.18,10.99 38.72,74.61 36.76,88.37 -9.98,70.08 -37.06,100.49 -38.22,115.61l27.46 74.02c-4.14,107.94 -6.96,51.33 -22.6,94.68l12.3 50.53c15.48,32.71 21.54,7.41 16.83,59.14l-51.48 119.77 -53.86 170.88c-12.78,47.31 -94.03,103.44 -130.67,133.64l-83.37 32.24c-73.7,12.01 -209.05,27.14 -271.85,67.4l-38.07 30.08z"/>
  <g id="Amambai">
   <path fill="white" stroke="white" stroke-width="20" stroke-miterlimit="22.9256" d="M5654.6 12052.51c0,-26.2 6.99,-45.54 25.1,-63.72 38.49,-38.64 106.38,-28.75 131.68,21.97 32.49,65.12 -24.14,133.87 -91.91,119.59 -12.04,-2.54 -31.09,-12.8 -39.79,-21.37 -8.65,-8.5 -11.68,-13.76 -16.85,-23.93 -4.18,-8.24 -8.23,-20.79 -8.23,-32.54z"/>
   <path fill="black" d="M5654.6 12052.51c0,-26.2 6.99,-45.54 25.1,-63.72 38.49,-38.64 106.38,-28.75 131.68,21.97 32.49,65.12 -24.14,133.87 -91.91,119.59 -12.04,-2.54 -31.09,-12.8 -39.79,-21.37 -8.65,-8.5 -11.68,-13.76 -16.85,-23.93 -4.18,-8.24 -8.23,-20.79 -8.23,-32.54zm83 369.87c20,0 90.69,-49.99 111.01,-68.1 25.03,-22.31 41.79,-37.13 62.88,-63.8 45.17,-57.11 73.27,-114.12 83.77,-188.54 7.81,-55.35 3.44,-105.86 -16.54,-153.67 -6.65,-15.88 -15.85,-33.42 -25.62,-47.19 -6.09,-8.6 -25.26,-32.93 -32.45,-38.9 -24.52,-20.3 -20.85,-20.09 -51.38,-38.9 -11.75,-7.23 -24.21,-13.85 -37.19,-18.15 -9.51,-3.14 -18.19,-6.24 -27.79,-8.61 -60.62,-14.97 -101.27,-11.08 -160.08,8.25 -18.47,6.07 -41.83,19.27 -57.63,31.2 -4.03,3.05 -6.97,4.86 -11.04,7.88l-28.08 25.8c-7.65,9.95 -11.53,12.66 -24.14,29.74 -41.81,56.64 -53.16,133.22 -43.38,202.55 6.34,44.89 22.51,94.51 45.68,133.44 18.53,31.12 22.58,35.21 45.13,64.07l44.18 44.65c27.81,24.49 99.53,78.28 122.67,78.28z"/>
  </g>
  <g id="AralMoreira">
   <path fill="white" stroke="white" stroke-width="20" stroke-miterlimit="22.9256" d="M4735.37 11666.47c0,-26.2 6.99,-45.54 25.1,-63.72 38.49,-38.64 106.38,-28.75 131.68,21.97 32.49,65.12 -24.14,133.87 -91.91,119.59 -12.04,-2.54 -31.09,-12.8 -39.79,-21.37 -8.65,-8.5 -11.68,-13.76 -16.85,-23.93 -4.18,-8.24 -8.23,-20.79 -8.23,-32.54z"/>
   <path fill="black" d="M4735.37 11666.47c0,-26.2 6.99,-45.54 25.1,-63.72 38.49,-38.64 106.38,-28.75 131.68,21.97 32.49,65.12 -24.14,133.87 -91.91,119.59 -12.04,-2.54 -31.09,-12.8 -39.79,-21.37 -8.65,-8.5 -11.68,-13.76 -16.85,-23.93 -4.18,-8.24 -8.23,-20.79 -8.23,-32.54zm83 369.87c20,0 90.69,-49.99 111.01,-68.1 25.03,-22.31 41.79,-37.13 62.88,-63.8 45.17,-57.11 73.27,-114.12 83.77,-188.54 7.81,-55.35 3.44,-105.86 -16.54,-153.67 -6.65,-15.88 -15.85,-33.42 -25.62,-47.19 -6.09,-8.6 -25.26,-32.93 -32.45,-38.9 -24.52,-20.3 -20.85,-20.09 -51.38,-38.9 -11.75,-7.23 -24.21,-13.85 -37.19,-18.15 -9.51,-3.14 -18.19,-6.24 -27.79,-8.61 -60.62,-14.97 -101.27,-11.08 -160.08,8.25 -18.47,6.07 -41.83,19.27 -57.63,31.2 -4.03,3.05 -6.97,4.86 -11.04,7.88l-28.08 25.8c-7.65,9.95 -11.53,12.66 -24.14,29.74 -41.81,56.64 -53.16,133.22 -43.38,202.55 6.34,44.89 22.51,94.51 45.68,133.44 18.53,31.12 22.58,35.21 45.13,64.07l44.18 44.65c27.81,24.49 99.53,78.28 122.67,78.28z"/>
  </g>
  <g id="Jaquari">
   <path fill="white" stroke="white" stroke-width="20" stroke-miterlimit="22.9256" d="M6867.31 5911.56c0,-26.2 6.99,-45.54 25.1,-63.72 38.49,-38.64 106.38,-28.75 131.68,21.97 32.49,65.12 -24.14,133.86 -91.91,119.59 -12.04,-2.54 -31.09,-12.8 -39.79,-21.37 -8.65,-8.5 -11.68,-13.76 -16.85,-23.93 -4.18,-8.24 -8.23,-20.79 -8.23,-32.54z"/>
   <path fill="black" d="M6867.31 5911.56c0,-26.2 6.99,-45.54 25.1,-63.72 38.49,-38.64 106.38,-28.75 131.68,21.97 32.49,65.12 -24.14,133.87 -91.91,119.59 -12.04,-2.54 -31.09,-12.8 -39.79,-21.37 -8.65,-8.5 -11.68,-13.76 -16.85,-23.93 -4.18,-8.24 -8.23,-20.79 -8.23,-32.54zm83 369.87c20,0 90.69,-49.99 111.01,-68.1 25.03,-22.31 41.79,-37.13 62.88,-63.8 45.17,-57.11 73.27,-114.12 83.77,-188.54 7.81,-55.35 3.44,-105.86 -16.54,-153.67 -6.65,-15.88 -15.85,-33.42 -25.62,-47.19 -6.09,-8.6 -25.26,-32.94 -32.45,-38.9 -24.52,-20.3 -20.85,-20.09 -51.38,-38.9 -11.75,-7.23 -24.21,-13.85 -37.19,-18.15 -9.51,-3.14 -18.19,-6.24 -27.79,-8.61 -60.62,-14.97 -101.27,-11.08 -160.08,8.25 -18.47,6.07 -41.83,19.27 -57.63,31.2 -4.03,3.05 -6.97,4.86 -11.04,7.88l-28.08 25.8c-7.65,9.95 -11.53,12.66 -24.14,29.74 -41.81,56.64 -53.16,133.22 -43.38,202.55 6.34,44.89 22.51,94.51 45.68,133.43 18.53,31.13 22.58,35.22 45.13,64.08l44.18 44.65c27.81,24.49 99.53,78.28 122.67,78.28z"/>
  </g>
  <g id="RibasRioPardo">
   <path fill="white" stroke="white" stroke-width="20" stroke-miterlimit="22.9256" d="M8408.79 6572.85c0,-26.2 6.99,-45.54 25.1,-63.72 38.49,-38.64 106.38,-28.75 131.68,21.97 32.49,65.12 -24.14,133.86 -91.91,119.59 -12.04,-2.54 -31.09,-12.8 -39.79,-21.37 -8.65,-8.5 -11.68,-13.76 -16.85,-23.93 -4.18,-8.24 -8.23,-20.79 -8.23,-32.54z"/>
   <path fill="black" d="M8408.79 6572.85c0,-26.2 6.99,-45.54 25.1,-63.72 38.49,-38.64 106.38,-28.75 131.68,21.97 32.49,65.12 -24.14,133.87 -91.91,119.59 -12.04,-2.54 -31.09,-12.8 -39.79,-21.37 -8.65,-8.5 -11.68,-13.76 -16.85,-23.93 -4.18,-8.24 -8.23,-20.79 -8.23,-32.54zm83 369.87c20,0 90.69,-49.99 111.01,-68.1 25.03,-22.31 41.79,-37.13 62.88,-63.8 45.17,-57.11 73.27,-114.12 83.77,-188.54 7.81,-55.35 3.44,-105.86 -16.54,-153.67 -6.65,-15.88 -15.85,-33.42 -25.62,-47.19 -6.09,-8.6 -25.26,-32.94 -32.45,-38.9 -24.52,-20.3 -20.85,-20.09 -51.38,-38.9 -11.75,-7.23 -24.21,-13.85 -37.19,-18.15 -9.51,-3.14 -18.19,-6.24 -27.79,-8.61 -60.62,-14.97 -101.27,-11.08 -160.08,8.25 -18.47,6.07 -41.83,19.27 -57.63,31.2 -4.03,3.05 -6.97,4.86 -11.04,7.88l-28.08 25.8c-7.65,9.95 -11.53,12.66 -24.14,29.74 -41.81,56.64 -53.16,133.22 -43.38,202.55 6.34,44.89 22.51,94.51 45.68,133.43 18.53,31.13 22.58,35.22 45.13,64.08l44.18 44.65c27.81,24.49 99.53,78.28 122.67,78.28z"/>
  </g>
  <g id="Bandeirantes">
   <path fill="white" stroke="white" stroke-width="20" stroke-miterlimit="22.9256" d="M7228.31 5162.75c0,-26.2 6.99,-45.54 25.1,-63.72 38.49,-38.64 106.38,-28.75 131.68,21.97 32.49,65.12 -24.14,133.86 -91.91,119.59 -12.04,-2.54 -31.09,-12.8 -39.79,-21.37 -8.65,-8.5 -11.68,-13.76 -16.85,-23.93 -4.18,-8.24 -8.23,-20.79 -8.23,-32.54z"/>
   <path fill="black" d="M7228.31 5162.75c0,-26.2 6.99,-45.54 25.1,-63.72 38.49,-38.64 106.38,-28.75 131.68,21.97 32.49,65.12 -24.14,133.86 -91.91,119.59 -12.04,-2.54 -31.09,-12.8 -39.79,-21.37 -8.65,-8.5 -11.68,-13.76 -16.85,-23.93 -4.18,-8.24 -8.23,-20.79 -8.23,-32.54zm83 369.87c20,0 90.69,-49.99 111.01,-68.1 25.03,-22.31 41.79,-37.13 62.88,-63.8 45.17,-57.11 73.27,-114.12 83.77,-188.54 7.81,-55.35 3.44,-105.86 -16.54,-153.67 -6.65,-15.88 -15.85,-33.42 -25.62,-47.19 -6.09,-8.6 -25.26,-32.94 -32.45,-38.9 -24.52,-20.3 -20.85,-20.09 -51.38,-38.9 -11.75,-7.23 -24.21,-13.85 -37.19,-18.15 -9.51,-3.14 -18.19,-6.24 -27.79,-8.61 -60.62,-14.97 -101.27,-11.08 -160.08,8.25 -18.47,6.07 -41.83,19.27 -57.63,31.2 -4.03,3.05 -6.97,4.86 -11.04,7.88l-28.08 25.8c-7.65,9.95 -11.53,12.66 -24.14,29.74 -41.81,56.64 -53.16,133.22 -43.38,202.55 6.34,44.89 22.51,94.51 45.68,133.43 18.53,31.13 22.58,35.22 45.13,64.08l44.18 44.65c27.81,24.49 99.53,78.28 122.67,78.28z"/>
  </g>
  <g id="PontaPora">
   <path fill="white" stroke="white" stroke-width="20" stroke-miterlimit="22.9256" d="M4571.45 10598.52c0,-26.2 6.99,-45.54 25.1,-63.72 38.49,-38.64 106.38,-28.75 131.68,21.97 32.49,65.12 -24.14,133.87 -91.91,119.59 -12.04,-2.54 -31.09,-12.8 -39.79,-21.37 -8.65,-8.5 -11.68,-13.76 -16.85,-23.93 -4.18,-8.24 -8.23,-20.79 -8.23,-32.54z"/>
   <path fill="black" d="M4571.45 10598.52c0,-26.2 6.99,-45.54 25.1,-63.72 38.49,-38.64 106.38,-28.75 131.68,21.97 32.49,65.12 -24.14,133.87 -91.91,119.59 -12.04,-2.54 -31.09,-12.8 -39.79,-21.37 -8.65,-8.5 -11.68,-13.76 -16.85,-23.93 -4.18,-8.24 -8.23,-20.79 -8.23,-32.54zm83 369.87c20,0 90.69,-49.99 111.01,-68.1 25.03,-22.31 41.79,-37.13 62.88,-63.8 45.17,-57.11 73.27,-114.12 83.77,-188.54 7.81,-55.35 3.44,-105.86 -16.54,-153.67 -6.65,-15.88 -15.85,-33.42 -25.62,-47.19 -6.09,-8.6 -25.26,-32.93 -32.45,-38.9 -24.52,-20.3 -20.85,-20.09 -51.38,-38.9 -11.75,-7.23 -24.21,-13.85 -37.19,-18.15 -9.51,-3.14 -18.19,-6.24 -27.79,-8.61 -60.62,-14.97 -101.27,-11.08 -160.08,8.25 -18.47,6.07 -41.83,19.27 -57.63,31.2 -4.03,3.05 -6.97,4.86 -11.04,7.88l-28.08 25.8c-7.65,9.95 -11.53,12.66 -24.14,29.74 -41.81,56.64 -53.16,133.22 -43.38,202.55 6.34,44.89 22.51,94.51 45.68,133.43 18.53,31.13 22.58,35.22 45.13,64.08l44.18 44.65c27.81,24.49 99.53,78.28 122.67,78.28z"/>
  </g>
  <g id="LagunaCaarapa">
   <path fill="white" stroke="white" stroke-width="20" stroke-miterlimit="22.9256" d="M5275.68 11106.61c0,-26.2 6.99,-45.54 25.1,-63.72 38.49,-38.64 106.38,-28.75 131.68,21.97 32.49,65.12 -24.14,133.87 -91.91,119.59 -12.04,-2.54 -31.09,-12.8 -39.79,-21.37 -8.65,-8.5 -11.68,-13.76 -16.85,-23.93 -4.18,-8.24 -8.23,-20.79 -8.23,-32.54z"/>
   <path fill="black" d="M5275.68 11106.61c0,-26.2 6.99,-45.54 25.1,-63.72 38.49,-38.64 106.38,-28.75 131.68,21.97 32.49,65.12 -24.14,133.87 -91.91,119.59 -12.04,-2.54 -31.09,-12.8 -39.79,-21.37 -8.65,-8.5 -11.68,-13.76 -16.85,-23.93 -4.18,-8.24 -8.23,-20.79 -8.23,-32.54zm83 369.87c20,0 90.69,-49.99 111.01,-68.1 25.03,-22.31 41.79,-37.13 62.88,-63.8 45.17,-57.11 73.27,-114.12 83.77,-188.54 7.81,-55.35 3.44,-105.86 -16.54,-153.67 -6.65,-15.88 -15.85,-33.42 -25.62,-47.19 -6.09,-8.6 -25.26,-32.93 -32.45,-38.9 -24.52,-20.3 -20.85,-20.09 -51.38,-38.9 -11.75,-7.23 -24.21,-13.85 -37.19,-18.15 -9.51,-3.14 -18.19,-6.24 -27.79,-8.61 -60.62,-14.97 -101.27,-11.08 -160.08,8.25 -18.47,6.07 -41.83,19.27 -57.63,31.2 -4.03,3.05 -6.97,4.86 -11.04,7.88l-28.08 25.8c-7.65,9.95 -11.53,12.66 -24.14,29.74 -41.81,56.64 -53.16,133.22 -43.38,202.55 6.34,44.89 22.51,94.51 45.68,133.44 18.53,31.12 22.58,35.21 45.13,64.07l44.18 44.65c27.81,24.49 99.53,78.28 122.67,78.28z"/>
  </g>
  <g id="Dourados">
   <path fill="white" stroke="white" stroke-width="20" stroke-miterlimit="22.9256" d="M5972.1 10212.48c0,-26.2 6.99,-45.54 25.1,-63.72 38.49,-38.64 106.38,-28.75 131.68,21.97 32.49,65.12 -24.14,133.87 -91.91,119.59 -12.04,-2.54 -31.09,-12.8 -39.79,-21.37 -8.65,-8.5 -11.68,-13.76 -16.85,-23.93 -4.18,-8.24 -8.23,-20.79 -8.23,-32.54z"/>
   <path fill="black" d="M5972.1 10212.48c0,-26.2 6.99,-45.54 25.1,-63.72 38.49,-38.64 106.38,-28.75 131.68,21.97 32.49,65.12 -24.14,133.87 -91.91,119.59 -12.04,-2.54 -31.09,-12.8 -39.79,-21.37 -8.65,-8.5 -11.68,-13.76 -16.85,-23.93 -4.18,-8.24 -8.23,-20.79 -8.23,-32.54zm83 369.87c20,0 90.69,-49.99 111.01,-68.1 25.03,-22.31 41.79,-37.13 62.88,-63.8 45.17,-57.11 73.27,-114.12 83.77,-188.54 7.81,-55.35 3.44,-105.86 -16.54,-153.67 -6.65,-15.88 -15.85,-33.42 -25.62,-47.19 -6.09,-8.6 -25.26,-32.93 -32.45,-38.9 -24.52,-20.3 -20.85,-20.09 -51.38,-38.9 -11.75,-7.23 -24.21,-13.85 -37.19,-18.15 -9.51,-3.14 -18.19,-6.24 -27.79,-8.61 -60.62,-14.97 -101.27,-11.08 -160.08,8.25 -18.47,6.07 -41.83,19.27 -57.63,31.2 -4.03,3.05 -6.97,4.86 -11.04,7.88l-28.08 25.8c-7.65,9.95 -11.53,12.66 -24.14,29.74 -41.81,56.64 -53.16,133.22 -43.38,202.55 6.34,44.89 22.51,94.51 45.68,133.43 18.53,31.13 22.58,35.22 45.13,64.08l44.18 44.65c27.81,24.49 99.53,78.28 122.67,78.28z"/>
  </g>
 </g>
</svg>
